<svg height="376" width="872" xmlns="http://www.w3.org/2000/svg"><radialGradient id="b" cx="41.245%" cy="46.854%" gradientTransform="matrix(-.1331 -.9911 2.41166 -.32387 -.663 1.03)" r="24.452%"><stop offset="0" stop-color="#9680ff"/><stop offset="1" stop-opacity="0"/></radialGradient><mask id="a" fill="#fff"><path d="M0 0h1029v536H0z" fill-rule="evenodd"/></mask><g fill="none" fill-rule="evenodd" mask="url(#a)" transform="translate(-110)"><g transform="translate(110 -257)"><circle cx="437.5" cy="437.5" fill="url(#b)" fill-opacity=".4" r="437.5"/><path d="M442 424c0 25.957-20.819 47-46.5 47S349 449.957 349 424s20.819-47 46.5-47 46.5 21.043 46.5 47" fill="#fff"/><g fill="#bec4bc"><path d="M420 452.502a8.498 8.498 0 01-8.498 8.498c-4.694 0-8.502-3.805-8.502-8.498a8.504 8.504 0 018.502-8.502c4.693 0 8.498 3.808 8.498 8.502"/><path d="M425 447.998a4.002 4.002 0 01-4.002 4.002 4 4 0 114.002-4.002M436 440a6 6 0 11-12 0 6 6 0 0112 0m-66 12.5a3.5 3.5 0 11-7 0 3.5 3.5 0 017 0"/><path d="M426 438.5a2.5 2.5 0 11-4.999.001A2.5 2.5 0 01426 438.5"/></g></g></g></svg>