<svg width="285" height="327" viewBox="0 0 285 327" xmlns="http://www.w3.org/2000/svg" xmlns:xlink="http://www.w3.org/1999/xlink"><title>LOGO</title><defs><path d="M2.618 5.099C1.705 5.816.048 7.092.101 8.216c.079 1.6 1.717 2.14 3.39 2.279 6.583.54 10.18 4.705 12.14 10.724.38 1.168 1.005 2.603 2.285 2.615a2.989 2.989 0 0 0 1.705-.749 502.61 502.61 0 0 0 3.999-2.965l-1.387 1.175c4.664-2.54 5.65-9.041 3.125-13.568-2.193-3.93-6.05-7.25-10.714-7.568-.28-.019-.557-.028-.83-.028-4.37 0-7.84 2.326-11.196 4.968z" id="a"/><path d="M22.218.787C16.755 3.588 6.817 9.017 2.754 13.292c-.456.459-.865.964-1.222 1.507-2.912 4.641.867 8.03 4.082 10.53 2.537 1.974 7.139 1.728 11.083 1.1 2.17-.346 9.019-4.515 10.465-8.702 2.333-6.756.795-9.944-.664-13.605-.853-2.146-.983-3.919-2.431-3.919-.46 0-1.055.18-1.849.584z" id="c"/><path d="M10.631.573l-8.047.72c-.252.018-.5.068-.74.148-4.248 1.519.444 11.362.367 15.403 0 .765 1.6 2.624 2.173 2.682 4.049.412 11.203 1.86 15.252 2.271 1.529.155 3.27.239 4.383-.842.643-.644 5.444-13.994 7.07-15.75C34.947.985 15.086.817 11.165.573a3.681 3.681 0 0 0-.533 0z" id="e"/><path d="M4.132.449c-.879 1.398-2.48 4.343-2.912 4.746-1.279 1.307-.912 3.492-.046 5.13.866 1.639 3.62 3.414 4.02 5.202.492 2.21-1.94 4.116-2.879 6.17-1.325 2.907 8.953 8.46 10.79 8.831 1.219.247 20.954-4.59 18.803-10.735-1.456-4.162-5.621-7.497-12.304-12.55C18.238 6.212 7.57.22 4.752.22c-.307 0-.522.072-.62.229z" id="g"/><path d="M5.742 4.961C2.446 6.89.639 10.837.547 14.693c-.046 1.974 5.801 9.462 7.034 10.962 3.349 4.073 6.27 3.409 11.669 0 7.39-4.605 6.888-4.85 4.937-9.58a3.516 3.516 0 0 0-.27-.527L15.162 1.566C14.637.804 14.007.497 13.307.497 11.116.497 8.24 3.5 5.742 4.961z" id="i"/><path d="M16.13.306C8.473.857 2.5 5.029 1.847 5.793A6.721 6.721 0 0 0 .443 10.02c-.13 4.131 3.97 6.763 5.302 10.63 1.331 3.866.73 10.23 4.647 9.347 2.579-.552 8.938-3.475 9.995-5.98C22 20.132 18.15.304 16.153.305h-.023z" id="k"/><path d="M18.807.475C14.39.923 8.099 2.223 4.063 5.956 1.96 7.906.527 19.533.476 21.34c-.142 5.41 2.236 7.608 6.06 8.368 3.11.65 9.27 1.606 11.898-1.339 2.629-2.945 3.529-17.179 3.779-24.175.073-2.06-1.105-3.738-3.044-3.738-.119 0-.239.006-.362.019z" id="m"/><path d="M13.563 1.341c-3.177 1.592-8.633 12.875-10.8 17.176C.998 22.03-.787 27.025.54 30.75c1.57 4.413 2.497 5.946 3.742 5.84 5.317-.548 7.623-6.196 10.272-10.08 3.068-4.486 3.945-6.673 6.569-10.511 2.274-3.303 8.48-14.031 4.637-14.533-2.468-.323-4.897-1.234-7.54-1.234-1.471 0-3.01.283-4.657 1.108z" id="o"/><path d="M18.325.789l-7.712 4.532C7.653 6.54 2.987 10.237.365 13.048c-.113.124 0 7.336 0 7.466 0 5.869 11.104 2.74 15.929.652 2.316-1.01 7.905-4.76 11.999-7.708 2.184-1.57 2.078-2.08.545-4.648-1.248-2.094-2.397-4.598-4.36-6.521C23.081.917 21.606.623 20.391.623c-.86 0-1.589.147-2.067.166z" id="q"/><path d="M4.447 5.125a8.044 8.044 0 0 0-3.66 4.108c-.635 1.64-1.676 8.42 7.44 14.39a16.244 16.244 0 0 0 8.38 3.256c3.036.28 2.8-5.965 4.446-8.559a14.832 14.832 0 0 1 3.615-3.656 6.998 6.998 0 0 0 .73-10.028 27.445 27.445 0 0 0-2.236-2.257A7.417 7.417 0 0 0 18.486.47C11.721.852 7.553 3.49 4.446 5.125z" id="s"/><path d="M9.995 1.4c-1.74.9-2.042.875-2.09.851-.006-.002-.009-.005-.01-.006.004.013.02.202-1.037 1.407-2.05 2.344-1.543 1.459-4.647 4.245s-2.809 3.177 10.997 13.952c2.334 1.823 5.554 3.782 8.536 4.518 2.038.502 2.475.65 2.745-.32.752-2.76.642-1.06.5-4.693-.121-3.737-.256-7.525-1.362-11.068-.559-1.803-2.75-4.674-4.782-7.063A7.234 7.234 0 0 0 13.28.603a7.18 7.18 0 0 0-3.285.797zm-2.1.845v-.002.002z" id="u"/><path d="M14.75.215C11.382.306 5.182 4.622 2.13 9.023.605 11.224-.567 12.871.841 15.156c2.15 3.522 5.405 7.344 10.378 11.575 1.455 1.237 3.673-1.953 5.478-3.808 4.562-4.7 3.086-9.068 3.255-10.521C21.2 1.388 19.056.096 16.705.096c-.659 0-1.333.102-1.955.119z" id="w"/><path d="M16.333.19C10.71.51 4.117 2.064 1.143 5.6c-1.766 2.098-.431 5.044.394 7.364.134.372.814 1.307 1.01 1.745 2.23 4.866 7.741 7.13 12.618 5.181 1.924-.751 3.67-2.3 6.053-3.672 3.92-2.254 6.467-5.992 5.597-9.605-.836-3.47-5.15-6.439-9.889-6.44-.197 0-.394.006-.593.016z" id="y"/><path d="M12.123.04c-1.059.1-2.08.44-2.986.996C5.999 4.619 1.932 7.833.257 13.112c-1.404 5.952 3.639 10.795 9.084 11.534 1.325.218 2.334.383 3.356.482 2.514.795 5.226.691 7.673-.29 8.3-4.151 4.002-14.676 0-20.72a8.418 8.418 0 0 0-2.195-2.356A8.924 8.924 0 0 0 12.123.04z" id="A"/><path d="M14.857.091c-3.006.124-6.087.261-8.87 1.39C3.2 2.607.736 4.948.3 7.896c-.435 2.947 1.179 3.911 4.921 6.677l15.366 7.036c2.819 1.062 5.657 2.738 8.597 2.086a3.673 3.673 0 0 0 2.43-1.552c.393-.847.539-1.783.421-2.706-.12-3.423-.24-6.899-1.271-10.172-1.031-3.273-3.087-6.385-6.18-7.93C22.441.263 20.025.02 17.597.02c-.916 0-1.834.034-2.74.071z" id="C"/><path d="M.347 6.762c-.012.045.347 2.297 3.731 6.948 2.405 3.3 2.594 4.535 5.852 7.412 2.102 1.846 5.548.553 6.811-1.93 1.484-2.857 1.332-17.12-1.503-18.22-.952-.374-2.016-.54-3.128-.54C7.215.432 1.412 3.663.347 6.762z" id="E"/><path d="M5.113 1.488c-1.091.73-3.497 1.856-4.023 3.076-1.828 4.235.905 15.99 4.86 18.416 3.957 2.427 10.905-1.34 12.634-3.712 1.729-2.373-1.017-8.505-1.662-9.705-1.416-2.627-2.893-5.361-5.22-7.157C10.268 1.298 9.03.586 7.716.586c-.817 0-1.662.275-2.603.902z" id="G"/><path d="M2.706 1.52A6.324 6.324 0 0 0 1.36 4.5c-.833 3.263-1.671 6.62-.7 9.985.337 1.16.725 1.059 1.74 1.699 3.997 2.503 9.15 5.702 12.65 3.713 2.934-1.667 10.386-8.979 10.386-8.979 4.155-5.284-3.208-7.205-5.133-7.85C11.08-.038 13.182.697 6.76.38a10.668 10.668 0 0 0-.535-.013c-1.289 0-2.626.247-3.518 1.154z" id="I"/><path d="M12.073.708a9.812 9.812 0 0 0-2.16 1.653C8.569 3.687 7.31 5.218 5.518 6.26a14.547 14.547 0 0 0-4.171 4.343C.38 12.25-.08 14 .38 15.576c3.698 7.321 13.032 7.321 20.113 9.619h.014c2.412.303 4.695-1.128 5.39-3.378 2.352-7.772-.812-16.934-8.141-20.923A8.924 8.924 0 0 0 14.73.38c-.896 0-1.79.11-2.657.328z" id="K"/><path d="M1.372 5.041c-2.11 4.102-.706 8.21.554 12.457.313 1.2.653 2.406 1.064 3.6.205.825.49 1.632.848 2.406.235.458 2.044.287 4.387-.266a63.337 63.337 0 0 0 6.978-2.54c2.355-1.043 4.177-2.966 5.053-5.333l.026.006c.052-2.774.248-3.81-.091-6.647a16.22 16.22 0 0 0-.542-2.718C18.245 2.065 14.677.288 10.945.288 7.288.287 3.471 1.993 1.372 5.04z" id="M"/><path d="M4.283.769C-.267 12.519-.027 15.682.242 16.917c.391 1.787 1.684 3.649 3.427 3.561l2.865-.155c3.97-.58 8.689.182 10.406-2.3 2.206-3.197 3.225-8.02 3.342-12.175.04-1.531-1.573-3.865-3.029-4.047C11.904 1.135 8.01.05 5.93.05c-.892 0-1.451.2-1.647.718z" id="O"/><path d="M15.437 1.682C4.644 16.087.3 27.73.573 30.102c.44 3.602 10.087 3.463 13.099 2.278 2.851-1.132 5.037-7.047 6.123-9.935 2.145-5.669 4.144-5.861 6.715-10.305 1.693-2.927-.62-5.16-2.124-6.067C20.986 4.031 19.436.2 17.535.2c-.633 0-1.306.425-2.098 1.482z" id="Q"/><path d="M15.436.14C13.643.33 4.586 1.19.404 6.74c-1.119 1.546 2.117 9.22 3.97 13.628 1.687 4.006 2.21 6.498 3.903 6.905 2.13.528 6.114-2.861 9.17-5.83 1.29-1.253 3.005-1.47 3.865-3.034 2.064-3.726.701-2.728.08-6.906C19.88 1.224 17.872.063 16.321.063c-.317 0-.615.048-.886.078z" id="S"/><path d="M6.379.226C4.47.674 2.855 1.97 1.969 3.761.48 6.676-.26 9.557 2.097 11.191a38.278 38.278 0 0 1 10.947 11.677c.48.833 1.063 1.596 1.734 2.275 4.826 4.668 8.613-.054 11.959-3.861 2.098-2.388 1.435-2.242 2.877-4.436.43-.647 2.131-5.669-7.177-11.804 0 0-7.723-4.987-14.12-4.987-.664-.001-1.313.053-1.938.171z" id="U"/><path d="M12.455.605C9.938 1.049 8.078 3.14 6.42 5.108l-4.305 5.115a7.465 7.465 0 0 0-1.685 5.783 7.508 7.508 0 0 0 3.142 5.155c6.647 4.548 12.747 5.352 18.354 2.618a8.668 8.668 0 0 0 4.623-5.7 8.573 8.573 0 0 0-1.443-7.167l-2.465-3.3a22.541 22.541 0 0 0-4.13-5.077C17.098 1.337 15.304.51 13.496.51c-.347 0-.695.03-1.04.095z" id="W"/><path d="M4.7.12C2.277.752.095.978.178 3.634c0 .067-.108 6.057-.165 9.504-.03 1.384.75 2.646 1.966 3.182 4.364 1.883 13.751 2.07 15.654 2.316.78.1 3.806.112 4.77-1.611 2.48-3.328 1.11-12.646-.33-12.432C18.086 2.4 8.576.053 5.423.053c-.304 0-.547.022-.723.067z" id="Y"/><path d="M2.187 2.915c-4.275 7.168.065 12.932.065 12.932 2.075 2.463 4.49 3.76 8.412 2.662 2.462-.699 4.95-2.176 6.035-4.486.549-1.373.823-2.844.806-4.326.118-2.25.23-2.662-.412-4.779C16.45 2.802 14.906.925 12.707.48c-.316-.063-.758-.094-1.281-.094-2.886 0-8.292.936-9.24 2.53z" id="aa"/><path d="M5.997.691a14.029 14.029 0 0 0-4.255 5.517A14.759 14.759 0 0 0 .72 9.559c-1.647 8.692 8.047 15.715 15.425 14.346a9.46 9.46 0 0 0 3.162-1.48c8.156-6.984-2.23-16.112-7.07-21.03A4.46 4.46 0 0 0 9.37.255a8.754 8.754 0 0 0-3.374.437z" id="ac"/><path d="M8.676.89C8.61.91 4.4 3.163 2.8 9.185 1.658 13.465.627 22.825.398 27.632c-.15 3.112 2.402 5.84 5.288 5.509 3.296-.384 6.482-9.763 7.26-10.18.136-.09 1.774-2.267 2.342-3 1.965-2.533 6.215-7.12 4.818-11.276C18.496 3.877 14.545.183 11.09.183c-.848 0-1.668.223-2.414.707z" id="ae"/><path d="M8.026.967C5.134 2.317 2.07 3.89.423 7.12c-.972 1.915 1.423 4.364 1.94 5.62l3.307 8.416c.609 1.552 2.065 4.323 2.594 6.093.048.183.137.354.258.5l.04.013c1.396 1.56 3.778 1.276 5.2-.553 2.296-2.98 6.424-9.488 7.59-14.094.601-2.376 1.197-4.968.382-7.107-.899-2.428-3.327-3.474-5.53-4.316-1.725-.66-3.576-1.315-5.413-1.315a6.44 6.44 0 0 0-2.765.591z" id="ag"/><path d="M8.617 1.376c-1.795 1.289-6.19 8.385-6.855 9.733-2.899 5.862-.758 10.603 4.216 9.39 0 0 11.822-1.93 12.746-10.388a10.924 10.924 0 0 0-1.177-6.037c-1.232-2.75-3.513-3.64-5.54-3.64-1.39 0-2.66.418-3.39.942z" id="ai"/><path d="M10.55 11.899C3.517 19.552 0 29.465 0 41.636c-.008 12.572 3.353 22.646 10.086 30.221 6.732 7.576 16.162 11.364 28.29 11.364 11.878 0 21.234-3.751 28.066-11.253 6.833-7.501 10.25-17.611 10.25-30.332-.005-12.768-3.36-22.828-10.067-30.181C59.92 4.1 50.503.425 38.375.425h-.02C26.847.425 17.577 4.25 10.55 11.899zm8.83 29.737h.007c-.013-8.198 1.695-14.582 5.124-19.152 3.43-4.569 8.05-6.854 13.864-6.854 12.638 0 18.956 8.669 18.956 26.006 0 8.447-1.704 14.955-5.112 19.525-3.407 4.57-8.018 6.854-13.83 6.854-12.673 0-19.009-8.793-19.009-26.379z" id="ak"/><path d="M18.946 7.296V1.952H.46V112.59h18.473V79.4a35.889 35.889 0 0 0 15.892 3.489c12.09.025 21.622-3.473 28.6-10.498C70.401 65.365 73.89 55.345 73.89 42.33c0-27.906-12.62-41.86-37.86-41.86-6.756 0-12.45 2.275-17.084 6.827zm-.013 55.846v-41.79c3.45-3.461 7.393-5.194 11.833-5.199 8.528 0 14.64 1.918 18.336 5.753 3.696 3.836 5.544 10.455 5.544 19.857 0 8.807-1.861 15.253-5.583 19.335-3.721 4.083-9.847 6.124-18.375 6.124l-.305.003c-4.167 0-8.212-1.44-11.45-4.083z" id="am"/><path d="M8.798 5.018l4.03 14.454c4.727-2.335 10.596-3.502 17.609-3.502 11.887 0 17.83 4.696 17.83 14.088a32.7 32.7 0 0 0-7.757-1.118c-12.799 0-22.66 2.614-29.58 7.841C4.01 42.01.554 49.225.563 58.43c.008 7.898 2.47 13.997 7.385 18.296 4.914 4.3 11.674 6.45 20.277 6.45 4.52.02 8.999-.869 13.168-2.614 4.2-1.743 7.145-4.012 8.837-6.809a15.207 15.207 0 0 0 4.29 6.47 10.361 10.361 0 0 0 7.236 2.979 20.777 20.777 0 0 0 6.488-.934c1.889-.62 3.605-2.27 5.148-4.954-4.277-2.73-6.417-9.414-6.417-20.047V40.2c0-15.452-2.835-25.948-8.504-31.489C52.803 3.17 43.877.4 31.692.4c-8.848 0-16.48 1.54-22.894 4.62zm10.394 52.64c0-9.64 7.36-14.46 22.083-14.46 2.412.105 4.81.428 7.163.967l-.033 7.456c0 11.177-5.595 16.767-16.785 16.767-8.286 0-12.428-3.577-12.428-10.73z" id="ao"/><path d="M.604 4.827v93.05c0 11.676 4.105 17.514 12.317 17.514 6.76.004 11.541-2.716 14.345-8.159-5.701-1.883-8.55-7.72-8.55-17.514V.378L.603 4.827z" id="aq"/></defs><g fill="none" fill-rule="evenodd"><g transform="translate(158.035 41.82)"><mask id="b" fill="#fff"><use xlink:href="#a"/></mask><path fill="#A89F74" mask="url(#b)" d="M-3.233 27.009h33.276V-3.044H-3.233z"/></g><g transform="translate(100.188 3.217)"><mask id="d" fill="#fff"><use xlink:href="#c"/></mask><path fill="#826793" mask="url(#d)" d="M-2.798 30.217H31.65V-3.13H-2.798z"/></g><g transform="translate(130.718)"><mask id="f" fill="#fff"><use xlink:href="#e"/></mask><path fill="#7F9B4E" mask="url(#f)" d="M-3.151 25.105h37.949v-27.76h-37.95z"/></g><g transform="translate(162.856 4.825)"><mask id="h" fill="#fff"><use xlink:href="#g"/></mask><path fill="#699DB7" mask="url(#h)" d="M-2.891 33.788h38.242V-3.03H-2.891z"/></g><g transform="translate(185.352 28.952)"><mask id="j" fill="#fff"><use xlink:href="#i"/></mask><path fill="#826793" mask="url(#j)" d="M-2.75 31.756h31.477V-2.793H-2.75z"/></g><g transform="translate(198.206 59.512)"><mask id="l" fill="#fff"><use xlink:href="#k"/></mask><path fill="#699DB7" mask="url(#l)" d="M-2.823 33.4h26.86V-3.017h-26.86z"/></g><g transform="translate(196.6 91.68)"><mask id="n" fill="#fff"><use xlink:href="#m"/></mask><path fill="#ED88A5" mask="url(#n)" d="M-2.744 33.642H25.43V-2.795H-2.744z"/></g><g transform="translate(185.352 127.066)"><mask id="p" fill="#fff"><use xlink:href="#o"/></mask><path fill="#F7B71B" mask="url(#p)" d="M-3.098 39.899h33.261V-3.07h-33.26z"/></g><g transform="translate(154.821 154.41)"><mask id="r" fill="#fff"><use xlink:href="#q"/></mask><path fill="#699DB7" mask="url(#r)" d="M-3.003 27.152h36.286v-29.79H-3.003z"/></g><g transform="translate(108.222 123.85)"><mask id="t" fill="#fff"><use xlink:href="#s"/></mask><path fill="#A89F74" mask="url(#t)" d="M-2.786 30.068H30.35V-2.71H-2.786z"/></g><g transform="translate(98.581 151.193)"><mask id="v" fill="#fff"><use xlink:href="#u"/></mask><path fill="#22B289" mask="url(#v)" d="M-2.608 30.016h30.913V-2.652H-2.608z"/></g><g transform="translate(84.12 130.283)"><mask id="x" fill="#fff"><use xlink:href="#w"/></mask><path fill="#699DB7" mask="url(#x)" d="M-3.159 30.264h26.848V-3.16H-3.159z"/></g><g transform="translate(98.581 104.548)"><mask id="z" fill="#fff"><use xlink:href="#y"/></mask><path fill="#699DB7" mask="url(#z)" d="M-2.903 23.855h33.065V-3.093H-2.903z"/></g><g transform="translate(133.932 98.114)"><mask id="B" fill="#fff"><use xlink:href="#A"/></mask><path fill="#7F9B4E" mask="url(#B)" d="M-3.277 28.956h31.689V-3.29H-3.277z"/></g><g transform="translate(162.856 102.94)"><mask id="D" fill="#fff"><use xlink:href="#C"/></mask><path fill="#22B289" mask="url(#D)" d="M-3.115 27.103h38.539V-3.241h-38.54z"/></g><g transform="translate(129.111 62.729)"><mask id="F" fill="#fff"><use xlink:href="#E"/></mask><path fill="#F7B71B" mask="url(#F)" d="M-2.81 25.211h23.635V-2.785H-2.81z"/></g><g transform="translate(182.138 67.554)"><mask id="H" fill="#fff"><use xlink:href="#G"/></mask><path fill="#F7B71B" mask="url(#H)" d="M-2.814 27.115h25.285v-29.88H-2.814z"/></g><g transform="translate(95.367 56.295)"><mask id="J" fill="#fff"><use xlink:href="#I"/></mask><path fill="#22B289" mask="url(#J)" d="M-2.952 23.686h32.815V-2.8H-2.952z"/></g><g transform="translate(108.222 32.169)"><mask id="L" fill="#fff"><use xlink:href="#K"/></mask><path fill="#7F9B4E" mask="url(#L)" d="M-3.13 28.452h33.124V-2.837H-3.13z"/></g><g transform="translate(68.05 83.639)"><mask id="N" fill="#fff"><use xlink:href="#M"/></mask><path fill="#7F9B4E" mask="url(#N)" d="M-2.977 26.942H23.65V-2.886H-2.977z"/></g><g transform="translate(71.265 59.512)"><mask id="P" fill="#fff"><use xlink:href="#O"/></mask><path fill="#ED88A5" mask="url(#P)" d="M-3.145 23.853h26.692V-3.322H-3.145z"/></g><g transform="translate(77.692 24.127)"><mask id="R" fill="#fff"><use xlink:href="#Q"/></mask><path fill="#699DB7" mask="url(#R)" d="M-2.77 36.442h33.205V-3.111H-2.77z"/></g><g transform="translate(72.871 106.157)"><mask id="T" fill="#fff"><use xlink:href="#S"/></mask><path fill="#F7B71B" mask="url(#T)" d="M-3.134 30.508h28.853V-3.117H-3.134z"/></g><g transform="translate(154.821 123.85)"><mask id="V" fill="#fff"><use xlink:href="#U"/></mask><path fill="#ED88A5" mask="url(#V)" d="M-2.665 30.422h35.928V-3.28H-2.665z"/></g><g transform="translate(133.932 133.5)"><mask id="X" fill="#fff"><use xlink:href="#W"/></mask><path fill="#E15F3D" mask="url(#X)" d="M-2.888 28.569H30.05V-2.707H-2.888z"/></g><g transform="translate(127.505 162.452)"><mask id="Z" fill="#fff"><use xlink:href="#Y"/></mask><path fill="#ED88A5" mask="url(#Z)" d="M-3.16 22h30.104V-3.275H-3.159z"/></g><g transform="translate(92.154 82.03)"><mask id="ab" fill="#fff"><use xlink:href="#aa"/></mask><path fill="#A89F74" mask="url(#ab)" d="M-2.97 22.231h23.839V-2.943h-23.84z"/></g><g transform="translate(114.65 77.205)"><mask id="ad" fill="#fff"><use xlink:href="#ac"/></mask><path fill="#E15F3D" mask="url(#ad)" d="M-2.678 27.337h28.226V-3.026H-2.678z"/></g><g transform="translate(151.608 57.904)"><mask id="af" fill="#fff"><use xlink:href="#ae"/></mask><path fill="#826793" mask="url(#af)" d="M-2.872 36.416h26.519V-3.065H-2.872z"/></g><g transform="translate(137.146 27.343)"><mask id="ah" fill="#fff"><use xlink:href="#ag"/></mask><path fill="#E15F3D" mask="url(#ah)" d="M-3.114 32.064H25.44V-2.915H-3.114z"/></g><g transform="translate(162.856 80.422)"><mask id="aj" fill="#fff"><use xlink:href="#ai"/></mask><path fill="#E15F3D" mask="url(#aj)" d="M-2.871 24.062h24.967v-27H-2.871z"/></g><g transform="translate(.563 213.922)"><mask id="al" fill="#fff"><use xlink:href="#ak"/></mask><path fill="#E7E4D0" mask="url(#al)" d="M-3.268 86.487H79.96v-89.33H-3.268z"/></g><g transform="translate(87.333 213.922)"><mask id="an" fill="#fff"><use xlink:href="#am"/></mask><path fill="#E7E4D0" mask="url(#an)" d="M-2.782 115.844h79.914V-2.786H-2.782z"/></g><g transform="translate(169.283 213.922)"><mask id="ap" fill="#fff"><use xlink:href="#ao"/></mask><path fill="#E7E4D0" mask="url(#ap)" d="M-2.708 86.47h79.37V-2.869h-79.37z"/></g><g transform="translate(257.66 181.753)"><mask id="ar" fill="#fff"><use xlink:href="#aq"/></mask><path fill="#E7E4D0" mask="url(#ar)" d="M-2.573 118.644h33.015V-2.876H-2.573z"/></g><g fill="#A89F74"><path d="M123.001 315.461c0 .858-.256 1.594-.768 2.207-.512.615-1.252 1.06-2.22 1.338v.057c2.258.29 3.386 1.38 3.386 3.27 0 1.286-.498 2.297-1.494 3.034-.996.737-2.379 1.106-4.149 1.106-.728 0-1.402-.054-2.021-.16-.62-.107-1.29-.303-2.013-.587v-3.1a7.898 7.898 0 0 0 1.81.685c.613.149 1.179.222 1.696.222.802 0 1.387-.115 1.754-.345.367-.229.55-.59.55-1.082 0-.378-.095-.67-.287-.874-.19-.205-.5-.359-.925-.463-.425-.104-.98-.156-1.665-.156h-.832v-2.807h.851c1.856 0 2.784-.486 2.784-1.456 0-.365-.137-.636-.411-.813-.275-.176-.643-.265-1.106-.265-.864 0-1.757.297-2.682.889l-1.518-2.495c.716-.504 1.448-.863 2.198-1.077.749-.215 1.607-.322 2.575-.322 1.4 0 2.499.283 3.294.851.795.566 1.193 1.348 1.193 2.343M137.433 320.632l-.583-2.268c-.136-.505-.3-1.157-.495-1.958-.194-.8-.322-1.373-.384-1.72-.055.322-.165.852-.328 1.588-.164.738-.526 2.19-1.087 4.358h2.877zm1.425 5.652l-.667-2.59h-4.394l-.684 2.59h-4.015l4.413-13.875h4.874l4.469 13.875h-3.996zM155.814 312.466v8.317c0 1.809-.5 3.208-1.503 4.201-1.002.993-2.446 1.49-4.333 1.49-1.845 0-3.262-.483-4.251-1.447-.99-.964-1.485-2.35-1.485-4.16v-8.401h3.672v8.109c0 .976.179 1.686.537 2.126.357.442.885.662 1.582.662.746 0 1.287-.218 1.623-.656.336-.438.504-1.156.504-2.151v-8.09h3.654zM168.257 317.23c.777 0 1.479.183 2.104.552.626.368 1.113.89 1.463 1.564.348.674.522 1.453.522 2.335 0 1.544-.455 2.728-1.364 3.554-.91.826-2.287 1.238-4.13 1.238-1.58 0-2.869-.249-3.868-.746v-3.063a9.62 9.62 0 0 0 1.818.624c.675.164 1.256.246 1.744.246.678 0 1.199-.147 1.563-.44.364-.293.546-.726.546-1.3 0-.53-.185-.942-.555-1.238-.37-.296-.932-.444-1.684-.444-.573 0-1.193.11-1.86.33l-1.34-.68.508-7.296h7.716v3.11h-4.608l-.166 1.823c.481-.094.823-.146 1.027-.156.203-.009.391-.014.564-.014M186.472 320.632l-.583-2.268c-.135-.505-.3-1.157-.494-1.958a32.04 32.04 0 0 1-.384-1.72c-.056.322-.165.852-.329 1.588-.163.738-.526 2.19-1.086 4.358h2.876zm1.426 5.652l-.667-2.59h-4.394l-.685 2.59h-4.015l4.413-13.875h4.875l4.468 13.875h-3.995zM196.704 319.356c0 2.672.909 4.007 2.728 4.007.925 0 1.612-.324 2.06-.973.446-.65.67-1.66.67-3.034 0-1.38-.227-2.4-.68-3.058-.453-.658-1.13-.987-2.03-.987-1.833 0-2.748 1.348-2.748 4.045m9.307 0c0 2.325-.559 4.092-1.675 5.303-1.116 1.209-2.75 1.814-4.904 1.814-2.12 0-3.747-.608-4.88-1.824-1.131-1.216-1.696-2.987-1.696-5.312 0-2.3.562-4.056 1.688-5.27 1.125-1.213 2.762-1.82 4.907-1.82 2.153 0 3.784.603 4.894 1.807 1.11 1.203 1.666 2.97 1.666 5.302M216.01 311.36c-.517-.303-1.137-.775-1.859-1.418-.771.674-1.369 1.147-1.794 1.418h-2.387v-.275c.425-.409.87-.89 1.336-1.446.466-.554.816-1.014 1.05-1.38h3.636c.58.864 1.369 1.806 2.368 2.826v.275h-2.35zm3.942 1.106v8.317c0 1.809-.502 3.208-1.504 4.201-1.002.993-2.447 1.49-4.334 1.49-1.844 0-3.26-.483-4.251-1.447-.99-.965-1.485-2.35-1.485-4.16v-8.401h3.673v8.109c0 .976.179 1.686.537 2.126.357.442.884.662 1.582.662.745 0 1.287-.218 1.624-.656.336-.438.503-1.156.503-2.151v-8.09h3.655zM228.759 326.284h-3.654v-10.765H221.8v-3.053h10.251v3.053h-3.293zM247.825 326.284h-9.815v-2.457l3.302-3.413c.943-1.008 1.56-1.696 1.85-2.065.29-.369.492-.685.606-.95.114-.264.171-.541.171-.832 0-.359-.114-.642-.342-.85-.229-.208-.549-.312-.962-.312-.425 0-.855.125-1.29.373-.435.25-.927.616-1.476 1.102l-2.008-2.401c.697-.636 1.284-1.092 1.758-1.366a6.176 6.176 0 0 1 1.55-.628 7.495 7.495 0 0 1 1.882-.218c.876 0 1.657.158 2.345.472.688.316 1.221.765 1.6 1.347.38.583.57 1.237.57 1.962 0 .542-.067 1.043-.199 1.502-.133.46-.338.912-.615 1.357a9.361 9.361 0 0 1-1.106 1.403c-.46.492-1.438 1.424-2.937 2.799v.093h5.116v3.082zM252.848 319.394c0 1.562.095 2.637.287 3.222.19.587.512.88.962.88.457 0 .778-.303.967-.908.187-.605.282-1.67.282-3.194 0-1.532-.095-2.605-.287-3.219-.19-.614-.512-.922-.962-.922-.45 0-.771.297-.962.889-.192.593-.287 1.676-.287 3.252m6.133 0c0 2.444-.4 4.235-1.202 5.373-.802 1.137-2.03 1.706-3.682 1.706-1.616 0-2.834-.594-3.654-1.782-.82-1.187-1.23-2.954-1.23-5.297 0-2.457.4-4.26 1.202-5.407.802-1.147 2.03-1.72 3.682-1.72 1.61 0 2.826.597 3.65 1.791.823 1.194 1.234 2.972 1.234 5.336M268.362 326.284h-3.71v-7.316c0-.888.02-1.701.056-2.438-.228.284-.512.58-.851.888l-1.536 1.295-1.897-2.382 4.645-3.865h3.293v13.818zM276.318 314.961c-.315 0-.58.093-.796.279a.91.91 0 0 0-.324.723c0 .541.361 1.02 1.083 1.436.438-.258.737-.495.897-.708.16-.215.24-.457.24-.728a.909.909 0 0 0-.324-.728 1.162 1.162 0 0 0-.776-.274m-1.591 7.532c0 .391.136.705.407.94.271.238.647.356 1.128.356 1.086 0 1.629-.407 1.629-1.22 0-.308-.12-.612-.357-.912-.237-.3-.661-.635-1.272-1.006-.549.296-.941.594-1.18.893-.237.3-.355.616-.355.95m1.61-10.227c1.424 0 2.533.293 3.325.879.793.586 1.189 1.418 1.189 2.495 0 .731-.187 1.373-.56 1.924-.373.55-.963 1.031-1.771 1.44.998.581 1.703 1.159 2.114 1.736.41.576.614 1.198.614 1.866 0 1.229-.434 2.18-1.304 2.855-.87.674-2.085 1.011-3.644 1.011-1.592 0-2.81-.33-3.655-.988-.845-.658-1.267-1.606-1.267-2.84 0-.8.188-1.482.564-2.046.376-.564 1.008-1.076 1.896-1.536-.715-.491-1.238-1.02-1.567-1.584a3.607 3.607 0 0 1-.495-1.856c0-1.06.403-1.883 1.212-2.472.807-.59 1.924-.884 3.348-.884"/></g></g></svg>