<svg height="73" viewBox="0 0 72 73" width="72" xmlns="http://www.w3.org/2000/svg"><g fill="none" fill-rule="evenodd"><path d="M36.216 72.295C16.518 72.295.494 56.281.494 36.597c0-19.685 16.024-35.7 35.722-35.7s35.722 16.015 35.722 35.7c0 19.684-16.024 35.698-35.722 35.698zm0-68.684c-18.2 0-33.007 14.797-33.007 32.986 0 18.188 14.806 32.985 33.007 32.985 18.2 0 33.007-14.797 33.007-32.985 0-18.189-14.807-32.986-33.007-32.986z" fill="#689cb8"/><path d="M51.924 50.462a1.833 1.833 0 0 1-1.834 1.833h-8.467v-12.86h4.319l.647-5.012h-4.966v-3.199c0-1.45.403-2.44 2.485-2.44l2.656-.001V24.3c-.46-.062-2.036-.198-3.87-.198-3.828 0-6.45 2.336-6.45 6.624v3.696h-4.33v5.013h4.33v12.859H20.53a1.833 1.833 0 0 1-1.834-1.833V20.92c0-1.012.821-1.832 1.834-1.832H50.09c1.013 0 1.834.82 1.834 1.832z" fill="#699db7"/></g></svg>