<svg width="73" height="73" xmlns="http://www.w3.org/2000/svg"><g fill="#699DB7" fill-rule="evenodd"><path d="M36.608 72.295C16.91 72.295.885 56.281.885 36.597c0-19.685 16.026-35.7 35.723-35.7 19.698 0 35.722 16.015 35.722 35.7 0 19.684-16.024 35.698-35.722 35.698zm0-68.684C18.408 3.611 3.6 18.408 3.6 36.597c0 18.188 14.807 32.985 33.007 32.985 18.2 0 33.007-14.797 33.007-32.985 0-18.189-14.807-32.986-33.007-32.986z"/><path d="M49.628 19.088H24.332a3.938 3.938 0 0 0-3.945 3.933v25.297a3.939 3.939 0 0 0 3.945 3.933h25.296a3.939 3.939 0 0 0 3.944-3.933V23.021a3.938 3.938 0 0 0-3.944-3.933zm-5.389 5.18c0-.57.465-1.036 1.037-1.036h3.11c.574 0 1.038.465 1.038 1.037v3.109c0 .572-.464 1.036-1.037 1.036h-3.111a1.037 1.037 0 0 1-1.037-1.036v-3.11zm-7.22 5.077c3.524 0 6.381 2.85 6.381 6.362 0 3.515-2.857 6.364-6.382 6.364-3.523 0-6.381-2.849-6.381-6.364 0-3.512 2.858-6.362 6.381-6.362zm13.442 18.76c0 .572-.464 1.037-1.037 1.037H24.535a1.037 1.037 0 0 1-1.037-1.036V32.56h4.148c-.54.777-.723 2.227-.723 3.147 0 5.55 4.53 10.066 10.095 10.066 5.567 0 10.096-4.516 10.096-10.066 0-.92-.131-2.348-.8-3.147h4.147v15.546z"/></g></svg>