<svg width="29" height="27" xmlns="http://www.w3.org/2000/svg"><path d="M22.596 17.751c.873-2.05 1.31-3.574 1.31-4.57 0-.98-.525-1.508-1.575-1.581h-1.719c-1.214-.059-2.257-.637-3.13-1.736-.914-1.128-1.37-2.395-1.37-3.8 0-1.743.586-3.179 1.759-4.306C19.016.586 20.435 0 22.126 0c2.005 0 3.648.842 4.93 2.526C28.352 4.196 29 6.35 29 8.986c0 4.95-1.8 9.995-5.401 15.136C22.276 26.041 21.13 27 20.162 27c-1.105 0-1.657-.63-1.657-1.89 0-.483.32-1.156.961-2.02 1.146-1.538 2.19-3.318 3.13-5.339zM0 6.063c0-1.742.572-3.178 1.716-4.305C2.86.586 4.289 0 6.006 0c2.001 0 3.656.842 4.963 2.526 1.28 1.67 1.92 3.823 1.92 6.46 0 4.95-1.804 9.995-5.413 15.136C6.141 26.041 4.998 27 4.044 27c-1.075 0-1.613-.63-1.613-1.89 0-.483.3-1.156.898-2.02 1.566-2.11 2.853-4.621 3.861-7.536l.531-2.373c0-.98-.538-1.508-1.614-1.581H4.392c-1.144-.059-2.166-.637-3.064-1.736C.443 8.736 0 7.47 0 6.064z" fill="#699DB7"/></svg>