<svg width="872" height="376" xmlns="http://www.w3.org/2000/svg" xmlns:xlink="http://www.w3.org/1999/xlink"><defs><path id="a" d="M0 0h1029v536H0z"/><radialGradient cx="41.245%" cy="46.854%" fx="41.245%" fy="46.854%" r="24.452%" gradientTransform="matrix(-.1331 -.9911 2.41166 -.32388 -.662 1.029)" id="c"><stop stop-color="#9680FF" offset="0%"/><stop stop-opacity="0" offset="100%"/></radialGradient></defs><g transform="translate(-110)" fill="none" fill-rule="evenodd"><mask id="b" fill="#fff"><use xlink:href="#a"/></mask><g mask="url(#b)"><g transform="translate(110 -257)"><circle fill-opacity=".4" fill="url(#c)" cx="437.5" cy="437.5" r="437.5"/><path d="M442 424c0 25.957-20.819 47-46.5 47S349 449.957 349 424s20.819-47 46.5-47 46.5 21.043 46.5 47" fill="#FFF"/><path d="M420 452.502a8.498 8.498 0 0 1-8.498 8.498c-4.694 0-8.502-3.805-8.502-8.498a8.504 8.504 0 0 1 8.502-8.502c4.693 0 8.498 3.808 8.498 8.502" fill="#BEC4BC"/><path d="M425 447.998a4.002 4.002 0 0 1-4.002 4.002 4 4 0 1 1 4.002-4.002M436 440a6 6 0 1 1-12 0 6 6 0 0 1 12 0m-66 12.5a3.5 3.5 0 1 1-7 0 3.5 3.5 0 0 1 7 0" fill="#BEC4BC"/><path d="M426 438.5a2.5 2.5 0 1 1-4.999.001A2.5 2.5 0 0 1 426 438.5" fill="#BEC4BC"/></g></g></g></svg>