<svg viewBox="0 0 600 650" xmlns="http://www.w3.org/2000/svg"><clipPath id="a"><path clip-rule="evenodd" d="M325.7 145.11c-1.38 1.08-3.87 3-3.79 4.69.12 2.41 2.58 3.22 5.1 3.43 9.91.81 15.32 7.08 18.27 16.14.57 1.76 1.52 3.92 3.44 3.94a4.56 4.56 0 002.57-1.13q3-2.2 6-4.46l-2.09 1.76c7-3.82 8.5-13.6 4.7-20.42-3.3-5.91-9.1-10.91-16.12-11.39h-1.25c-6.53-.04-11.78 3.46-16.83 7.44z"/></clipPath><clipPath id="b"><path d="M82.4 74.49h431.95v496.67H82.4z"/></clipPath><clipPath id="c"><path d="M315.68 131.68h52.68v46.66h-52.68z"/></clipPath><clipPath id="d"><path d="M316.89 132.85h50.08v45.23h-50.08z"/></clipPath><clipPath id="e"><path d="M321.71 136.2h42.14v37.63h-42.14z"/></clipPath><clipPath id="f"><path clip-rule="evenodd" d="M268.13 80.52c-8.22 4.21-23.13 12.38-29.29 18.82a14.38 14.38 0 00-1.84 2.27c-4.38 7 1.31 12.08 6.14 15.85 3.82 3 10.75 2.6 16.68 1.65 3.27-.52 13.58-6.79 15.75-13.1 3.52-10.16 1.2-15-1-20.47-1.29-3.23-1.48-5.9-3.66-5.9a6.51 6.51 0 00-2.78.88z"/></clipPath><clipPath id="g"><path d="M229.9 74.49h52.68v51.17H229.9z"/></clipPath><clipPath id="h"><path d="M230.48 74.62h51.84v50.19h-51.84z"/></clipPath><clipPath id="i"><path d="M231.4 79.01h48.16v42.14H231.4z"/></clipPath><clipPath id="j"><path clip-rule="evenodd" d="M296.64 75.35l-12.11 1.09a4.65 4.65 0 00-1.11.22c-6.39 2.29.67 17.1.55 23.18 0 1.16 2.41 4 3.27 4 6.1.62 16.86 2.8 23 3.42 2.3.23 4.92.36 6.6-1.27 1-1 8.19-21.06 10.64-23.7 5.8-6.36-24.09-6.61-30-7h-.81z"/></clipPath><clipPath id="k"><path d="M275.05 69.98h58.7v43.65h-58.7z"/></clipPath><clipPath id="l"><path d="M275.9 70.5h57.12v41.78H275.9z"/></clipPath><clipPath id="m"><path d="M276.55 74.49h57.19v34.62h-57.19z"/></clipPath><clipPath id="n"><path clip-rule="evenodd" d="M335.23 82.43c-1.32 2.1-3.73 6.54-4.38 7.14-1.93 2-1.37 5.26-.07 7.73s5.45 5.13 6.05 7.82c.74 3.33-2.92 6.2-4.33 9.29-2 4.38 13.47 12.73 16.24 13.29 1.83.37 31.53-6.91 28.3-16.16-2.2-6.26-8.46-11.28-18.52-18.88-2.06-1.56-18.11-10.57-22.36-10.57-.46 0-.78.1-.93.34z"/></clipPath><clipPath id="o"><path d="M323.21 76h60.2v57.19h-60.2z"/></clipPath><clipPath id="p"><path d="M324.66 77.19h57.56v55.41h-57.56z"/></clipPath><clipPath id="q"><path d="M327.73 82.02h52.68v46.66h-52.68z"/></clipPath><clipPath id="r"><path clip-rule="evenodd" d="M371.51 125.53c-5 2.91-7.68 8.85-7.82 14.65-.06 3 8.74 14.24 10.59 16.5 5 6.13 9.44 5.13 17.56 0 11.12-6.93 10.37-7.3 7.43-14.42a5.85 5.85 0 00-.4-.79l-13.18-21a3.28 3.28 0 00-2.79-1.6c-3.3-.06-7.63 4.46-11.39 6.66z"/></clipPath><clipPath id="s"><path d="M357.83 113.62h49.67v52.68h-49.67z"/></clipPath><clipPath id="t"><path d="M358.73 113.86h47.37v52h-47.37z"/></clipPath><clipPath id="u"><path d="M362.34 118.14h40.64v45.15h-40.64z"/></clipPath><clipPath id="v"><path clip-rule="evenodd" d="M406.5 164.52c-11.53.83-20.52 7.11-21.5 8.26a10.07 10.07 0 00-2.11 6.36c-.2 6.22 6 10.18 8 16s1.1 15.4 7 14.07c3.88-.83 13.45-5.23 15-9 2.43-5.85-3.36-35.69-6.37-35.69z"/></clipPath><clipPath id="w"><path d="M377.39 158.78h42.14v55.69h-42.14z"/></clipPath><clipPath id="x"><path d="M377.97 159.52h40.43v54.81h-40.43z"/></clipPath><clipPath id="y"><path d="M381.91 163.29h34.62v48.16h-34.62z"/></clipPath><clipPath id="z"><path clip-rule="evenodd" d="M408.11 213.19c-6.65.68-16.12 2.63-22.2 8.25-3.16 2.94-5.32 20.44-5.39 23.16-.22 8.14 3.36 11.45 9.12 12.59 4.68 1 13.95 2.42 17.9-2s5.32-25.85 5.69-36.38c.11-3.1-1.66-5.63-4.58-5.63a4.89 4.89 0 00-.54.01z"/></clipPath><clipPath id="A"><path d="M374.38 206.94h45.15v57.19h-45.15z"/></clipPath><clipPath id="B"><path d="M375.67 208.27h42.4v54.84h-42.4z"/></clipPath><clipPath id="C"><path d="M378.9 212.96h34.62v46.66H378.9z"/></clipPath><clipPath id="D"><path clip-rule="evenodd" d="M383.28 267.75c-4.78 2.4-13 19.38-16.25 25.85-2.66 5.29-5.34 12.81-3.35 18.42 2.37 6.64 3.76 9 5.64 8.79 8-.83 11.47-9.33 15.46-15.18 4.61-6.75 5.93-10 9.88-15.81 3.43-5 12.77-21.12 7-21.88-3.71-.48-7.37-1.85-11.35-1.85a15.28 15.28 0 00-7.03 1.66z"/></clipPath><clipPath id="E"><path d="M357.83 261.12H409v64.72h-51.17z"/></clipPath><clipPath id="F"><path d="M358.21 261.12h50.06v64.67h-50.06z"/></clipPath><clipPath id="G"><path d="M360.84 265.64h46.66v55.69h-46.66z"/></clipPath><clipPath id="H"><path clip-rule="evenodd" d="M344.5 308.08l-11.61 6.82c-4.45 1.83-11.47 7.4-15.42 11.63-.17.18 0 11 0 11.23 0 8.84 16.71 4.13 24 1 3.49-1.53 11.9-7.17 18.06-11.61 3.29-2.36 3.13-3.13.82-7-1.87-3.15-3.6-6.92-6.56-9.82a8.37 8.37 0 00-6.15-2.5c-1.32 0-2.42.22-3.14.25z"/></clipPath><clipPath id="I"><path d="M311.17 301.76h57.19v46.66h-57.19z"/></clipPath><clipPath id="J"><path d="M312.4 302.92h54.61v44.84H312.4z"/></clipPath><clipPath id="K"><path d="M317.19 307.78h46.66v39.13h-46.66z"/></clipPath><clipPath id="L"><path clip-rule="evenodd" d="M253.48 268.61a12.06 12.06 0 00-5.51 6.18c-.95 2.47-2.52 12.67 11.2 21.66a24.47 24.47 0 0012.61 4.9c4.57.42 4.22-9 6.69-12.88a22.42 22.42 0 015.44-5.51 10.52 10.52 0 001.1-15.09 41.46 41.46 0 00-3.36-3.4 11.21 11.21 0 00-7-2.87c-10.22.58-16.5 4.55-21.17 7.01z"/></clipPath><clipPath id="M"><path d="M241.94 256.61h51.17v49.67h-51.17z"/></clipPath><clipPath id="N"><path d="M242.59 256.82h49.87v49.33h-49.87z"/></clipPath><clipPath id="O"><path d="M244.95 261.12h43.65v42.14h-43.65z"/></clipPath><clipPath id="P"><path clip-rule="evenodd" d="M247.32 304.15c-2.62 1.36-3.07 1.32-3.15 1.29s0 .3-1.56 2.11c-3.09 3.53-2.32 2.2-7 6.39s-4.22 4.78 16.56 21c3.51 2.75 8.35 5.69 12.84 6.8 3.07.76 3.73 1 4.13-.48 1.13-4.15 1-1.6.76-7.06-.19-5.63-.39-11.33-2.05-16.66-.85-2.72-4.14-7-7.2-10.63a10.87 10.87 0 00-13.32-2.75z"/></clipPath><clipPath id="Q"><path d="M226.89 297.24h48.16v51.17h-48.16z"/></clipPath><clipPath id="R"><path d="M228.35 298.06h46.53v49.17h-46.53z"/></clipPath><clipPath id="S"><path d="M229.9 301.76h40.64v42.14H229.9z"/></clipPath><clipPath id="T"><path clip-rule="evenodd" d="M232.71 270.9c-5.07.14-14.4 6.63-19 13.26-2.29 3.31-4.05 5.79-1.93 9.23 3.23 5.3 8.13 11.05 15.62 17.42 2.19 1.86 5.52-2.94 8.24-5.73 6.87-7.08 4.65-13.65 4.9-15.84 1.88-16.57-1.35-18.52-4.89-18.52-.99 0-2 .15-2.94.18z"/></clipPath><clipPath id="U"><path d="M204.31 265.64h42.14v51.17h-42.14z"/></clipPath><clipPath id="V"><path d="M205.76 265.82h40.41v50.3h-40.41z"/></clipPath><clipPath id="W"><path d="M208.83 270.15h34.62v43.65h-34.62z"/></clipPath><clipPath id="X"><path clip-rule="evenodd" d="M256.86 232.13c-8.46.48-18.39 2.82-22.86 8.14-2.66 3.16-.65 7.59.59 11.09.2.56 1.22 2 1.52 2.62a14.83 14.83 0 0019 7.8c2.9-1.13 5.52-3.46 9.11-5.53 5.9-3.39 9.73-9 8.42-14.45-1.25-5.22-7.75-9.69-14.88-9.69-.31 0-.6 0-.9.02z"/></clipPath><clipPath id="Y"><path d="M226.89 226.5h51.17v42.14h-51.17z"/></clipPath><clipPath id="Z"><path d="M227.91 227.19h49.77v40.56h-49.77z"/></clipPath><clipPath id="aa"><path d="M229.9 231.02h45.15v34.62H229.9z"/></clipPath><clipPath id="ab"><path clip-rule="evenodd" d="M303.73 222.22a10.45 10.45 0 00-4.5 1.5c-4.72 5.39-10.84 10.23-13.36 18.17-2.12 9 5.48 16.25 13.67 17.37 2 .32 3.51.57 5 .72a17.11 17.11 0 0011.55-.44c12.49-6.24 6-22.08 0-31.18a12.55 12.55 0 00-3.3-3.55 13.46 13.46 0 00-8-2.64c-.32 0-.69.02-1.06.05z"/></clipPath><clipPath id="ac"><path d="M279.56 215.97h49.67v51.17h-49.67z"/></clipPath><clipPath id="ad"><path d="M280.55 217.21h47.69v48.53h-47.69z"/></clipPath><clipPath id="ae"><path d="M282.57 221.99h46.66v40.64h-46.66z"/></clipPath><clipPath id="af"><path clip-rule="evenodd" d="M351.37 229.56c-4.52.19-9.16.39-13.35 2.09s-7.9 5.22-8.55 9.66 1.77 5.89 7.4 10.05L360 262c4.24 1.6 8.51 4.12 12.94 3.14a5.5 5.5 0 003.65-2.34 7.32 7.32 0 00.64-4.07c-.18-5.15-.36-10.38-1.91-15.31s-4.65-9.61-9.31-11.93a23.13 23.13 0 00-10.51-2c-1.38-.04-2.76.01-4.13.07z"/></clipPath><clipPath id="ag"><path d="M323.21 223.49h60.2v48.16h-60.2z"/></clipPath><clipPath id="ah"><path d="M324.32 224.54h58v45.67h-58z"/></clipPath><clipPath id="ai"><path d="M327.73 228.01h51.17v39.13h-51.17z"/></clipPath><clipPath id="aj"><path clip-rule="evenodd" d="M278.75 179.08c0 .07.52 3.46 5.61 10.46 3.62 5 3.91 6.82 8.81 11.15 3.16 2.78 8.35.84 10.25-2.9 2.24-4.3 2-25.77-2.26-27.42a12.71 12.71 0 00-4.71-.82c-7.37 0-16.1 4.87-17.7 9.53z"/></clipPath><clipPath id="ak"><path d="M273.54 163.29h36.12v43.65h-36.12z"/></clipPath><clipPath id="al"><path d="M274 164.71h35.57v42.14H274z"/></clipPath><clipPath id="am"><path d="M278.06 169.31h28.6v34.62h-28.6z"/></clipPath><clipPath id="an"><path clip-rule="evenodd" d="M365.73 178.41c-1.64 1.09-5.26 2.79-6.06 4.62-2.75 6.38 1.37 24.07 7.32 27.72s16.41-2 19-5.59-1.53-12.79-2.5-14.6c-2.13-3.95-4.35-8.07-7.85-10.77-2.16-1.67-4-2.74-6-2.74a7 7 0 00-3.91 1.36z"/></clipPath><clipPath id="ao"><path d="M353.31 170.82h39.13v46.66h-39.13z"/></clipPath><clipPath id="ap"><path d="M353.8 172h38.06v44.97H353.8z"/></clipPath><clipPath id="aq"><path d="M356.32 176.84h33.11v37.63h-33.11z"/></clipPath><clipPath id="ar"><path clip-rule="evenodd" d="M231.51 161.51a9.58 9.58 0 00-2 4.48c-1.26 4.91-2.52 10-1.06 15 .51 1.75 1.09 1.59 2.62 2.56 6 3.76 13.77 8.58 19 5.58 4.42-2.5 15.63-13.51 15.63-13.51 6.26-8-4.83-10.84-7.72-11.81-13.89-4.68-10.72-3.57-20.39-4.05h-.8a7.24 7.24 0 00-5.28 1.75z"/></clipPath><clipPath id="as"><path d="M222.37 154.26h51.17v40.64h-51.17z"/></clipPath><clipPath id="at"><path d="M223 155h49.39v39.87H223z"/></clipPath><clipPath id="au"><path d="M226.89 158.78h45.15v34.62h-45.15z"/></clipPath><clipPath id="av"><path clip-rule="evenodd" d="M265 124a14.69 14.69 0 00-3.25 2.49c-2 2-3.92 4.3-6.62 5.87a21.87 21.87 0 00-6.28 6.54c-1.45 2.48-2.14 5.11-1.45 7.48 5.56 11 19.61 11 30.27 14.48a7.47 7.47 0 008.11-5.09c3.54-11.69-1.22-25.48-12.25-31.49a13.69 13.69 0 00-4-.76H269a16.78 16.78 0 00-4 .48z"/></clipPath><clipPath id="aw"><path d="M241.94 118.14h51.17v48.16h-51.17z"/></clipPath><clipPath id="ax"><path d="M242.07 118.64h49.86v47.09h-49.86z"/></clipPath><clipPath id="ay"><path d="M246.45 122.65h43.65v39.13h-43.65z"/></clipPath><clipPath id="az"><path clip-rule="evenodd" d="M188.39 208c-3.17 6.17-1.06 12.36.83 18.75.48 1.81 1 3.62 1.61 5.42a19.7 19.7 0 001.27 3.62c.36.69 3.08.43 6.61-.4a97.5 97.5 0 0010.5-3.82 14.23 14.23 0 007.6-8c.08-4.18.37-5.74-.14-10a23.87 23.87 0 00-.81-4.09c-2.11-5.93-7.48-8.6-13.1-8.6s-11.21 2.49-14.37 7.12z"/></clipPath><clipPath id="aA"><path d="M181.73 194.9h40.64v46.66h-40.64z"/></clipPath><clipPath id="aB"><path d="M181.85 196.03h40.07v44.89h-40.07z"/></clipPath><clipPath id="aC"><path d="M184.74 199.41h33.11v37.63h-33.11z"/></clipPath><clipPath id="aD"><path clip-rule="evenodd" d="M197.61 165.22c-6.85 17.68-6.49 22.44-6.08 24.3.59 2.69 2.53 5.49 5.15 5.36l4.32-.23c6-.87 13.07.27 15.66-3.46 3.32-4.81 4.85-12.07 5-18.33.06-2.3-2.37-5.81-4.56-6.09-8-1-13.91-2.63-17-2.63-1.36 0-2.2.3-2.49 1.08z"/></clipPath><clipPath id="aE"><path d="M186.25 158.78h40.64v42.14h-40.64z"/></clipPath><clipPath id="aF"><path d="M186.43 159.06h40.17v40.9h-40.17z"/></clipPath><clipPath id="aG"><path d="M189.26 163.29h33.11v33.11h-33.11z"/></clipPath><clipPath id="aH"><path clip-rule="evenodd" d="M224.07 113.34c-16.24 21.68-22.78 39.2-22.37 42.77.66 5.42 15.18 5.21 19.71 3.43 4.29-1.71 7.58-10.61 9.22-14.95 3.23-8.54 6.24-8.83 10.11-15.51 2.54-4.41-.94-7.77-3.2-9.13-5.12-3.08-7.45-8.85-10.31-8.84-.96 0-1.97.64-3.16 2.23z"/></clipPath><clipPath id="aI"><path d="M195.28 106.1h52.68v60.2h-52.68z"/></clipPath><clipPath id="aJ"><path d="M196.67 106.12h49.98v59.53h-49.98z"/></clipPath><clipPath id="aK"><path d="M199.79 110.61h43.65v51.17h-43.65z"/></clipPath><clipPath id="aL"><path clip-rule="evenodd" d="M216.81 234.48c-2.7.28-16.33 1.57-22.62 9.93-1.68 2.33 3.19 13.88 6 20.51 2.54 6 3.33 9.78 5.88 10.39 3.21.8 9.2-4.3 13.8-8.77 1.94-1.89 4.52-2.21 5.82-4.57 3.1-5.61 1.05-4.1.12-10.39-2.28-15.47-5.3-17.22-7.63-17.22a10.76 10.76 0 00-1.37.12z"/></clipPath><clipPath id="aM"><path d="M187.75 229.51h45.15v51.17h-45.15z"/></clipPath><clipPath id="aN"><path d="M188.86 229.57h43.43v50.61h-43.43z"/></clipPath><clipPath id="aO"><path d="M192.27 234.03h37.63v42.14h-37.63z"/></clipPath><clipPath id="aP"><path clip-rule="evenodd" d="M326.52 261.23a10 10 0 00-6.64 5.32c-2.24 4.39-3.35 8.73.2 11.19a57.61 57.61 0 0116.47 17.57 17.08 17.08 0 002.61 3.43c7.27 7 13-.09 18-5.82 3.16-3.59 2.16-3.37 4.33-6.67.65-1 3.21-8.53-10.8-17.77 0 0-11.62-7.5-21.25-7.5a16.44 16.44 0 00-2.92.25z"/></clipPath><clipPath id="aQ"><path d="M312.67 255.1h55.69v52.68h-55.69z"/></clipPath><clipPath id="aR"><path d="M312.91 255.96h54.07v50.72h-54.07z"/></clipPath><clipPath id="aS"><path d="M315.68 259.62h49.67v46.66h-49.67z"/></clipPath><clipPath id="aT"><path clip-rule="evenodd" d="M304.23 276.33c-3.79.67-6.59 3.81-9.09 6.78l-6.48 7.7a11.25 11.25 0 002.2 16.46c10 6.84 19.18 8.05 27.62 3.94a13.07 13.07 0 007-8.58 12.91 12.91 0 00-2.17-10.79l-3.71-5a34.09 34.09 0 00-6.22-7.64 12 12 0 00-7.55-3 8.23 8.23 0 00-1.6.13z"/></clipPath><clipPath id="aU"><path d="M281.07 270.15h49.67v49.67h-49.67z"/></clipPath><clipPath id="aV"><path d="M281.13 271.34h49.57v47.07h-49.57z"/></clipPath><clipPath id="aW"><path d="M285.58 276.17h42.14v40.64h-42.14z"/></clipPath><clipPath id="aX"><path clip-rule="evenodd" d="M282.88 319.17c-3.65.95-6.93 1.3-6.81 5.29 0 .1-.16 9.12-.24 14.31a5.07 5.07 0 003 4.79c6.56 2.83 20.69 3.11 23.56 3.48 1.17.15 5.72.17 7.18-2.42 3.73-5 1.67-19-.5-18.71-6-3.3-20.31-6.84-25.06-6.84a5.11 5.11 0 00-1.13.1z"/></clipPath><clipPath id="aY"><path d="M270.53 313.8h46.66v39.13h-46.66z"/></clipPath><clipPath id="aZ"><path d="M271.05 314.06h45.31v38.04h-45.31z"/></clipPath><clipPath id="ba"><path d="M275.05 318.31h39.13v30.1h-39.13z"/></clipPath><clipPath id="bb"><path clip-rule="evenodd" d="M225.89 202.34c-6.43 10.79.1 19.46.1 19.46 3.12 3.71 6.76 5.66 12.66 4 3.71-1.05 7.45-3.28 9.09-6.75a17.25 17.25 0 001.21-6.51c.18-3.39.34-4-.62-7.19s-3.29-6-6.6-6.69a11 11 0 00-1.93-.14c-4.34.01-12.48 1.42-13.91 3.82z"/></clipPath><clipPath id="bc"><path d="M217.86 193.39h37.63v39.13h-37.63z"/></clipPath><clipPath id="bd"><path d="M218.13 193.52h35.88v37.89h-35.88z"/></clipPath><clipPath id="be"><path d="M219.36 197.91h30.1v30.1h-30.1z"/></clipPath><clipPath id="bf"><path clip-rule="evenodd" d="M265.49 191.73a21.09 21.09 0 00-6.41 8.3 22.85 22.85 0 00-1.54 5.05c-2.47 13.08 12.12 23.65 23.22 21.59a14.32 14.32 0 004.76-2.23c12.28-10.51-3.36-24.25-10.64-31.65a6.71 6.71 0 00-4.32-1.72h-.88a13.28 13.28 0 00-4.19.66z"/></clipPath><clipPath id="bg"><path d="M250.97 185.87h45.15v46.66h-45.15z"/></clipPath><clipPath id="bh"><path d="M252.43 186.14h42.48v45.7h-42.48z"/></clipPath><clipPath id="bi"><path d="M253.98 190.38h43.65v39.13h-43.65z"/></clipPath><clipPath id="bj"><path clip-rule="evenodd" d="M325.14 163c-.1 0-6.43 3.42-8.84 12.48-1.72 6.45-3.27 20.53-3.62 27.77-.22 4.68 3.62 8.79 8 8.29 5-.58 9.76-14.69 10.93-15.32.2-.14 2.67-3.41 3.52-4.52 3-3.81 9.36-10.71 7.25-17-2.42-7.23-8.37-12.79-13.56-12.79a6.59 6.59 0 00-3.68 1.09z"/></clipPath><clipPath id="bk"><path d="M306.65 155.77h42.14v61.71h-42.14z"/></clipPath><clipPath id="bl"><path d="M307.76 157.03h39.91v59.42h-39.91z"/></clipPath><clipPath id="bm"><path d="M311.17 161.79h34.62v51.17h-34.62z"/></clipPath><clipPath id="bn"><path clip-rule="evenodd" d="M302.4 117.1c-4.35 2-9 4.4-11.44 9.26-1.47 2.88 2.14 6.57 2.91 8.46l5 12.66c.92 2.34 3.11 6.51 3.91 9.18a2 2 0 00.38.75h.06c2.11 2.34 5.69 1.92 7.83-.83 3.46-4.49 9.67-14.28 11.42-21.22.91-3.57 1.81-7.47.58-10.69-1.35-3.66-5-5.23-8.32-6.5a23.64 23.64 0 00-8.15-2 9.63 9.63 0 00-4.18.93z"/></clipPath><clipPath id="bo"><path d="M285.58 110.61h43.65v54.18h-43.65z"/></clipPath><clipPath id="bp"><path d="M285.63 111.26h42.98v52.65h-42.98z"/></clipPath><clipPath id="bq"><path d="M288.59 115.13h36.12v45.15h-36.12z"/></clipPath><clipPath id="br"><path clip-rule="evenodd" d="M342 197.6c-2.7 1.94-9.31 12.62-10.32 14.65-4.36 8.82-1.14 16 6.35 14.13 0 0 17.79-2.9 19.18-15.63a16.44 16.44 0 00-1.77-9.09 8.76 8.76 0 00-8.34-5.47 9.2 9.2 0 00-5.1 1.41z"/></clipPath><clipPath id="bs"><path d="M323.21 190.38h39.13v42.14h-39.13z"/></clipPath><clipPath id="bt"><path d="M324.69 191.11h37.58v40.64h-37.58z"/></clipPath><clipPath id="bu"><path d="M326.22 194.9h31.61v34.62h-31.61z"/></clipPath><clipPath id="bv"><path clip-rule="evenodd" d="M113.92 459.12q0-18.51 7.71-28.82t20.88-10.3Q171 420 171 459.12q0 19.08-7.7 29.39t-20.81 10.32q-28.57 0-28.57-39.71zm-13.29-44.75q-15.88 17.28-15.88 44.75 0 28.39 15.18 45.49t42.58 17.1q26.82 0 42.24-16.93t15.43-45.66q0-28.81-15.15-45.42t-42.52-16.6q-26.01 0-41.88 17.27z"/></clipPath><clipPath id="bw"><path d="M79.39 392.06h126.43v135.46H79.39z"/></clipPath><clipPath id="bx"><path d="M79.83 392.18h125.26v134.45H79.83z"/></clipPath><clipPath id="by"><path d="M83.9 396.58h117.4v126.43H83.9z"/></clipPath><clipPath id="bz"><path clip-rule="evenodd" d="M243.84 491.49V428.6q7.78-7.82 17.81-7.83 19.26 0 27.6 8.66t8.34 29.88q0 19.89-8.4 29.11t-27.66 9.21h-.45a27.26 27.26 0 01-17.24-6.14zm0-84.05v-8H216v166.47h27.8V516a53.93 53.93 0 0023.92 5.25q27.3.06 43.05-15.8t15.75-45.24q0-63-57-63a35.31 35.31 0 00-25.66 10.23z"/></clipPath><clipPath id="bA"><path d="M210.33 392.06h121.91v179.1H210.33z"/></clipPath><clipPath id="bB"><path d="M211.16 392.27h120.27v178.55H211.16z"/></clipPath><clipPath id="bC"><path d="M214.85 396.58h112.88v170.07H214.85z"/></clipPath><clipPath id="bD"><path clip-rule="evenodd" d="M367.57 483.24q0-21.76 33.24-21.77a60.24 60.24 0 0110.78 1.46v11.22q0 25.23-25.26 25.24-18.75 0-18.76-16.15zM351.93 404l6.07 21.77q10.68-5.28 26.51-5.28 26.83 0 26.83 21.21a49 49 0 00-11.68-1.7q-28.91 0-44.52 11.8t-15.61 32.6q0 17.84 11.12 27.54t30.52 9.7a50.9 50.9 0 0019.83-3.93q9.48-3.93 13.3-10.25a22.88 22.88 0 006.45 9.74 15.6 15.6 0 0010.89 4.48 31.39 31.39 0 009.77-1.4q4.26-1.41 7.75-7.46-9.66-6.17-9.66-30.17V457q0-34.89-12.8-47.39t-40.3-12.51q-19.99-.04-34.47 6.9z"/></clipPath><clipPath id="bE"><path d="M333.75 392.06h120.41v135.46H333.75z"/></clipPath><clipPath id="bF"><path d="M334.61 392.14h119.46V526.6H334.61z"/></clipPath><clipPath id="bG"><path d="M338.26 396.58h111.37v126.43H338.26z"/></clipPath><clipPath id="bH"><path clip-rule="evenodd" d="M472.61 355.31v140q0 26.37 18.54 26.36 15.25 0 21.59-12.28-12.87-4.24-12.87-26.36V348.61z"/></clipPath><clipPath id="bI"><path d="M467.7 342.39h51.17v185.12H467.7z"/></clipPath><clipPath id="bJ"><path d="M467.83 343.71h49.69V526.6h-49.69z"/></clipPath><clipPath id="bK"><path d="M472.21 348.41h40.64V523h-40.64z"/></clipPath><g clip-path="url(#a)"><g clip-path="url(#b)"><g clip-path="url(#c)"><g clip-path="url(#d)"><g clip-path="url(#e)"><path d="M309.37 125.33h65.13v60.28h-65.13z" fill="#a89f74"/></g></g></g></g></g><g clip-path="url(#f)"><g clip-path="url(#b)"><g clip-path="url(#g)"><g clip-path="url(#h)"><g clip-path="url(#i)"><path d="M222.96 67.1h66.89v65.24h-66.89z" fill="#826793"/></g></g></g></g></g><g clip-path="url(#j)"><g clip-path="url(#b)"><g clip-path="url(#k)"><g clip-path="url(#l)"><g clip-path="url(#m)"><path d="M268.38 62.97h72.17v56.83h-72.17z" fill="#7f9b4e"/></g></g></g></g></g><g clip-path="url(#n)"><g clip-path="url(#b)"><g clip-path="url(#o)"><g clip-path="url(#p)"><g clip-path="url(#q)"><path d="M317.14 69.67h72.61v70.46h-72.61z" fill="#699db7"/></g></g></g></g></g><g clip-path="url(#r)"><g clip-path="url(#b)"><g clip-path="url(#s)"><g clip-path="url(#t)"><g clip-path="url(#u)"><path d="M351.21 106.34h62.43v67.05h-62.43z" fill="#826793"/></g></g></g></g></g><g clip-path="url(#v)"><g clip-path="url(#b)"><g clip-path="url(#w)"><g clip-path="url(#x)"><g clip-path="url(#y)"><path d="M370.44 152h55.48v69.86h-55.48z" fill="#699db7"/></g></g></g></g></g><g clip-path="url(#z)"><g clip-path="url(#b)"><g clip-path="url(#A)"><g clip-path="url(#B)"><g clip-path="url(#C)"><path d="M368.14 200.75h57.45v69.89h-57.45z" fill="#ed88a5"/></g></g></g></g></g><g clip-path="url(#D)"><g clip-path="url(#b)"><g clip-path="url(#E)"><g clip-path="url(#F)"><g clip-path="url(#G)"><path d="M350.68 253.59h65.11v79.72h-65.11z" fill="#f7b71b"/></g></g></g></g></g><g clip-path="url(#H)"><g clip-path="url(#b)"><g clip-path="url(#I)"><g clip-path="url(#J)"><g clip-path="url(#K)"><path d="M304.88 295.39h69.66v59.89h-69.66z" fill="#699db7"/></g></g></g></g></g><g clip-path="url(#L)"><g clip-path="url(#b)"><g clip-path="url(#M)"><g clip-path="url(#N)"><g clip-path="url(#O)"><path d="M235.07 249.29h64.92v64.38h-64.92z" fill="#a89f74"/></g></g></g></g></g><g clip-path="url(#P)"><g clip-path="url(#b)"><g clip-path="url(#Q)"><g clip-path="url(#R)"><g clip-path="url(#S)"><path d="M220.82 290.53h61.58v64.22h-61.58z" fill="#22b289"/></g></g></g></g></g><g clip-path="url(#T)"><g clip-path="url(#b)"><g clip-path="url(#U)"><g clip-path="url(#V)"><g clip-path="url(#W)"><path d="M198.23 258.3h55.46v65.35h-55.46z" fill="#699db7"/></g></g></g></g></g><g clip-path="url(#X)"><g clip-path="url(#b)"><g clip-path="url(#Y)"><g clip-path="url(#Z)"><g clip-path="url(#aa)"><path d="M220.38 219.66h64.82v55.61h-64.82z" fill="#699db7"/></g></g></g></g></g><g clip-path="url(#ab)"><g clip-path="url(#b)"><g clip-path="url(#ac)"><g clip-path="url(#ad)"><g clip-path="url(#ae)"><path d="M273.02 209.68h62.74v63.58h-62.74z" fill="#7f9b4e"/></g></g></g></g></g><g clip-path="url(#af)"><g clip-path="url(#b)"><g clip-path="url(#ag)"><g clip-path="url(#ah)"><g clip-path="url(#ai)"><path d="M316.8 217.02h73.05v60.72H316.8z" fill="#22b289"/></g></g></g></g></g><g clip-path="url(#aj)"><g clip-path="url(#b)"><g clip-path="url(#ak)"><g clip-path="url(#al)"><g clip-path="url(#am)"><path d="M266.47 157.19h50.62v57.19h-50.62z" fill="#f7b71b"/></g></g></g></g></g><g clip-path="url(#an)"><g clip-path="url(#b)"><g clip-path="url(#ao)"><g clip-path="url(#ap)"><g clip-path="url(#aq)"><path d="M346.27 164.48h53.11v60.02h-53.11z" fill="#f7b71b"/></g></g></g></g></g><g clip-path="url(#ar)"><g clip-path="url(#b)"><g clip-path="url(#as)"><g clip-path="url(#at)"><g clip-path="url(#au)"><path d="M215.47 147.48h64.44v54.92h-64.44z" fill="#22b289"/></g></g></g></g></g><g clip-path="url(#av)"><g clip-path="url(#b)"><g clip-path="url(#aw)"><g clip-path="url(#ax)"><g clip-path="url(#ay)"><path d="M234.55 111.11h64.91v62.14h-64.91z" fill="#7f9b4e"/></g></g></g></g></g><g clip-path="url(#az)"><g clip-path="url(#b)"><g clip-path="url(#aA)"><g clip-path="url(#aB)"><g clip-path="url(#aC)"><path d="M174.32 188.5h55.12v59.94h-55.12z" fill="#7f9b4e"/></g></g></g></g></g><g clip-path="url(#aD)"><g clip-path="url(#b)"><g clip-path="url(#aE)"><g clip-path="url(#aF)"><g clip-path="url(#aG)"><path d="M178.9 151.54h55.22v55.95H178.9z" fill="#ed88a5"/></g></g></g></g></g><g clip-path="url(#aH)"><g clip-path="url(#b)"><g clip-path="url(#aI)"><g clip-path="url(#aJ)"><g clip-path="url(#aK)"><path d="M189.14 98.6h65.03v74.58h-65.03z" fill="#699db7"/></g></g></g></g></g><g clip-path="url(#aL)"><g clip-path="url(#b)"><g clip-path="url(#aM)"><g clip-path="url(#aN)"><g clip-path="url(#aO)"><path d="M181.34 222.05h58.48v65.66h-58.48z" fill="#f7b71b"/></g></g></g></g></g><g clip-path="url(#aP)"><g clip-path="url(#b)"><g clip-path="url(#aQ)"><g clip-path="url(#aR)"><g clip-path="url(#aS)"><path d="M305.38 248.43h69.13v65.77h-69.13z" fill="#ed88a5"/></g></g></g></g></g><g clip-path="url(#aT)"><g clip-path="url(#b)"><g clip-path="url(#aU)"><g clip-path="url(#aV)"><g clip-path="url(#aW)"><path d="M273.61 263.82h64.63v62.12h-64.63z" fill="#e15f3d"/></g></g></g></g></g><g clip-path="url(#aX)"><g clip-path="url(#b)"><g clip-path="url(#aY)"><g clip-path="url(#aZ)"><g clip-path="url(#ba)"><path d="M263.53 306.54h60.36v53.09h-60.36z" fill="#ed88a5"/></g></g></g></g></g><g clip-path="url(#bb)"><g clip-path="url(#b)"><g clip-path="url(#bc)"><g clip-path="url(#bd)"><g clip-path="url(#be)"><path d="M210.61 186h50.93v52.94h-50.93z" fill="#a89f74"/></g></g></g></g></g><g clip-path="url(#bf)"><g clip-path="url(#b)"><g clip-path="url(#bg)"><g clip-path="url(#bh)"><g clip-path="url(#bi)"><path d="M244.9 178.61h57.53v60.75H244.9z" fill="#e15f3d"/></g></g></g></g></g><g clip-path="url(#bj)"><g clip-path="url(#b)"><g clip-path="url(#bk)"><g clip-path="url(#bl)"><g clip-path="url(#bm)"><path d="M300.24 149.5h54.96v74.47h-54.96z" fill="#826793"/></g></g></g></g></g><g clip-path="url(#bn)"><g clip-path="url(#b)"><g clip-path="url(#bo)"><g clip-path="url(#bp)"><g clip-path="url(#bq)"><path d="M278.11 103.73h58.03v67.7h-58.03z" fill="#e15f3d"/></g></g></g></g></g><g clip-path="url(#br)"><g clip-path="url(#b)"><g clip-path="url(#bs)"><g clip-path="url(#bt)"><g clip-path="url(#bu)"><path d="M317.17 183.58h52.63v55.69h-52.63z" fill="#e15f3d"/></g></g></g></g></g><g clip-path="url(#bv)"><g clip-path="url(#b)"><g clip-path="url(#bw)"><g clip-path="url(#bx)"><g clip-path="url(#by)"><path d="M72.31 384.66h140.31v149.5H72.31z" fill="#e7e4d0"/></g></g></g></g></g><g clip-path="url(#bz)"><g clip-path="url(#b)"><g clip-path="url(#bA)"><g clip-path="url(#bB)"><g clip-path="url(#bC)"><path d="M203.64 384.74h135.33v193.6H203.64z" fill="#e7e4d0"/></g></g></g></g></g><g clip-path="url(#bD)"><g clip-path="url(#b)"><g clip-path="url(#bE)"><g clip-path="url(#bF)"><g clip-path="url(#bG)"><path d="M327.09 384.62H461.6v149.51H327.09z" fill="#e7e4d0"/></g></g></g></g></g><g clip-path="url(#bH)"><g clip-path="url(#b)"><g clip-path="url(#bI)"><g clip-path="url(#bJ)"><g clip-path="url(#bK)"><path d="M460.3 336.19h64.74v197.95H460.3z" fill="#e7e4d0"/></g></g></g></g></g><text fill="#a89f74" font-family="Bree-Bold, Bree" font-size="34" font-weight="700" transform="translate(256 565.63)">1 <tspan letter-spacing="-.02em" x="23.49" y="0">A</tspan><tspan x="44.81" y="0">U 5 </tspan><tspan letter-spacing="-.02em" x="97.58" y="0">A</tspan><tspan x="118.73" y="0">OÛT </tspan><tspan letter-spacing="-.01em" x="188.7" y="0">2</tspan><tspan x="205.9" y="0">0</tspan><tspan letter-spacing="-.02em" x="224.09" y="0">1</tspan><tspan x="240.11" y="0">9</tspan></text></svg>