<svg height="473" width="2513" xmlns="http://www.w3.org/2000/svg"><mask id="a" fill="#fff"><path d="M0 0h2560v504H0z" fill-rule="evenodd"/></mask><mask id="b" fill="#fff"><path d="M.303.208h3.192v3.3H.303z" fill-rule="evenodd"/></mask><mask id="c" fill="#fff"><path d="M0 .256h3.194v3.292H0z" fill-rule="evenodd"/></mask><mask id="d" fill="#fff"><path d="M.855.294h3.198V3.57H.855z" fill-rule="evenodd"/></mask><mask id="e" fill="#fff"><path d="M.303.208h3.192v3.3H.303z" fill-rule="evenodd"/></mask><mask id="f" fill="#fff"><path d="M0 .256h3.194v3.292H0z" fill-rule="evenodd"/></mask><mask id="g" fill="#fff"><path d="M.855.294h3.198V3.57H.855z" fill-rule="evenodd"/></mask><g fill="none" fill-rule="evenodd" mask="url(#a)" opacity=".42" transform="translate(-20)"><g fill="#fff"><path d="M644.27 157.401c-2.128 0-1.784 3.284.323 3.284 2.128 0 1.784-3.284-.323-3.284m72.5-2.194c-2.125 0-1.696 3.275.403 3.275 2.125 0 1.695-3.275-.403-3.275m74.778-17.594c-2.128 0-1.784 3.283.323 3.283 2.128 0 1.784-3.283-.323-3.283m-33.013 72.561c-2.125 0-1.695 3.276.403 3.276 2.125 0 1.696-3.276-.403-3.276M727.76 115.63c-2.124 0-1.695 3.276.405 3.276 2.124 0 1.694-3.275-.404-3.275m211.026 54.966c-2.125 0-1.696 3.276.403 3.276 2.125 0 1.695-3.276-.403-3.276m24.582 109.933c-2.104 0-2.523 3.278-.4 3.278 2.102 0 2.521-3.277.4-3.277m120.86-68.164c-2.112 0-2.446 3.286-.32 3.286 2.11 0 2.445-3.286.32-3.286m94.481-85.751c-2.118 0-2.366 3.292-.24 3.292 2.12 0 2.368-3.292.24-3.292m81.374 105.539c-2.111 0-2.446 3.286-.321 3.286 2.111 0 2.446-3.286.321-3.286"/><path d="M1.938.208c-2.129 0-2.205 3.3-.078 3.3 2.128 0 2.205-3.3.078-3.3" mask="url(#b)" transform="translate(1286.601 122.006)"/><path d="M1031.432 32.072c-2.119 0-2.366 3.292-.24 3.292 2.119 0 2.367-3.292.24-3.292m15.186 87.946c-2.13 0-1.957 3.295.162 3.295 2.13 0 1.959-3.295-.162-3.295m54.483-20.22c-.001-.898-.58-1.697-1.525-1.765-.848-.062-1.764.626-1.765 1.525l-.003 2.24c0 .899.64 1.684 1.569 1.728.865.04 1.727-.67 1.727-1.57l-.003-2.158m-17.234 40.018c-2.125 0-1.696 3.275.404 3.275 2.123 0 1.694-3.275-.404-3.275m48.722 13.187c-2.112 0-2.446 3.285-.321 3.285 2.111 0 2.446-3.285.321-3.285m-83.894 10.999c-2.124 0-1.694 3.275.404 3.275 2.125 0 1.696-3.275-.404-3.275m-26.055-68.168c-2.12 0-2.367 3.292-.24 3.292 2.118 0 2.366-3.292.24-3.292m41.845-10.986c-2.103 0-2.522 3.277-.4 3.277 2.102 0 2.522-3.277.4-3.277m15.347 26.38c-2.111 0-2.445 3.286-.32 3.286 2.112 0 2.446-3.286.32-3.286m-826.477 8.799c-2.104 0-2.522 3.277-.402 3.277 2.104 0 2.523-3.277.402-3.277m-37.772 21.988c-2.124 0-1.695 3.275.404 3.275 2.124 0 1.695-3.275-.404-3.275m-32.611 39.571c-2.11 0-2.445 3.285-.32 3.285 2.112 0 2.445-3.285.32-3.285m-37.329-41.77c-2.103 0-2.522 3.277-.4 3.277 2.103 0 2.522-3.277.4-3.277m39.366-32.993c-2.132 0-2.122 3.3.003 3.3 2.131 0 2.121-3.3-.003-3.3m28.778-21.975c-2.103 0-2.522 3.277-.4 3.277 2.102 0 2.522-3.277.4-3.277m6.555 35.175c-2.112 0-2.445 3.285-.322 3.285 2.112 0 2.446-3.285.322-3.285m-41.766 24.186c-2.11 0-2.445 3.284-.32 3.284 2.111 0 2.444-3.284.32-3.284m-94.562 63.758c-2.118 0-2.366 3.292-.24 3.292 2.118 0 2.367-3.292.24-3.292m-50.599 61.56c-2.124 0-2.287 3.298-.16 3.298 2.125 0 2.287-3.298.16-3.298m105.594-19.782c-2.112 0-2.446 3.285-.321 3.285 2.111 0 2.445-3.285.32-3.285M55.477 139.81c-2.111 0-2.444 3.286-.32 3.286 2.11 0 2.445-3.285.32-3.285m-88.249 76.954c-2.128 0-1.784 3.285.324 3.285 2.128 0 1.783-3.285-.324-3.285m290.402-.006c-2.125 0-2.286 3.297-.16 3.297 2.125 0 2.287-3.297.16-3.297m101.076-32.982c-2.128 0-2.204 3.3-.078 3.3 2.129 0 2.205-3.3.078-3.3m41.765-81.351c-.882-.02-1.689.712-1.688 1.611l.001 2.159c.001.898.64 1.684 1.57 1.728.865.04 1.726-.67 1.726-1.57l.002-2.239c0-.9-.697-1.667-1.61-1.69m140.643 15.391c-2.131 0-2.121 3.301.003 3.301 2.132 0 2.122-3.3-.003-3.3m61.751-50.557c-2.103 0-2.522 3.276-.4 3.276 2.102 0 2.521-3.277.4-3.277M499.43 56.255c-2.123 0-2.286 3.297-.158 3.297 2.123 0 2.286-3.297.158-3.297m311.901 213.278c-2.128 0-1.783 3.285.324 3.285 2.128 0 1.783-3.285-.324-3.285M699.546 258.54c-2.111 0-2.445 3.284-.32 3.284 2.11 0 2.445-3.284.32-3.284m35.13 46.169c-2.118 0-2.365 3.292-.24 3.292 2.12 0 2.367-3.292.24-3.292m164.622-32.98c-2.133 0-1.866 3.29.246 3.29 2.132 0 1.865-3.29-.246-3.29m-17.664 35.187c-2.125 0-1.696 3.276.404 3.276 2.124 0 1.694-3.276-.404-3.276m37.69-76.963c-2.118 0-2.366 3.293-.24 3.293 2.12 0 2.367-3.293.24-3.293m65.703.001c-2.133 0-1.864 3.291.246 3.291 2.134 0 1.865-3.291-.246-3.291m37.452 32.976c-2.13 0-2.043 3.3.08 3.3 2.13 0 2.044-3.3-.08-3.3m62.824-14.836c-.63-.64-1.63-.761-2.328-.14a1.713 1.713 0 00-.469 1.787c-.191.001-.382 0-.573-.002-.9-.01-1.676.67-1.71 1.586-.034.86.686 1.728 1.584 1.712 1.447-.027 3.063.11 4.21-.933 1.325-1.205.261-3.02-.714-4.01m55.717-15.934c-2.125 0-1.696 3.276.403 3.276 2.125 0 1.695-3.275-.403-3.275m48.6 10.98c-2.129 0-2.205 3.3-.078 3.3 2.128 0 2.205-3.3.078-3.3m-971.557 32.982c-2.125 0-2.287 3.298-.16 3.298 2.125 0 2.287-3.298.16-3.298M81.574 320.1c-2.13 0-1.872 3.291.243 3.291 2.13 0 1.87-3.29-.243-3.29M-6.193 361.87c-2.128 0-2.204 3.3-.078 3.3 2.129 0 2.205-3.3.078-3.3m230.971-129.71c-2.104 0-2.522 3.277-.401 3.277 2.104 0 2.523-3.277.401-3.277m54.834 43.963c-2.124 0-2.287 3.298-.16 3.298 2.125 0 2.287-3.298.16-3.298m5.438 57.604c-.678-.627-1.696-.548-2.331.09l-2.199 2.198c-.635.635-.552 1.74.088 2.332.679.627 1.696.547 2.333-.089l2.198-2.199c.635-.636.552-1.739-.089-2.332m-40.69 39.136c-2.131 0-2.121 3.301.002 3.301 2.133 0 2.123-3.3-.002-3.3M22.505 456.421c-2.112 0-2.445 3.285-.321 3.285 2.111 0 2.446-3.285.32-3.285M692.59 56.266c-2.125 0-1.695 3.276.403 3.276 2.125 0 1.696-3.276-.404-3.276M840.19 87.04c-2.12 0-2.367 3.292-.24 3.292 2.119 0 2.367-3.293.24-3.293m105.431 26.381c-2.128 0-2.203 3.3-.077 3.3 2.128 0 2.204-3.3.077-3.3M55.518 56.266c-2.104 0-2.522 3.276-.402 3.276 2.104 0 2.523-3.276.402-3.276M-21.5 106.827c-2.117 0-2.366 3.293-.239 3.293 2.118 0 2.367-3.293.24-3.293"/><path d="M1.717.256c-2.118 0-2.367 3.292-.24 3.292 2.118 0 2.367-3.292.24-3.292" mask="url(#c)" transform="translate(-43 49.406)"/><path d="M143.284 18.876c-2.13 0-2.204 3.3-.078 3.3 2.128 0 2.205-3.3.078-3.3m971.558 10.994c-2.132 0-2.123 3.3.003 3.3 2.13 0 2.121-3.3-.003-3.3m105.634 15.394c-2.118 0-2.366 3.293-.24 3.293 2.118 0 2.367-3.293.24-3.293M772.005 5.685c-2.124 0-2.286 3.298-.159 3.298 2.125 0 2.288-3.298.16-3.298m-186.887-2.2c-2.128 0-2.204 3.3-.078 3.3 2.13 0 2.205-3.3.078-3.3"/><path d="M2.655.294C.55.294.133 3.57 2.255 3.57c2.102 0 2.521-3.276.4-3.276" mask="url(#d)" transform="translate(360.61 -1.194)"/><path d="M333.926 51.106c-.12-.976-.94-1.436-1.839-1.436-.6 0-1.197.001-1.796-.001-.898-.002-1.72.467-1.839 1.438-.097.808.537 1.841 1.438 1.839.868-.002 1.734-.001 2.6-.001.903 0 1.536-1.03 1.436-1.84m99.639-41.016c-2.11 0-2.444 3.285-.32 3.285 2.112 0 2.445-3.285.32-3.285m138.446 39.573c-2.118 0-2.367 3.292-.24 3.292 2.118 0 2.367-3.292.24-3.292m79.175-17.586c-2.111 0-2.446 3.284-.32 3.284 2.11 0 2.445-3.284.32-3.284M640.075 80.44c-2.125 0-2.21 3.299-.08 3.299 2.123 0 2.21-3.3.08-3.3m136.287-15.391c-2.13 0-2.205 3.3-.078 3.3 2.128 0 2.205-3.3.078-3.3m61.63-41.771c-2.12 0-2.367 3.293-.24 3.293 2.118 0 2.367-3.293.24-3.293M879.435-.9c-2.124 0-1.695 3.276.404 3.276 2.125 0 1.695-3.276-.404-3.276m11.353 63.757c-2.111 0-2.445 3.286-.32 3.286 2.112 0 2.445-3.286.32-3.286m57.153-19.788c-2.111 0-2.446 3.285-.32 3.285 2.11 0 2.445-3.285.32-3.285m50.317 30.776c-2.13 0-1.957 3.297.162 3.297 2.13 0 1.958-3.297-.162-3.297M873.082 185.976c-2.13 0-2.205 3.3-.078 3.3 2.128 0 2.205-3.3.078-3.3m114.427 2.206c-2.112 0-2.446 3.285-.321 3.285 2.111 0 2.445-3.285.32-3.285m967.762-17.781c-2.128 0-1.784 3.284.323 3.284 2.128 0 1.784-3.284-.323-3.284m72.5-2.194c-2.125 0-1.696 3.275.403 3.275 2.125 0 1.695-3.275-.403-3.275m74.778-17.594c-2.128 0-1.784 3.283.323 3.283 2.128 0 1.784-3.283-.323-3.283m-33.013 72.561c-2.125 0-1.695 3.276.403 3.276 2.125 0 1.696-3.276-.403-3.276m-30.775-94.544c-2.124 0-1.695 3.276.405 3.276 2.124 0 1.694-3.275-.404-3.275m211.026 54.966c-2.125 0-1.696 3.276.403 3.276 2.125 0 1.695-3.276-.403-3.276m24.582 109.933c-2.104 0-2.523 3.278-.4 3.278 2.102 0 2.521-3.277.4-3.277m120.86-68.164c-2.112 0-2.446 3.286-.32 3.286 2.11 0 2.445-3.286.32-3.286m94.481-85.751c-2.118 0-2.366 3.292-.24 3.292 2.12 0 2.368-3.292.24-3.292m81.374 105.539c-2.111 0-2.446 3.286-.321 3.286 2.111 0 2.446-3.286.321-3.286"/><path d="M1.938.208c-2.129 0-2.205 3.3-.078 3.3 2.128 0 2.205-3.3.078-3.3" mask="url(#e)" transform="translate(2597.601 135.006)"/><path d="M2342.432 45.072c-2.119 0-2.366 3.292-.24 3.292 2.119 0 2.367-3.292.24-3.292m15.186 87.946c-2.13 0-1.957 3.295.162 3.295 2.13 0 1.959-3.295-.162-3.295m54.483-20.22c-.001-.898-.58-1.697-1.525-1.765-.848-.062-1.764.626-1.765 1.525l-.003 2.24c0 .899.64 1.684 1.569 1.728.865.04 1.727-.67 1.727-1.57l-.003-2.158m-17.234 40.018c-2.125 0-1.696 3.275.404 3.275 2.123 0 1.694-3.275-.404-3.275m48.722 13.187c-2.112 0-2.446 3.285-.321 3.285 2.111 0 2.446-3.285.321-3.285m-83.894 10.999c-2.124 0-1.694 3.275.404 3.275 2.125 0 1.696-3.275-.404-3.275m-26.055-68.168c-2.12 0-2.367 3.292-.24 3.292 2.118 0 2.366-3.292.24-3.292m41.845-10.986c-2.103 0-2.522 3.277-.4 3.277 2.102 0 2.522-3.277.4-3.277m15.347 26.38c-2.111 0-2.445 3.286-.32 3.286 2.112 0 2.446-3.286.32-3.286m-826.477 8.799c-2.104 0-2.522 3.277-.402 3.277 2.104 0 2.523-3.277.402-3.277m-37.772 21.988c-2.124 0-1.695 3.275.404 3.275 2.124 0 1.695-3.275-.404-3.275m-32.611 39.571c-2.11 0-2.445 3.285-.32 3.285 2.112 0 2.445-3.285.32-3.285m-37.329-41.77c-2.103 0-2.522 3.277-.4 3.277 2.103 0 2.522-3.277.4-3.277m39.366-32.993c-2.132 0-2.122 3.3.003 3.3 2.131 0 2.121-3.3-.003-3.3m28.778-21.975c-2.103 0-2.522 3.277-.4 3.277 2.102 0 2.522-3.277.4-3.277m6.555 35.175c-2.112 0-2.445 3.285-.322 3.285 2.112 0 2.446-3.285.322-3.285m-41.766 24.186c-2.11 0-2.445 3.284-.32 3.284 2.111 0 2.444-3.284.32-3.284m-94.562 63.758c-2.118 0-2.366 3.292-.24 3.292 2.118 0 2.367-3.292.24-3.292m-50.599 61.56c-2.124 0-2.287 3.298-.16 3.298 2.125 0 2.287-3.298.16-3.298m105.594-19.782c-2.112 0-2.446 3.285-.321 3.285 2.111 0 2.445-3.285.32-3.285m-83.531-109.935c-2.111 0-2.444 3.286-.32 3.286 2.11 0 2.445-3.285.32-3.285m-88.249 76.954c-2.128 0-1.784 3.285.324 3.285 2.128 0 1.783-3.285-.324-3.285m290.402-.006c-2.125 0-2.286 3.297-.16 3.297 2.125 0 2.287-3.297.16-3.297m101.076-32.982c-2.128 0-2.204 3.3-.078 3.3 2.129 0 2.205-3.3.078-3.3m41.765-81.351c-.882-.02-1.689.712-1.688 1.611l.001 2.159c.001.898.64 1.684 1.57 1.728.865.04 1.726-.67 1.726-1.57l.002-2.239c0-.9-.697-1.667-1.61-1.69m140.643 15.391c-2.131 0-2.121 3.301.003 3.301 2.132 0 2.122-3.3-.003-3.3m61.751-50.557c-2.103 0-2.522 3.276-.4 3.276 2.102 0 2.521-3.277.4-3.277M1810.43 69.255c-2.123 0-2.286 3.297-.158 3.297 2.123 0 2.286-3.297.158-3.297m311.901 213.278c-2.128 0-1.783 3.285.324 3.285 2.128 0 1.783-3.285-.324-3.285m-111.785-10.993c-2.111 0-2.445 3.284-.32 3.284 2.11 0 2.445-3.284.32-3.284m35.13 46.169c-2.118 0-2.365 3.292-.24 3.292 2.12 0 2.367-3.292.24-3.292m164.622-32.98c-2.133 0-1.866 3.29.246 3.29 2.132 0 1.865-3.29-.246-3.29m-17.664 35.187c-2.125 0-1.696 3.276.404 3.276 2.124 0 1.694-3.276-.404-3.276m37.69-76.963c-2.118 0-2.366 3.293-.24 3.293 2.12 0 2.367-3.293.24-3.293m65.703.001c-2.133 0-1.864 3.291.246 3.291 2.134 0 1.865-3.291-.246-3.291m37.452 32.976c-2.13 0-2.043 3.3.08 3.3 2.13 0 2.044-3.3-.08-3.3m62.824-14.836c-.63-.64-1.63-.761-2.328-.14a1.713 1.713 0 00-.469 1.787c-.191.001-.382 0-.573-.002-.9-.01-1.676.67-1.71 1.586-.034.86.686 1.728 1.584 1.712 1.447-.027 3.063.11 4.21-.933 1.325-1.205.261-3.02-.714-4.01m55.717-15.934c-2.125 0-1.696 3.276.403 3.276 2.125 0 1.695-3.275-.403-3.275m48.6 10.98c-2.129 0-2.205 3.3-.078 3.3 2.128 0 2.205-3.3.078-3.3m-971.557 32.982c-2.125 0-2.287 3.298-.16 3.298 2.125 0 2.287-3.298.16-3.298M1392.574 333.1c-2.13 0-1.872 3.291.243 3.291 2.13 0 1.87-3.29-.243-3.29m-87.767 41.769c-2.128 0-2.204 3.3-.078 3.3 2.129 0 2.205-3.3.078-3.3m230.971-129.71c-2.104 0-2.522 3.277-.401 3.277 2.104 0 2.523-3.277.401-3.277m54.834 43.963c-2.124 0-2.287 3.298-.16 3.298 2.125 0 2.287-3.298.16-3.298m5.438 57.604c-.678-.627-1.696-.548-2.331.09l-2.199 2.198c-.635.635-.552 1.74.088 2.332.679.627 1.696.547 2.333-.089l2.198-2.199c.635-.636.552-1.739-.089-2.332m-40.69 39.136c-2.131 0-2.121 3.301.002 3.301 2.133 0 2.123-3.3-.002-3.3m-221.855 83.557c-2.112 0-2.445 3.285-.321 3.285 2.111 0 2.446-3.285.32-3.285M2003.59 69.266c-2.125 0-1.695 3.276.403 3.276 2.125 0 1.696-3.276-.404-3.276m147.601 30.774c-2.12 0-2.367 3.292-.24 3.292 2.119 0 2.367-3.293.24-3.293m105.431 26.381c-2.128 0-2.203 3.3-.077 3.3 2.128 0 2.204-3.3.077-3.3m-890.103-57.154c-2.104 0-2.522 3.276-.402 3.276 2.104 0 2.523-3.276.402-3.276m-77.018 50.561c-2.117 0-2.366 3.293-.239 3.293 2.118 0 2.367-3.293.24-3.293"/><path d="M1.717.256c-2.118 0-2.367 3.292-.24 3.292 2.118 0 2.367-3.292.24-3.292" mask="url(#f)" transform="translate(1268 62.406)"/><path d="M1454.284 31.876c-2.13 0-2.204 3.3-.078 3.3 2.128 0 2.205-3.3.078-3.3m971.558 10.994c-2.132 0-2.123 3.3.003 3.3 2.13 0 2.121-3.3-.003-3.3m105.634 15.394c-2.118 0-2.366 3.293-.24 3.293 2.118 0 2.367-3.293.24-3.293m-448.471-39.579c-2.124 0-2.286 3.298-.159 3.298 2.125 0 2.288-3.298.16-3.298m-186.887-2.2c-2.128 0-2.204 3.3-.078 3.3 2.13 0 2.205-3.3.078-3.3"/><path d="M2.655.294C.55.294.133 3.57 2.255 3.57c2.102 0 2.521-3.276.4-3.276" mask="url(#g)" transform="translate(1671.61 11.806)"/><path d="M1644.926 64.106c-.12-.976-.94-1.436-1.839-1.436-.6 0-1.197.001-1.796-.001-.898-.002-1.72.467-1.839 1.438-.097.808.537 1.841 1.438 1.839.868-.002 1.734-.001 2.6-.001.903 0 1.536-1.03 1.436-1.84m99.639-41.016c-2.11 0-2.444 3.285-.32 3.285 2.112 0 2.445-3.285.32-3.285m138.446 39.573c-2.118 0-2.367 3.292-.24 3.292 2.118 0 2.367-3.292.24-3.292m79.175-17.586c-2.111 0-2.446 3.284-.32 3.284 2.11 0 2.445-3.284.32-3.284m-11.111 48.364c-2.125 0-2.21 3.299-.08 3.299 2.123 0 2.21-3.3.08-3.3m136.287-15.391c-2.13 0-2.205 3.3-.078 3.3 2.128 0 2.205-3.3.078-3.3m61.63-41.771c-2.12 0-2.367 3.293-.24 3.293 2.118 0 2.367-3.293.24-3.293m41.443-24.177c-2.124 0-1.695 3.276.404 3.276 2.125 0 1.695-3.276-.404-3.276m11.353 63.757c-2.111 0-2.445 3.286-.32 3.286 2.112 0 2.445-3.286.32-3.286m57.153-19.788c-2.111 0-2.446 3.285-.32 3.285 2.11 0 2.445-3.285.32-3.285m50.317 30.776c-2.13 0-1.957 3.297.162 3.297 2.13 0 1.958-3.297-.162-3.297m-125.176 112.131c-2.13 0-2.205 3.3-.078 3.3 2.128 0 2.205-3.3.078-3.3m114.427 2.206c-2.112 0-2.446 3.285-.321 3.285 2.111 0 2.445-3.285.32-3.285"/></g></g></svg>