<svg height="473" viewBox="0 0 2513 473" width="2513" xmlns="http://www.w3.org/2000/svg"><mask id="a" fill="#fff"><path d="M0 0h2560v504H0z" fill-rule="evenodd"/></mask><mask id="b" fill="#fff"><path d="M.303.208h3.192v3.3H.303z" fill-rule="evenodd"/></mask><mask id="c" fill="#fff"><path d="M0 .256h3.194v3.292H0z" fill-rule="evenodd"/></mask><mask id="d" fill="#fff"><path d="M.855.294h3.198V3.57H.855z" fill-rule="evenodd"/></mask><mask id="e" fill="#fff"><path d="M.303.208h3.192v3.3H.303z" fill-rule="evenodd"/></mask><mask id="f" fill="#fff"><path d="M0 .256h3.194v3.292H0z" fill-rule="evenodd"/></mask><mask id="g" fill="#fff"><path d="M.855.294h3.198V3.57H.855z" fill-rule="evenodd"/></mask><g fill="#fff" fill-rule="evenodd" mask="url(#a)" opacity=".42" transform="translate(-20)"><path d="M644.27 157.401c-2.128 0-1.784 3.284.323 3.284 2.128 0 1.784-3.284-.323-3.284M716.77 155.207c-2.125 0-1.696 3.275.403 3.275 2.125 0 1.695-3.275-.403-3.275M791.548 137.613c-2.128 0-1.784 3.283.323 3.283 2.128 0 1.784-3.283-.323-3.283M758.535 210.174c-2.125 0-1.695 3.276.403 3.276 2.125 0 1.696-3.276-.403-3.276M727.76 115.63c-2.124 0-1.695 3.276.405 3.276 2.124 0 1.694-3.275-.404-3.275M938.787 170.597c-2.125 0-1.696 3.276.403 3.276 2.125 0 1.695-3.276-.403-3.276M963.369 280.53c-2.104 0-2.523 3.278-.4 3.278 2.102 0 2.521-3.277.4-3.277M1084.229 212.367c-2.112 0-2.446 3.286-.32 3.286 2.11 0 2.445-3.286.32-3.286M1178.71 126.616c-2.118 0-2.366 3.292-.24 3.292 2.12 0 2.368-3.292.24-3.292M1260.084 232.155c-2.111 0-2.446 3.286-.321 3.286 2.111 0 2.446-3.286.321-3.286"/><path d="M1.938.208c-2.129 0-2.205 3.3-.078 3.3 2.128 0 2.205-3.3.078-3.3" mask="url(#b)" transform="translate(1286.601 122.006)"/><path d="M1031.432 32.072c-2.119 0-2.366 3.292-.24 3.292 2.119 0 2.367-3.292.24-3.292M1046.618 120.018c-2.13 0-1.957 3.295.162 3.295 2.13 0 1.959-3.295-.162-3.295M1101.101 99.798c-.001-.898-.58-1.697-1.525-1.765-.848-.062-1.764.626-1.765 1.525l-.003 2.24c0 .899.64 1.684 1.569 1.728.865.04 1.727-.67 1.727-1.57l-.003-2.158M1083.867 139.816c-2.125 0-1.696 3.275.404 3.275 2.123 0 1.694-3.275-.404-3.275M1132.589 153.003c-2.112 0-2.446 3.285-.321 3.285 2.111 0 2.446-3.285.321-3.285M1048.695 164.002c-2.124 0-1.694 3.275.404 3.275 2.125 0 1.696-3.275-.404-3.275M1022.64 95.834c-2.12 0-2.367 3.292-.24 3.292 2.118 0 2.366-3.292.24-3.292M1064.485 84.848c-2.103 0-2.522 3.277-.4 3.277 2.102 0 2.522-3.277.4-3.277M1079.832 111.228c-2.111 0-2.445 3.286-.32 3.286 2.112 0 2.446-3.286.32-3.286M253.355 120.027c-2.104 0-2.522 3.277-.402 3.277 2.104 0 2.523-3.277.402-3.277M215.583 142.015c-2.124 0-1.695 3.275.404 3.275 2.124 0 1.695-3.275-.404-3.275M182.972 181.586c-2.11 0-2.445 3.285-.32 3.285 2.112 0 2.445-3.285.32-3.285M145.643 139.816c-2.103 0-2.522 3.277-.4 3.277 2.103 0 2.522-3.277.4-3.277M185.009 106.823c-2.132 0-2.122 3.3.003 3.3 2.131 0 2.121-3.3-.003-3.3M213.787 84.848c-2.103 0-2.522 3.277-.4 3.277 2.102 0 2.522-3.277.4-3.277M220.342 120.023c-2.112 0-2.445 3.285-.322 3.285 2.112 0 2.446-3.285.322-3.285M178.576 144.209c-2.11 0-2.445 3.284-.32 3.284 2.111 0 2.444-3.284.32-3.284M84.014 207.967c-2.118 0-2.366 3.292-.24 3.292 2.118 0 2.367-3.292.24-3.292M33.415 269.527c-2.124 0-2.287 3.298-.16 3.298 2.125 0 2.287-3.298.16-3.298M139.009 249.745c-2.112 0-2.446 3.285-.321 3.285 2.111 0 2.445-3.285.32-3.285M55.477 139.81c-2.111 0-2.444 3.286-.32 3.286 2.11 0 2.445-3.285.32-3.285M-32.772 216.765c-2.128 0-1.784 3.285.324 3.285 2.128 0 1.783-3.285-.324-3.285M257.63 216.759c-2.125 0-2.286 3.297-.16 3.297 2.125 0 2.287-3.297.16-3.297M358.706 183.777c-2.128 0-2.204 3.3-.078 3.3 2.129 0 2.205-3.3.078-3.3M400.471 102.426c-.882-.02-1.689.712-1.688 1.611l.001 2.159c.001.898.64 1.684 1.57 1.728.865.04 1.726-.67 1.726-1.57l.002-2.239c0-.9-.697-1.667-1.61-1.69M541.115 117.816c-2.131 0-2.121 3.301.003 3.301 2.132 0 2.122-3.3-.003-3.3M602.866 67.26c-2.103 0-2.522 3.276-.4 3.276 2.102 0 2.521-3.277.4-3.277M499.43 56.255c-2.123 0-2.286 3.297-.158 3.297 2.123 0 2.286-3.297.158-3.297M811.331 269.533c-2.128 0-1.783 3.285.324 3.285 2.128 0 1.783-3.285-.324-3.285M699.546 258.54c-2.111 0-2.445 3.284-.32 3.284 2.11 0 2.445-3.284.32-3.284M734.676 304.709c-2.118 0-2.365 3.292-.24 3.292 2.12 0 2.367-3.292.24-3.292M899.298 271.729c-2.133 0-1.866 3.29.246 3.29 2.132 0 1.865-3.29-.246-3.29M881.634 306.916c-2.125 0-1.696 3.276.404 3.276 2.124 0 1.694-3.276-.404-3.276M919.324 229.953c-2.118 0-2.366 3.293-.24 3.293 2.12 0 2.367-3.293.24-3.293M985.027 229.954c-2.133 0-1.864 3.291.246 3.291 2.134 0 1.865-3.291-.246-3.291M1022.479 262.93c-2.13 0-2.043 3.3.08 3.3 2.13 0 2.044-3.3-.08-3.3M1085.303 248.094c-.63-.64-1.63-.761-2.328-.14a1.713 1.713 0 0 0-.469 1.787c-.191.001-.382 0-.573-.002-.9-.01-1.676.67-1.71 1.586-.034.86.686 1.728 1.584 1.712 1.447-.027 3.063.11 4.21-.933 1.325-1.205.261-3.02-.714-4.01M1141.02 232.16c-2.125 0-1.696 3.276.403 3.276 2.125 0 1.695-3.275-.403-3.275M1189.62 243.141c-2.129 0-2.205 3.3-.078 3.3 2.128 0 2.205-3.3.078-3.3M218.063 276.123c-2.125 0-2.287 3.298-.16 3.298 2.125 0 2.287-3.298.16-3.298M81.574 320.1c-2.13 0-1.872 3.291.243 3.291 2.13 0 1.87-3.29-.243-3.29M-6.193 361.87c-2.128 0-2.204 3.3-.078 3.3 2.129 0 2.205-3.3.078-3.3M224.778 232.16c-2.104 0-2.522 3.277-.401 3.277 2.104 0 2.523-3.277.401-3.277M279.612 276.123c-2.124 0-2.287 3.298-.16 3.298 2.125 0 2.287-3.298.16-3.298M285.05 333.727c-.678-.627-1.696-.548-2.331.09l-2.199 2.198c-.635.635-.552 1.74.088 2.332.679.627 1.696.547 2.333-.089l2.198-2.199c.635-.636.552-1.739-.089-2.332M244.36 372.863c-2.131 0-2.121 3.301.002 3.301 2.133 0 2.123-3.3-.002-3.3M22.505 456.421c-2.112 0-2.445 3.285-.321 3.285 2.111 0 2.446-3.285.32-3.285M692.59 56.266c-2.125 0-1.695 3.276.403 3.276 2.125 0 1.696-3.276-.404-3.276M840.19 87.04c-2.12 0-2.367 3.292-.24 3.292 2.119 0 2.367-3.293.24-3.293M945.621 113.42c-2.128 0-2.203 3.3-.077 3.3 2.128 0 2.204-3.3.077-3.3M55.518 56.266c-2.104 0-2.522 3.276-.402 3.276 2.104 0 2.523-3.276.402-3.276M-21.5 106.827c-2.117 0-2.366 3.293-.239 3.293 2.118 0 2.367-3.293.24-3.293"/><path d="M1.717.256c-2.118 0-2.367 3.292-.24 3.292 2.118 0 2.367-3.292.24-3.292" mask="url(#c)" transform="translate(-43 49.406)"/><path d="M143.284 18.876c-2.13 0-2.204 3.3-.078 3.3 2.128 0 2.205-3.3.078-3.3M1114.842 29.87c-2.132 0-2.123 3.3.003 3.3 2.13 0 2.121-3.3-.003-3.3M1220.476 45.264c-2.118 0-2.366 3.293-.24 3.293 2.118 0 2.367-3.293.24-3.293M772.005 5.685c-2.124 0-2.286 3.298-.159 3.298 2.125 0 2.288-3.298.16-3.298M585.119 3.485c-2.128 0-2.204 3.3-.078 3.3 2.13 0 2.205-3.3.078-3.3"/><path d="M2.655.294C.55.294.133 3.57 2.255 3.57c2.102 0 2.521-3.276.4-3.276" mask="url(#d)" transform="translate(360.61 -1.194)"/><path d="M333.926 51.106c-.12-.976-.94-1.436-1.839-1.436-.6 0-1.197.001-1.796-.001-.898-.002-1.72.467-1.839 1.438-.097.808.537 1.841 1.438 1.839.868-.002 1.734-.001 2.6-.001.903 0 1.536-1.03 1.436-1.84M433.565 10.089c-2.11 0-2.444 3.285-.32 3.285 2.112 0 2.445-3.285.32-3.285M572.011 49.662c-2.118 0-2.367 3.292-.24 3.292 2.118 0 2.367-3.292.24-3.292M651.186 32.076c-2.111 0-2.446 3.284-.32 3.284 2.11 0 2.445-3.284.32-3.284M640.075 80.44c-2.125 0-2.21 3.299-.08 3.299 2.123 0 2.21-3.3.08-3.3M776.362 65.048c-2.13 0-2.205 3.3-.078 3.3 2.128 0 2.205-3.3.078-3.3M837.992 23.277c-2.12 0-2.367 3.293-.24 3.293 2.118 0 2.367-3.293.24-3.293M879.435-.9c-2.124 0-1.695 3.276.404 3.276 2.125 0 1.695-3.276-.404-3.276M890.788 62.857c-2.111 0-2.445 3.286-.32 3.286 2.112 0 2.445-3.286.32-3.286M947.941 43.069c-2.111 0-2.446 3.285-.32 3.285 2.11 0 2.445-3.285.32-3.285M998.258 73.845c-2.13 0-1.957 3.297.162 3.297 2.13 0 1.958-3.297-.162-3.297M873.082 185.976c-2.13 0-2.205 3.3-.078 3.3 2.128 0 2.205-3.3.078-3.3M987.509 188.182c-2.112 0-2.446 3.285-.321 3.285 2.111 0 2.445-3.285.32-3.285M1955.27 170.401c-2.128 0-1.784 3.284.323 3.284 2.128 0 1.784-3.284-.323-3.284M2027.77 168.207c-2.125 0-1.696 3.275.403 3.275 2.125 0 1.695-3.275-.403-3.275M2102.548 150.613c-2.128 0-1.784 3.283.323 3.283 2.128 0 1.784-3.283-.323-3.283M2069.535 223.174c-2.125 0-1.695 3.276.403 3.276 2.125 0 1.696-3.276-.403-3.276M2038.76 128.63c-2.124 0-1.695 3.276.405 3.276 2.124 0 1.694-3.275-.404-3.275M2249.787 183.597c-2.125 0-1.696 3.276.403 3.276 2.125 0 1.695-3.276-.403-3.276M2274.369 293.53c-2.104 0-2.523 3.278-.4 3.278 2.102 0 2.521-3.277.4-3.277M2395.229 225.367c-2.112 0-2.446 3.286-.32 3.286 2.11 0 2.445-3.286.32-3.286M2489.71 139.616c-2.118 0-2.366 3.292-.24 3.292 2.12 0 2.368-3.292.24-3.292M2571.084 245.155c-2.111 0-2.446 3.286-.321 3.286 2.111 0 2.446-3.286.321-3.286"/><path d="M1.938.208c-2.129 0-2.205 3.3-.078 3.3 2.128 0 2.205-3.3.078-3.3" mask="url(#e)" transform="translate(2597.601 135.006)"/><path d="M2342.432 45.072c-2.119 0-2.366 3.292-.24 3.292 2.119 0 2.367-3.292.24-3.292M2357.618 133.018c-2.13 0-1.957 3.295.162 3.295 2.13 0 1.959-3.295-.162-3.295M2412.101 112.798c-.001-.898-.58-1.697-1.525-1.765-.848-.062-1.764.626-1.765 1.525l-.003 2.24c0 .899.64 1.684 1.569 1.728.865.04 1.727-.67 1.727-1.57l-.003-2.158M2394.867 152.816c-2.125 0-1.696 3.275.404 3.275 2.123 0 1.694-3.275-.404-3.275M2443.589 166.003c-2.112 0-2.446 3.285-.321 3.285 2.111 0 2.446-3.285.321-3.285M2359.695 177.002c-2.124 0-1.694 3.275.404 3.275 2.125 0 1.696-3.275-.404-3.275M2333.64 108.834c-2.12 0-2.367 3.292-.24 3.292 2.118 0 2.366-3.292.24-3.292M2375.485 97.848c-2.103 0-2.522 3.277-.4 3.277 2.102 0 2.522-3.277.4-3.277M2390.832 124.228c-2.111 0-2.445 3.286-.32 3.286 2.112 0 2.446-3.286.32-3.286M1564.355 133.027c-2.104 0-2.522 3.277-.402 3.277 2.104 0 2.523-3.277.402-3.277M1526.583 155.015c-2.124 0-1.695 3.275.404 3.275 2.124 0 1.695-3.275-.404-3.275M1493.972 194.586c-2.11 0-2.445 3.285-.32 3.285 2.112 0 2.445-3.285.32-3.285M1456.643 152.816c-2.103 0-2.522 3.277-.4 3.277 2.103 0 2.522-3.277.4-3.277M1496.009 119.823c-2.132 0-2.122 3.3.003 3.3 2.131 0 2.121-3.3-.003-3.3M1524.787 97.848c-2.103 0-2.522 3.277-.4 3.277 2.102 0 2.522-3.277.4-3.277M1531.342 133.023c-2.112 0-2.445 3.285-.322 3.285 2.112 0 2.446-3.285.322-3.285M1489.576 157.209c-2.11 0-2.445 3.284-.32 3.284 2.111 0 2.444-3.284.32-3.284M1395.014 220.967c-2.118 0-2.366 3.292-.24 3.292 2.118 0 2.367-3.292.24-3.292M1344.415 282.527c-2.124 0-2.287 3.298-.16 3.298 2.125 0 2.287-3.298.16-3.298M1450.009 262.745c-2.112 0-2.446 3.285-.321 3.285 2.111 0 2.445-3.285.32-3.285M1366.477 152.81c-2.111 0-2.444 3.286-.32 3.286 2.11 0 2.445-3.285.32-3.285M1278.228 229.765c-2.128 0-1.784 3.285.324 3.285 2.128 0 1.783-3.285-.324-3.285M1568.63 229.759c-2.125 0-2.286 3.297-.16 3.297 2.125 0 2.287-3.297.16-3.297M1669.706 196.777c-2.128 0-2.204 3.3-.078 3.3 2.129 0 2.205-3.3.078-3.3M1711.471 115.426c-.882-.02-1.689.712-1.688 1.611l.001 2.159c.001.898.64 1.684 1.57 1.728.865.04 1.726-.67 1.726-1.57l.002-2.239c0-.9-.697-1.667-1.61-1.69M1852.115 130.816c-2.131 0-2.121 3.301.003 3.301 2.132 0 2.122-3.3-.003-3.3M1913.866 80.26c-2.103 0-2.522 3.276-.4 3.276 2.102 0 2.521-3.277.4-3.277M1810.43 69.255c-2.123 0-2.286 3.297-.158 3.297 2.123 0 2.286-3.297.158-3.297M2122.331 282.533c-2.128 0-1.783 3.285.324 3.285 2.128 0 1.783-3.285-.324-3.285M2010.546 271.54c-2.111 0-2.445 3.284-.32 3.284 2.11 0 2.445-3.284.32-3.284M2045.676 317.709c-2.118 0-2.365 3.292-.24 3.292 2.12 0 2.367-3.292.24-3.292M2210.298 284.729c-2.133 0-1.866 3.29.246 3.29 2.132 0 1.865-3.29-.246-3.29M2192.634 319.916c-2.125 0-1.696 3.276.404 3.276 2.124 0 1.694-3.276-.404-3.276M2230.324 242.953c-2.118 0-2.366 3.293-.24 3.293 2.12 0 2.367-3.293.24-3.293M2296.027 242.954c-2.133 0-1.864 3.291.246 3.291 2.134 0 1.865-3.291-.246-3.291M2333.479 275.93c-2.13 0-2.043 3.3.08 3.3 2.13 0 2.044-3.3-.08-3.3M2396.303 261.094c-.63-.64-1.63-.761-2.328-.14a1.713 1.713 0 0 0-.469 1.787c-.191.001-.382 0-.573-.002-.9-.01-1.676.67-1.71 1.586-.034.86.686 1.728 1.584 1.712 1.447-.027 3.063.11 4.21-.933 1.325-1.205.261-3.02-.714-4.01M2452.02 245.16c-2.125 0-1.696 3.276.403 3.276 2.125 0 1.695-3.275-.403-3.275M2500.62 256.141c-2.129 0-2.205 3.3-.078 3.3 2.128 0 2.205-3.3.078-3.3M1529.063 289.123c-2.125 0-2.287 3.298-.16 3.298 2.125 0 2.287-3.298.16-3.298M1392.574 333.1c-2.13 0-1.872 3.291.243 3.291 2.13 0 1.87-3.29-.243-3.29M1304.807 374.87c-2.128 0-2.204 3.3-.078 3.3 2.129 0 2.205-3.3.078-3.3M1535.778 245.16c-2.104 0-2.522 3.277-.401 3.277 2.104 0 2.523-3.277.401-3.277M1590.612 289.123c-2.124 0-2.287 3.298-.16 3.298 2.125 0 2.287-3.298.16-3.298M1596.05 346.727c-.678-.627-1.696-.548-2.331.09l-2.199 2.198c-.635.635-.552 1.74.088 2.332.679.627 1.696.547 2.333-.089l2.198-2.199c.635-.636.552-1.739-.089-2.332M1555.36 385.863c-2.131 0-2.121 3.301.002 3.301 2.133 0 2.123-3.3-.002-3.3M1333.505 469.421c-2.112 0-2.445 3.285-.321 3.285 2.111 0 2.446-3.285.32-3.285M2003.59 69.266c-2.125 0-1.695 3.276.403 3.276 2.125 0 1.696-3.276-.404-3.276M2151.19 100.04c-2.12 0-2.367 3.292-.24 3.292 2.119 0 2.367-3.293.24-3.293M2256.621 126.42c-2.128 0-2.203 3.3-.077 3.3 2.128 0 2.204-3.3.077-3.3M1366.518 69.266c-2.104 0-2.522 3.276-.402 3.276 2.104 0 2.523-3.276.402-3.276M1289.5 119.827c-2.117 0-2.366 3.293-.239 3.293 2.118 0 2.367-3.293.24-3.293"/><path d="M1.717.256c-2.118 0-2.367 3.292-.24 3.292 2.118 0 2.367-3.292.24-3.292" mask="url(#f)" transform="translate(1268 62.406)"/><path d="M1454.284 31.876c-2.13 0-2.204 3.3-.078 3.3 2.128 0 2.205-3.3.078-3.3M2425.842 42.87c-2.132 0-2.123 3.3.003 3.3 2.13 0 2.121-3.3-.003-3.3M2531.476 58.264c-2.118 0-2.366 3.293-.24 3.293 2.118 0 2.367-3.293.24-3.293M2083.005 18.685c-2.124 0-2.286 3.298-.159 3.298 2.125 0 2.288-3.298.16-3.298M1896.119 16.485c-2.128 0-2.204 3.3-.078 3.3 2.13 0 2.205-3.3.078-3.3"/><path d="M2.655.294C.55.294.133 3.57 2.255 3.57c2.102 0 2.521-3.276.4-3.276" mask="url(#g)" transform="translate(1671.61 11.806)"/><path d="M1644.926 64.106c-.12-.976-.94-1.436-1.839-1.436-.6 0-1.197.001-1.796-.001-.898-.002-1.72.467-1.839 1.438-.097.808.537 1.841 1.438 1.839.868-.002 1.734-.001 2.6-.001.903 0 1.536-1.03 1.436-1.84M1744.565 23.089c-2.11 0-2.444 3.285-.32 3.285 2.112 0 2.445-3.285.32-3.285M1883.011 62.662c-2.118 0-2.367 3.292-.24 3.292 2.118 0 2.367-3.292.24-3.292M1962.186 45.076c-2.111 0-2.446 3.284-.32 3.284 2.11 0 2.445-3.284.32-3.284M1951.075 93.44c-2.125 0-2.21 3.299-.08 3.299 2.123 0 2.21-3.3.08-3.3M2087.362 78.048c-2.13 0-2.205 3.3-.078 3.3 2.128 0 2.205-3.3.078-3.3M2148.992 36.277c-2.12 0-2.367 3.293-.24 3.293 2.118 0 2.367-3.293.24-3.293M2190.435 12.1c-2.124 0-1.695 3.276.404 3.276 2.125 0 1.695-3.276-.404-3.276M2201.788 75.857c-2.111 0-2.445 3.286-.32 3.286 2.112 0 2.445-3.286.32-3.286M2258.941 56.069c-2.111 0-2.446 3.285-.32 3.285 2.11 0 2.445-3.285.32-3.285M2309.258 86.845c-2.13 0-1.957 3.297.162 3.297 2.13 0 1.958-3.297-.162-3.297M2184.082 198.976c-2.13 0-2.205 3.3-.078 3.3 2.128 0 2.205-3.3.078-3.3M2298.509 201.182c-2.112 0-2.446 3.285-.321 3.285 2.111 0 2.445-3.285.32-3.285"/></g></svg>