<svg viewBox="0 0 2560 580" xmlns="http://www.w3.org/2000/svg"><mask id="a" height="373.9" maskUnits="userSpaceOnUse" width="508.8" x="459" y="259"><path d="M0 0h959v673H0z" fill="#fff"/></mask><g fill="#0d173a"><path d="M0 449h2560v131H0z"/><path d="M496.8 35.8c5.4 22.2 10 44.5 14 66.9-3.2-5.7-6.9-11.2-10.6-16.4-3.1-4.3-12.6-17.4-19.8-14-9.1 4.2.2 12.3 4.4 16.3 7.3 6.9 14.5 13.9 20.4 21.9 3.6 5.9 6.9 12 9.8 18.4.1.1.2.2.2.3.1.3.1.7.2 1 .1.7.5 1.2.9 1.4 1.9 7.1 4.2 14 6.9 20.8.6 1.6 1.2 3.3 1.8 4.9-6.4-5.2-13.3-10.1-20.6-13.8 0-2.1-.1-4.1-.1-6.2 0-1.9-2.5-3.1-3.9-1.6-1.3 1.4-2.4 2.9-3.5 4.5-.8-.3-1.6-.7-2.5-.9-3.4-1.2-9.4-1.9-14.9-1.3-.4-.9-1.3-1.6-2.6-1.3-6.8 1.8-12.6 5.2-17.5 10.1-1.3 1.3-.4 4 1.6 3.8 1.1-.1 2.1-.1 3.2-.2h.4c2.5-.1 4.9 0 7.3.1 3.7 1.3 7.8 1.7 12 1.9 1.1.3 2.2.5 3.2.9 1 .3 1.8-.1 2.3-.7h1.7c-1.6 5.9-1.9 12.1-.9 18.4.9 5.3 2.4 10.3 4.4 15.2-.8.6-1.3 1.7-.7 2.8.7 1.3 1.5 2.7 2.3 4-1.5-.1-3 1-2.3 2.7.9 2.1 1.9 4.1 3 6-1.7-1.1-3.3-2.2-5-3.3-7.2-4.4-15.8-5.2-22.4.3-4.4 3.6.4 9.1 4.1 10.2 11.5 3.7 22.6 7.4 33.5 12.3-5 8.6-6.1 18-3.2 27.7.4 1.3 1.5 1.7 2.5 1.5-2.9 4.7-5.6 9.4-8 14.3-8.6-5.4-18.2-8.5-28.9-7.9-1.2.1-1.9.9-2.2 1.9-.7-.4-1.3-.9-2-1.3-2.5-1.6-4.8 2.3-2.3 3.9 10.6 6.6 19.4 14.7 26.7 23.8-.3.9-.6 1.7-.9 2.6l-.3-3.3c0 1.4-.1 2.8-.1 4.3-2.2 6.2-4.1 12.5-5.5 19-.1-1.9-.2-3.8-.2-5.7-.2-9.6-2.3-19-5.2-28-.1 9-.3 18.6.7 27.5.6 5.4 1.4 10.7 2 16.1-3.1 9.1-5.3 18.5-6.7 28-.1-.6-.2-1.2-.2-1.8-1.4-10.3-3.3-20.5-6-30.6-1.5-5.8-2.3-12.2-4.6-17.7 2.3 7.8 2.3 16.6 3.2 24.7 1.3 11.2 2.1 22.1 1.4 33.4-.4 6.5-.7 13.1-1 19.6-.6-.6-1.3-1.1-1.9-1.7.1-3.6.6-15.4-.5-15.4-.2 0-.9 5.8-1.7 13.5-1.4-1.2-2.7-2.4-4.1-3.5-.4-12.6-.8-25.7-1.1-35.6v233.8h1469v-210c-1.2-.3-2.3-.5-3.5-.8-.9-3.1-1.6-6.1-2.2-9.2v-4.4c0-.9-.5-1.5-1.1-1.8-2.8-18.7-1.8-37.8-.4-56.9 0-.5-.1-.9-.3-1.2.4-1.1.8-2.1 1.2-3.1 1.1-2.7-3.3-3.9-4.4-1.2-2.9 7.2-4.9 14.6-5.9 22-.1.1-.2.1-.2.2-.2 0-.4.1-.6.2-2.3-9.9-6.5-19.3-11.7-28.3.1-2.3.2-4.5.3-6.8.4 0 .8-.1 1.1-.2 7.7-1.6 12.6-7.1 15.3-14 .4.3 1 .4 1.6.3 2.2-.3 3.8-1.9 4.4-4 .3-1.1-.2-2.1-1.1-2.5 0-.6-.2-1.1-.6-1.4.9-.9 1.6-2.1 1.8-3.4 0-.2.1-.4.1-.6.1-1.1-.6-1.7-1.4-2 1.1-1 2-2.1 2.7-3.4.2-.2.4-.4.5-.6.5-.7.4-1.6 0-2.3l-.1-.2c-.1-.8-.6-1.5-1.6-1.9-2-.8-4.3 1-4.2 3.1 0 .4.2.8.3 1.1-1.4 1.7-3.3 2.8-5.6 3.3-1.3.3-1.7 1.3-1.6 2.3-.3-.6-.7-.9-1.2-1 .8-.9 1.5-1.8 2.2-2.8.5-.1 1-.1 1.5-.3 1.9-.5 2-2.7.9-3.8 1-1.9 1.7-4 2.3-6.1 1.9.6 4 .6 5.8-.1 2.7-1 1.7-4.6-1.1-4.4.5-.5.9-1 1.2-1.4.9-1.4-.2-3.1-1.7-3.3v-.2c-.3-.9-.9-1.6-1.6-2.1-.1-.4-.2-.8-.3-1.1-.6-2.2-3.7-2.1-4.4 0 0 .1-.1.3-.1.4 0-.1-.1-.1-.1-.1-1.2-2.6-5.2-.4-4 2.3.3.7.7 1.4 1.1 2.1-.5 0-1.1 0-1.7.1-2 .4-2.2 3.2-.5 4.1 1.1.6 2.2 1.1 3.4 1.5-.2.6-.3 1.3-.5 1.9h-.5c-1.6.3-3.1.1-4.6-.6-2.3-1.1-4.7 1.7-2.8 3.5l.1.1c-.8.2-1.7.3-2.5.5-.4.1-.7.3-.9.5.6-1.1 1.1-2.1 1.7-3.2.5-.9.3-1.8-.2-2.4 1.5-2.7 2.7-5.6 3.8-8.6.6-.1 1.1-.4 1.4-.7.2-.2.5-.3.6-.5 1.4-.2 2.7-1.3 3-2.8s-1.2-3.4-2.8-2.8l.2-.8c.8-2.8-3.6-4-4.4-1.2l-.5 1.6c-.4-.3-.8-.5-1.3-.5-.5-.4-.9-.7-1.4-1.1-.6-.5-1.4-.6-2.1-.5.2-1.2.3-2.4.4-3.5 1.8-.3 3.5-1.3 4.7-3.1 1.1-1.7-.7-3.8-2.6-3.3-.5.1-.9.2-1.3.3 0-.3.1-.5.1-.8.3-2.9-4.2-2.9-4.6 0v.2c-.1-1.9-2-3.5-3.8-2.4-1.5.8-1.6 2.3-1.2 3.6h-.3c-2.9.3-3 4.3 0 4.5 1.4.1 2.7.1 4.1 0 .2.1.4.2.5.3-.2 1.9-.5 3.9-.8 5.7h-.4c-.5.2-1 .3-1.5.5.2-.9.4-1.9.6-2.8.6-2.8-3.8-4-4.4-1.2-.2 1.1-.5 2.2-.7 3.3-.1-.1-.2-.3-.3-.5-.7-2.8-5.1-1.6-4.4 1.2.1.4.3.7.4 1.1-.4-.1-.8-.1-1.1 0-1.8.5-2.4 2.3-1.6 3.8.3.6.8.9 1.3 1.2-.7.5-1.2 1.3-.9 2.4.1.4-.2.9-.5 1.3-.4-1.5-1-3-1.9-4.3-1.6-2.4-5.6-.2-3.9 2.3.5.8.9 1.7 1.2 2.5-.9-.2-1.7-.3-2.6-.4-1.3-3.3-2.6-6.6-3.6-10.1 2.1-1.3 4-3.2 5.2-5.5 1.3-2.6-2.6-4.9-4-2.3-.2.4-.5.8-.7 1.1-.6-.4-1.4-.4-2.2-.2.1-.5.1-1 .1-1.5.2-2.9-4.4-2.9-4.6 0 0 .6-.3 1.1-.7 1.5-1.7-.4-3.3.5-3.7 2.2-.2.8.1 1.7.7 2.2-.4-.1-.7-.1-1.1-.2-2.5-.7-3.9 2.8-1.8 4.1 1.5.9 3.3 1.1 4.9.7 1.2 0 2.4-.2 3.5-.5 1.3 4.3 3.2 8.4 4.7 12.7-2.9.6-1.7 4.9 1.2 4.3.1 0 .2-.1.3-.1 1 3.4 1.6 6.8 2.1 10.3-4.8-5.6-9.6-11.1-14.7-16.4.9-1.1 1.8-2.3 2.6-3.6 1.3-2.2-1.8-4.6-3.6-2.7-.4.5-.9.9-1.4 1.4.3-1.1.3-2.4-.1-3.5-.9-2.7-5.3-1.6-4.4 1.2.2.7.2 1.3.1 1.8-.7-.6-1.3-1.2-1.8-2-1.7-2.4-5.6-.1-4 2.3.5.8 1.1 1.5 1.7 2.1-1 .2-2 .2-2.7.1-2.2-.1-3.3 3.3-1.1 4.2.8.3 1.6.6 2.4.7.1 1 .8 2 2.2 2h.3c-.1 1.7 1.6 3.3 3.3 2.1 1.1-.7 2-1.5 3-2.4 5.4 6.4 10.9 12.7 16.7 18.7-5-3.5-9.9-7.2-15.7-9.4.1-.4.2-.8.2-1.2.1-1.2-.7-1.9-1.6-2.1-.6-.5-1.4-.7-2.1-.6-.9-.4-2.1.1-2.7 1.1-4.7-3-9.4-5.9-14.3-8.6 0-1.2-.5-2.4-1.2-3.3-.6-.7-1.4-.9-2-.7-1-.8-2.6-.8-3.3.6-.2.4-.4.7-.7 1.1-1.7-2.4-5.3-.3-4 2.3.4.7 0 1.3-.6 1.8-.8.6-.9 1.9-.4 2.7l2.1 3.2c.8 1.2 2.5 1.5 3.6.5 1.1-1.1 2-2.4 2.7-3.7.2 0 .4 0 .6-.1.4-.1.7-.2 1.1-.4 4 2.2 7.8 4.5 11.6 6.9-1.1.7-1.6 2.3-.4 3.4 1.4 1.3 2.8 1.7 4.2 1.5 0 1.9 2.2 3.1 3.8 1.7l.9-.9c3.3 2.3 6.6 4.8 9.9 7.3-5.7-.9-11.4-1.9-17.1-3-2.4-.8-4.7-1.7-7-2.6 0-.2.1-.4.1-.6 0-2.4-3-2.9-4.3-1.1-.1 0-.2-.1-.3-.1.5-1.8.6-3.7.3-5.6-.4-2.9-4.8-1.6-4.4 1.2.1.7.1 1.4 0 2-.3-.2-.5-.4-.8-.5-1.2-.8-2.4-.2-3 .7-1.2.2-2 1.7-1.7 2.8.3 1.6.2 3.1-.2 4.7-.5 2 1.6 3.4 3.4 2.5.9-.5 1.7-1.1 2.5-1.7-.6 2.6 2.7 3.8 4.2 1.7l.9-1.2c1.9.5 3.7.9 5.6 1.3-.8.1-1.6.5-2 1.6-.2.5-.3 1.1-.6 1.6l-.3-.3c-1-.9-2.5-.6-3.4.2-1.6-.7-3.2.3-3.3 2-.2 3 2.9 5 5.7 4.7.5-.1.9-.2 1.3-.3h.7c.7-.2 1.3-.8 1.6-1.4 6.5 1 13 1.7 19.5 1.9-2.7.2-5.5.3-8.3.4-8.1.3-16.9 1.3-24.9-.7.7-1.5-.3-3.5-2-3.3.1-1 .1-2 0-3-.3-2.9-4.9-2.9-4.6 0 .2 1.5.1 2.8-.3 4.1l-4.6-2.2c-2-1-4.3 1-3.1 3.1.5.9 1 1.8 1.5 2.8-.7 0-1.3-.1-2-.2-2.9-.6-4 3.4-1.2 4.3 1.8.6 3.4.6 5.2.4.7 1.4 2.4 1.7 3.7.7.9-.7 1.7-1.6 2.5-2.5 3 2.1 7.6 2.9 12.4 3.1-.4.2-.7.6-.8 1-.1.1-.1.2-.2.4-.1-.1-.2-.2-.4-.3-1.9-1.5-5.3.5-3.6 2.8-.1.7.1 1.5.5 2.1-.5 1.8.2 3.5 3 3.9 1.5.2 2.8-.6 2.9-2.2 0-.5.1-1 .1-1.5 1 .6 1.9 1.3 3.5 1.3.8 0 1.6-.1 2.3-.1-.3.3-.5.6-.7 1-.1.3-.2.7-.3 1-.2.1-.3.3-.5.5-2.4-.9-4.3 1.6-2.7 3.6l1.7 2.9c.9 1.9 3.7 1.2 4.2-.5.1-.2.1-.4.2-.6h.6c.7 0 1.2-.3 1.6-.8 7.3-.6 14.1-2.5 20.5-5.8-.5.8-.5 1.7-.1 2.4-1.9 1.6-4.1 2.6-6.6 3-.7-.4-1.5-.7-2.3-.9-1.8-.6-3.2 1.2-2.8 2.8-.9.2-1.8.7-2.5 1.3-1.8 1.5.1 4.3 2.2 3.8.9-.2 1.8-.4 2.7-.5l.1.1c.1.3.3.5.4.8 1 1.9 3.8 1.1 4.2-.7.6.1 1.2.3 1.8.5 2.7.9 3.9-3.1 1.4-4.2 2.6-1.1 4.8-2.9 6.6-5.1 2.7.6 5.9-.3 8.6-2 3.1-1.9 5.6-4.5 7.7-7.4 2.1 3 4.1 6.1 5.9 9.3-4.7 14-7.8 27.9-9.1 42.6-3.6-1.2-7-2.3-10.5-3.5.5-1.3-.2-2.4-1.3-2.9.2-3.4.5-6.8 1.1-10.2 3.8-1.5 6-7.2 7.2-11 .7-2.1-2.3-3.9-3.8-2.2-.9 1.1-1.9 2.1-2.9 3 0-.3-.1-.6-.1-.8-.3-2.8-4.6-3-4.6 0 0 1.5 0 2.9.1 4.3-1-1.5-3.1-2.8-4.1-4.4-1.3-2.1-5.1-.8-4.2 1.7 1.2 3.4 3.4 5.9 6.6 7.1 0 .4.1.9.3 1.2 0 .1.1.2.1.3.2.3.4.6.7.7-.5 3.5-.9 7.1-1.1 10.6-4.7-1.9-9.2-4.1-13.3-7.1-2.6-2.4-5.1-5-7.6-7.6 2.2-1.4.2-4.9-2.2-3.8 2-2.8 2.7-6.5 1.1-10.3-.9-2.1-3.6-2.2-4.4 0-.2.5-.3 1-.5 1.6-.4-.6-.9-1.1-1.5-1.6-2.1-1.7-4.6.4-3.6 2.7l.4.9c-1.7-1.6-4.6.8-3.4 2.9 0 .1.1.1.1.1-.4-.3-.8-.5-1.1-.8-2.3-1.9-5.1.9-3.2 3.2.1.1.2.2.2.3-.8.7-1.1 1.9-.6 2.9 2.9 5.6 8.8 5.7 14.1 4 3.2 4 6.7 7.4 10.6 10.3 2.3 2.1 4.6 4.1 7 6-2.6-.2-5.2-.7-7.1-1-5.8-.8-10.6-3.5-13.3-8.7-1.4-2.6-5.2-.3-4 2.3.2.4.4.7.6 1.1-.2-.1-.4-.1-.6-.2-2.1-.5-4 2.2-2.2 3.8.1.1.3.2.4.3-2 .3-2.6 3.2-.7 4.2-.7 1.3.1 3.2 2 3.3h1.7c-1.1 1.8 1.2 4.4 3.1 3.1 2.1-1.5 3.8-3 5.5-5 .4-.4.5-.9.6-1.4 2.7 1.1 5.7 1.7 8.8 2 3.4.3 7.2.8 10.7.4 1.8 1.3 3.6 2.5 5.5 3.6 4 2.4 8.4 4.3 12.7 6.2 0 .6-.1 1.3-.1 1.9-.1 20.6-1 41.1-2.5 61.5-5.2-17.3-8.2-36.6-19.5-51.5.1 21.1 13.6 47.8-1.1 67.8-3.7-8.5-8.9-16.2-13.4-24.4-.6 6.4-2 13-5.3 18.6-.9-11.7-.1-23.6-2.4-35.2-3.3-17.1-10-34-16.1-50.3-4.4-11.9-10.7-19.6-11.4-33.2 0 8.5-1.4 18.4.1 26.8 1.9 10.2 7.7 19.6 10.6 29.5 5.1 17.5 7.2 37.4 5.9 55.6-5.4-11.6-6.1-27.4-15.1-37.4-.7 14.8 7.3 27.7 1.4 42.6-6.9-.9-8.4-13.1-9.9-18.1-2.4-7.9-9.6-14.1-11-21.7-.6.5-4.2 7.5-3.8 7.5-6.4.4-11.6-6.8-17.2-9.7-10.5-5.4-22.8-7.2-34.4-9.8-10.6-2.4-21.3-6.8-32.1-4.5-10.5 2.2-20 7.7-28.9 13.5-3.6 2.3-7.2 4.6-11.1 6.3-2.7 1.2-6.1 3.6-9.1 4.3-2.7-5.7 1.5-16.2 4.7-20.9-3.3 4.7-7.2 9-10.1 13.9-1.6 2.6-2.4 5.3-3.6 8.1-.4 1-3 4.5-2.9 5.1-.7-8.2-9-15.4-13.1-22.2 3.2 7.6 10.6 17.4 7 25.8 0 .1-1-5.3-1.1-5.8-.6-2.1-2.1-3.9-2.9-5.9-1.8 6.3-1.3 13.2-4.4 19.1-3.4-8.1-3.9-19.7-9.8-26.6 2.9 5.1 5.9 20 2.1 25 2-2.6-3.3-10.1-3.9-12.7 0 3.9 1.4 11.8-1.2 14.4-2.1-12.3-4.6-24.1-9.5-35.8-4-9.5-7.9-19.4-9.8-29.5.4-.1.7 0 1.1-.1.9-8-3.9-16.9-7-24.1-.6-1.5-4.2-9.2-6.8-6.6-2 2 4.2 15.1 4.9 17.4 1 3.4 1.5 9.6 3.7 12.5 2.2 3 2.4 1.3 3.3 5.3 1.8 7.8 4.2 15.6 6.1 23.3 1 4.1 3.2 7.9 4.1 12.1 1 4.4 1.5 8.9 2.8 13.3-4.4-15.1-14.6-25.8-23.7-38.2-5-6.8-7.6-15.6-13.4-21.7 2.5 4 4.2 8.4 6.6 12.5 2.2 3.7 7.3 9.4 6.9 13.9-5.6-8.1-14.5-13.7-23.1-18.5-4.6-2.6-12.5-5.5-13.8-11.3-.5-2.1 3.3-7-.4-7.6-4.5-.8-2.6 7.8-3.4 9.6-2.1-1.4-3.4-5.2-6-5.2-1 4.2 4.4 4.6 3.6 8-2.8.3-9.1 2.9-7.3 6.5.1.2 4.4-2.3 4.8-2.6-.2 3.2-4.9 5.6-3.5 9.1 4.1-.4 3-8.8 8.5-8.8-.3 1.2-.1 2.7-.3 3.9 2.7-.6.5-3.3 2-4.5.8-.7 5.6 0 6.7.3 3.8 1.1 6.9 3.7 10.1 5.9 3.5 2.4 7.3 4.6 10.6 7.2 10.5 8.6 19 19.9 23.1 32.8 1.4 4.3 2 9 3.3 13.2-1.3-3.4-3.9-6.8-5.8-9.8-3.6-5.8-7.6-10.8-12-16-3.7-4.4-7.6-7.2-12.8-9.5-3.1-1.3-6.1-3.5-9.5-3.9 4.5 1 8.3 5 11.6 7.9 5.8 5.1 10.6 11.1 14.7 17.6 3.2 5.1 6.1 11.9 6.6 17.8-18.2-8.3-34 2-47.9 13.8-5.2 4.4-19.3 13.5-19.8 21.5-.1-7.5-1-16.9 3-23.3-6.1 9.9-10.9 19.3-9.6 31-1.2-4.7-4.1-9.5-5.2-14.3-2.8-12.6.8-24.8 1.4-37.4-1.2 16.2-5.3 31.3-4.3 47.5-3.4-6.7-5.9-15.1-12.3-19.6-.1 3.6 1.7 6.9 1.2 10.5-.3 1.7-6.4-3.5-6.8-4-1.4-1.9-2.4-6-2.8-8.4-1.5-8.4 1.6-17.3 5.9-24.5-7.9 7-12.7 16.1-15.7 26.1 1.9-15 3.6-33.5.5-48.5 0 9.3-3 17.4-6.6 25.8-1 2.3-13.6 19.4-13.7 19-1.4-6.9 16-21.7 9.7-23.4-9.9-2.6-14.1 21.2-16.4 26.4-.5-4.8-3.8-9.6-4.1-14.3-.3-5.6 4.6-8.8 3.2-14.4-1 0-2-.1-3 0-.7 1.6-2.4 2.6-3.2 3.8-3.1-6.3 2.8-10.3 1.4-16.1-2.5-10.7-4 3.1-5.1 6.4-4.5-4.7-8-19.6-16.2-20.2s-4.1 7.1 0 10.4c4 3.2 12.2 1.7 10.5 8.9-3.6-1.7-7.8-2-12-.6.5 5.1 11.3 6.5 16 8-4.2-.5-21.7-.3-12 4.8 1.7.9 4.3.6 6.9.4 4.5-.5 8.9-1 8.6 5.2-5.4-1.5-15.2-3.8-18.8 2.6 3.4 3 7.9 2.2 12.1 1.4 3.5-.7 6.8-1.3 9.1.2 5.5 3.8 1 22.4-6.2 17.9-1.7-1.1-3.3-8.1-4.1-9.7-.8 6.4-6.2 11-10.8 15-1.9-2.2-3.5-5.1-4.8-7.6-2 1.6-4.2 3-5.7 5.2.2-1.9-.5-4.3-.3-6.1-6.3 4.3-9.4 10.4-14.6 15.8 3.3-12.9 1-29.2-2.6-41.7-1.5 5.1.3 12.2-.6 17.9-1.2 8.4-5.1 17-10 23.8 4.4-8.8 5.1-22.7 6.6-32.5-4.5 2.5-6.8 6.8-10.1 10.4-.8.9-7.6 6.5-7.6 6.7.3-2.4-.2-4.5.6-6.9-4.5.5-10.5 4.2-12.6 8.7.8-5.6 2.1-11.2 4.5-16.7-2.4 5.5-7.5 9.8-9.9 15.9-3.2 8-6 16.7-10.3 24.2-.6-7.6.3-16.2-1.9-23.5-.4 2-1.5 8-3 11.2-3-11.6-5.7-24-10.7-34.8-.7 8.1.6 16.7-1.1 24.6-1.9 9.3-7.6 17.4-9.9 26.6 4.3-16.8.5-34.6 4.1-51.7 2.7-12.5 6.2-10 17.9-8.8-15.3-28.2-30.9 28.7-33.3 36.9.2-16 1.1-27.5 10.7-40.4 3.5-4.7 29.6-31.9 28.4-36.2 4.3 14.7 8 29.7 8.4 45 0-4.3.7-57.8-1.6-57.1-16.7 4.9-24.1 22-35.1 33.6s-17.3 22.8-23.1 37.8c-4.6 11.8-8 29-8.2 40.2.4-28.2-1.5-53.3-10.4-80.2-5.3-16.1-8.2-40.6-22.4-51.5 14.2 23.7 18.8 48 22.4 74.8 1.2 8.7 1.8 17.5 1.3 26.2-.4 6.5-3.1 12.6-3.1 18.9 0-8.2-1.2-15.5-2.4-22.9.3 10.4-4.3 17.5-5.8 27.1-1.8.6-5.3 1-7.1.8.4-11-7.2-20.7-7.5-31.3-.1 13.5-1.4 26.5-8 38.5.3-13.3-3-28.9-6.7-39.5-.6 4.2-2.6 8.3-4.3 12.2-11.4-8.4-5.7-26.1 1.8-35.2-9.3 10.9-18.5 24.7-12.6 39.3-2.9-7.4-16.4-25.9-10.2-34.3-8.3 11.2 2.6 30.9 2.3 43.5-10.7 6.3-17-11.8-21.4-22-.5-1.1-2.7 7.1-4.6 15.3-1.9 7.9-3.5 15.8-3.2 15.4-5.9 8.1-8.6-6.7-9.6-10.1-.9-.6-1.7-1.3-2.5-2 .6 1.9 1.1 3.8 1.4 5.8.1.4 0 .7 0 1 .4 1.6.8 3.1 1.2 4.7 1.4 4.7-5.5 6.7-6.9 2-.3-.9-.5-1.8-.8-2.7 1.4-3.9 2.8-7.8 4.1-11.6-2.4-2.2-4.6-4.6-6.6-7.3l-1.2 2.4c-.9 2.1-1.7 4.2-2.6 6.3-3.3-.4-7.7-.7-7.2 2.4 0-.3-.1-.6-.2-.8 1.7-6.8 2.7-10.1 4.1-16.9.1.1.4-.7.7-1.5s.6-1.6.7-1.5c-.1-.2-.2-.3-.3-.5-1.9.2-3.7.4-5.6.6-.8 3.7-1.6 7.4-2.5 11.1-1.6-3.6-3.7-7.1-6-10.2-.8.1-1.6.2-2.4.2 3 5.6 5.8 12.4 6.6 17.4-.6 2.2-1.1 4.4-1.7 6.5-.9.5-2.2.7-3.9.4-4.6-.9-4.9-4.3-5.6-8.3-.9-5.1.1-50-9.8-74.5-.4-1-2.8-12.2-2.6-11.1 6.7 44.1 7.4 85.6 3.2 90.3 2.7-15-4.4-53.9-4.6-60.4-4.1 11.6-2 43.4-3.9 43.6-3.3 7.9-4.3 10.7-5.7 14.9-4.4 12.4 2.8-22.2 4.9-29.9-1.5.3-10.8 20.5-12.3 20.9.3 3.3-5.7 10.4-6 13.7-.9-3.1-4.8-12.9-5.8-16-1 .3-2 .5-3 .8-1.6.5-3.2.9-4.7 1.4 1.1 5.6 2.7 11.1 4.7 16.3-5.8-5.9-10.4-11.2-10-19.5.4-7.9 1.8-15.6 6.8-22.1 2.7-3.6 6.6-7.7-.2-5.1-5.3 2.1-8.2 8.8-11.8 12.7-4.2 4.6-8.1 8.6-11 14.2-2 3.8-4 15.6-6.8 17.9-3.9 3.2-1.6 20.8-2 29.8-.2-7.1-6-14.5-6.5-21.5.1 5.8-2.1 14.3-6 17.9.5-.5-.2-5.1-.2-6.1 0-2-.1-3.9-.1-5.9 0-5.3-2.1-12 .6-16.9 1.9-3.6 6.6-5.8 9.8-8.3 1.1-.8 3.6-2.2 2.4-3.9-.8-1.2-4.3-.6-5.5-.2-2 .7-4.2 2.5-5.5 4.1-1.3 1.5-1.7 3.4-2.8 5-1.1-3.4-.8-8.3.4-11.6 1.7-4.5 8.2-6.3 11.4-9.8 1.8-2 4.8-9.1.6-10.6-2.3-.8-8.1 2.5-10.3 3.4 2.5-2 4.1-4.7 6.6-6.6 1.9-1.5 5-3.2 7-5 .3-1.1.6-2.3 1.2-3.4l.3-.6c-.5-.6-1.4-1.2-3-1.7-4.8-1.5-10.2 1.7-13.6 4.9.5-.5 1-1.9 1.5-2.6.8-1 1.9-1.8 2.7-2.8 1-1.2 1.8-2.8 2.4-4.3 1.2-3.1 1.2-6.3-2.8-6.7-2.4-.2-4.5.7-6.3 2.4-1.7 1.6-2.4 4.5-4 5.8-2.4 1.9-1.6-2.1-1.4-3.5.3-2.5 1.1-4.8 2.6-6.9s3.8-3.9 4.9-6.3c1.2-2.8.9-5.2-2.6-4.5-2.7.6-5.1 2.6-6.8 4.6-1.3 1.4-3.9 4.1-3.9 6.1-.3-4.8 1-9.5 2.2-14.1.3-1.2 3-13.1 1.4-13.4-4.4-.8-6.3 2.7-7 6.6.2-1.1-1.6-4.4-2-5.6-.8-2.7-1.6-5.4-2.9-8-.6-1.2-1.5-3.5-3.2-3-2.2.7-2.6 4.6-2.6 6.4.1 2.9 1 5.7 1.9 8.4 1 3.1 3.5 6.7 3.8 9.9-1.3-1.8-4-3.5-6.3-3.3-2.5.2-3.3 2.6-2.4 4.6 1.2 2.6 4.8 4.4 7 6.2 1.5 1.3 4.8 3.7 4.8 5.8-3.5-1.3-12-7.4-13 .1-.4 3.2 3.7 5.1 5.7 7 2.3 2.2 5.5 4 7.4 6.5 1.4 1.9 2.3 4.2 3.4 6.2-3.6-1.9-10.5-10.9-15.1-6-1.3 1.4-1.1 3.6-.2 5.3 1.1 2.1 3.9 4 5.9 5.3 1.3.9 5.7 1.9 6 3.3-2.7-1.7-16.1-4.6-14.6 1.1.8 3.2 5.2 3.2 7.8 3.7 3.5.7 5.9 2.9 9.1 4 1 .4 2.2.5 3 1.3-2.5-.1-4.9-1.4-7.6-1.3s-8.4 1.2-6.8 4.9c4.5 10.4 20.4.6 24.2 10.7.7 1.8.5 4.1.4 6-1.6-3.2-4-4.8-7.6-5.3-2.1-.3-13.6.5-9.4 5.1 2 2.1 6.1 1.6 8.8 2.4 1.3.4 2.6 1 3.7 1.9 2.6 8.3.7 19.6-4.4 27.7.7-5.1-.1-10.2-2.5-15.2-.5-1.1-1.5-1.3-2.4-1 0-.2-.1-.4-.1-.6-.3-1.9-.5-3.9-.6-5.9-.1-2.9-4.6-2.9-4.6 0 0 2.1.3 4.1.7 6.1.4 2.7 1 5.3 1.3 8-3.4-3.6-7.1-7-10.3-10.8-2.3-2.6-4-5.6-5.3-8.7-1.2-3.7-2.2-7.5-2.9-11.6-.4-3.5-.4-7-.1-10.5.7-3.8 1.6-7.5 1.3-11.4 0-.2-.1-.4-.2-.6.2-1 .5-2.1.7-3.1.7-2.8-3.7-4-4.4-1.2-2 8.3-3.1 16.7-2.6 24.9v.6c.3 3.8.9 7.5 1.9 11.2 1.1 5.5 3 10.9 4.4 16.5-2.2-4.4-4.2-8.8-6.1-13.3-1.8-9.4-1.4-19.1-.2-29.7 1.1-9.8 1.1-26.9-5.1-36.8l-1.1-3.1c4.1-2.3.8-5.3-2.2-4.3-.1-.1-.1-.3-.2-.4-.2-.4-.4-.7-.7-1 .3-2.7-.9-5.7-4-3.7-2.6 1.6-1.4 6.5-.5 8.6-1.3-2.1-9.5-9.9-7.9-3.7.7 2.7 4.3 3.9 6.3 5.6 2.4 2.1 4.9 4.6 6.8 7.1.1.2.2.4.3.5 1.2 3.9 2.2 7.8 2.7 11.8v1.3c0 .8-.8 13-2.4 12.2-3.7-2.1-9.5-12.8-10.9-16.9-1-3 .6-7-.5-10.1-1.5-4.4-3.8-.7-3.8 2.4-.2-1.9-1.5-4.9-3.4-4.4-2.6.7-.3 4.7.3 6.3-2.1-3.2-8.9-3.9-5.3.9 2.1 2.8 6.8 4.9 10.2 4.6 6.4 10.8 13.2 19.5 13 32.3-.1.6-.2 1.1-.3 1.7-1.9-5.7-4.7-11.3-8.1-16.4-3-4.5-6.9-12.3-11.8-15-.5 9.8 5.3 17.5 10.6 25.2 2.5 3.6 5.9 8.6 7.6 13.7-1.2 0-2.4 1-2.4 2.2-4.8-4.3-10.9-7.7-13.6-13.9-.2-.5-.5-.8-.8-1-1.3-1.8-4.8-.6-4 1.9 1.8 5.6 3.3 11.3 4.4 17.2-3.3-7.3-6.7-15.1-6-23 .1-.7-.2-1.1-.5-1.5-.1-2.3-.2-4.5-.3-6.8 0-1.8-1.8-2.5-3.1-2-.3-1.8-.6-3.6-.8-5.3-.5-2.9-4.9-1.6-4.4 1.2.7 4.5 1.4 9.3 2 14.2-1.3-.3-2.8.4-2.8 2.1.1 10.7-.8 21.3-6.1 30.9-.3.6-.7 1.1-1.1 1.5-4.9-10.2-7.3-20.9-7-32.4 0-1.4-1.1-2.2-2.2-2.2.2-2.7-3.9-3.8-4.4-1-.6 3.8-1.6 9.7-2 16.1-.5 4.8-.6 9.9-.6 14.6-.5-2.5-.9-4.9-1.2-7.4-.2-18.3 1.9-36.4 12.3-52.2 1.4-2.1-1.9-4.7-3.6-2.7-1.5 1.8-2.9 3.5-4.3 5.3l.3-2.1c-.2.9-.4 1.7-.6 2.5-4.7 6-9 12.1-12.1 19.2-3.7 8.5-5.1 18.3-6.8 27.5-1.8-.6-3.7-1.4-3.7-1.5-1 1.4-1.9 2.8-2.7 4.3-.4-11.1-2.3-22-5.6-32.5-1.5-7.2-3.4-14.4-5.5-21.6-.2-.5-.5-.9-.8-1.2-2.4-9-5.5-17.9-9.2-26.6-.9-2.2-4.1-1.8-4.5 0-5.8-11.6-12.5-22.6-18.5-35.1-.1-.1-.1-.2-.2-.4 1.5-4.2 1.6-8.5-.5-13.1-.6-1.3-2.7-1.5-3.6-.5-1.3 1.6-2.3 3.3-3.1 5.1-4.1-4.5-8.5-8.8-13.3-12.9-.3-.2-.6-.5-.9-.7-2.5-2-5-4-7.6-6-.3-.2-.7-.4-1-.5-.1-.1-.2-.2-.3-.2-.4-.3-.8-.4-1.2-.4h-.8c-2 .3-3.4 2.9-1.2 4.3.3.2.6.4 1 .6 6 4.3 11.5 8.9 16.4 13.9 2.3 2.6 4.5 5.3 6.5 8.2-.1.3-.2.6-.3 1-1.7 4.8-3.8 9.5-6.1 14.1.1-1.1.1-2.2-.2-3.2-.3-.9-1-1.4-1.8-1.6 0-1.4-.2-2.7-.5-4 .9-.6 1.3-1.7.5-2.8-2.2-3.1-4.5-4.9-8-6.1-.1-.1-.2-.1-.4-.2s-.4-.2-.5-.2c-1.8-.6-3.1 1.3-2.8 2.8-.4 5.7.9 11.2 1.2 16.9.1 2.7-.1 5.4-.5 8-.4 1-.8 2-1.2 3.1-1 2.8-2 5.5-3.1 8.3.6-3.4.8-6.8.3-10.5-.9-7.2-7.4-15.7-15.3-16.3-2.2-.2-10.1 1.2-5.8 5.2 4.8 4.5 8.7 9.3 11.2 14.5.5 3.9.5 7.8.1 11.9-4.2-10.4-9.7-17.4-22-19.4-2.2-.4-3.8 2-2.2 3.8 2.6 2.9 5.1 5.6 7.2 8.5.6 1.7 1.6 3 2.9 4.1 2.1 3.4 3.7 6.9 4.5 11-1.6-1.5-3.3-2.9-5.3-4-3.8-5.3-8.9-9.5-14.5-10.6-1.6-.3-2.7.7-2.9 2.2-.7 6.2 4 9 8.2 12.8 5.4 4.8 8 11.7 8.5 18.7-.7 1.5-1.3 3-1.8 4.5-.2-.5-.4-1-.6-1.6 0-.7 0-1.4-.1-2.1 0 .6-.1 1.2-.1 1.7-.3-.6-.5-1.3-.8-1.9-.6-1.1-1.4-2.4-2.4-3.6.7-1.2.5-3-1.3-3.3-.7-.1-1.4-.2-2.1-.2-1.9-1.5-4-2.5-6.4-2.5-1.3-1.5-2.8-3-4.4-4.4 1.1-3.2 2.6-6.3 4.8-9.3.8-1 .3-2.1-.5-2.8-.6-.8-1.7-1.2-2.7-.4l-1.2.9c-.4 0-.8 0-1.2.2-1.7.9-3.5 2.7-5.1 4.9 1.7-9.5 1.2-19.6 2.3-29 2.7-23.5 7.1-46.3 4.4-70.1-.8-7.5-4.7-12.1-11.3-6.3-6.5 5.7-11.1 19.8-15.6 27.4-15.8 26.9-27.7 58.4-37.2 88-2.6 8.2-5 16.4-7.2 24.8-1.7 6.4-7.1 18.7-5.8 25.2-1.6-7.6-5.4-14.4-6.1-22.4-.9-10.5.5-21.1 2.2-31.5 3.3-20.3 13.1-39.3 16.7-59-15.9 15.8-25.3 43-30.4 64.1-.4 1.8-.8 3.7-1.1 5.6-.1-1.3-.3-2.5-.5-3.8-.2-10.1.3-20.2 1.7-30.3l.9-2.7c.5-1 .9-2 1.4-3 .6-1.2.2-2.2-.7-2.8.2-.4.3-.8.5-1.2 1.3-2.6-2.7-4.9-4-2.3-8.4 17.5-13.2 35.9-14.4 54.8 0 .2-.1.4-.2.7.2-5.4-.1-10.9-.7-16.4-.3-2.8-4.6-3-4.6 0 0 4.4 0 8.8-.1 13.2v4.5c-1-.1-2 .3-2.5 1.5-.2.5-.4 1-.6 1.4 0-3.6-.1-7.3-.3-10.9-.1-1.6-1.7-2.4-3-2.1.9-6.4 2.3-12.7 4.1-19 1.2-2.9 2.6-5.8 4.1-8.6 1.6.1 2.4-1.6 2.2-2.9-.2-1-.6-1.9-1-2.7 1.5-1.4 3.2-2.8 5-4 2.4-1.7.2-5.5-2.3-3.9-2.2 1.4-4.1 3-5.9 4.6-1.9-1.1-4.2-1.6-6.7-1.5-.3-.1-.6-.2-1.1-.1-12.6 1.4-20.6 8.3-26 17.5 2.8-14.4 6.6-28.4 13.4-41.4 2.8-1.8 5.8-3.2 9-4.3 3.7-.8 7.6-1.3 10.9-2.4 4.3-.3 8.6-.2 12.8-1.2 2.4-.6 1.9-3.6 0-4.3-1.9-.8-3.4-1.1-5.2-1.2 1.2-4.8-8-6.4-10.9-6.5-3-.1-5.8.8-8.3 2.4.3-.3.6-.6.8-.9 1.9-1.5 3.9-3 5.9-4.3.4 0 .9-.1 1.4-.4 3.7-2.6 7.6-4.8 11.6-6.7 3.3-1 6.5-2 9.6-3.4 1.7-.6 3.4-1.3 4.5-2.5.1 0 .1-.1.3-.1 1.7.3 2.8-1.1 2.8-2.4.6-.6 1.2-1.2 1.8-1.9 1.1-1.3.8-3.3-1-3.8-1-.2-1.9-.4-2.8-.5-.5-.5-1-1-1.8-1.5-5.6-3.2-14.4 1.7-19.4 4.1-8.1 3.9-14.8 10.3-20.1 17.4-.4.5-.5 1-.4 1.4l-.1.1c.6-12.6-1.5-25.4-14.6-30.8-.8-.6-1.7-1.1-2.6-1.5.1-2.2-2.4-2.7-3.9-1.6-2.8-.9-4 3.5-1.2 4.3.4.1.8.3 1.2.5.8 1.7 2.2 3.2 3.5 4.7 6.2 9.7 9.6 20.1 10.1 31.2-.4 1.2-.8 2.3-1.2 3.5-.7-.1-1.5.2-1.9 1.1-3.1 5.9-5.8 12-8.1 18.2.4-5.1.1-10-2.1-13.9-1.1-1.8-3.5-1.2-4.2.5-1.6 4-2.2 7.4-2.5 11.7-.1 1.9 1.2 8.7 1.6 14.1-.5-1.9-1.1-3.8-1.8-5.6-1-6.3-2.9-12.5-7.3-14.5-4.5-2.1-7.9-2.2-9.9 2.8-.8 2 1.4 4.6 2.4 6 3.3 4.5 7.4 7.5 10.4 11.8 1.6 9.3 2.5 18.6 3 28-.3 1.6-.5 3.3-.7 4.9-1.2-2.6-2.5-5.2-4.1-7.8-.6-1-1.6-1.2-2.4-1-2.6-5.1-6.4-9.4-12.2-10.9-5.9-1.5-8.3 3.9-7.5 8.4.5 2.9 4.5 4.8 6.7 5.9 5.6 2.8 9.2 6.8 11.8 11.6.8 1.6 1.6 3.1 2.3 4.7.3.7.6 1.5.9 2.3-.8 7.4-4.7 13.7-7.4 20.8-4.7 12.1-5.6 25.2-9.7 37.2-1.5-19.6 6.7-37.5 8.1-56.6-4.9 4.8-8.4 9.5-10.9 14.6 1.1-9.3 1.1-18.7-.1-28.3-.2-1.4-1.3-2.1-2.4-2.1-.3-.8-.9-1.2-1.6-1.4-.9-11.2-3-22.3-6.2-33.1 4.6-3.5 9.4-6.3 12.8-6.3-5.2 0-9.8.9-13.9 2.4-1.9-6-4.2-11.9-6.9-17.6 1.6-2.8 3.2-5.5 5-8.2 3-4.1 6.1-8.2 9.2-12.2 1.8-2.2-1-5.2-3.2-3.2-5.3 4.9-10.3 10.1-14.9 15.6-.6-1.1-1.1-2.2-1.7-3.3-.4-.8-1.1-1.1-1.7-1.1-1.1-1.7-2.4-3.3-3.7-4.8-.4-.7-.9-1.5-1.3-2.2 7.9-8.2 15.2-17.1 22.8-25.3.1-.1.1-.2.2-.3.5-.2.9-.5 1.3-.6 2.1-.8 4.2-.9 6.2-.7 0 .5.2 1 .6 1.5 1 1.1 2.2 1.8 3.5 2.1-.4.9-.2 2 .9 2.6 8.7 4.6 10.3 14.3 10.4 23.2 0 1.3.9 2 1.9 2.1.4 1.8 3.4 2.4 4.2.6 4.4-9.8 7.2-21.3 0-30.2 0-.4-.1-.9-.3-1.2-19.4-27.2-42.2-1-60.8 22.6-3.8 2.9-7.8 5.5-12.1 7.6 6-18.9 13.3-37.4 22-55.4 7.2-10 16.7-17.9 27.9-23.4 7.8.4 15.1-2.2 22.4-5.2 1-.4 2.1-1.5 1.6-2.8-4.9-11.7-21-11.6-25.2.3-5.8 3.7-11.4 7.5-17.1 11.3 5.4-10.9 10.8-21.8 15.8-32.9.3-.2.6-.4.8-.8 3.1-5.6 7.2-10.3 12-14-.1 1.9 2.9 3.2 4.4 1.2 1.9-2.6 4-5 6.3-7.3l.3-.3c6.2-2.5 12.9-3.7 20-3.4 1.3.1 2.3-1.1 2.3-2.3.2-9.9-14.2-7.2-20.2-5.4-6.7 2-12.3 6.4-17.4 11.6 4.4-9.4 8.5-18.9 12.2-28.6 1.8-4.1 3.4-8.3 5-12.5 0 .6.2 1.3.6 1.8 1.1 1.3 2.3 1.7 3.8 1.6.6 1.7 1.1 3.4 1.5 5.2.4 2.5 4.6 1.9 4.5-.6-.1-3.7-1.2-7.2-3.3-10.1.4-.3.8-.7 1.1-1.2.1-.2.2-.3.2-.5 6.6 3 11.8 8.3 14.5 15.2.7 1.8 3.1 2.3 4.2.5 2.1-3.4.5-6.2-.8-9.2.8-.3 1.5-1.1 1.6-2.1.7-7.6-4-11.4-10.2-13.2 1-.2 1.8-.9 2.2-1.7.7.4 1.5.8 2.2 1.1.9.5 1.8.3 2.5-.2 3 .5 6 .6 8.1-.3 2.9-1.4 2.5-5.4.7-7.5-3.4-3.9-8.5-4.3-13.8-3.2-2.6-1.6-6.8-.9-9.4 0-1.1.4-2.2 1-3.2 1.7.9-2.1 2-5 2.6-7.7.9 0 1.8-.4 2.1-1.6 1-4.9-.1-9-3.3-12.9-.8-1-2.4-.8-3.2 0-3.6 3.3-6.2 7.3-7.7 11.7-3.8-7.5-12.5-12-21.7-10.1-2.2.5-2.2 3.9 0 4.3 5.4 1.1 10.2 3.7 13.9 7.5.7 4.1 2.1 7.9 4.2 11.4-2.3-2.2-5-4-7.9-5.3-7.2-6.1-15.8-11.6-23.4-3.3-.5.6-.7 1.3-.6 2 0 .1-.1.1-.2.1-.8.9-1.6 3.7-2.4 5.3-.8.4-1.5.9-2.2 1.4-1.6 1.2-1.4 4.4 1.1 4.2 2-.2 4.1-.8 5.2-2.7 5.2-2.4 11.2-2.4 16.6.2.4.2.8.2 1.1.2l1.2.6c.4.5.9.9 1.4 1.3l1.2.6c-.4.1-.8.1-1.2.3-.7.2-1.3.6-1.8.9-2.4 1-4.5 2.3-6.1 4.2-.7-.3-1.6-.2-2.3.6-3.4 4.1-4.6 9-3 14.1.1.2.2.4.3.5-12.7 4.6-15.8 17.3-16.2 29.7-.1.4-.1.7-.2 1.1-1.3-2.3-2.5-4.5-3.7-6.8-2.7-6.2-5.5-12.4-8.2-18.6-.3-.7-.9-1-1.6-1.1-1.6-4.9-3.1-9.9-4.2-15-.3-1.3-1.4-1.7-2.5-1.6-1.4-.6-3.6.6-3.3 2.7 1.4 9.4 3.7 18.4 7 27.1-.4-.3-.8-.7-1.2-1-5.3-3.9-14.8-8.9-21.1-4.8-2.4 1.5-1.6 6.2.9 7.4 8.3 3.9 15.3 5.9 21 11.2 5.5 6.2 9.4 14.1 15.1 20.2.8.9 1.9.8 2.7.3.9 1.5 2.1 2.6 3.7 3.6.4.8.8 1.6 1.3 2.3.5.9 1.2 1.2 1.9 1.1 0 .1.1.1.1.2-6.6 15-13.2 30.1-19.8 45.1-1.9-2-3.7-4.1-5.6-6.2-3.4-4.4-6.7-9-9.7-13.7 0-.7 0-1.4-.1-2.1.9-.4 1.7-1.3 1.3-2.6-.7-2.5-.7-4.8-.1-7 .5-.3.8-.7 1-1.3.4-1.4.9-2.7 1.6-3.9.9-1.3 2-2.5 3.2-3.7 2.3-2.3 5.9-3.8 7.8-6.4 2.3-3.1.5-7.8-3.9-6.5-6.5 1.9-11.3 6-14.5 11.9-2.4 4.5-2.2 8.9-1.6 13.4-8.8-14.4-15.8-29.7-21.2-45.7-.2-1.1-.3-2.3-.5-3.5.5-.7.7-1.6.4-2.4 1.4.1 2.9-1 2.4-2.8-.7-2.5-1.2-5-1.5-7.6 1.8-6.1 3.8-13.2 4.3-14.5 2.5-8.1.5-16.5 2.5-24.7.6-2.6-2.7-3.7-4.2-1.7-5.1 6.9-8.4 14.4-9.9 22.4-.6-12.9-1.5-25.8-3.2-38.6-1.6-12-4.7-29.8-17.2-35.5-.4-.2-.7-.2-1.1-.2-.8 2.4-2 3.6-1.6 5.2m8 8c.1-.2.2-.3.2-.5.7 1 1.4 2 2 3.2-.4.2-.8.5-1 .9-.3-1.3-.7-2.4-1.2-3.6m92.1 36.4c.1-.3.1-.7 0-1 1.9-.3 3.9.2 5.8 1.2-.6.3-1 .9-1.1 1.6-1.5-.7-3.1-1.2-4.7-1.8m-108.3.6c.3.1.5.1.8.2 4.3 3.9 7.7 8.7 10.9 13.5 1.7 2.5 3.4 5.1 5 7.9-4.9-7.6-10.5-14.8-16.7-21.6M655 89.5h-.1c-.4-.5-1.1-.8-1.8-.9-1.4-.2-2.6-.6-3.8-1.3 1.9-.3 3.7-.1 5.5.6 2.3 1.2 2.9 1.9 1.8 1.9-.3-.1-.9-.1-1.6-.3M609 102c.1-.6.2-1.2.4-1.8.5-1.2 1.2-2.2 2.1-3.1.9-.6 2.1-.9 3.7-.6 1.3.2 2.6.5 3.9.9-2.1 1.4-4.3 2.6-6.5 3.7-.1.1-2.3 1-3.2 1-.2 0-.4 0-.4-.1m-80.3-5c-.1 1-.1 2-.2 3-1.4 2.7-2.5 5.5-3.4 8.4.7-3.9 1.9-7.7 3.6-11.4m90.7 5.7c-3.7 10.2-7.7 20.2-12.1 30.2-1.6 3.4-3.3 6.7-4.9 10.1-.8-.1-1.6.2-2 1.1-.4 1-.9 2-1.3 3.1-.1.1-.2.3-.3.5-.4 1-.8 1.9-1.2 2.9-1.7 4-3.5 7.9-5.2 11.9-1.6-2.4-3-4.8-4.5-7.2-2.4-8-.4-16.3 3.1-24.1 2-3.1 4.5-6 7.5-8.7 3.1-2.8 4.2-4.7 3.5-8.6-.1-.5-.4-.8-.8-1.1 1.2-2 2.6-4 4-5.8l.3-.6c.2 0 .4.1.7.1.3.1.6.2.9.2.5.1 1.1.1 1.6.1 3.8-.1 7.5-1.9 10.7-4.1m-23.1 15.5c-.8 1.1-1.7 2.4-2.8 3.8-.5-.3-1-.5-1.5-.4 1.1-1.3 2.6-2.4 4.3-3.4M561 133.8c0-.2.1-.4.1-.6 2.6 1.8 5 4 7.2 6.3.3.6.5 1.1.8 1.7-2.4-2.8-5.2-5.2-8.1-7.4m73.6 6c2.6-.5 5-.5 6.3.3-2.1 0-4.1.3-6.2.6.1-.3 0-.6-.1-.9m-146 5.1c.8-.4 1.3-1.1 1.5-1.9 1 .2 2.1.4 3.1.6.5.1.9.2 1.4.4-.3.5-.5 1.1-.8 1.6-1.7-.3-3.4-.5-5.2-.7m7.4 7.9c.4 0 .7.1 1.1.1-.7 4.2-.9 8.4-.7 12.5-.7.3-1.1.9-1 1.9.8 7.1 2.6 13.8 5.2 20.2.2.6.4 1.3.6 1.9-5.8-11.3-8.6-24.6-5.2-36.6m8.7 1.7c3 .9 5.8 2.3 8.4 3.8 1.3 1 2.5 2 3.5 3.2.6.7 1.4.8 2 .6 3.8 3 7.1 6.6 9.9 10.5 0 .3.1.6.2.9 1.1 2.2 1 2.1 2.9 3.8.6.5 1.3.7 1.9.6 5.9 11.6 12.5 22.6 20 33.2l8.7 14.1c-3.7 7.2-6.8 14.6-9.4 22.2-.1-.4-.3-.8-.4-1.2-1-5.5-3.2-10.8-6.6-15.7 0 0 0-.1-.1-.1.2-.5.2-1.1-.3-1.8-3.1-4.6-2.5-10.3 1.7-14.1 1.1-.9.8-2.9-.5-3.5-4-2-8-.4-10.3 3.3-1.7 2.9-1.5 6.6-.5 10-1.6-.9-3-1.9-4.4-3.1-1-.8-2.2-.6-3-.1-.3-.2-.6-.3-1-.5 1-.9 1.3-2.7-.3-3.5-7-3.4-6.7-15.1-6.6-21.7 0-2.1-2.5-2.8-3.9-1.6-1.7 1.5-3.1 3.3-4 5.4-5.4-14.1-7.3-29.3-7.9-44.7m-20.1 45.4c1.8.4 3.7 1.3 5.4 2.4-.6.1-1.2.4-1.6.9-3.9-1.1-8-1.6-12.2-1.2-.1 0-.1 0-.2.1.1-2 3-3.4 8.6-2.2m1411.7 7.4c1 1.3 2.1 2.5 3.5 3.4-1.7 5.1-4.2 9.8-7.4 14.1 1.7-5.7 2.9-11.5 3.9-17.5m-14.9 12.8c.7-.7.8-1.5.5-2.3 1.3-1.5 2.1-3.3 1.6-5.4-.1-.4-.3-.7-.5-1 .4-.1.8-.2 1.3-.3-.8 9.3-1.9 18.5-3.3 27.7 0 .1-.1.1-.1.2-.9-6.1-1.6-12.3-2.1-18.5.3.1.6.2 1 .2.6.1 1.2-.2 1.6-.6m7.4-8.4c.7.3 1.3.6 1.9 1-.8 4.3-1.9 8.4-3.3 12.5.5-4.5 1-9 1.4-13.5M523.1 225.8l2.1.9c5.7 2.5 11.6 3.9 15.6 9.1 5.7 7.4 7 22.1 4.6 30.5v.1c-3.9 10-7.5 20.1-11.2 30.2-1.1 3-2 6.1-2.8 9.1-.6-1.2-1.3-2.4-2-3.6-5.6-12.1-13.5-23.4-23.2-31.8.3-1 .6-2 .8-3 1.2-2.2 2.5-4.4 4-6.5.9-1.3.1-2.6-1-3.1.1-.3.2-.6.3-1 .2-.6.1-1 0-1.4l2.4-3.6c.6-.8.5-1.6 0-2.2.7-1.3 1.3-2.6 2-3.9.7-1.1 1.5-2.2 2.2-3.2 1.7-2.4-2.3-4.6-3.9-2.3l-1.8 2.7c-.1.1-.3.2-.4.4-.2.3-.3.6-.5.8-.7 1.1-1.5 2.1-2.2 3.2-.2-.6-.3-1.2-.4-1.8 1.1 0 2.2-.8 2.2-2.2 0-.8.1-1.6.1-2.4l.2-.2c.5-.6.9-1.4.6-2.2l-.1-.3c-.1-.2-.2-.4-.3-.5.2-1.3.5-2.5.8-3.8.9-2.9 2.3-5.7 4.1-8.2h3.5c.3.1.5.1.8 0 .1.1.2.1.2.2.5.4 1 .6 1.5.6.6.3 1.3-.1 1.8-.6m1363.6 19.7c4.2-5.6 8-11.5 11.4-17.7-.1.7 0 1.4.6 1.9 1.1.9 2.3 1.6 3.6 2.2-2 3.5-7 7.1-9.5 9.1-1.9 1.6-3.8 3.1-5.8 4.5h-.3m18.2-7c0 .2 0 .3.1.5.5 1 1 2.1 1.6 3-3.4 2-7.1 3.3-11 3.7 3.3-2.1 6.4-4.6 9.3-7.2m-62.7 8.8c.1-.3.2-.7.3-1 .4-1.1-.2-2-.9-2.4 1 .2 1.9.5 2.9.7 5 1.7 10.1 3.2 15.2 4.4-5.8-.2-11.7-.8-17.5-1.7m59.3 5.3c.4-.7.3-1.4.1-2 1.2-.6 2.3-1.3 3.4-2 1.4-.1 2.7-.3 4-.6-1.4 3.3-3.4 6.3-6.6 8.5-3.3 2.2-8.3 2.7-11.6.7 0-.2.1-.4.2-.6.1-.3.2-.5.4-.8.1-.2 0-.3.1-.4h.1c1.2.4 2.5.6 3.8.6 2.4-.1 4.8-1 6.1-3.4m-17.9 5.1c.3.2.5.5.7.8.1.2.2.3.3.5-.2.3-.4.6-.6.8-.6.5-1.4.8-2.2.9.7-1 1.3-2 1.8-3m-37.4 9.4c6.5-1.3 13-4.2 19.2-6.4.8-.3 1.2-.8 1.4-1.5 1-.2 2.1-.4 3-.6-1.3.7-2.6 1.4-4 2-6.2 3.2-12.5 5.8-19.4 6.7l-.2-.2m6.5-6.8c-1.9.6-3.7 1.3-5.6 1.9-3.3 1-6.6 1.4-10 .9 0-.2.1-.3.1-.5v-.1c0-.2.1-.4.1-.6.1-.6-.1-1.1-.5-1.5 2.3 0 4.6 0 6.7-.1 1.8 0 3.4-.1 4.8-.1h1.5c1 .2 1.9.2 2.9.1M738.3 391.7c-2.4-9.3 4.7-25.3 7.2-34.1 6.4-22.7 13-46.5 22.7-68.1 3.6-8.1 6.8-22 14.3-27.4 4 13.3 2.2 31.6 2.2 45.5 0 10.6.7 21.1 1.2 31.5-2.2-5.1-5.8-9.4-11.2-12.2-1.6-.8-4.1.6-3.4 2.5 2.2 6.1 7.2 10.4 10.3 15.4.3 1.9.5 3.9.8 5.8-2.6-4.4-7-7.4-12-7.1-1.4-.6-2.8-1.1-4.2-1.6-1.9-.7-3.6 1.7-2.6 3.3 2.3 3.8 7.2 5.4 10.6 8.3 4.3 3.7 7.3 8.6 9.1 13.8-.2.2-.4.5-.5.9-.1.6-.3 1.2-.4 1.8-2.8-2.4-6.1-4.1-9.8-4.9-2.3-.5-3.7 2-2.2 3.8s3.3 3.4 5.2 4.8c.1.2.2.3.4.5.5.5 1.1.9 1.7 1.2.5 2 1 4 1.6 6-.6 2-1.3 4-2 5.9-.3-.6-.5-1.3-.6-1.9-3.4 5.9-5.7 12.3-7.7 18.8-.6 1.9-1.1 3.4-1.7 4.5-.3.5-.5 1-.8 1.5v.1c-1.3 1.7-2.3.2-3.4-5.7-1.5-8.4-4.3-41.8 2.9-47.9-9 7.6-13.9 18.7-18.9 29-1.8 3.8-4.2 9.7-6.2 9.7-1.1 0-1.9-1.1-2.6-3.7m1154.2-129.1c1.3.3 2.7.4 4.1.3-.5 1.3-1 2.6-1.4 3.9l-2.7-4.2m-13.7 2.1c.2.1.5.2.7.2-1 .9-2.2 1.8-3.4 2.4 1-.8 1.9-1.7 2.7-2.6M551.7 330.2c-.4-6.5 0-13-.2-19.4-.1-4.6-2.2-10-2.9-14.9 1.3-1.2 2.6-2.7 4-4.3 6.6-4.2 12.6-9.4 18.3-15 .4.4.8.9 1.2 1.3.5.8.9 1.6 1.4 2.4-.6.8-.7 1.9.1 2.8.8.8 1.5 1.7 2.2 2.6.7 1.7 1.3 3.4 2 5.1-11.4 15.2-20.1 32.2-25.5 50.4-.2-3.6-.4-7.3-.6-11m1344.4-10.8c-.1-13.6 0-27.2.5-40.7 2.7 6.7 4.7 13.8 6.3 20.8 2 8.8 3.1 17.7 3.6 26.8-3.1-2.8-6.6-5.1-10.4-6.9M502.3 286.7c.1-.5.1-1.1.2-1.6.1-.4.1-.7.2-1.1l.1.1c4.9 4.6 9.6 9.5 13.5 14.8-.9 1.6-1.7 3.2-2.5 4.9-3.4-5.9-7.3-11.6-11.5-17.1m41.3 26.5c1.2-5.4 2.5-10.9 3.9-16.2l.1-.1c-1.7 12.2-4 24.6-5.9 36.9.4-6.9 1-13.8 1.9-20.6m-23.1-16.1c0-.1-.1-.1-.1-.2 1.9 2.7 3.8 5.4 5.4 8.3.5 1 .9 2.1 1.4 3.1-1.9-3.9-4.1-7.6-6.7-11.2m326.4 1.1c1.1 2.5 1.2 6.1.9 9.2-.3-3.1-.7-6.1-.9-9.2m-265.3 3.7c.7 3.4 1.3 6.8 1.9 10.2.1 1.3.1 2.5.2 3.8-8.5 6.9-14.5 17.6-18.8 29.5 3.8-15.1 9.5-29.6 16.7-43.5m-65.2 6.8c.5-2 1.1-4.2 1.6-6.4 4 8 7 16.6 9.4 25.6v.7c-.2 2.1-.4 4.1-.5 6.2-2.6-9.1-6.1-17.8-10.5-26.1m-15.4-6.3c2.6 4.9 5 10 7 15.2-3.4 9.6-5.6 19.7-7.2 30-.7-15.1-.6-30.2.2-45.2m367.2.7c1 1.8 1.9 3.6 2.9 5.5-3.1-.6-6.8 1.6-9.3 3.1 2.1-2.8 4.3-5.7 6.4-8.6m-41.9 6.3c-1.3-1.3-2.7-2.6-4.3-3.7 2.7 1.2 5.1 2.8 7.1 4.7-.5.1-1 .3-1.4.6-.4-.5-.9-1.1-1.4-1.6m46.9 4.1c.1 0 .1-.1.1-.1 1.1 2.5 2.1 5 3.1 7.5-5-1.6-10-1.9-14.8-1.1 3.9-2 7.8-4 11.6-6.3m-39.4 6.8c-.4-2.1-.9-4.2-1.4-6.2.2.2.3.4.5.7 2 3 2.7 6.4 2.6 9.9-.5-1.5-1.1-2.9-1.7-4.4m-13.7 6.9c-1.3-1.3-2.8-2.4-4.6-3.1-.7-.9-1.4-1.8-2.2-2.7 2 .8 3.9 2 5.7 3.7.7.7 1.3 1.5 1.9 2.3-.2 0-.5-.1-.8-.2m-238.7-.5c.7-.8 1.6-1.9 2.6-3 .2 4.7.4 9.3.5 13.9-.6 6.4-1.2 12.7-1.9 19.1 0 .1-.1.2-.2.3-2.7 8.6-5.5 17.2-8.2 25.7 0-16.8 2.4-33.3 7.3-49.7.5-1.8-1.2-3.1-2.7-2.8.8-1.1 1.7-2.3 2.6-3.5m261.7 11.5c1.3-.7 2.6-1.5 3.8-2.4h.1c.2-.1.3-.2.5-.3 1.2-.9.8-2.3-.1-3.1 4.6-2.7 10.1-3.8 15.8-4.4 5-.5 9.4-.1 13.7-2.9.3-.2.5-.5.7-.7 1.7 4.8 3.1 9.6 4.4 14.4 3.3 12.5 6.3 25.1 9.4 37.6 2.9 11.9 6.2 23.4 7 35.6v1.5c-.2.2-.3.3-.4.6l-.1.1c-.3-4.4-1-8.8-2.5-13.2-.1-.4-.3-.7-.6-.9-1.2-9-3.1-17.9-5.8-26.7-.2-1.6-.5-3.1-.7-4.7-.1-.9-.7-1.3-1.4-1.5-.3-.5-.7-.9-1.3-1.1-1.7-3.7-3.9-7.1-6.4-10.2-1.7-4.6-3.9-9-7-12.8-1-7.2-15.2-7.6-20.5-6.9-3.1.5-6.1 1.2-8.9 2.3.2-.1.3-.2.3-.3m-195.7 32.2c.3-6.4 1.6-12.8 3.6-19 2.6-5.2 6.1-9.9 10.9-14.1.6-.5.8-1.2.7-1.8l2.7-2.4c1.6-.6 3.3-.9 5-1.2-2.5 3.7-4.6 7.8-6.2 12-1.1.1-2 .8-1.9 2.1 0 .4.1.8.1 1.2-1.2.2-2.2 1.3-1.9 2.7.3 1.6.5 3.1.5 4.7-1 4.7-1.6 9.5-1.9 14.4-.5 2-1 4-1.4 6-.3 1.3-1.4 5.3-2.7 8.9-.4.7-.8 1.4-1.3 2-2.2-5.1-4-10.4-6.2-15.5M512.6 342c-.2-3.3-.1-6.5 0-9.6 3.4 13.2 5 27.1 5.2 40.9-2.7-10.3-4.7-20.8-5.2-31.3m1383.6-8v-.4c3.7 2.6 7 5.6 10.1 8.9-.1 3.1-.2 6.2-.2 9.3-.8 8.7-1.4 17.5-1.4 26.4 0 4.4-2.2 14.4-.5 18.3-9.3-20.2-7.9-40.8-8-62.5m-1093.8-.4c2.4 1.2 4.6 3.2 6.6 5.4-.1.5 0 1 .3 1.4-2.2-2-5.5-4-6.9-6.8m43.7 13.8c1.2-1 .8-2.3 0-3 1.6-.1 3.2-.2 4.9-.1 4.5.1 11.4 2.8 16.7 2.2 4.3 7.4 7.7 15.2 10.3 23.2.9 5.7 1 11.8.6 18-.9 5.6-1.8 11.1-2.7 16.6h-.1c0-.5.1-1 .1-1.5.1-1.2-.7-1.9-1.6-2.1.3-4.8.4-12.4-1.8-17.2-.3-2.3-.7-4.4-1.2-6.5-.6-2.5-4.5-1.9-4.5.6v2c-1.4.8-2 2.9-.2 3.8.1 0 .2.1.2.2.1 6.3.3 12.6.5 18.9 0 .7.3 1.2.7 1.6-.6 4.7-1.6 9.4-3.1 13.7.5-9.9-.1-19.6-1.9-29.5-.1-.8-.6-1.3-1.2-1.5-.1-.7-.2-1.5-.3-2.2v-.1c0-.2 0-.4-.1-.6-.3-1.7-2.3-2-3.5-1.2-.1-1-.5-1.9-1.3-2.6-4.4-3.5-11.9-5.3-19.5-5.1 0-2.3.1-4.6.1-6.9 8.3-1.3 17.7.7 24.9 3.3 1.3.5 2.7-.6 2.9-1.9 1.5-.6 1.5-3.1.1-4-.3-.2-.6-.3-.8-.5-1.8-5-6.6-7.3-12.1-8.2-4.1-2-9.7-2.3-14.1-2 2.7-2.7 5.3-5.1 8-7.4m-321.5-.2c.2-.2.4-.3.6-.6.4 1.8.7 3.6 1 5.4v4.7c-.4-3.1-.9-6.3-1.6-9.5m-3.6 5.6c1.2 7.1 1.9 14.4 2 21.7-.2 1.1-.4 2.2-.6 3.4.1-8.5-.4-16.8-1.4-25.1m306.9 3.9c1.1-.7 2.3-1.3 3.5-2 .1 0 .2 0 .2.1l-1.1 1.1c-.9.3-1.8.6-2.7 1 0-.1 0-.1.1-.2m-35.4-1.2c.2.3.4.7.5 1-.1.6-.1 1.2-.1 1.8-.2.1-.4.2-.6.4.1-1.1.1-2.1.2-3.2m-316.2 14.2c0-3 .1-6 .2-9 0 3.5 0 7.1.2 10.6v.4c-.2-.7-.3-1.4-.4-2m347.6 5.2c3.4-3.9 7.9-6 12.8-6.8-.3 1.9-.7 4.3-1.2 6.9-5.3.3-10.5 1.7-14.6 4.1.4-1.1.9-2.2 1.4-3.3h.1c.5-.2 1-.4 1.5-.9m-26.6 17.3v-5.6c.3-4.1.5-8.2.3-12.4 0-1.2-.9-1.9-1.8-2.1v-1.5c.7-.7 1.4-1.5 2-2.3.1.1.1.2.2.2.6 1.8 1.1 3.6 1.5 5.4.6 5.1.7 10.1.1 15.1l-2.1 3.3c-.1.1-.1 0-.2-.1M458.4 378c.9 1 1.8 2 2.6 3-1 10.3-2 20.9-2.4 25.4.3-4.7.1-15.6-.2-28.4m5.2 9.3l.3-3c.6.7 1.1 1.4 1.6 2-.3 4.4-.6 8.8-1.1 13.2.4-4.1-1.4-8.1-.8-12.2m373.6.2c4.2-.1 8.4.1 12.1.2-1.3 1.3 0 4.2 2.3 3.7 1.3-.2 2.6-.4 3.9-.7-1 10.4-2.1 20.8-3.1 31.3l-2.4-2.7c-3.6-6.6-6.4-13.5-8.5-20.8-.5-1.7-2.3-1.9-3.5-1.2-.5-3.2-.7-6.5-.8-9.8m-17.9 5.7c1.9-1.6 3.8-2.8 5.9-4 2.2-.7 4.5-1.2 6.9-1.5-2.5 6.8-6.1 11.8-11.6 9.5-1.2-.5-2.2-1.5-3.1-2.9v-.5l.1-.1h.3c.5.1 1-.1 1.5-.5m252.9 44.7c-.5-10.5.5-20.8 3-31.2.5-2.2 1.2-4.3 2-6.5 1.4-2.7 3-5.4 4.5-8.1-2.1 6.2-4.2 12.4-5.6 18.7-2 8.9-2.5 18-1.3 27l-.6 4.8c-.7-1.5-1.4-3.1-2-4.7m-141.6-41.4c.1 5.6.5 11.9-3 14.1 1-4.7 1.9-9.5 3-14.1m15 23.6c-.9-2.8-1.2-5.8-1.4-8.8.6 4.8 1.9 9.5 4.2 13.8-1.2-1.4-2.2-3.2-2.8-5m293.9-52.9c.2-.2.4-.5.6-.7-.2.3-.4.5-.6.7m17.2 24.1v-1.5z"/><path d="M2031.2 2.8c-5.4 22.2-10 44.5-14 66.9 3.2-5.7 6.9-11.2 10.6-16.4 3.1-4.3 12.6-17.4 19.8-14 9.1 4.2-.2 12.3-4.4 16.3-7.3 6.9-14.5 13.9-20.4 21.9-3.6 5.9-6.9 12-9.8 18.4-.1.1-.2.2-.2.3-.1.3-.1.7-.2 1-.1.7-.5 1.2-.9 1.4-1.9 7.1-4.2 14-6.9 20.8-.6 1.6-1.2 3.3-1.8 4.9 6.4-5.2 13.3-10.1 20.6-13.8 0-2.1.1-4.1.1-6.2 0-1.9 2.5-3.1 3.9-1.6 1.3 1.4 2.4 2.9 3.5 4.5.8-.3 1.6-.7 2.5-.9 3.4-1.2 9.4-1.9 14.9-1.3.4-.9 1.3-1.6 2.6-1.3 6.8 1.8 12.6 5.2 17.5 10.1 1.3 1.3.4 4-1.6 3.8-1.1-.1-2.1-.1-3.2-.2h-.4c-2.5-.1-4.9 0-7.3.1-3.7 1.3-7.8 1.7-12 1.9-1.1.3-2.2.5-3.2.9-1 .3-1.8-.1-2.3-.7h-1.7c1.6 5.9 1.9 12.1.9 18.4-.9 5.3-2.4 10.3-4.4 15.2.8.6 1.3 1.7.7 2.8-.7 1.3-1.5 2.7-2.3 4 1.5-.1 3 1 2.3 2.7-.9 2.1-1.9 4.1-3 6 1.7-1.1 3.3-2.2 5-3.3 7.2-4.4 15.8-5.2 22.4.3 4.4 3.6-.4 9.1-4.1 10.2-11.5 3.7-22.6 7.4-33.5 12.3 5 8.6 6.1 18 3.2 27.7-.4 1.3-1.5 1.7-2.5 1.5 2.9 4.7 5.6 9.4 8 14.3 8.6-5.4 18.2-8.5 28.9-7.9 1.2.1 1.9.9 2.2 1.9.7-.4 1.3-.9 2-1.3 2.5-1.6 4.8 2.3 2.3 3.9-10.6 6.6-19.4 14.7-26.7 23.8.3.9.6 1.7.9 2.6l.3-3.3c0 1.4.1 2.8.1 4.3 2.2 6.2 4.1 12.5 5.5 19 .1-1.9.2-3.8.2-5.7.2-9.6 2.3-19 5.2-28 .1 9 .3 18.6-.7 27.5-.6 5.4-1.4 10.7-2 16.1 3.1 9.1 5.3 18.5 6.7 28 .1-.6.2-1.2.2-1.8 1.4-10.3 3.3-20.5 6-30.6 1.5-5.8 2.3-12.2 4.6-17.7-2.3 7.8-2.3 16.6-3.2 24.7-1.3 11.2-2.1 22.1-1.4 33.4.4 6.5.7 13.1 1 19.6.6-.6 1.3-1.1 1.9-1.7-.1-3.6-.6-15.4.5-15.4.2 0 .9 5.8 1.7 13.5 1.4-1.2 2.7-2.4 4.1-3.5.4-12.6.8-25.7 1.1-35.6v233.8H602v-210c1.2-.3 2.3-.5 3.5-.8.9-3.1 1.6-6.1 2.2-9.2v-4.4c0-.9.5-1.5 1.1-1.8 2.8-18.7 1.8-37.8.4-56.9 0-.5.1-.9.3-1.2-.4-1.1-.8-2.1-1.2-3.1-1.1-2.7 3.3-3.9 4.4-1.2 2.9 7.2 4.9 14.6 5.9 22 .1.1.2.1.2.2.2 0 .4.1.6.2 2.3-9.9 6.5-19.3 11.7-28.3-.1-2.3-.2-4.5-.3-6.8-.4 0-.8-.1-1.1-.2-7.7-1.6-12.6-7.1-15.3-14-.4.3-1 .4-1.6.3-2.2-.3-3.8-1.9-4.4-4-.3-1.1.2-2.1 1.1-2.5 0-.6.2-1.1.6-1.4-.9-.9-1.6-2.1-1.8-3.4 0-.2-.1-.4-.1-.6-.1-1.1.6-1.7 1.4-2-1.1-1-2-2.1-2.7-3.4-.2-.2-.4-.4-.5-.6-.5-.7-.4-1.6 0-2.3l.1-.2c.1-.8.6-1.5 1.6-1.9 2-.8 4.3 1 4.2 3.1 0 .4-.2.8-.3 1.1 1.4 1.7 3.3 2.8 5.6 3.3 1.3.3 1.7 1.3 1.6 2.3.3-.6.7-.9 1.2-1-.8-.9-1.5-1.8-2.2-2.8-.5-.1-1-.1-1.5-.3-1.9-.5-2-2.7-.9-3.8-1-1.9-1.7-4-2.3-6.1-1.9.6-4 .6-5.8-.1-2.7-1-1.7-4.6 1.1-4.4-.5-.5-.9-1-1.2-1.4-.9-1.4.2-3.1 1.7-3.3v-.2c.3-.9.9-1.6 1.6-2.1.1-.4.2-.8.3-1.1.6-2.2 3.7-2.1 4.4 0 0 .1.1.3.1.4 0-.1.1-.1.1-.1 1.2-2.6 5.2-.4 4 2.3-.3.7-.7 1.4-1.1 2.1.5 0 1.1 0 1.7.1 2 .4 2.2 3.2.5 4.1-1.1.6-2.2 1.1-3.4 1.5.2.6.3 1.3.5 1.9h.5c1.6.3 3.1.1 4.6-.6 2.3-1.1 4.7 1.7 2.8 3.5l-.1.1c.8.2 1.7.3 2.5.5.4.1.7.3.9.5-.6-1.1-1.1-2.1-1.7-3.2-.5-.9-.3-1.8.2-2.4-1.5-2.7-2.7-5.6-3.8-8.6-.6-.1-1.1-.4-1.4-.7-.2-.2-.5-.3-.6-.5-1.4-.2-2.7-1.3-3-2.8s1.2-3.4 2.8-2.8l-.2-.8c-.8-2.8 3.6-4 4.4-1.2l.5 1.6c.4-.3.8-.5 1.3-.5.5-.4.9-.7 1.4-1.1.6-.5 1.4-.6 2.1-.5-.2-1.2-.3-2.4-.4-3.5-1.8-.3-3.5-1.3-4.7-3.1-1.1-1.7.7-3.8 2.6-3.3.5.1.9.2 1.3.3 0-.3-.1-.5-.1-.8-.3-2.9 4.2-2.9 4.6 0v.2c.1-1.9 2-3.5 3.8-2.4 1.5.8 1.6 2.3 1.2 3.6h.3c2.9.3 3 4.3 0 4.5-1.4.1-2.7.1-4.1 0-.2.1-.4.2-.5.3.2 1.9.5 3.9.8 5.7h.4c.5.2 1 .3 1.5.5-.2-.9-.4-1.9-.6-2.8-.6-2.8 3.8-4 4.4-1.2.2 1.1.5 2.2.7 3.3.1-.1.2-.3.3-.5.7-2.8 5.1-1.6 4.4 1.2-.1.4-.3.7-.4 1.1.4-.1.8-.1 1.1 0 1.8.5 2.4 2.3 1.6 3.8-.3.6-.8.9-1.3 1.2.7.5 1.2 1.3.9 2.4-.1.4.2.9.5 1.3.4-1.5 1-3 1.9-4.3 1.6-2.4 5.6-.2 3.9 2.3-.5.8-.9 1.7-1.2 2.5.9-.2 1.7-.3 2.6-.4 1.3-3.3 2.6-6.6 3.6-10.1-2.1-1.3-4-3.2-5.2-5.5-1.3-2.6 2.6-4.9 4-2.3.2.4.5.8.7 1.1.6-.4 1.4-.4 2.2-.2-.1-.5-.1-1-.1-1.5-.2-2.9 4.4-2.9 4.6 0 0 .6.3 1.1.7 1.5 1.7-.4 3.3.5 3.7 2.2.2.8-.1 1.7-.7 2.2.4-.1.7-.1 1.1-.2 2.5-.7 3.9 2.8 1.8 4.1-1.5.9-3.3 1.1-4.9.7-1.2 0-2.4-.2-3.5-.5-1.3 4.3-3.2 8.4-4.7 12.7 2.9.6 1.7 4.9-1.2 4.3-.1 0-.2-.1-.3-.1-1 3.4-1.6 6.8-2.1 10.3 4.8-5.6 9.6-11.1 14.7-16.4-.9-1.1-1.8-2.3-2.6-3.6-1.3-2.2 1.8-4.6 3.6-2.7.4.5.9.9 1.4 1.4-.3-1.1-.3-2.4.1-3.5.9-2.7 5.3-1.6 4.4 1.2-.2.7-.2 1.3-.1 1.8.7-.6 1.3-1.2 1.8-2 1.7-2.4 5.6-.1 4 2.3-.5.8-1.1 1.5-1.7 2.1 1 .2 2 .2 2.7.1 2.2-.1 3.3 3.3 1.1 4.2-.8.3-1.6.6-2.4.7-.1 1-.8 2-2.2 2h-.3c.1 1.7-1.6 3.3-3.3 2.1-1.1-.7-2-1.5-3-2.4-5.4 6.4-10.9 12.7-16.7 18.7 5-3.5 9.9-7.2 15.7-9.4-.1-.4-.2-.8-.2-1.2-.1-1.2.7-1.9 1.6-2.1.6-.5 1.4-.7 2.1-.6.9-.4 2.1.1 2.7 1.1 4.7-3 9.4-5.9 14.3-8.6 0-1.2.5-2.4 1.2-3.3.6-.7 1.4-.9 2-.7 1-.8 2.6-.8 3.3.6.2.4.4.7.7 1.1 1.7-2.4 5.3-.3 4 2.3-.4.7 0 1.3.6 1.8.8.6.9 1.9.4 2.7l-2.1 3.2c-.8 1.2-2.5 1.5-3.6.5-1.1-1.1-2-2.4-2.7-3.7-.2 0-.4 0-.6-.1-.4-.1-.7-.2-1.1-.4-4 2.2-7.8 4.5-11.6 6.9 1.1.7 1.6 2.3.4 3.4-1.4 1.3-2.8 1.7-4.2 1.5 0 1.9-2.2 3.1-3.8 1.7l-.9-.9c-3.3 2.3-6.6 4.8-9.9 7.3 5.7-.9 11.4-1.9 17.1-3 2.4-.8 4.7-1.7 7-2.6 0-.2-.1-.4-.1-.6 0-2.4 3-2.9 4.3-1.1.1 0 .2-.1.3-.1-.5-1.8-.6-3.7-.3-5.6.4-2.9 4.8-1.6 4.4 1.2-.1.7-.1 1.4 0 2 .3-.2.5-.4.8-.5 1.2-.8 2.4-.2 3 .7 1.2.2 2 1.7 1.7 2.8-.3 1.6-.2 3.1.2 4.7.5 2-1.6 3.4-3.4 2.5-.9-.5-1.7-1.1-2.5-1.7.6 2.6-2.7 3.8-4.2 1.7l-.9-1.2c-1.9.5-3.7.9-5.6 1.3.8.1 1.6.5 2 1.6.2.5.3 1.1.6 1.6l.3-.3c1-.9 2.5-.6 3.4.2 1.6-.7 3.2.3 3.3 2 .2 3-2.9 5-5.7 4.7-.5-.1-.9-.2-1.3-.3h-.7c-.7-.2-1.3-.8-1.6-1.4-6.5 1-13 1.7-19.5 1.9 2.7.2 5.5.3 8.3.4 8.1.3 16.9 1.3 24.9-.7-.7-1.5.3-3.5 2-3.3-.1-1-.1-2 0-3 .3-2.9 4.9-2.9 4.6 0-.2 1.5-.1 2.8.3 4.1l4.6-2.2c2-1 4.3 1 3.1 3.1-.5.9-1 1.8-1.5 2.8.7 0 1.3-.1 2-.2 2.9-.6 4 3.4 1.2 4.3-1.8.6-3.4.6-5.2.4-.7 1.4-2.4 1.7-3.7.7-.9-.7-1.7-1.6-2.5-2.5-3 2.1-7.6 2.9-12.4 3.1.4.2.7.6.8 1 .1.1.1.2.2.4.1-.1.2-.2.4-.3 1.9-1.5 5.3.5 3.6 2.8.1.7-.1 1.5-.5 2.1.5 1.8-.2 3.5-3 3.9-1.5.2-2.8-.6-2.9-2.2 0-.5-.1-1-.1-1.5-1 .6-1.9 1.3-3.5 1.3-.8 0-1.6-.1-2.3-.1.3.3.5.6.7 1 .1.3.2.7.3 1 .2.1.3.3.5.5 2.4-.9 4.3 1.6 2.7 3.6l-1.7 2.9c-.9 1.9-3.7 1.2-4.2-.5-.1-.2-.1-.4-.2-.6h-.6c-.7 0-1.2-.3-1.6-.8-7.3-.6-14.1-2.5-20.5-5.8.5.8.5 1.7.1 2.4 1.9 1.6 4.1 2.6 6.6 3 .7-.4 1.5-.7 2.3-.9 1.8-.6 3.2 1.2 2.8 2.8.9.2 1.8.7 2.5 1.3 1.8 1.5-.1 4.3-2.2 3.8-.9-.2-1.8-.4-2.7-.5l-.1.1c-.1.3-.3.5-.4.8-1 1.9-3.8 1.1-4.2-.7-.6.1-1.2.3-1.8.5-2.7.9-3.9-3.1-1.4-4.2-2.6-1.1-4.8-2.9-6.6-5.1-2.7.6-5.9-.3-8.6-2-3.1-1.9-5.6-4.5-7.7-7.4-2.1 3-4.1 6.1-5.9 9.3 4.7 14 7.8 27.9 9.1 42.6 3.6-1.2 7-2.3 10.5-3.5-.5-1.3.2-2.4 1.3-2.9-.2-3.4-.5-6.8-1.1-10.2-3.8-1.5-6-7.2-7.2-11-.7-2.1 2.3-3.9 3.8-2.2.9 1.1 1.9 2.1 2.9 3 0-.3.1-.6.1-.8.3-2.8 4.6-3 4.6 0 0 1.5 0 2.9-.1 4.3 1-1.5 3.1-2.8 4.1-4.4 1.3-2.1 5.1-.8 4.2 1.7-1.2 3.4-3.4 5.9-6.6 7.1 0 .4-.1.9-.3 1.2 0 .1-.1.2-.1.3-.2.3-.4.6-.7.7.5 3.5.9 7.1 1.1 10.6 4.7-1.9 9.2-4.1 13.3-7.1 2.6-2.4 5.1-5 7.6-7.6-2.2-1.4-.2-4.9 2.2-3.8-2-2.8-2.7-6.5-1.1-10.3.9-2.1 3.6-2.2 4.4 0 .2.5.3 1 .5 1.6.4-.6.9-1.1 1.5-1.6 2.1-1.7 4.6.4 3.6 2.7l-.4.9c1.7-1.6 4.6.8 3.4 2.9 0 .1-.1.1-.1.1.4-.3.8-.5 1.1-.8 2.3-1.9 5.1.9 3.2 3.2-.1.1-.2.2-.2.3.8.7 1.1 1.9.6 2.9-2.9 5.6-8.8 5.7-14.1 4-3.2 4-6.7 7.4-10.6 10.3-2.3 2.1-4.6 4.1-7 6 2.6-.2 5.2-.7 7.1-1 5.8-.8 10.6-3.5 13.3-8.7 1.4-2.6 5.2-.3 4 2.3-.2.4-.4.7-.6 1.1.2-.1.4-.1.6-.2 2.1-.5 4 2.2 2.2 3.8-.1.1-.3.2-.4.3 2 .3 2.6 3.2.7 4.2.7 1.3-.1 3.2-2 3.3H692c1.1 1.8-1.2 4.4-3.1 3.1-2.1-1.5-3.8-3-5.5-5-.4-.4-.5-.9-.6-1.4-2.7 1.1-5.7 1.7-8.8 2-3.4.3-7.2.8-10.7.4-1.8 1.3-3.6 2.5-5.5 3.6-4 2.4-8.4 4.3-12.7 6.2 0 .6.1 1.3.1 1.9.1 20.6 1 41.1 2.5 61.5 5.2-17.3 8.2-36.6 19.5-51.5-.1 21.1-13.6 47.8 1.1 67.8 3.7-8.5 8.9-16.2 13.4-24.4.6 6.4 2 13 5.3 18.6.9-11.7.1-23.6 2.4-35.2 3.3-17.1 10-34 16.1-50.3 4.4-11.9 10.7-19.6 11.4-33.2 0 8.5 1.4 18.4-.1 26.8-1.9 10.2-7.7 19.6-10.6 29.5-5.1 17.5-7.2 37.4-5.9 55.6 5.4-11.6 6.1-27.4 15.1-37.4.7 14.8-7.3 27.7-1.4 42.6 6.9-.9 8.4-13.1 9.9-18.1 2.4-7.9 9.6-14.1 11-21.7.6.5 4.2 7.5 3.8 7.5 6.4.4 11.6-6.8 17.2-9.7 10.5-5.4 22.8-7.2 34.4-9.8 10.6-2.4 21.3-6.8 32.1-4.5 10.5 2.2 20 7.7 28.9 13.5 3.6 2.3 7.2 4.6 11.1 6.3 2.7 1.2 6.1 3.6 9.1 4.3 2.7-5.7-1.5-16.2-4.7-20.9 3.3 4.7 7.2 9 10.1 13.9 1.6 2.6 2.4 5.3 3.6 8.1.4 1 3 4.5 2.9 5.1.7-8.2 9-15.4 13.1-22.2-3.2 7.6-10.6 17.4-7 25.8 0 .1 1-5.3 1.1-5.8.6-2.1 2.1-3.9 2.9-5.9 1.8 6.3 1.3 13.2 4.4 19.1 3.4-8.1 3.9-19.7 9.8-26.6-2.9 5.1-5.9 20-2.1 25-2-2.6 3.3-10.1 3.9-12.7 0 3.9-1.4 11.8 1.2 14.4 2.1-12.3 4.6-24.1 9.5-35.8 4-9.5 7.9-19.4 9.8-29.5-.4-.1-.7 0-1.1-.1-.9-8 3.9-16.9 7-24.1.6-1.5 4.2-9.2 6.8-6.6 2 2-4.2 15.1-4.9 17.4-1 3.4-1.5 9.6-3.7 12.5-2.2 3-2.4 1.3-3.3 5.3-1.8 7.8-4.2 15.6-6.1 23.3-1 4.1-3.2 7.9-4.1 12.1-1 4.4-1.5 8.9-2.8 13.3 4.4-15.1 14.6-25.8 23.7-38.2 5-6.8 7.6-15.6 13.4-21.7-2.5 4-4.2 8.4-6.6 12.5-2.2 3.7-7.3 9.4-6.9 13.9 5.6-8.1 14.5-13.7 23.1-18.5 4.6-2.6 12.5-5.5 13.8-11.3.5-2.1-3.3-7 .4-7.6 4.5-.8 2.6 7.8 3.4 9.6 2.1-1.4 3.4-5.2 6-5.2 1 4.2-4.4 4.6-3.6 8 2.8.3 9.1 2.9 7.3 6.5-.1.2-4.4-2.3-4.8-2.6.2 3.2 4.9 5.6 3.5 9.1-4.1-.4-3-8.8-8.5-8.8.3 1.2.1 2.7.3 3.9-2.7-.6-.5-3.3-2-4.5-.8-.7-5.6 0-6.7.3-3.8 1.1-6.9 3.7-10.1 5.9-3.5 2.4-7.3 4.6-10.6 7.2-10.5 8.6-19 19.9-23.1 32.8-1.4 4.3-2 9-3.3 13.2 1.3-3.4 3.9-6.8 5.8-9.8 3.6-5.8 7.6-10.8 12-16 3.7-4.4 7.6-7.2 12.8-9.5 3.1-1.3 6.1-3.5 9.5-3.9-4.5 1-8.3 5-11.6 7.9-5.8 5.1-10.6 11.1-14.7 17.6-3.2 5.1-6.1 11.9-6.6 17.8 18.2-8.3 34 2 47.9 13.8 5.2 4.4 19.3 13.5 19.8 21.5.1-7.5 1-16.9-3-23.3 6.1 9.9 10.9 19.3 9.6 31 1.2-4.7 4.1-9.5 5.2-14.3 2.8-12.6-.8-24.8-1.4-37.4 1.2 16.2 5.3 31.3 4.3 47.5 3.4-6.7 5.9-15.1 12.3-19.6.1 3.6-1.7 6.9-1.2 10.5.3 1.7 6.4-3.5 6.8-4 1.4-1.9 2.4-6 2.8-8.4 1.5-8.4-1.6-17.3-5.9-24.5 7.9 7 12.7 16.1 15.7 26.1-1.9-15-3.6-33.5-.5-48.5 0 9.3 3 17.4 6.6 25.8 1 2.3 13.6 19.4 13.7 19 1.4-6.9-16-21.7-9.7-23.4 9.9-2.6 14.1 21.2 16.4 26.4.5-4.8 3.8-9.6 4.1-14.3.3-5.6-4.6-8.8-3.2-14.4 1 0 2-.1 3 0 .7 1.6 2.4 2.6 3.2 3.8 3.1-6.3-2.8-10.3-1.4-16.1 2.5-10.7 4 3.1 5.1 6.4 4.5-4.7 8-19.6 16.2-20.2s4.1 7.1 0 10.4c-4 3.2-12.2 1.7-10.5 8.9 3.6-1.7 7.8-2 12-.6-.5 5.1-11.3 6.5-16 8 4.2-.5 21.7-.3 12 4.8-1.7.9-4.3.6-6.9.4-4.5-.5-8.9-1-8.6 5.2 5.4-1.5 15.2-3.8 18.8 2.6-3.4 3-7.9 2.2-12.1 1.4-3.5-.7-6.8-1.3-9.1.2-5.5 3.8-1 22.4 6.2 17.9 1.7-1.1 3.3-8.1 4.1-9.7.8 6.4 6.2 11 10.8 15 1.9-2.2 3.5-5.1 4.8-7.6 2 1.6 4.2 3 5.7 5.2-.2-1.9.5-4.3.3-6.1 6.3 4.3 9.4 10.4 14.6 15.8-3.3-12.9-1-29.2 2.6-41.7 1.5 5.1-.3 12.2.6 17.9 1.2 8.4 5.1 17 10 23.8-4.4-8.8-5.1-22.7-6.6-32.5 4.5 2.5 6.8 6.8 10.1 10.4.8.9 7.6 6.5 7.6 6.7-.3-2.4.2-4.5-.6-6.9 4.5.5 10.5 4.2 12.6 8.7-.8-5.6-2.1-11.2-4.5-16.7 2.4 5.5 7.5 9.8 9.9 15.9 3.2 8 6 16.7 10.3 24.2.6-7.6-.3-16.2 1.9-23.5.4 2 1.5 8 3 11.2 3-11.6 5.7-24 10.7-34.8.7 8.1-.6 16.7 1.1 24.6 1.9 9.3 7.6 17.4 9.9 26.6-4.3-16.8-.5-34.6-4.1-51.7-2.7-12.5-6.2-10-17.9-8.8 15.3-28.2 30.9 28.7 33.3 36.9-.2-16-1.1-27.5-10.7-40.4-3.5-4.7-29.6-31.9-28.4-36.2-4.3 14.7-8 29.7-8.4 45 0-4.3-.7-57.8 1.6-57.1 16.7 4.9 24.1 22 35.1 33.6s17.3 22.8 23.1 37.8c4.6 11.8 8 29 8.2 40.2-.4-28.2 1.5-53.3 10.4-80.2 5.3-16.1 8.2-40.6 22.4-51.5-14.2 23.7-18.8 48-22.4 74.8-1.2 8.7-1.8 17.5-1.3 26.2.4 6.5 3.1 12.6 3.1 18.9 0-8.2 1.2-15.5 2.4-22.9-.3 10.4 4.3 17.5 5.8 27.1 1.8.6 5.3 1 7.1.8-.4-11 7.2-20.7 7.5-31.3.1 13.5 1.4 26.5 8 38.5-.3-13.3 3-28.9 6.7-39.5.6 4.2 2.6 8.3 4.3 12.2 11.4-8.4 5.7-26.1-1.8-35.2 9.3 10.9 18.5 24.7 12.6 39.3 2.9-7.4 16.4-25.9 10.2-34.3 8.3 11.2-2.6 30.9-2.3 43.5 10.7 6.3 17-11.8 21.4-22 .5-1.1 2.7 7.1 4.6 15.3 1.9 7.9 3.5 15.8 3.2 15.4 5.9 8.1 8.6-6.7 9.6-10.1.9-.6 1.7-1.3 2.5-2-.6 1.9-1.1 3.8-1.4 5.8-.1.4 0 .7 0 1-.4 1.6-.8 3.1-1.2 4.7-1.4 4.7 5.5 6.7 6.9 2 .3-.9.5-1.8.8-2.7-1.4-3.9-2.8-7.8-4.1-11.6 2.4-2.2 4.6-4.6 6.6-7.3l1.2 2.4c.9 2.1 1.7 4.2 2.6 6.3 3.3-.4 7.7-.7 7.2 2.4 0-.3.1-.6.2-.8-1.7-6.8-2.7-10.1-4.1-16.9-.1.1-.4-.7-.7-1.5s-.6-1.6-.7-1.5c.1-.2.2-.3.3-.5 1.9.2 3.7.4 5.6.6.8 3.7 1.6 7.4 2.5 11.1 1.6-3.6 3.7-7.1 6-10.2.8.1 1.6.2 2.4.2-3 5.6-5.8 12.4-6.6 17.4.6 2.2 1.1 4.4 1.7 6.5.9.5 2.2.7 3.9.4 4.6-.9 4.9-4.3 5.6-8.3.9-5.1-.1-50 9.8-74.5.4-1 2.8-12.2 2.6-11.1-6.7 44.1-7.4 85.6-3.2 90.3-2.7-15 4.4-53.9 4.6-60.4 4.1 11.6 2 43.4 3.9 43.6 3.3 7.9 4.3 10.7 5.7 14.9 4.4 12.4-2.8-22.2-4.9-29.9 1.5.3 10.8 20.5 12.3 20.9-.3 3.3 5.7 10.4 6 13.7.9-3.1 4.8-12.9 5.8-16 1 .3 2 .5 3 .8 1.6.5 3.2.9 4.7 1.4-1.1 5.6-2.7 11.1-4.7 16.3 5.8-5.9 10.4-11.2 10-19.5-.4-7.9-1.8-15.6-6.8-22.1-2.7-3.6-6.6-7.7.2-5.1 5.3 2.1 8.2 8.8 11.8 12.7 4.2 4.6 8.1 8.6 11 14.2 2 3.8 4 15.6 6.8 17.9 3.9 3.2 1.6 20.8 2 29.8.2-7.1 6-14.5 6.5-21.5-.1 5.8 2.1 14.3 6 17.9-.5-.5.2-5.1.2-6.1 0-2 .1-3.9.1-5.9 0-5.3 2.1-12-.6-16.9-1.9-3.6-6.6-5.8-9.8-8.3-1.1-.8-3.6-2.2-2.4-3.9.8-1.2 4.3-.6 5.5-.2 2 .7 4.2 2.5 5.5 4.1 1.3 1.5 1.7 3.4 2.8 5 1.1-3.4.8-8.3-.4-11.6-1.7-4.5-8.2-6.3-11.4-9.8-1.8-2-4.8-9.1-.6-10.6 2.3-.8 8.1 2.5 10.3 3.4-2.5-2-4.1-4.7-6.6-6.6-1.9-1.5-5-3.2-7-5-.3-1.1-.6-2.3-1.2-3.4l-.3-.6c.5-.6 1.4-1.2 3-1.7 4.8-1.5 10.2 1.7 13.6 4.9-.5-.5-1-1.9-1.5-2.6-.8-1-1.9-1.8-2.7-2.8-1-1.2-1.8-2.8-2.4-4.3-1.2-3.1-1.2-6.3 2.8-6.7 2.4-.2 4.5.7 6.3 2.4 1.7 1.6 2.4 4.5 4 5.8 2.4 1.9 1.6-2.1 1.4-3.5-.3-2.5-1.1-4.8-2.6-6.9s-3.8-3.9-4.9-6.3c-1.2-2.8-.9-5.2 2.6-4.5 2.7.6 5.1 2.6 6.8 4.6 1.3 1.4 3.9 4.1 3.9 6.1.3-4.8-1-9.5-2.2-14.1-.3-1.2-3-13.1-1.4-13.4 4.4-.8 6.3 2.7 7 6.6-.2-1.1 1.6-4.4 2-5.6.8-2.7 1.6-5.4 2.9-8 .6-1.2 1.5-3.5 3.2-3 2.2.7 2.6 4.6 2.6 6.4-.1 2.9-1 5.7-1.9 8.4-1 3.1-3.5 6.7-3.8 9.9 1.3-1.8 4-3.5 6.3-3.3 2.5.2 3.3 2.6 2.4 4.6-1.2 2.6-4.8 4.4-7 6.2-1.5 1.3-4.8 3.7-4.8 5.8 3.5-1.3 12-7.4 13 .1.4 3.2-3.7 5.1-5.7 7-2.3 2.2-5.5 4-7.4 6.5-1.4 1.9-2.3 4.2-3.4 6.2 3.6-1.9 10.5-10.9 15.1-6 1.3 1.4 1.1 3.6.2 5.3-1.1 2.1-3.9 4-5.9 5.3-1.3.9-5.7 1.9-6 3.3 2.7-1.7 16.1-4.6 14.6 1.1-.8 3.2-5.2 3.2-7.8 3.7-3.5.7-5.9 2.9-9.1 4-1 .4-2.2.5-3 1.3 2.5-.1 4.9-1.4 7.6-1.3s8.4 1.2 6.8 4.9c-4.5 10.4-20.4.6-24.2 10.7-.7 1.8-.5 4.1-.4 6 1.6-3.2 4-4.8 7.6-5.3 2.1-.3 13.6.5 9.4 5.1-2 2.1-6.1 1.6-8.8 2.4-1.3.4-2.6 1-3.7 1.9-2.6 8.3-.7 19.6 4.4 27.7-.7-5.1.1-10.2 2.5-15.2.5-1.1 1.5-1.3 2.4-1 0-.2.1-.4.1-.6.3-1.9.5-3.9.6-5.9.1-2.9 4.6-2.9 4.6 0 0 2.1-.3 4.1-.7 6.1-.4 2.7-1 5.3-1.3 8 3.4-3.6 7.1-7 10.3-10.8 2.3-2.6 4-5.6 5.3-8.7 1.2-3.7 2.2-7.5 2.9-11.6.4-3.5.4-7 .1-10.5-.7-3.8-1.6-7.5-1.3-11.4 0-.2.1-.4.2-.6-.2-1-.5-2.1-.7-3.1-.7-2.8 3.7-4 4.4-1.2 2 8.3 3.1 16.7 2.6 24.9v.6c-.3 3.8-.9 7.5-1.9 11.2-1.1 5.5-3 10.9-4.4 16.5 2.2-4.4 4.2-8.8 6.1-13.3 1.8-9.4 1.4-19.1.2-29.7-1.1-9.8-1.1-26.9 5.1-36.8l1.1-3.1c-4.1-2.3-.8-5.3 2.2-4.3.1-.1.1-.3.2-.4.2-.4.4-.7.7-1-.3-2.7.9-5.7 4-3.7 2.6 1.6 1.4 6.5.5 8.6 1.3-2.1 9.5-9.9 7.9-3.7-.7 2.7-4.3 3.9-6.3 5.6-2.4 2.1-4.9 4.6-6.8 7.1-.1.2-.2.4-.3.5-1.2 3.9-2.2 7.8-2.7 11.8v1.3c0 .8.8 13 2.4 12.2 3.7-2.1 9.5-12.8 10.9-16.9 1-3-.6-7 .5-10.1 1.5-4.4 3.8-.7 3.8 2.4.2-1.9 1.5-4.9 3.4-4.4 2.6.7.3 4.7-.3 6.3 2.1-3.2 8.9-3.9 5.3.9-2.1 2.8-6.8 4.9-10.2 4.6-6.4 10.8-13.2 19.5-13 32.3.1.6.2 1.1.3 1.7 1.9-5.7 4.7-11.3 8.1-16.4 3-4.5 6.9-12.3 11.8-15 .5 9.8-5.3 17.5-10.6 25.2-2.5 3.6-5.9 8.6-7.6 13.7 1.2 0 2.4 1 2.4 2.2 4.8-4.3 10.9-7.7 13.6-13.9.2-.5.5-.8.8-1 1.3-1.8 4.8-.6 4 1.9-1.8 5.6-3.3 11.3-4.4 17.2 3.3-7.3 6.7-15.1 6-23-.1-.7.2-1.1.5-1.5.1-2.3.2-4.5.3-6.8 0-1.8 1.8-2.5 3.1-2 .3-1.8.6-3.6.8-5.3.5-2.9 4.9-1.6 4.4 1.2-.7 4.5-1.4 9.3-2 14.2 1.3-.3 2.8.4 2.8 2.1-.1 10.7.8 21.3 6.1 30.9.3.6.7 1.1 1.1 1.5 4.9-10.2 7.3-20.9 7-32.4 0-1.4 1.1-2.2 2.2-2.2-.2-2.7 3.9-3.8 4.4-1 .6 3.8 1.6 9.7 2 16.1.5 4.8.6 9.9.6 14.6.5-2.5.9-4.9 1.2-7.4.2-18.3-1.9-36.4-12.3-52.2-1.4-2.1 1.9-4.7 3.6-2.7 1.5 1.8 2.9 3.5 4.3 5.3l-.3-2.1c.2.9.4 1.7.6 2.5 4.7 6 9 12.1 12.1 19.2 3.7 8.5 5.1 18.3 6.8 27.5 1.8-.6 3.7-1.4 3.7-1.5 1 1.4 1.9 2.8 2.7 4.3.4-11.1 2.3-22 5.6-32.5 1.5-7.2 3.4-14.4 5.5-21.6.2-.5.5-.9.8-1.2 2.4-9 5.5-17.9 9.2-26.6.9-2.2 4.1-1.8 4.5 0 5.8-11.6 12.5-22.6 18.5-35.1.1-.1.1-.2.2-.4-1.5-4.2-1.6-8.5.5-13.1.6-1.3 2.7-1.5 3.6-.5 1.3 1.6 2.3 3.3 3.1 5.1 4.1-4.5 8.5-8.8 13.3-12.9.3-.2.6-.5.9-.7 2.5-2 5-4 7.6-6 .3-.2.7-.4 1-.5.1-.1.2-.2.3-.2.4-.3.8-.4 1.2-.4h.8c2 .3 3.4 2.9 1.2 4.3-.3.2-.6.4-1 .6-6 4.3-11.5 8.9-16.4 13.9-2.3 2.6-4.5 5.3-6.5 8.2.1.3.2.6.3 1 1.7 4.8 3.8 9.5 6.1 14.1-.1-1.1-.1-2.2.2-3.2.3-.9 1-1.4 1.8-1.6 0-1.4.2-2.7.5-4-.9-.6-1.3-1.7-.5-2.8 2.2-3.1 4.5-4.9 8-6.1.1-.1.2-.1.4-.2s.4-.2.5-.2c1.8-.6 3.1 1.3 2.8 2.8.4 5.7-.9 11.2-1.2 16.9-.1 2.7.1 5.4.5 8 .4 1 .8 2 1.2 3.1 1 2.8 2 5.5 3.1 8.3-.6-3.4-.8-6.8-.3-10.5.9-7.2 7.4-15.7 15.3-16.3 2.2-.2 10.1 1.2 5.8 5.2-4.8 4.5-8.7 9.3-11.2 14.5-.5 3.9-.5 7.8-.1 11.9 4.2-10.4 9.7-17.4 22-19.4 2.2-.4 3.8 2 2.2 3.8-2.6 2.9-5.1 5.6-7.2 8.5-.6 1.7-1.6 3-2.9 4.1-2.1 3.4-3.7 6.9-4.5 11 1.6-1.5 3.3-2.9 5.3-4 3.8-5.3 8.9-9.5 14.5-10.6 1.6-.3 2.7.7 2.9 2.2.7 6.2-4 9-8.2 12.8-5.4 4.8-8 11.7-8.5 18.7.7 1.5 1.3 3 1.8 4.5.2-.5.4-1 .6-1.6 0-.7 0-1.4.1-2.1 0 .6.1 1.2.1 1.7.3-.6.5-1.3.8-1.9.6-1.1 1.4-2.4 2.4-3.6-.7-1.2-.5-3 1.3-3.3.7-.1 1.4-.2 2.1-.2 1.9-1.5 4-2.5 6.4-2.5 1.3-1.5 2.8-3 4.4-4.4-1.1-3.2-2.6-6.3-4.8-9.3-.8-1-.3-2.1.5-2.8.6-.8 1.7-1.2 2.7-.4l1.2.9c.4 0 .8 0 1.2.2 1.7.9 3.5 2.7 5.1 4.9-1.7-9.5-1.2-19.6-2.3-29-2.7-23.5-7.1-46.3-4.4-70.1.8-7.5 4.7-12.1 11.3-6.3 6.5 5.7 11.1 19.8 15.6 27.4 15.8 26.9 27.7 58.4 37.2 88 2.6 8.2 5 16.4 7.2 24.8 1.7 6.4 7.1 18.7 5.8 25.2 1.6-7.6 5.4-14.4 6.1-22.4.9-10.5-.5-21.1-2.2-31.5-3.3-20.3-13.1-39.3-16.7-59 15.9 15.8 25.3 43 30.4 64.1.4 1.8.8 3.7 1.1 5.6.1-1.3.3-2.5.5-3.8.2-10.1-.3-20.2-1.7-30.3l-.9-2.7c-.5-1-.9-2-1.4-3-.6-1.2-.2-2.2.7-2.8-.2-.4-.3-.8-.5-1.2-1.3-2.6 2.7-4.9 4-2.3 8.4 17.5 13.2 35.9 14.4 54.8 0 .2.1.4.2.7-.2-5.4.1-10.9.7-16.4.3-2.8 4.6-3 4.6 0 0 4.4 0 8.8.1 13.2v4.5c1-.1 2 .3 2.5 1.5.2.5.4 1 .6 1.4 0-3.6.1-7.3.3-10.9.1-1.6 1.7-2.4 3-2.1-.9-6.4-2.3-12.7-4.1-19-1.2-2.9-2.6-5.8-4.1-8.6-1.6.1-2.4-1.6-2.2-2.9.2-1 .6-1.9 1-2.7-1.5-1.4-3.2-2.8-5-4-2.4-1.7-.2-5.5 2.3-3.9 2.2 1.4 4.1 3 5.9 4.6 1.9-1.1 4.2-1.6 6.7-1.5.3-.1.6-.2 1.1-.1 12.6 1.4 20.6 8.3 26 17.5-2.8-14.4-6.6-28.4-13.4-41.4-2.8-1.8-5.8-3.2-9-4.3-3.7-.8-7.6-1.3-10.9-2.4-4.3-.3-8.6-.2-12.8-1.2-2.4-.6-1.9-3.6 0-4.3 1.9-.8 3.4-1.1 5.2-1.2-1.2-4.8 8-6.4 10.9-6.5 3-.1 5.8.8 8.3 2.4-.3-.3-.6-.6-.8-.9-1.9-1.5-3.9-3-5.9-4.3-.4 0-.9-.1-1.4-.4-3.7-2.6-7.6-4.8-11.6-6.7-3.3-1-6.5-2-9.6-3.4-1.7-.6-3.4-1.3-4.5-2.5-.1 0-.1-.1-.3-.1-1.7.3-2.8-1.1-2.8-2.4-.6-.6-1.2-1.2-1.8-1.9-1.1-1.3-.8-3.3 1-3.8 1-.2 1.9-.4 2.8-.5.5-.5 1-1 1.8-1.5 5.6-3.2 14.4 1.7 19.4 4.1 8.1 3.9 14.8 10.3 20.1 17.4.4.5.5 1 .4 1.4l.1.1c-.6-12.6 1.5-25.4 14.6-30.8.8-.6 1.7-1.1 2.6-1.5-.1-2.2 2.4-2.7 3.9-1.6 2.8-.9 4 3.5 1.2 4.3-.4.1-.8.3-1.2.5-.8 1.7-2.2 3.2-3.5 4.7-6.2 9.7-9.6 20.1-10.1 31.2.4 1.2.8 2.3 1.2 3.5.7-.1 1.5.2 1.9 1.1 3.1 5.9 5.8 12 8.1 18.2-.4-5.1-.1-10 2.1-13.9 1.1-1.8 3.5-1.2 4.2.5 1.6 4 2.2 7.4 2.5 11.7.1 1.9-1.2 8.7-1.6 14.1.5-1.9 1.1-3.8 1.8-5.6 1-6.3 2.9-12.5 7.3-14.5 4.5-2.1 7.9-2.2 9.9 2.8.8 2-1.4 4.6-2.4 6-3.3 4.5-7.4 7.5-10.4 11.8-1.6 9.3-2.5 18.6-3 28 .3 1.6.5 3.3.7 4.9 1.2-2.6 2.5-5.2 4.1-7.8.6-1 1.6-1.2 2.4-1 2.6-5.1 6.4-9.4 12.2-10.9 5.9-1.5 8.3 3.9 7.5 8.4-.5 2.9-4.5 4.8-6.7 5.9-5.6 2.8-9.2 6.8-11.8 11.6-.8 1.6-1.6 3.1-2.3 4.7-.3.7-.6 1.5-.9 2.3.8 7.4 4.7 13.7 7.4 20.8 4.7 12.1 5.6 25.2 9.7 37.2 1.5-19.6-6.7-37.5-8.1-56.6 4.9 4.8 8.4 9.5 10.9 14.6-1.1-9.3-1.1-18.7.1-28.3.2-1.4 1.3-2.1 2.4-2.1.3-.8.9-1.2 1.6-1.4.9-11.2 3-22.3 6.2-33.1-4.6-3.5-9.4-6.3-12.8-6.3 5.2 0 9.8.9 13.9 2.4 1.9-6 4.2-11.9 6.9-17.6-1.6-2.8-3.2-5.5-5-8.2-3-4.1-6.1-8.2-9.2-12.2-1.8-2.2 1-5.2 3.2-3.2 5.3 4.9 10.3 10.1 14.9 15.6.6-1.1 1.1-2.2 1.7-3.3.4-.8 1.1-1.1 1.7-1.1 1.1-1.7 2.4-3.3 3.7-4.8.4-.7.9-1.5 1.3-2.2-7.9-8.2-15.2-17.1-22.8-25.3-.1-.1-.1-.2-.2-.3-.5-.2-.9-.5-1.3-.6-2.1-.8-4.2-.9-6.2-.7 0 .5-.2 1-.6 1.5-1 1.1-2.2 1.8-3.5 2.1.4.9.2 2-.9 2.6-8.7 4.6-10.3 14.3-10.4 23.2 0 1.3-.9 2-1.9 2.1-.4 1.8-3.4 2.4-4.2.6-4.4-9.8-7.2-21.3 0-30.2 0-.4.1-.9.3-1.2 19.4-27.2 42.2-1 60.8 22.6 3.8 2.9 7.8 5.5 12.1 7.6-6-18.9-13.3-37.4-22-55.4-7.2-10-16.7-17.9-27.9-23.4-7.8.4-15.1-2.2-22.4-5.2-1-.4-2.1-1.5-1.6-2.8 4.9-11.7 21-11.6 25.2.3 5.8 3.7 11.4 7.5 17.1 11.3-5.4-10.9-10.8-21.8-15.8-32.9-.3-.2-.6-.4-.8-.8-3.1-5.6-7.2-10.3-12-14 .1 1.9-2.9 3.2-4.4 1.2-1.9-2.6-4-5-6.3-7.3l-.3-.3c-6.2-2.5-12.9-3.7-20-3.4-1.3.1-2.3-1.1-2.3-2.3-.2-9.9 14.2-7.2 20.2-5.4 6.7 2 12.3 6.4 17.4 11.6-4.4-9.4-8.5-18.9-12.2-28.6-1.8-4.1-3.4-8.3-5-12.5 0 .6-.2 1.3-.6 1.8-1.1 1.3-2.3 1.7-3.8 1.6-.6 1.7-1.1 3.4-1.5 5.2-.4 2.5-4.6 1.9-4.5-.6.1-3.7 1.2-7.2 3.3-10.1-.4-.3-.8-.7-1.1-1.2-.1-.2-.2-.3-.2-.5-6.6 3-11.8 8.3-14.5 15.2-.7 1.8-3.1 2.3-4.2.5-2.1-3.4-.5-6.2.8-9.2-.8-.3-1.5-1.1-1.6-2.1-.7-7.6 4-11.4 10.2-13.2-1-.2-1.8-.9-2.2-1.7-.7.4-1.5.8-2.2 1.1-.9.5-1.8.3-2.5-.2-3 .5-6 .6-8.1-.3-2.9-1.4-2.5-5.4-.7-7.5 3.4-3.9 8.5-4.3 13.8-3.2 2.6-1.6 6.8-.9 9.4 0 1.1.4 2.2 1 3.2 1.7-.9-2.1-2-5-2.6-7.7-.9 0-1.8-.4-2.1-1.6-1-4.9.1-9 3.3-12.9.8-1 2.4-.8 3.2 0 3.6 3.3 6.2 7.3 7.7 11.7 3.8-7.5 12.5-12 21.7-10.1 2.2.5 2.2 3.9 0 4.3-5.4 1.1-10.2 3.7-13.9 7.5-.7 4.1-2.1 7.9-4.2 11.4 2.3-2.2 5-4 7.9-5.3 7.2-6.1 15.8-11.6 23.4-3.3.5.6.7 1.3.6 2 0 .1.1.1.2.1.8.9 1.6 3.7 2.4 5.3.8.4 1.5.9 2.2 1.4 1.6 1.2 1.4 4.4-1.1 4.2-2-.2-4.1-.8-5.2-2.7-5.2-2.4-11.2-2.4-16.6.2-.4.2-.8.2-1.1.2l-1.2.6c-.4.5-.9.9-1.4 1.3l-1.2.6c.4.1.8.1 1.2.3.7.2 1.3.6 1.8.9 2.4 1 4.5 2.3 6.1 4.2.7-.3 1.6-.2 2.3.6 3.4 4.1 4.6 9 3 14.1-.1.2-.2.4-.3.5 12.7 4.6 15.8 17.3 16.2 29.7.1.4.1.7.2 1.1 1.3-2.3 2.5-4.5 3.7-6.8 2.7-6.2 5.5-12.4 8.2-18.6.3-.7.9-1 1.6-1.1 1.6-4.9 3.1-9.9 4.2-15 .3-1.3 1.4-1.7 2.5-1.6 1.4-.6 3.6.6 3.3 2.7-1.4 9.4-3.7 18.4-7 27.1.4-.3.8-.7 1.2-1 5.3-3.9 14.8-8.9 21.1-4.8 2.4 1.5 1.6 6.2-.9 7.4-8.3 3.9-15.3 5.9-21 11.2-5.5 6.2-9.4 14.1-15.1 20.2-.8.9-1.9.8-2.7.3-.9 1.5-2.1 2.6-3.7 3.6-.4.8-.8 1.6-1.3 2.3-.5.9-1.2 1.2-1.9 1.1 0 .1-.1.1-.1.2 6.6 15 13.2 30.1 19.8 45.1 1.9-2 3.7-4.1 5.6-6.2 3.4-4.4 6.7-9 9.7-13.7 0-.7 0-1.4.1-2.1-.9-.4-1.7-1.3-1.3-2.6.7-2.5.7-4.8.1-7-.5-.3-.8-.7-1-1.3-.4-1.4-.9-2.7-1.6-3.9-.9-1.3-2-2.5-3.2-3.7-2.3-2.3-5.9-3.8-7.8-6.4-2.3-3.1-.5-7.8 3.9-6.5 6.5 1.9 11.3 6 14.5 11.9 2.4 4.5 2.2 8.9 1.6 13.4 8.8-14.4 15.8-29.7 21.2-45.7.2-1.1.3-2.3.5-3.5-.5-.7-.7-1.6-.4-2.4-1.4.1-2.9-1-2.4-2.8.7-2.5 1.2-5 1.5-7.6-1.8-6.1-3.8-13.2-4.3-14.5-2.5-8.1-.5-16.5-2.5-24.7-.6-2.6 2.7-3.7 4.2-1.7 5.1 6.9 8.4 14.4 9.9 22.4.6-12.9 1.5-25.8 3.2-38.6 1.6-12 4.7-29.8 17.2-35.5.4-.2.7-.2 1.1-.2.7 2.4 2 3.6 1.6 5.2m-8 8c-.1-.2-.2-.3-.2-.5-.7 1-1.4 2-2 3.2.4.2.8.5 1 .9.3-1.3.7-2.4 1.2-3.6M1931 47.2c-.1-.3-.1-.7 0-1-1.9-.3-3.9.2-5.8 1.2.6.3 1 .9 1.1 1.6 1.6-.7 3.2-1.2 4.7-1.8m108.4.6c-.3.1-.5.1-.8.2-4.3 3.9-7.7 8.7-10.9 13.5-1.7 2.5-3.4 5.1-5 7.9 4.9-7.6 10.5-14.8 16.7-21.6M1873 56.5h.1c.4-.5 1.1-.8 1.8-.9 1.4-.2 2.6-.6 3.8-1.3-1.9-.3-3.7-.1-5.5.6-2.3 1.2-2.9 1.9-1.8 1.9.3-.1.8-.1 1.6-.3m46 12.5c-.1-.6-.2-1.2-.4-1.8-.5-1.2-1.2-2.2-2.1-3.1-.9-.6-2.1-.9-3.7-.6-1.3.2-2.6.5-3.9.9 2.1 1.4 4.3 2.6 6.5 3.7.1.1 2.3 1 3.2 1 .2 0 .3 0 .4-.1m80.3-5c.1 1 .1 2 .2 3 1.4 2.7 2.5 5.5 3.4 8.4-.7-3.9-1.9-7.7-3.6-11.4m-90.8 5.7c3.7 10.2 7.7 20.2 12.1 30.2 1.6 3.4 3.3 6.7 4.9 10.1.8-.1 1.6.2 2 1.1.4 1 .9 2 1.3 3.1.1.1.2.3.3.5.4 1 .8 1.9 1.2 2.9 1.7 4 3.5 7.9 5.2 11.9 1.6-2.4 3-4.8 4.5-7.2 2.4-8 .4-16.3-3.1-24.1-2-3.1-4.5-6-7.5-8.7-3.1-2.8-4.2-4.7-3.5-8.6.1-.5.4-.8.8-1.1-1.2-2-2.6-4-4-5.8l-.3-.6c-.2 0-.4.1-.7.1-.3.1-.6.2-.9.2-.5.1-1.1.1-1.6.1-3.7-.1-7.4-1.9-10.7-4.1m23.2 15.5c.8 1.1 1.7 2.4 2.8 3.8.5-.3 1-.5 1.5-.4-1.2-1.3-2.6-2.4-4.3-3.4m35.3 15.6c0-.2-.1-.4-.1-.6-2.6 1.8-5 4-7.2 6.3-.3.6-.5 1.1-.8 1.7 2.4-2.8 5.1-5.2 8.1-7.4m-73.6 6c-2.6-.5-5-.5-6.3.3 2.1 0 4.1.3 6.2.6-.1-.3 0-.6.1-.9m146 5.1c-.8-.4-1.3-1.1-1.5-1.9-1 .2-2.1.4-3.1.6-.5.1-.9.2-1.4.4.3.5.5 1.1.8 1.6 1.7-.3 3.4-.5 5.2-.7m-7.4 7.9c-.4 0-.7.1-1.1.1.7 4.2.9 8.4.7 12.5.7.3 1.1.9 1 1.9-.8 7.1-2.6 13.8-5.2 20.2-.2.6-.4 1.3-.6 1.9 5.8-11.3 8.6-24.6 5.2-36.6m-8.7 1.7c-3 .9-5.8 2.3-8.4 3.8-1.3 1-2.5 2-3.5 3.2-.6.7-1.4.8-2 .6-3.8 3-7.1 6.6-9.9 10.5 0 .3-.1.6-.2.9-1.1 2.2-1 2.1-2.9 3.8-.6.5-1.3.7-1.9.6-5.9 11.6-12.5 22.6-20 33.2l-8.7 14.1c3.7 7.2 6.8 14.6 9.4 22.2.1-.4.3-.8.4-1.2 1-5.5 3.2-10.8 6.6-15.7 0 0 0-.1.1-.1-.2-.5-.2-1.1.3-1.8 3.1-4.6 2.5-10.3-1.7-14.1-1.1-.9-.8-2.9.5-3.5 4-2 8-.4 10.3 3.3 1.7 2.9 1.5 6.6.5 10 1.6-.9 3-1.9 4.4-3.1 1-.8 2.2-.6 3-.1.3-.2.6-.3 1-.5-1-.9-1.3-2.7.3-3.5 7-3.4 6.7-15.1 6.6-21.7 0-2.1 2.5-2.8 3.9-1.6 1.7 1.5 3.1 3.3 4 5.4 5.4-14.1 7.2-29.3 7.9-44.7m20.1 45.4c-1.8.4-3.7 1.3-5.4 2.4.6.1 1.2.4 1.6.9 3.9-1.1 8-1.6 12.2-1.2.1 0 .1 0 .2.1-.1-2-3-3.4-8.6-2.2m-1411.7 7.4c-1 1.3-2.1 2.5-3.5 3.4 1.7 5.1 4.2 9.8 7.4 14.1-1.7-5.7-2.9-11.5-3.9-17.5m14.9 12.8c-.7-.7-.8-1.5-.5-2.3-1.3-1.5-2.1-3.3-1.6-5.4.1-.4.3-.7.5-1-.4-.1-.8-.2-1.3-.3.8 9.3 1.9 18.5 3.3 27.7 0 .1.1.1.1.2.9-6.1 1.6-12.3 2.1-18.5-.3.1-.6.2-1 .2-.6.1-1.2-.2-1.6-.6m-7.4-8.4c-.7.3-1.3.6-1.9 1 .8 4.3 1.9 8.4 3.3 12.5-.5-4.5-1-9-1.4-13.5m1365.7 14.1l-2.1.9c-5.7 2.5-11.6 3.9-15.6 9.1-5.7 7.4-7 22.1-4.6 30.5v.1c3.9 10 7.5 20.1 11.2 30.2 1.1 3 2 6.1 2.8 9.1.6-1.2 1.3-2.4 2-3.6 5.6-12.1 13.5-23.4 23.2-31.8-.3-1-.6-2-.8-3-1.2-2.2-2.5-4.4-4-6.5-.9-1.3-.1-2.6 1-3.1-.1-.3-.2-.6-.3-1-.2-.6-.1-1 0-1.4l-2.4-3.6c-.6-.8-.5-1.6 0-2.2-.7-1.3-1.3-2.6-2-3.9-.7-1.1-1.5-2.2-2.2-3.2-1.7-2.4 2.3-4.6 3.9-2.3l1.8 2.7c.1.1.3.2.4.4.2.3.3.6.5.8.7 1.1 1.5 2.1 2.2 3.2.2-.6.3-1.2.4-1.8-1.1 0-2.2-.8-2.2-2.2 0-.8-.1-1.6-.1-2.4l-.2-.2c-.5-.6-.9-1.4-.6-2.2l.1-.3c.1-.2.2-.4.3-.5-.2-1.3-.5-2.5-.8-3.8-.9-2.9-2.3-5.7-4.1-8.2h-3.5c-.3.1-.5.1-.8 0-.1.1-.2.1-.2.2-.5.4-1 .6-1.5.6-.7.3-1.3-.1-1.8-.6M641.3 212.5c-4.2-5.6-8-11.5-11.4-17.7.1.7 0 1.4-.6 1.9-1.1.9-2.3 1.6-3.6 2.2 2 3.5 7 7.1 9.5 9.1 1.9 1.6 3.8 3.1 5.8 4.5zm-18.2-7c0 .2 0 .3-.1.5-.5 1-1 2.1-1.6 3 3.4 2 7.1 3.3 11 3.7-3.4-2.1-6.4-4.6-9.3-7.2m62.6 8.8c-.1-.3-.2-.7-.3-1-.4-1.1.2-2 .9-2.4-1 .2-1.9.5-2.9.7-5 1.7-10.1 3.2-15.2 4.4 5.9-.2 11.8-.8 17.5-1.7m-59.2 5.3c-.4-.7-.3-1.4-.1-2-1.2-.6-2.3-1.3-3.4-2-1.4-.1-2.7-.3-4-.6 1.4 3.3 3.4 6.3 6.6 8.5 3.3 2.2 8.3 2.7 11.6.7 0-.2-.1-.4-.2-.6-.1-.3-.2-.5-.4-.8-.1-.2 0-.3-.1-.4h-.1c-1.2.4-2.5.6-3.8.6-2.4-.1-4.8-1-6.1-3.4m17.9 5.1c-.3.2-.5.5-.7.8-.1.2-.2.3-.3.5.2.3.4.6.6.8.6.5 1.4.8 2.2.9-.7-1-1.3-2-1.8-3m37.4 9.4c-6.5-1.3-13-4.2-19.2-6.4-.8-.3-1.2-.8-1.4-1.5-1-.2-2.1-.4-3-.6 1.3.7 2.6 1.4 4 2 6.2 3.2 12.5 5.8 19.4 6.7l.2-.2m-6.5-6.8c1.9.6 3.7 1.3 5.6 1.9 3.3 1 6.6 1.4 10 .9 0-.2-.1-.3-.1-.5v-.1c0-.2-.1-.4-.1-.6-.1-.6.1-1.1.5-1.5-2.3 0-4.6 0-6.7-.1-1.8 0-3.4-.1-4.8-.1h-1.5c-1 .2-2 .2-2.9.1m1114.4 131.4c2.4-9.3-4.7-25.3-7.2-34.1-6.4-22.7-13-46.5-22.7-68.1-3.6-8.1-6.8-22-14.3-27.4-4 13.3-2.2 31.6-2.2 45.5 0 10.6-.7 21.1-1.2 31.5 2.2-5.1 5.8-9.4 11.2-12.2 1.6-.8 4.1.6 3.4 2.5-2.2 6.1-7.2 10.4-10.3 15.4-.3 1.9-.5 3.9-.8 5.8 2.6-4.4 7-7.4 12-7.1 1.4-.6 2.8-1.1 4.2-1.6 1.9-.7 3.6 1.7 2.6 3.3-2.3 3.8-7.2 5.4-10.6 8.3-4.3 3.7-7.3 8.6-9.1 13.8.2.2.4.5.5.9.1.6.3 1.2.4 1.8 2.8-2.4 6.1-4.1 9.8-4.9 2.3-.5 3.7 2 2.2 3.8s-3.3 3.4-5.2 4.8c-.1.2-.2.3-.4.5-.5.5-1.1.9-1.7 1.2-.5 2-1 4-1.6 6 .6 2 1.3 4 2 5.9.3-.6.5-1.3.6-1.9 3.4 5.9 5.7 12.3 7.7 18.8.6 1.9 1.1 3.4 1.7 4.5.3.5.5 1 .8 1.5v.1c1.3 1.7 2.3.2 3.4-5.7 1.5-8.4 4.3-41.8-2.9-47.9 9 7.6 13.9 18.7 18.9 29 1.8 3.8 4.2 9.7 6.2 9.7 1.1 0 1.9-1.1 2.6-3.7M635.4 229.6c-1.3.3-2.7.4-4.1.3.5 1.3 1 2.6 1.4 3.9 1-1.4 1.8-2.8 2.7-4.2m13.8 2.1c-.2.1-.5.2-.7.2 1 .9 2.2 1.8 3.4 2.4-1-.8-1.9-1.7-2.7-2.6m1327 65.5c.4-6.5 0-13 .2-19.4.1-4.6 2.2-10 2.9-14.9-1.3-1.2-2.6-2.7-4-4.3-6.6-4.2-12.6-9.4-18.3-15-.4.4-.8.9-1.2 1.3-.5.8-.9 1.6-1.4 2.4.6.8.7 1.9-.1 2.8-.8.8-1.5 1.7-2.2 2.6-.7 1.7-1.3 3.4-2 5.1 11.4 15.2 20.1 32.2 25.5 50.4.2-3.6.4-7.3.6-11M631.9 286.4c.1-13.6 0-27.2-.5-40.7-2.7 6.7-4.7 13.8-6.3 20.8-2 8.8-3.1 17.7-3.6 26.8 3.1-2.8 6.6-5.1 10.4-6.9m1393.8-32.7c-.1-.5-.1-1.1-.2-1.6-.1-.4-.1-.7-.2-1.1l-.1.1c-4.9 4.6-9.6 9.5-13.5 14.8.9 1.6 1.7 3.2 2.5 4.9 3.4-5.9 7.3-11.6 11.5-17.1m-41.3 26.5c-1.2-5.4-2.5-10.9-3.9-16.2l-.1-.1c1.7 12.2 4 24.6 5.9 36.9-.5-6.9-1.1-13.8-1.9-20.6m23.1-16.1c0-.1.1-.1.1-.2-1.9 2.7-3.8 5.4-5.4 8.3-.5 1-.9 2.1-1.4 3.1 1.8-3.9 4.1-7.6 6.7-11.2m-326.4 1.1c-1.1 2.5-1.2 6.1-.9 9.2.3-3.1.7-6.1.9-9.2m265.3 3.7c-.7 3.4-1.3 6.8-1.9 10.2-.1 1.3-.1 2.5-.2 3.8 8.5 6.9 14.5 17.6 18.8 29.5-3.8-15.1-9.5-29.6-16.7-43.5m65.2 6.8c-.5-2-1.1-4.2-1.6-6.4-4 8-7 16.6-9.4 25.6v.7c.2 2.1.4 4.1.5 6.2 2.6-9.1 6.1-17.8 10.5-26.1m15.3-6.3c-2.6 4.9-5 10-7 15.2 3.4 9.6 5.6 19.7 7.2 30 .8-15.1.7-30.2-.2-45.2m-367.1.7c-1 1.8-1.9 3.6-2.9 5.5 3.1-.6 6.8 1.6 9.3 3.1-2.1-2.8-4.3-5.7-6.4-8.6m41.9 6.3c1.3-1.3 2.7-2.6 4.3-3.7-2.7 1.2-5.1 2.8-7.1 4.7.5.1 1 .3 1.4.6.4-.5.9-1.1 1.4-1.6m-46.9 4.1c-.1 0-.1-.1-.1-.1-1.1 2.5-2.1 5-3.1 7.5 5-1.6 10-1.9 14.8-1.1-3.9-2-7.8-4-11.6-6.3m39.4 6.8c.4-2.1.9-4.2 1.4-6.2-.2.2-.3.4-.5.7-2 3-2.7 6.4-2.6 9.9.5-1.5 1.1-2.9 1.7-4.4m13.7 6.9c1.3-1.3 2.8-2.4 4.6-3.1.7-.9 1.4-1.8 2.2-2.7-2 .8-3.9 2-5.7 3.7-.7.7-1.3 1.5-1.9 2.3.2 0 .5-.1.8-.2m238.7-.5c-.7-.8-1.6-1.9-2.6-3-.2 4.7-.4 9.3-.5 13.9.6 6.4 1.2 12.7 1.9 19.1 0 .1.1.2.2.3 2.7 8.6 5.5 17.2 8.2 25.7 0-16.8-2.4-33.3-7.3-49.7-.5-1.8 1.2-3.1 2.7-2.8-.8-1.1-1.7-2.3-2.6-3.5m-261.8 11.5c-1.3-.7-2.6-1.5-3.8-2.4h-.1c-.2-.1-.3-.2-.5-.3-1.2-.9-.8-2.3.1-3.1-4.6-2.7-10.1-3.8-15.8-4.4-5-.5-9.4-.1-13.7-2.9-.3-.2-.5-.5-.7-.7-1.7 4.8-3.1 9.6-4.4 14.4-3.3 12.5-6.3 25.1-9.4 37.6-2.9 11.9-6.2 23.4-7 35.6v1.5c.2.2.3.3.4.6l.1.1c.3-4.4 1-8.8 2.5-13.2.1-.4.3-.7.6-.9 1.2-9 3.1-17.9 5.8-26.7.2-1.6.5-3.1.7-4.7.1-.9.7-1.3 1.4-1.5.3-.5.7-.9 1.3-1.1 1.7-3.7 3.9-7.1 6.4-10.2 1.7-4.6 3.9-9 7-12.8 1-7.2 15.2-7.6 20.5-6.9 3.1.5 6.1 1.2 8.9 2.3l-.3-.3m195.8 32.2c-.3-6.4-1.6-12.8-3.6-19-2.6-5.2-6.1-9.9-10.9-14.1-.6-.5-.8-1.2-.7-1.8l-2.7-2.4c-1.6-.6-3.3-.9-5-1.2 2.5 3.7 4.6 7.8 6.2 12 1.1.1 2 .8 1.9 2.1 0 .4-.1.8-.1 1.2 1.2.2 2.2 1.3 1.9 2.7-.3 1.6-.5 3.1-.5 4.7 1 4.7 1.6 9.5 1.9 14.4.5 2 1 4 1.4 6 .3 1.3 1.4 5.3 2.7 8.9.4.7.8 1.4 1.3 2 2.2-5.1 3.9-10.4 6.2-15.5m134.8-28.4c.2-3.3.1-6.5 0-9.6-3.4 13.2-5 27.1-5.2 40.9 2.7-10.3 4.7-20.8 5.2-31.3m-1383.6-8v-.4c-3.7 2.6-7 5.6-10.1 8.9.1 3.1.2 6.2.2 9.3.9 8.7 1.4 17.5 1.4 26.4 0 4.4 2.2 14.4.5 18.3 9.3-20.2 7.8-40.8 8-62.5m1093.8-.4c-2.4 1.2-4.6 3.2-6.6 5.4.1.5 0 1-.3 1.4 2.1-2 5.5-4 6.9-6.8m-43.7 13.8c-1.2-1-.8-2.3 0-3-1.6-.1-3.2-.2-4.9-.1-4.5.1-11.4 2.8-16.7 2.2-4.3 7.4-7.7 15.2-10.3 23.2-.9 5.7-1 11.8-.6 18 .9 5.6 1.8 11.1 2.7 16.6h.1c0-.5-.1-1-.1-1.5-.1-1.2.7-1.9 1.6-2.1-.3-4.8-.4-12.4 1.8-17.2.3-2.3.7-4.4 1.2-6.5.6-2.5 4.5-1.9 4.5.6v2c1.4.8 2 2.9.2 3.8-.1 0-.2.1-.2.2-.1 6.3-.3 12.6-.5 18.9 0 .7-.3 1.2-.7 1.6.6 4.7 1.6 9.4 3.1 13.7-.5-9.9.1-19.6 1.9-29.5.1-.8.6-1.3 1.2-1.5.1-.7.2-1.5.3-2.2v-.1c0-.2 0-.4.1-.6.3-1.7 2.3-2 3.5-1.2.1-1 .5-1.9 1.3-2.6 4.4-3.5 11.9-5.3 19.5-5.1 0-2.3-.1-4.6-.1-6.9-8.3-1.3-17.7.7-24.9 3.3-1.3.5-2.7-.6-2.9-1.9-1.5-.6-1.5-3.1-.1-4 .3-.2.6-.3.8-.5 1.8-5 6.6-7.3 12.1-8.2 4.1-2 9.7-2.3 14.1-2-2.7-2.7-5.4-5.1-8-7.4m321.4-.2c-.2-.2-.4-.3-.6-.6-.4 1.8-.7 3.6-1 5.4v4.7c.5-3.1 1-6.3 1.6-9.5m3.6 5.6c-1.2 7.1-1.9 14.4-2 21.7.2 1.1.4 2.2.6 3.4 0-8.5.4-16.8 1.4-25.1m-306.8 3.9c-1.1-.7-2.3-1.3-3.5-2-.1 0-.2 0-.2.1l1.1 1.1c.9.3 1.8.6 2.7 1 0-.1-.1-.1-.1-.2m35.4-1.2c-.2.3-.4.7-.5 1 .1.6.1 1.2.1 1.8.2.1.4.2.6.4-.1-1.1-.1-2.1-.2-3.2m316.2 14.2c0-3-.1-6-.2-9 0 3.5 0 7.1-.2 10.6v.4c.2-.7.3-1.4.4-2m-347.6 5.2c-3.4-3.9-7.9-6-12.8-6.8.3 1.9.7 4.3 1.2 6.9 5.3.3 10.5 1.7 14.6 4.1-.4-1.1-.9-2.2-1.4-3.3h-.1c-.5-.2-1-.4-1.5-.9m26.6 17.3v-5.6c-.3-4.1-.5-8.2-.3-12.4 0-1.2.9-1.9 1.8-2.1v-1.5c-.7-.7-1.4-1.5-2-2.3-.1.1-.1.2-.2.2-.6 1.8-1.1 3.6-1.5 5.4-.6 5.1-.7 10.1-.1 15.1l2.1 3.3c.1.1.1 0 .2-.1m338.9-14.2c-.9 1-1.8 2-2.6 3 1 10.3 2 20.9 2.4 25.4-.3-4.7-.1-15.6.2-28.4m-5.2 9.3l-.3-3c-.6.7-1.1 1.4-1.6 2 .3 4.4.6 8.8 1.1 13.2-.5-4.1 1.4-8.1.8-12.2m-373.6.2c-4.2-.1-8.4.1-12.1.2 1.3 1.3 0 4.2-2.3 3.7-1.3-.2-2.6-.4-3.9-.7 1 10.4 2.1 20.8 3.1 31.3l2.4-2.7c3.6-6.6 6.4-13.5 8.5-20.8.5-1.7 2.3-1.9 3.5-1.2.5-3.2.7-6.5.8-9.8m17.9 5.7c-1.9-1.6-3.8-2.8-5.9-4-2.2-.7-4.5-1.2-6.9-1.5 2.5 6.8 6.1 11.8 11.6 9.5 1.2-.5 2.2-1.5 3.1-2.9v-.5l-.1-.1h-.3c-.5.1-1-.1-1.5-.5m-252.9 44.7c.5-10.5-.5-20.8-3-31.2-.5-2.2-1.2-4.3-2-6.5-1.4-2.7-3-5.4-4.5-8.1 2.1 6.2 4.2 12.4 5.6 18.7 2 8.9 2.5 18 1.3 27l.6 4.8c.7-1.5 1.3-3.1 2-4.7m141.6-41.4c-.1 5.6-.5 11.9 3 14.1-1-4.7-1.9-9.5-3-14.1m-15 23.6c.9-2.8 1.2-5.8 1.4-8.8-.6 4.8-1.9 9.5-4.2 13.8 1.2-1.4 2.2-3.2 2.8-5m-293.9-52.9c-.2-.2-.4-.5-.6-.7.2.3.4.5.6.7m-17.2 24.1v-1.5z"/><path d="M459 632.9V423.3c1.2-.3 2.3-.5 3.5-.8.9-3.1 1.6-6.1 2.2-9.2v-4.4c0-.9.5-1.5 1.1-1.8 2.8-18.7 1.8-37.8.4-56.9 0-.5.1-.9.3-1.2-.4-1.1-.8-2.1-1.2-3.1-1.1-2.7 3.3-3.9 4.4-1.2 2.9 7.2 4.9 14.6 5.9 22 .1.1.2.1.2.2.2 0 .4.1.6.2 2.3-9.9 6.5-19.3 11.7-28.3-.1-2.3-.2-4.5-.3-6.8-.4 0-.8-.1-1.1-.2-7.7-1.6-12.6-7.1-15.3-14-.4.3-1 .4-1.6.3-2.2-.3-3.8-1.9-4.4-4-.3-1.1.2-2.1 1.1-2.5 0-.6.2-1.1.6-1.4-.9-.9-1.6-2.1-1.8-3.4 0-.2-.1-.4-.1-.6-.1-1.1.6-1.7 1.4-2-1.1-1-2-2.1-2.7-3.4-.2-.2-.4-.4-.5-.6-.5-.7-.4-1.6 0-2.3l.1-.2c.1-.8.6-1.5 1.6-1.9 2-.8 4.3 1 4.2 3.1 0 .4-.2.8-.3 1.1 1.4 1.7 3.3 2.8 5.6 3.3 1.3.3 1.7 1.3 1.6 2.3.3-.6.7-.9 1.2-1-.8-.9-1.5-1.8-2.2-2.8-.5-.1-1-.1-1.5-.3-1.9-.5-2-2.7-.9-3.8-1-1.9-1.7-4-2.3-6.1-1.9.6-4 .6-5.8-.1-2.7-1-1.7-4.6 1.1-4.4-.5-.5-.9-1-1.2-1.4-.9-1.4.2-3.1 1.7-3.3v-.2c.3-.9.9-1.6 1.6-2.1.1-.4.2-.8.3-1.1.6-2.2 3.7-2.1 4.4 0 0 .1.1.3.1.4 0-.1.1-.1.1-.1 1.2-2.6 5.2-.4 4 2.3-.3.7-.7 1.4-1.1 2.1.5 0 1.1 0 1.7.1 2 .4 2.2 3.2.5 4.1-1.1.6-2.2 1.1-3.4 1.5.2.6.3 1.3.5 1.9h.5c1.6.3 3.1.1 4.6-.6 2.3-1.1 4.7 1.7 2.8 3.5l-.1.1c.8.2 1.7.3 2.5.5.4.1.7.3.9.5-.6-1.1-1.1-2.1-1.7-3.2-.5-.9-.3-1.8.2-2.4-1.5-2.7-2.7-5.6-3.8-8.6-.6-.1-1.1-.4-1.4-.7-.2-.2-.5-.3-.6-.5-1.4-.2-2.7-1.3-3-2.8s1.2-3.4 2.8-2.8l-.2-.8c-.8-2.8 3.6-4 4.4-1.2l.5 1.6c.4-.3.8-.5 1.3-.5.5-.4.9-.7 1.4-1.1.6-.5 1.4-.6 2.1-.5-.2-1.2-.3-2.4-.4-3.5-1.8-.3-3.5-1.3-4.7-3.1-1.1-1.7.7-3.8 2.6-3.3.5.1.9.2 1.3.3 0-.3-.1-.5-.1-.8-.3-2.9 4.2-2.9 4.6 0v.2c.1-1.9 2-3.5 3.8-2.4 1.5.8 1.6 2.3 1.2 3.6h.3c2.9.3 3 4.3 0 4.5-1.4.1-2.7.1-4.1 0-.2.1-.4.2-.5.3.2 1.9.5 3.9.8 5.7h.4c.5.2 1 .3 1.5.5-.2-.9-.4-1.9-.6-2.8-.6-2.8 3.8-4 4.4-1.2.2 1.1.5 2.2.7 3.3.1-.1.2-.3.3-.5.7-2.8 5.1-1.6 4.4 1.2-.1.4-.3.7-.4 1.1.4-.1.8-.1 1.1 0 1.8.5 2.4 2.3 1.6 3.8-.3.6-.8.9-1.3 1.2.7.5 1.2 1.3.9 2.4-.1.4.2.9.5 1.3.4-1.5 1-3 1.9-4.3 1.6-2.4 5.6-.2 3.9 2.3-.5.8-.9 1.7-1.2 2.5.9-.2 1.7-.3 2.6-.4 1.3-3.3 2.6-6.6 3.6-10.1-2.1-1.3-4-3.2-5.2-5.5-1.3-2.6 2.6-4.9 4-2.3.2.4.5.8.7 1.1.6-.4 1.4-.4 2.2-.2-.1-.5-.1-1-.1-1.5-.2-2.9 4.4-2.9 4.6 0 0 .6.3 1.1.7 1.5 1.7-.4 3.3.5 3.7 2.2.2.8-.1 1.7-.7 2.2.4-.1.7-.1 1.1-.2 2.5-.7 3.9 2.8 1.8 4.1-1.5.9-3.3 1.1-4.9.7-1.2 0-2.4-.2-3.5-.5-1.3 4.3-3.2 8.4-4.7 12.7 2.9.6 1.7 4.9-1.2 4.3-.1 0-.2-.1-.3-.1-1 3.4-1.6 6.8-2.1 10.3 4.8-5.6 9.6-11.1 14.7-16.4-.9-1.1-1.8-2.3-2.6-3.6-1.3-2.2 1.8-4.6 3.6-2.7.4.5.9.9 1.4 1.4-.3-1.1-.3-2.4.1-3.5.9-2.7 5.3-1.6 4.4 1.2-.2.7-.2 1.3-.1 1.8.7-.6 1.3-1.2 1.8-2 1.7-2.4 5.6-.1 4 2.3-.5.8-1.1 1.5-1.7 2.1 1 .2 2 .2 2.7.1 2.2-.1 3.3 3.3 1.1 4.2-.8.3-1.6.6-2.4.7-.1 1-.8 2-2.2 2h-.3c.1 1.7-1.6 3.3-3.3 2.1-1.1-.7-2-1.5-3-2.4-5.4 6.4-10.9 12.7-16.7 18.7 5-3.5 9.9-7.2 15.7-9.4-.1-.4-.2-.8-.2-1.2-.1-1.2.7-1.9 1.6-2.1.6-.5 1.4-.7 2.1-.6.9-.4 2.1.1 2.7 1.1 4.7-3 9.4-5.9 14.3-8.6 0-1.2.5-2.4 1.2-3.3.6-.7 1.4-.9 2-.7 1-.8 2.6-.8 3.3.6.2.4.4.7.7 1.1 1.7-2.4 5.3-.3 4 2.3-.4.7 0 1.3.6 1.8.8.6.9 1.9.4 2.7l-2.1 3.2c-.8 1.2-2.5 1.5-3.6.5-1.1-1.1-2-2.4-2.7-3.7-.2 0-.4 0-.6-.1-.4-.1-.7-.2-1.1-.4-4 2.2-7.8 4.5-11.6 6.9 1.1.7 1.6 2.3.4 3.4-1.4 1.3-2.8 1.7-4.2 1.5 0 1.9-2.2 3.1-3.8 1.7l-.9-.9c-3.3 2.3-6.6 4.8-9.9 7.3 5.7-.9 11.4-1.9 17.1-3 2.4-.8 4.7-1.7 7-2.6 0-.2-.1-.4-.1-.6 0-2.4 3-2.9 4.3-1.1.1 0 .2-.1.3-.1-.5-1.8-.6-3.7-.3-5.6.4-2.9 4.8-1.6 4.4 1.2-.1.7-.1 1.4 0 2 .3-.2.5-.4.8-.5 1.2-.8 2.4-.2 3 .7 1.2.2 2 1.7 1.7 2.8-.3 1.6-.2 3.1.2 4.7.5 2-1.6 3.4-3.4 2.5-.9-.5-1.7-1.1-2.5-1.7.6 2.6-2.7 3.8-4.2 1.7l-.9-1.2c-1.9.5-3.7.9-5.6 1.3.8.1 1.6.5 2 1.6.2.5.3 1.1.6 1.6l.3-.3c1-.9 2.5-.6 3.4.2 1.6-.7 3.2.3 3.3 2 .2 3-2.9 5-5.7 4.7-.5-.1-.9-.2-1.3-.3h-.7c-.7-.2-1.3-.8-1.6-1.4-6.5 1-13 1.7-19.5 1.9 2.7.2 5.5.3 8.3.4 8.1.3 16.9 1.3 24.9-.7-.7-1.5.3-3.5 2-3.3-.1-1-.1-2 0-3 .3-2.9 4.9-2.9 4.6 0-.2 1.5-.1 2.8.3 4.1l4.6-2.2c2-1 4.3 1 3.1 3.1-.5.9-1 1.8-1.5 2.8.7 0 1.3-.1 2-.2 2.9-.6 4 3.4 1.2 4.3-1.8.6-3.4.6-5.2.4-.7 1.4-2.4 1.7-3.7.7-.9-.7-1.7-1.6-2.5-2.5-3 2.1-7.6 2.9-12.4 3.1.4.2.7.6.8 1 .1.1.1.2.2.4.1-.1.2-.2.4-.3 1.9-1.5 5.3.5 3.6 2.8.1.7-.1 1.5-.5 2.1.5 1.8-.2 3.5-3 3.9-1.5.2-2.8-.6-2.9-2.2 0-.5-.1-1-.1-1.5-1 .6-1.9 1.3-3.5 1.3-.8 0-1.6-.1-2.3-.1.3.3.5.6.7 1 .1.3.2.7.3 1 .2.1.3.3.5.5 2.4-.9 4.3 1.6 2.7 3.6l-1.7 2.9c-.9 1.9-3.7 1.2-4.2-.5-.1-.2-.1-.4-.2-.6h-.6c-.7 0-1.2-.3-1.6-.8-7.3-.6-14.1-2.5-20.5-5.8.5.8.5 1.7.1 2.4 1.9 1.6 4.1 2.6 6.6 3 .7-.4 1.5-.7 2.3-.9 1.8-.6 3.2 1.2 2.8 2.8.9.2 1.8.7 2.5 1.3 1.8 1.5-.1 4.3-2.2 3.8-.9-.2-1.8-.4-2.7-.5l-.1.1c-.1.3-.3.5-.4.8-1 1.9-3.8 1.1-4.2-.7-.6.1-1.2.3-1.8.5-2.7.9-3.9-3.1-1.4-4.2-2.6-1.1-4.8-2.9-6.6-5.1-2.7.6-5.9-.3-8.6-2-3.1-1.9-5.6-4.5-7.7-7.4-2.1 3-4.1 6.1-5.9 9.3 4.7 14 7.8 27.9 9.1 42.6 3.6-1.2 7-2.3 10.5-3.5-.5-1.3.2-2.4 1.3-2.9-.2-3.4-.5-6.8-1.1-10.2-3.8-1.5-6-7.2-7.2-11-.7-2.1 2.3-3.9 3.8-2.2.9 1.1 1.9 2.1 2.9 3 0-.3.1-.6.1-.8.3-2.8 4.6-3 4.6 0 0 1.5 0 2.9-.1 4.3 1-1.5 3.1-2.8 4.1-4.4 1.3-2.1 5.1-.8 4.2 1.7-1.2 3.4-3.4 5.9-6.6 7.1 0 .4-.1.9-.3 1.2 0 .1-.1.2-.1.3-.2.3-.4.6-.7.7.5 3.5.9 7.1 1.1 10.6 4.7-1.9 9.2-4.1 13.3-7.1 2.6-2.4 5.1-5 7.6-7.6-2.2-1.4-.2-4.9 2.2-3.8-2-2.8-2.7-6.5-1.1-10.3.9-2.1 3.6-2.2 4.4 0 .2.5.3 1 .5 1.6.4-.6.9-1.1 1.5-1.6 2.1-1.7 4.6.4 3.6 2.7l-.4.9c1.7-1.6 4.6.8 3.4 2.9 0 .1-.1.1-.1.1.4-.3.8-.5 1.1-.8 2.3-1.9 5.1.9 3.2 3.2-.1.1-.2.2-.2.3.8.7 1.1 1.9.6 2.9-2.9 5.6-8.8 5.7-14.1 4-3.2 4-6.7 7.4-10.6 10.3-2.3 2.1-4.6 4.1-7 6 2.6-.2 5.2-.7 7.1-1 5.8-.8 10.6-3.5 13.3-8.7 1.4-2.6 5.2-.3 4 2.3-.2.4-.4.7-.6 1.1.2-.1.4-.1.6-.2 2.1-.5 4 2.2 2.2 3.8-.1.1-.3.2-.4.3 2 .3 2.6 3.2.7 4.2.7 1.3-.1 3.2-2 3.3H549c1.1 1.8-1.2 4.4-3.1 3.1-2.1-1.5-3.8-3-5.5-5-.4-.4-.5-.9-.6-1.4-2.7 1.1-5.7 1.7-8.8 2-3.4.3-7.2.8-10.7.4-1.8 1.3-3.6 2.5-5.5 3.6-4 2.4-8.4 4.3-12.7 6.2 0 .6.1 1.3.1 1.9.1 20.6 1 41.1 2.5 61.5 5.2-17.3 8.2-36.6 19.5-51.5-.1 21.1-13.6 47.8 1.1 67.8 3.7-8.5 8.9-16.2 13.4-24.4.6 6.4 2 13 5.3 18.6.9-11.7.1-23.6 2.4-35.2 3.3-17.1 10-34 16.1-50.3 4.4-11.9 10.7-19.6 11.4-33.2 0 8.5 1.4 18.4-.1 26.8-1.9 10.2-7.7 19.6-10.6 29.5-5.1 17.5-7.2 37.4-5.9 55.6 5.4-11.6 6.1-27.4 15.1-37.4.7 14.8-7.3 27.7-1.4 42.6 6.9-.9 8.4-13.1 9.9-18.1 2.4-7.9 9.6-14.1 11-21.7.6.5 4.2 7.5 3.8 7.5 6.4.4 11.6-6.8 17.2-9.7 10.5-5.4 22.8-7.2 34.4-9.8 10.6-2.4 21.3-6.8 32.1-4.5 10.5 2.2 20 7.7 28.9 13.5 3.6 2.3 7.2 4.6 11.1 6.3 2.7 1.2 6.1 3.6 9.1 4.3 2.7-5.7-1.5-16.2-4.7-20.9 3.3 4.7 7.2 9 10.1 13.9 1.6 2.6 2.4 5.3 3.6 8.1.4 1 3 4.5 2.9 5.1.7-8.2 9-15.4 13.1-22.2-3.2 7.6-10.6 17.4-7 25.8 0 .1 1-5.3 1.1-5.8.6-2.1 2.1-3.9 2.9-5.9 1.8 6.3 1.3 13.2 4.4 19.1 3.4-8.1 3.9-19.7 9.8-26.6-2.9 5.1-5.9 20-2.1 25-2-2.6 3.3-10.1 3.9-12.7 0 3.9-1.4 11.8 1.2 14.4 2.1-12.3 4.6-24.1 9.5-35.8 4-9.5 7.9-19.4 9.8-29.5-.4-.1-.7 0-1.1-.1-.9-8 3.9-16.9 7-24.1.6-1.5 4.2-9.2 6.8-6.6 2 2-4.2 15.1-4.9 17.4-1 3.4-1.5 9.6-3.7 12.5-2.2 3-2.4 1.3-3.3 5.3-1.8 7.8-4.2 15.6-6.1 23.3-1 4.1-3.2 7.9-4.1 12.1-1 4.4-1.5 8.9-2.8 13.3 4.4-15.1 14.6-25.8 23.7-38.2 5-6.8 7.6-15.6 13.4-21.7-2.5 4-4.2 8.4-6.6 12.5-2.2 3.7-7.3 9.4-6.9 13.9 5.6-8.1 14.5-13.7 23.1-18.5 4.6-2.6 12.5-5.5 13.8-11.3.5-2.1-3.3-7 .4-7.6 4.5-.8 2.6 7.8 3.4 9.6 2.1-1.4 3.4-5.2 6-5.2 1 4.2-4.4 4.6-3.6 8 2.8.3 9.1 2.9 7.3 6.5-.1.2-4.4-2.3-4.8-2.6.2 3.2 4.9 5.6 3.5 9.1-4.1-.4-3-8.8-8.5-8.8.3 1.2.1 2.7.3 3.9-2.7-.6-.5-3.3-2-4.5-.8-.7-5.6 0-6.7.3-3.8 1.1-6.9 3.7-10.1 5.9-3.5 2.4-7.3 4.6-10.6 7.2-10.5 8.6-19 19.9-23.1 32.8-1.4 4.3-2 9-3.3 13.2 1.3-3.4 3.9-6.8 5.8-9.8 3.6-5.8 7.6-10.8 12-16 3.7-4.4 7.6-7.2 12.8-9.5 3.1-1.3 6.1-3.5 9.5-3.9-4.5 1-8.3 5-11.6 7.9-5.8 5.1-10.6 11.1-14.7 17.6-3.2 5.1-6.1 11.9-6.6 17.8 18.2-8.3 34 2 47.9 13.8 5.2 4.4 19.3 13.5 19.8 21.5.1-7.5 1-16.9-3-23.3 6.1 9.9 10.9 19.3 9.6 31 1.2-4.7 4.1-9.5 5.2-14.3 2.8-12.6-.8-24.8-1.4-37.4 1.2 16.2 5.3 31.3 4.3 47.5 3.4-6.7 5.9-15.1 12.3-19.6.1 3.6-1.7 6.9-1.2 10.5.3 1.7 6.4-3.5 6.8-4 1.4-1.9 2.4-6 2.8-8.4 1.5-8.4-1.6-17.3-5.9-24.5 7.9 7 12.7 16.1 15.7 26.1-1.9-15-3.6-33.5-.5-48.5 0 9.3 3 17.4 6.6 25.8 1 2.3 13.6 19.4 13.7 19 1.4-6.9-16-21.7-9.7-23.4 9.9-2.6 14.1 21.2 16.4 26.4.5-4.8 3.8-9.6 4.1-14.3.3-5.6-4.6-8.8-3.2-14.4 1 0 2-.1 3 0 .7 1.6 2.4 2.6 3.2 3.8 3.1-6.3-2.8-10.3-1.4-16.1 2.5-10.7 4 3.1 5.1 6.4 4.5-4.7 8-19.6 16.2-20.2s4.1 7.1 0 10.4c-4 3.2-12.2 1.7-10.5 8.9 3.6-1.7 7.8-2 12-.6-.5 5.1-11.3 6.5-16 8 4.2-.5 21.7-.3 12 4.8-1.7.9-4.3.6-6.9.4-4.5-.5-8.9-1-8.6 5.2 5.4-1.5 15.2-3.8 18.8 2.6-3.4 3-7.9 2.2-12.1 1.4-3.5-.7-6.8-1.3-9.1.2-5.5 3.8-1 22.4 6.2 17.9 1.7-1.1 3.3-8.1 4.1-9.7.8 6.4 6.2 11 10.8 15 1.9-2.2 3.5-5.1 4.8-7.6 2 1.6 4.2 3 5.7 5.2-.2-1.9-7.2 121.4-7.3 119.5M488.7 276.3c-1 1.3-2.1 2.5-3.5 3.4 1.7 5.1 4.2 9.8 7.4 14.1-1.7-5.7-2.9-11.5-3.9-17.5m14.9 12.8c-.7-.7-.8-1.5-.5-2.3-1.3-1.5-2.1-3.3-1.6-5.4.1-.4.3-.7.5-1-.4-.1-.8-.2-1.3-.3.8 9.3 1.9 18.5 3.3 27.7 0 .1.1.1.1.2.9-6.1 1.6-12.3 2.1-18.5-.3.1-.6.2-1 .2-.6.1-1.2-.2-1.6-.6m-7.4-8.4c-.7.3-1.3.6-1.9 1 .8 4.3 1.9 8.4 3.3 12.5-.5-4.5-1-9-1.4-13.5m2.1 33.8c-4.2-5.6-8-11.5-11.4-17.7.1.7 0 1.4-.6 1.9-1.1.9-2.3 1.6-3.6 2.2 2 3.5 7 7.1 9.5 9.1 1.9 1.6 3.8 3.1 5.8 4.5zm-18.2-7c0 .2 0 .3-.1.5-.5 1-1 2.1-1.6 3 3.4 2 7.1 3.3 11 3.7-3.4-2.1-6.4-4.6-9.3-7.2m62.6 8.8c-.1-.3-.2-.7-.3-1-.4-1.1.2-2 .9-2.4-1 .2-1.9.5-2.9.7-5 1.7-10.1 3.2-15.2 4.4 5.9-.2 11.8-.8 17.5-1.7m-59.2 5.3c-.4-.7-.3-1.4-.1-2-1.2-.6-2.3-1.3-3.4-2-1.4-.1-2.7-.3-4-.6 1.4 3.3 3.4 6.3 6.6 8.5 3.3 2.2 8.3 2.7 11.6.7 0-.2-.1-.4-.2-.6-.1-.3-.2-.5-.4-.8-.1-.2 0-.3-.1-.4h-.1c-1.2.4-2.5.6-3.8.6-2.4-.1-4.8-1-6.1-3.4m17.9 5.1c-.3.2-.5.5-.7.8-.1.2-.2.3-.3.5.2.3.4.6.6.8.6.5 1.4.8 2.2.9-.7-1-1.3-2-1.8-3m37.4 9.4c-6.5-1.3-13-4.2-19.2-6.4-.8-.3-1.2-.8-1.4-1.5-1-.2-2.1-.4-3-.6 1.3.7 2.6 1.4 4 2 6.2 3.2 12.5 5.8 19.4 6.7l.2-.2m-6.5-6.8c1.9.6 3.7 1.3 5.6 1.9 3.3 1 6.6 1.4 10 .9 0-.2-.1-.3-.1-.5v-.1c0-.2-.1-.4-.1-.6-.1-.6.1-1.1.5-1.5-2.3 0-4.6 0-6.7-.1-1.8 0-3.4-.1-4.8-.1h-1.5c-1 .2-2 .2-2.9.1m-39.9 2.3c-1.3.3-2.7.4-4.1.3.5 1.3 1 2.6 1.4 3.9 1-1.4 1.8-2.8 2.7-4.2m13.8 2.1c-.2.1-.5.2-.7.2 1 .9 2.2 1.8 3.4 2.4-1-.8-1.9-1.7-2.7-2.6m-17.3 54.7c.1-13.6 0-27.2-.5-40.7-2.7 6.7-4.7 13.8-6.3 20.8-2 8.8-3.1 17.7-3.6 26.8 3.1-2.8 6.6-5.1 10.4-6.9m-.1 14.6v-.4c-3.7 2.6-7 5.6-10.1 8.9.1 3.1.2 6.2.2 9.3.8 8.7 1.4 17.5 1.4 26.4 0 4.4 2.2 14.4.5 18.3 9.3-20.2 7.8-40.8 8-62.5" mask="url(#a)" transform="translate(1601 -143)"/><path d="M34 632.9V423.3c1.2-.3 2.3-.5 3.5-.8.9-3.1 1.6-6.1 2.2-9.2v-4.4c0-.9.5-1.5 1.1-1.8 2.8-18.7 1.8-37.8.4-56.9 0-.5.1-.9.3-1.2-.4-1.1-.8-2.1-1.2-3.1-1.1-2.7 3.3-3.9 4.4-1.2 2.9 7.2 4.9 14.6 5.9 22 .1.1.2.1.2.2.2 0 .4.1.6.2 2.3-9.9 6.5-19.3 11.7-28.3-.1-2.3-.2-4.5-.3-6.8-.4 0-.8-.1-1.1-.2-7.7-1.6-12.6-7.1-15.3-14-.4.3-1 .4-1.6.3-2.2-.3-3.8-1.9-4.4-4-.3-1.1.2-2.1 1.1-2.5 0-.6.2-1.1.6-1.4-.9-.9-1.6-2.1-1.8-3.4 0-.2-.1-.4-.1-.6-.1-1.1.6-1.7 1.4-2-1.1-1-2-2.1-2.7-3.4-.2-.2-.4-.4-.5-.6-.5-.7-.4-1.6 0-2.3l.1-.2c.1-.8.6-1.5 1.6-1.9 2-.8 4.3 1 4.2 3.1 0 .4-.2.8-.3 1.1 1.4 1.7 3.3 2.8 5.6 3.3 1.3.3 1.7 1.3 1.6 2.3.3-.6.7-.9 1.2-1-.8-.9-1.5-1.8-2.2-2.8-.5-.1-1-.1-1.5-.3-1.9-.5-2-2.7-.9-3.8-1-1.9-1.7-4-2.3-6.1-1.9.6-4 .6-5.8-.1-2.7-1-1.7-4.6 1.1-4.4-.5-.5-.9-1-1.2-1.4-.9-1.4.2-3.1 1.7-3.3v-.2c.3-.9.9-1.6 1.6-2.1.1-.4.2-.8.3-1.1.6-2.2 3.7-2.1 4.4 0 0 .1.1.3.1.4 0-.1.1-.1.1-.1 1.2-2.6 5.2-.4 4 2.3-.3.7-.7 1.4-1.1 2.1.5 0 1.1 0 1.7.1 2 .4 2.2 3.2.5 4.1-1.1.6-2.2 1.1-3.4 1.5.2.6.3 1.3.5 1.9h.5c1.6.3 3.1.1 4.6-.6 2.3-1.1 4.7 1.7 2.8 3.5l-.1.1c.8.2 1.7.3 2.5.5.4.1.7.3.9.5-.6-1.1-1.1-2.1-1.7-3.2-.5-.9-.3-1.8.2-2.4-1.5-2.7-2.7-5.6-3.8-8.6-.6-.1-1.1-.4-1.4-.7-.2-.2-.5-.3-.6-.5-1.4-.2-2.7-1.3-3-2.8s1.2-3.4 2.8-2.8l-.2-.8c-.8-2.8 3.6-4 4.4-1.2l.5 1.6c.4-.3.8-.5 1.3-.5.5-.4.9-.7 1.4-1.1.6-.5 1.4-.6 2.1-.5-.2-1.2-.3-2.4-.4-3.5-1.8-.3-3.5-1.3-4.7-3.1-1.1-1.7.7-3.8 2.6-3.3.5.1.9.2 1.3.3 0-.3-.1-.5-.1-.8-.3-2.9 4.2-2.9 4.6 0v.2c.1-1.9 2-3.5 3.8-2.4 1.5.8 1.6 2.3 1.2 3.6h.3c2.9.3 3 4.3 0 4.5-1.4.1-2.7.1-4.1 0-.2.1-.4.2-.5.3.2 1.9.5 3.9.8 5.7h.4c.5.2 1 .3 1.5.5-.2-.9-.4-1.9-.6-2.8-.6-2.8 3.8-4 4.4-1.2.2 1.1.5 2.2.7 3.3.1-.1.2-.3.3-.5.7-2.8 5.1-1.6 4.4 1.2-.1.4-.3.7-.4 1.1.4-.1.8-.1 1.1 0 1.8.5 2.4 2.3 1.6 3.8-.3.6-.8.9-1.3 1.2.7.5 1.2 1.3.9 2.4-.1.4.2.9.5 1.3.4-1.5 1-3 1.9-4.3 1.6-2.4 5.6-.2 3.9 2.3-.5.8-.9 1.7-1.2 2.5.9-.2 1.7-.3 2.6-.4 1.3-3.3 2.6-6.6 3.6-10.1-2.1-1.3-4-3.2-5.2-5.5-1.3-2.6 2.6-4.9 4-2.3.2.4.5.8.7 1.1.6-.4 1.4-.4 2.2-.2-.1-.5-.1-1-.1-1.5-.2-2.9 4.4-2.9 4.6 0 0 .6.3 1.1.7 1.5 1.7-.4 3.3.5 3.7 2.2.2.8-.1 1.7-.7 2.2.4-.1.7-.1 1.1-.2 2.5-.7 3.9 2.8 1.8 4.1-1.5.9-3.3 1.1-4.9.7-1.2 0-2.4-.2-3.5-.5-1.3 4.3-3.2 8.4-4.7 12.7 2.9.6 1.7 4.9-1.2 4.3-.1 0-.2-.1-.3-.1-1 3.4-1.6 6.8-2.1 10.3 4.8-5.6 9.6-11.1 14.7-16.4-.9-1.1-1.8-2.3-2.6-3.6-1.3-2.2 1.8-4.6 3.6-2.7.4.5.9.9 1.4 1.4-.3-1.1-.3-2.4.1-3.5.9-2.7 5.3-1.6 4.4 1.2-.2.7-.2 1.3-.1 1.8.7-.6 1.3-1.2 1.8-2 1.7-2.4 5.6-.1 4 2.3-.5.8-1.1 1.5-1.7 2.1 1 .2 2 .2 2.7.1 2.2-.1 3.3 3.3 1.1 4.2-.8.3-1.6.6-2.4.7-.1 1-.8 2-2.2 2h-.3c.1 1.7-1.6 3.3-3.3 2.1-1.1-.7-2-1.5-3-2.4-5.4 6.4-10.9 12.7-16.7 18.7 5-3.5 9.9-7.2 15.7-9.4-.1-.4-.2-.8-.2-1.2-.1-1.2.7-1.9 1.6-2.1.6-.5 1.4-.7 2.1-.6.9-.4 2.1.1 2.7 1.1 4.7-3 9.4-5.9 14.3-8.6 0-1.2.5-2.4 1.2-3.3.6-.7 1.4-.9 2-.7 1-.8 2.6-.8 3.3.6.2.4.4.7.7 1.1 1.7-2.4 5.3-.3 4 2.3-.4.7 0 1.3.6 1.8.8.6.9 1.9.4 2.7l-2.1 3.2c-.8 1.2-2.5 1.5-3.6.5-1.1-1.1-2-2.4-2.7-3.7-.2 0-.4 0-.6-.1-.4-.1-.7-.2-1.1-.4-4 2.2-7.8 4.5-11.6 6.9 1.1.7 1.6 2.3.4 3.4-1.4 1.3-2.8 1.7-4.2 1.5 0 1.9-2.2 3.1-3.8 1.7l-.9-.9c-3.3 2.3-6.6 4.8-9.9 7.3 5.7-.9 11.4-1.9 17.1-3 2.4-.8 4.7-1.7 7-2.6 0-.2-.1-.4-.1-.6 0-2.4 3-2.9 4.3-1.1.1 0 .2-.1.3-.1-.5-1.8-.6-3.7-.3-5.6.4-2.9 4.8-1.6 4.4 1.2-.1.7-.1 1.4 0 2 .3-.2.5-.4.8-.5 1.2-.8 2.4-.2 3 .7 1.2.2 2 1.7 1.7 2.8-.3 1.6-.2 3.1.2 4.7.5 2-1.6 3.4-3.4 2.5-.9-.5-1.7-1.1-2.5-1.7.6 2.6-2.7 3.8-4.2 1.7l-.9-1.2c-1.9.5-3.7.9-5.6 1.3.8.1 1.6.5 2 1.6.2.5.3 1.1.6 1.6l.3-.3c1-.9 2.5-.6 3.4.2 1.6-.7 3.2.3 3.3 2 .2 3-2.9 5-5.7 4.7-.5-.1-.9-.2-1.3-.3h-.7c-.7-.2-1.3-.8-1.6-1.4-6.5 1-13 1.7-19.5 1.9 2.7.2 5.5.3 8.3.4 8.1.3 16.9 1.3 24.9-.7-.7-1.5.3-3.5 2-3.3-.1-1-.1-2 0-3 .3-2.9 4.9-2.9 4.6 0-.2 1.5-.1 2.8.3 4.1l4.6-2.2c2-1 4.3 1 3.1 3.1-.5.9-1 1.8-1.5 2.8.7 0 1.3-.1 2-.2 2.9-.6 4 3.4 1.2 4.3-1.8.6-3.4.6-5.2.4-.7 1.4-2.4 1.7-3.7.7-.9-.7-1.7-1.6-2.5-2.5-3 2.1-7.6 2.9-12.4 3.1.4.2.7.6.8 1 .1.1.1.2.2.4.1-.1.2-.2.4-.3 1.9-1.5 5.3.5 3.6 2.8.1.7-.1 1.5-.5 2.1.5 1.8-.2 3.5-3 3.9-1.5.2-2.8-.6-2.9-2.2 0-.5-.1-1-.1-1.5-1 .6-1.9 1.3-3.5 1.3-.8 0-1.6-.1-2.3-.1.3.3.5.6.7 1 .1.3.2.7.3 1 .2.1.3.3.5.5 2.4-.9 4.3 1.6 2.7 3.6l-1.7 2.9c-.9 1.9-3.7 1.2-4.2-.5-.1-.2-.1-.4-.2-.6h-.6c-.7 0-1.2-.3-1.6-.8-7.3-.6-14.1-2.5-20.5-5.8.5.8.5 1.7.1 2.4 1.9 1.6 4.1 2.6 6.6 3 .7-.4 1.5-.7 2.3-.9 1.8-.6 3.2 1.2 2.8 2.8.9.2 1.8.7 2.5 1.3 1.8 1.5-.1 4.3-2.2 3.8-.9-.2-1.8-.4-2.7-.5l-.1.1c-.1.3-.3.5-.4.8-1 1.9-3.8 1.1-4.2-.7-.6.1-1.2.3-1.8.5-2.7.9-3.9-3.1-1.4-4.2-2.6-1.1-4.8-2.9-6.6-5.1-2.7.6-5.9-.3-8.6-2-3.1-1.9-5.6-4.5-7.7-7.4-2.1 3-4.1 6.1-5.9 9.3 4.7 14 7.8 27.9 9.1 42.6 3.6-1.2 7-2.3 10.5-3.5-.5-1.3.2-2.4 1.3-2.9-.2-3.4-.5-6.8-1.1-10.2-3.8-1.5-6-7.2-7.2-11-.7-2.1 2.3-3.9 3.8-2.2.9 1.1 1.9 2.1 2.9 3 0-.3.1-.6.1-.8.3-2.8 4.6-3 4.6 0 0 1.5 0 2.9-.1 4.3 1-1.5 3.1-2.8 4.1-4.4 1.3-2.1 5.1-.8 4.2 1.7-1.2 3.4-3.4 5.9-6.6 7.1 0 .4-.1.9-.3 1.2 0 .1-.1.2-.1.3-.2.3-.4.6-.7.7.5 3.5.9 7.1 1.1 10.6 4.7-1.9 9.2-4.1 13.3-7.1 2.6-2.4 5.1-5 7.6-7.6-2.2-1.4-.2-4.9 2.2-3.8-2-2.8-2.7-6.5-1.1-10.3.9-2.1 3.6-2.2 4.4 0 .2.5.3 1 .5 1.6.4-.6.9-1.1 1.5-1.6 2.1-1.7 4.6.4 3.6 2.7l-.4.9c1.7-1.6 4.6.8 3.4 2.9 0 .1-.1.1-.1.1.4-.3.8-.5 1.1-.8 2.3-1.9 5.1.9 3.2 3.2-.1.1-.2.2-.2.3.8.7 1.1 1.9.6 2.9-2.9 5.6-8.8 5.7-14.1 4-3.2 4-6.7 7.4-10.6 10.3-2.3 2.1-4.6 4.1-7 6 2.6-.2 5.2-.7 7.1-1 5.8-.8 10.6-3.5 13.3-8.7 1.4-2.6 5.2-.3 4 2.3-.2.4-.4.7-.6 1.1.2-.1.4-.1.6-.2 2.1-.5 4 2.2 2.2 3.8-.1.1-.3.2-.4.3 2 .3 2.6 3.2.7 4.2.7 1.3-.1 3.2-2 3.3H124c1.1 1.8-1.2 4.4-3.1 3.1-2.1-1.5-3.8-3-5.5-5-.4-.4-.5-.9-.6-1.4-2.7 1.1-5.7 1.7-8.8 2-3.4.3-7.2.8-10.7.4-1.8 1.3-3.6 2.5-5.5 3.6-4 2.4-8.4 4.3-12.7 6.2 0 .6.1 1.3.1 1.9.1 20.6 1 41.1 2.5 61.5 5.2-17.3 8.2-36.6 19.5-51.5-.1 21.1-13.6 47.8 1.1 67.8 3.7-8.5 8.9-16.2 13.4-24.4.6 6.4 2 13 5.3 18.6.9-11.7.1-23.6 2.4-35.2 3.3-17.1 10-34 16.1-50.3 4.4-11.9 10.7-19.6 11.4-33.2 0 8.5 1.4 18.4-.1 26.8-1.9 10.2-7.7 19.6-10.6 29.5-5.1 17.5-7.2 37.4-5.9 55.6 5.4-11.6 6.1-27.4 15.1-37.4.7 14.8-7.3 27.7-1.4 42.6 6.9-.9 8.4-13.1 9.9-18.1 2.4-7.9 9.6-14.1 11-21.7.6.5 4.2 7.5 3.8 7.5 6.4.4 11.6-6.8 17.2-9.7 10.5-5.4 22.8-7.2 34.4-9.8 10.6-2.4 21.3-6.8 32.1-4.5 10.5 2.2 20 7.7 28.9 13.5 3.6 2.3 7.2 4.6 11.1 6.3 2.7 1.2 6.1 3.6 9.1 4.3 2.7-5.7-1.5-16.2-4.7-20.9 3.3 4.7 7.2 9 10.1 13.9 1.6 2.6 2.4 5.3 3.6 8.1.4 1 3 4.5 2.9 5.1.7-8.2 9-15.4 13.1-22.2-3.2 7.6-10.6 17.4-7 25.8 0 .1 1-5.3 1.1-5.8.6-2.1 2.1-3.9 2.9-5.9 1.8 6.3 1.3 13.2 4.4 19.1 3.4-8.1 3.9-19.7 9.8-26.6-2.9 5.1-5.9 20-2.1 25-2-2.6 3.3-10.1 3.9-12.7 0 3.9-1.4 11.8 1.2 14.4 2.1-12.3 4.6-24.1 9.5-35.8 4-9.5 7.9-19.4 9.8-29.5-.4-.1-.7 0-1.1-.1-.9-8 3.9-16.9 7-24.1.6-1.5 4.2-9.2 6.8-6.6 2 2-4.2 15.1-4.9 17.4-1 3.4-1.5 9.6-3.7 12.5-2.2 3-2.4 1.3-3.3 5.3-1.8 7.8-4.2 15.6-6.1 23.3-1 4.1-3.2 7.9-4.1 12.1-1 4.4-1.5 8.9-2.8 13.3 4.4-15.1 14.6-25.8 23.7-38.2 5-6.8 7.6-15.6 13.4-21.7-2.5 4-4.2 8.4-6.6 12.5-2.2 3.7-7.3 9.4-6.9 13.9 5.6-8.1 14.5-13.7 23.1-18.5 4.6-2.6 12.5-5.5 13.8-11.3.5-2.1-3.3-7 .4-7.6 4.5-.8 2.6 7.8 3.4 9.6 2.1-1.4 3.4-5.2 6-5.2 1 4.2-4.4 4.6-3.6 8 2.8.3 9.1 2.9 7.3 6.5-.1.2-4.4-2.3-4.8-2.6.2 3.2 4.9 5.6 3.5 9.1-4.1-.4-3-8.8-8.5-8.8.3 1.2.1 2.7.3 3.9-2.7-.6-.5-3.3-2-4.5-.8-.7-5.6 0-6.7.3-3.8 1.1-6.9 3.7-10.1 5.9-3.5 2.4-7.3 4.6-10.6 7.2-10.5 8.6-19 19.9-23.1 32.8-1.4 4.3-2 9-3.3 13.2 1.3-3.4 3.9-6.8 5.8-9.8 3.6-5.8 7.6-10.8 12-16 3.7-4.4 7.6-7.2 12.8-9.5 3.1-1.3 6.1-3.5 9.5-3.9-4.5 1-8.3 5-11.6 7.9-5.8 5.1-10.6 11.1-14.7 17.6-3.2 5.1-6.1 11.9-6.6 17.8 18.2-8.3 34 2 47.9 13.8 5.2 4.4 19.3 13.5 19.8 21.5.1-7.5 1-16.9-3-23.3 6.1 9.9 10.9 19.3 9.6 31 1.2-4.7 4.1-9.5 5.2-14.3 2.8-12.6-.8-24.8-1.4-37.4 1.2 16.2 5.3 31.3 4.3 47.5 3.4-6.7 5.9-15.1 12.3-19.6.1 3.6-1.7 6.9-1.2 10.5.3 1.7 6.4-3.5 6.8-4 1.4-1.9 2.4-6 2.8-8.4 1.5-8.4-1.6-17.3-5.9-24.5 7.9 7 12.7 16.1 15.7 26.1-1.9-15-3.6-33.5-.5-48.5 0 9.3 3 17.4 6.6 25.8 1 2.3 13.6 19.4 13.7 19 1.4-6.9-16-21.7-9.7-23.4 9.9-2.6 14.1 21.2 16.4 26.4.5-4.8 3.8-9.6 4.1-14.3.3-5.6-4.6-8.8-3.2-14.4 1 0 2-.1 3 0 .7 1.6 2.4 2.6 3.2 3.8 3.1-6.3 4 160.2 5.3 154.4M63.7 276.3c-1 1.3-2.1 2.5-3.5 3.4 1.7 5.1 4.2 9.8 7.4 14.1-1.7-5.7-2.9-11.5-3.9-17.5m14.9 12.8c-.7-.7-.8-1.5-.5-2.3-1.3-1.5-2.1-3.3-1.6-5.4.1-.4.3-.7.5-1-.4-.1-.8-.2-1.3-.3.8 9.3 1.9 18.5 3.3 27.7 0 .1.1.1.1.2.9-6.1 1.6-12.3 2.1-18.5-.3.1-.6.2-1 .2-.6.1-1.2-.2-1.6-.6m-7.4-8.4c-.7.3-1.3.6-1.9 1 .8 4.3 1.9 8.4 3.3 12.5-.5-4.5-1-9-1.4-13.5m2.1 33.8c-4.2-5.6-8-11.5-11.4-17.7.1.7 0 1.4-.6 1.9-1.1.9-2.3 1.6-3.6 2.2 2 3.5 7 7.1 9.5 9.1 1.9 1.6 3.8 3.1 5.8 4.5zm-18.2-7c0 .2 0 .3-.1.5-.5 1-1 2.1-1.6 3 3.4 2 7.1 3.3 11 3.7-3.4-2.1-6.4-4.6-9.3-7.2m62.6 8.8c-.1-.3-.2-.7-.3-1-.4-1.1.2-2 .9-2.4-1 .2-1.9.5-2.9.7-5 1.7-10.1 3.2-15.2 4.4 5.9-.2 11.8-.8 17.5-1.7m-59.2 5.3c-.4-.7-.3-1.4-.1-2-1.2-.6-2.3-1.3-3.4-2-1.4-.1-2.7-.3-4-.6 1.4 3.3 3.4 6.3 6.6 8.5 3.3 2.2 8.3 2.7 11.6.7 0-.2-.1-.4-.2-.6-.1-.3-.2-.5-.4-.8-.1-.2 0-.3-.1-.4h-.1c-1.2.4-2.5.6-3.8.6-2.4-.1-4.8-1-6.1-3.4m17.9 5.1c-.3.2-.5.5-.7.8-.1.2-.2.3-.3.5.2.3.4.6.6.8.6.5 1.4.8 2.2.9-.7-1-1.3-2-1.8-3m37.4 9.4c-6.5-1.3-13-4.2-19.2-6.4-.8-.3-1.2-.8-1.4-1.5-1-.2-2.1-.4-3-.6 1.3.7 2.6 1.4 4 2 6.2 3.2 12.5 5.8 19.4 6.7l.2-.2m-6.5-6.8c1.9.6 3.7 1.3 5.6 1.9 3.3 1 6.6 1.4 10 .9 0-.2-.1-.3-.1-.5v-.1c0-.2-.1-.4-.1-.6-.1-.6.1-1.1.5-1.5-2.3 0-4.6 0-6.7-.1-1.8 0-3.4-.1-4.8-.1h-1.5c-1 .2-2 .2-2.9.1m-39.9 2.3c-1.3.3-2.7.4-4.1.3.5 1.3 1 2.6 1.4 3.9 1-1.4 1.8-2.8 2.7-4.2m13.8 2.1c-.2.1-.5.2-.7.2 1 .9 2.2 1.8 3.4 2.4-1-.8-1.9-1.7-2.7-2.6m-17.3 54.7c.1-13.6 0-27.2-.5-40.7-2.7 6.7-4.7 13.8-6.3 20.8-2 8.8-3.1 17.7-3.6 26.8 3.1-2.8 6.6-5.1 10.4-6.9m-.1 14.6v-.4c-3.7 2.6-7 5.6-10.1 8.9.1 3.1.2 6.2.2 9.3.8 8.7 1.4 17.5 1.4 26.4 0 4.4 2.2 14.4.5 18.3 9.3-20.2 7.8-40.8 8-62.5" mask="url(#b)" transform="matrix(-1 0 0 1 513 -143)"/></g></svg>