<svg height="376" viewBox="0 0 872 376" width="872" xmlns="http://www.w3.org/2000/svg" xmlns:xlink="http://www.w3.org/1999/xlink"><radialGradient id="a" cx="41.244818%" cy="46.854074%" gradientTransform="matrix(-.13309795 -.99110289 2.41166156 -.32386871 -.662618 1.029065)" r="24.452248%"><stop offset="0" stop-color="#9680ff"/><stop offset="1" stop-opacity="0"/></radialGradient><mask id="b" fill="#fff"><path d="m0 0h1029v536h-1029z" fill="#fff" fill-rule="evenodd"/></mask><g fill="none" fill-rule="evenodd" mask="url(#b)" transform="translate(-110)"><g transform="translate(110 -257)"><circle cx="437.5" cy="437.5" fill="url(#a)" fill-opacity=".4" r="437.5"/><g transform="translate(349 377)"><path d="m93 47c0 25.9572368-20.818904 47-46.5 47s-46.5-21.0427632-46.5-47 20.818904-47 46.5-47 46.5 21.0427632 46.5 47" fill="#fff"/><g fill="#bec4bc"><path d="m71 75.5016218c0 4.69357-3.8048082 8.4983782-8.4983782 8.4983782-4.6935699 0-8.5016218-3.8048082-8.5016218-8.4983782 0-4.6935699 3.8080519-8.5016218 8.5016218-8.5016218 4.69357 0 8.4983782 3.8080519 8.4983782 8.5016218"/><path d="m76 70.9981826c0 2.2099046-1.7919128 4.0018174-4.0018174 4.0018174-2.2062698 0-3.9981826-1.7919128-3.9981826-4.0018174 0-2.2062698 1.7919128-3.9981826 3.9981826-3.9981826 2.2099046 0 4.0018174 1.7919128 4.0018174 3.9981826"/><path d="m87 63c0 3.3133823-2.6866177 6-6 6s-6-2.6866177-6-6c0-3.3167702 2.6866177-6 6-6s6 2.6832298 6 6"/><path d="m21 75.5c0 1.9326829-1.5639024 3.5-3.5 3.5-1.9326829 0-3.5-1.5673171-3.5-3.5s1.5673171-3.5 3.5-3.5c1.9360976 0 3.5 1.5673171 3.5 3.5"/><path d="m77 61.5c0 1.3811821-1.1188179 2.5-2.5 2.5s-2.5-1.1188179-2.5-2.5 1.1188179-2.5 2.5-2.5 2.5 1.1188179 2.5 2.5"/></g></g></g></g></svg>