<?xml version="1.0" encoding="UTF-8"?>
<svg width="285px" height="327px" viewBox="0 0 285 327" version="1.1" xmlns="http://www.w3.org/2000/svg" xmlns:xlink="http://www.w3.org/1999/xlink">
    <!-- Generator: Sketch 49.2 (51160) - http://www.bohemiancoding.com/sketch -->
    <title>LOGO</title>
    <desc>Created with Sketch.</desc>
    <defs>
        <path d="M2.61839733,5.09894621 C1.70495643,5.81575735 0.0473043806,7.09192245 0.10060509,8.21570962 C0.179889894,9.8156778 1.81822043,10.3553496 3.49119644,10.4950294 C10.073834,11.0347012 13.6716318,15.1996977 15.6304329,21.2186256 C16.0102004,22.3868564 16.6364838,23.8217484 17.9157008,23.8344466 C18.5553093,23.7703209 19.1549423,23.5068341 19.6213235,23.0852552 C20.9538412,22.1074968 22.2863589,21.1189451 23.6195429,20.1202348 L22.2330582,21.2948146 C26.8968702,18.7551825 27.8829334,12.2537245 25.3578123,7.72683045 C23.1651544,3.79674989 19.3081818,0.476181006 14.6437035,0.158727002 C14.3638748,0.14031467 14.0867111,0.13079105 13.813545,0.13079105 C9.44488562,0.13079105 5.97367695,2.45709399 2.61839733,5.09894621 Z" id="path-1"></path>
        <path d="M22.218486,0.786955571 C16.7552364,3.58798387 6.81673669,9.01664349 2.75430344,13.2915462 C2.29810139,13.7510482 1.88857131,14.2559002 1.53162936,14.7987662 C-1.38043848,19.4404702 2.39933355,22.8283807 5.61378315,25.3292988 C8.15116055,27.3033568 12.7526222,27.0565996 16.6967321,26.4297028 C18.8666499,26.0829088 25.7155968,21.914045 27.1617705,17.7265077 C29.4953689,10.9713611 27.957166,7.78285721 26.4978453,4.12151307 C25.6452602,1.97605878 25.5151046,0.203408008 24.0669589,0.203408008 C23.6061554,0.203408008 23.0119095,0.383474113 22.218486,0.786955571 Z" id="path-3"></path>
        <path d="M10.6309832,0.572602369 L2.58383025,1.29318063 C2.33187466,1.31119509 2.08377554,1.36073484 1.84467483,1.44115652 C-2.40386197,2.95951786 2.28816808,12.8031316 2.21103882,16.8435169 C2.21103882,17.6091313 3.81147099,19.4684805 4.38351301,19.5263841 C8.43279922,19.9381431 15.5865382,21.3857334 19.6358244,21.7974924 C21.164912,21.951902 22.9067478,22.0355406 24.0193374,20.9546732 C24.6620812,20.3106564 29.4633778,6.9613007 31.0895197,5.20489119 C34.9459827,0.984361375 15.0845552,0.817084279 11.1644606,0.572602369 C11.0757619,0.566168634 10.9870632,0.562951767 10.8977219,0.562951767 C10.8090232,0.562951767 10.7203246,0.566168634 10.6309832,0.572602369 Z" id="path-5"></path>
        <path d="M4.1319247,0.448650314 C3.25307088,1.84661868 1.65276988,4.79210553 1.21990158,5.19524059 C-0.0590274958,6.50217846 0.3082547,8.68691042 1.1739913,10.3254594 C2.03972791,11.9640084 4.79434438,13.7391031 5.19441963,15.5272022 C5.68631543,17.7379428 3.25307088,19.6430811 2.31518956,21.6977695 C0.990350207,24.6042433 11.2676931,30.1571037 13.1041041,30.5283781 C14.3240056,30.7748107 34.0588651,25.9371899 31.9076408,19.7926312 C30.4516292,15.631237 26.2869114,12.2956195 19.6036872,7.24342681 C18.2375286,6.21153108 7.57060426,0.22042385 4.75171341,0.22042385 C4.44477043,0.22042385 4.23030386,0.291947813 4.1319247,0.448650314 Z" id="path-7"></path>
        <path d="M5.741845,4.96128661 C2.44572272,6.88921363 0.639447721,10.8371871 0.547156297,14.6930411 C0.501010585,16.6670278 6.34833149,24.1550174 7.58108122,25.6552473 C10.9299415,29.7282399 13.8503058,29.0636644 19.2500133,25.6552473 C26.6392602,21.0499363 26.1382496,20.80582 24.1869452,16.0754898 C24.1117936,15.891909 24.0208207,15.7155662 23.9166632,15.5484354 L15.1621624,1.56602946 C14.6374198,0.804070588 14.006542,0.497444652 13.3071048,0.497444652 C11.1158427,0.496786657 8.23964645,3.49987845 5.741845,4.96128661 Z" id="path-9"></path>
        <path d="M16.1303597,0.305602388 C8.47317157,0.857015392 2.50017312,5.02915234 1.8473864,5.79315831 C0.914554188,6.99497291 0.419089071,8.48777414 0.44324218,10.0191078 C0.312684837,14.1500549 4.4128382,16.7815572 5.7445231,20.6480918 C7.07620799,24.5146263 6.47564422,30.8791282 10.3923645,29.9955387 C12.970872,29.4441257 19.3296674,26.5209724 20.3865291,24.0163616 C21.9995651,20.1318895 18.1507346,0.303609329 16.1532073,0.304938035 C16.1460266,0.304938035 16.1381932,0.304938035 16.1303597,0.305602388 Z" id="path-11"></path>
        <path d="M18.8066848,0.474659028 C14.3903919,0.923309342 8.09857242,2.22309482 4.06278383,5.95599547 C1.96036872,7.90664901 0.527049951,19.5325441 0.475630444,21.3401497 C0.333584054,26.7499622 2.71237902,28.9476985 6.53670488,29.7084534 C9.64694234,30.3586712 15.8050711,31.3144915 18.4338934,28.3690046 C21.0627157,25.4235178 21.9625571,11.1902491 22.2125845,4.19390511 C22.2858573,2.13401497 21.1077078,0.45580271 19.1685496,0.45580271 C19.0502848,0.45580271 18.9300917,0.462304889 18.8066848,0.474659028 Z" id="path-13"></path>
        <path d="M13.5630161,1.34103153 C10.3860305,2.93309359 4.9296958,14.2162554 2.76342484,18.5168048 C0.998009292,22.0312323 -0.787734895,27.0254187 0.539979567,30.7512403 C2.10909666,35.1640928 3.03659097,36.6967002 4.28172032,36.5910032 C9.59893087,36.0426996 11.9049612,30.3945127 14.5540375,26.5101455 C17.6223919,22.0246262 18.4990646,19.8380182 21.1227301,15.9998934 C23.3969969,12.6968601 29.6029503,1.96860786 25.7602016,1.4665468 C23.2921774,1.14417074 20.8629046,0.233194153 18.2208164,0.233194153 C16.7488956,0.233194153 15.2109067,0.515933805 13.5630161,1.34103153 Z" id="path-15"></path>
        <path d="M18.3248365,0.789001897 L10.6126091,5.3208723 C7.65249422,6.54023887 2.98666297,10.2374626 0.365036585,13.0478743 C0.252207095,13.1717672 0.365036585,20.3836358 0.365036585,20.5140493 C0.365036585,26.3826585 11.4687858,23.2533857 16.2939057,21.166117 C18.6102288,20.1554121 24.198607,16.4060229 28.2929901,13.4580249 C30.4772363,11.8871939 30.3710438,11.3785811 28.8378902,8.81008647 C27.5901288,6.71564507 26.4412591,4.21235724 24.4773623,2.28875757 C23.0822588,0.917459231 21.6068473,0.622724638 20.392271,0.622724638 C19.5327758,0.622724638 18.8033663,0.770091934 18.3248365,0.789001897 Z" id="path-17"></path>
        <path d="M4.44689054,5.12529243 C2.78248294,6.02126477 1.48716725,7.4755506 0.787099626,9.23315708 C0.152464819,10.8737594 -0.888742838,17.6530078 8.2267475,23.6234012 C10.6585614,25.4757557 13.5630161,26.6038287 16.6065951,26.8791701 C19.6425508,27.1589627 19.4075009,20.9144998 21.0528504,18.3200589 C22.0362484,16.9001113 23.2591433,15.6620289 24.6675371,14.6636778 C26.1203998,13.4484875 27.0186717,11.6953323 27.15589,9.80482432 C27.2937436,7.91431633 26.6597441,6.04924403 25.3980977,4.63565531 C24.6967595,3.84078986 23.9503172,3.08725741 23.161947,2.37887332 C21.8736193,1.2151903 20.2200113,0.539872615 18.4863592,0.470560347 C11.7207329,0.852095764 7.55336122,3.49104906 4.44689054,5.12529243 Z" id="path-19"></path>
        <path d="M9.99466676,1.39972021 C8.25411643,2.29944734 7.95331231,2.2747081 7.90446378,2.25127092 C7.89867908,2.24866679 7.89610811,2.24606266 7.89546537,2.2447606 C7.89932183,2.25778125 7.91410494,2.44658072 6.8580768,3.6522932 C4.80772394,5.99601076 5.31549158,5.11060635 2.21103882,7.89702611 C-0.893413942,10.6834459 -0.597751774,11.0740655 13.208386,21.8486559 C15.5415461,23.6721984 18.7616928,25.6311556 21.7440242,26.3668225 C23.7815222,26.8687687 24.218588,27.0178552 24.4885404,26.0478165 C25.2405507,23.2874381 25.1312843,24.9866333 24.9898806,21.3538711 C24.8677593,17.6169437 24.7327831,13.8285846 23.6266209,10.286316 C23.0680765,8.4829555 20.87632,5.61190149 18.8452495,3.22326268 C17.4260711,1.51755712 15.3718617,0.603507272 13.2797305,0.603507272 C12.1658555,0.603507272 11.0410537,0.862618269 9.99466676,1.39972021 Z M7.89546537,2.2447606 C7.89482262,2.24410956 7.89482262,2.24345853 7.89482262,2.24345853 C7.89482262,2.24345853 7.89482262,2.24410956 7.89546537,2.2447606 Z" id="path-21"></path>
        <path d="M14.7504529,0.214840776 C11.3819049,0.305985348 5.18186306,4.62233185 2.12934815,9.02331261 C0.606459916,11.224454 -0.566029255,12.8709156 0.842305439,15.1560402 C2.99186892,18.6781269 6.24653714,22.4996886 11.2195084,26.7314008 C12.6750122,27.9683629 14.892634,24.7783029 16.697863,22.9228598 C21.2597893,18.222404 19.7840702,13.8546259 19.9525312,12.4015211 C21.1998171,1.38800162 19.0556444,0.096352833 16.7052753,0.096352833 C16.0462555,0.096352833 15.3717373,0.197913927 14.7504529,0.214840776 Z" id="path-23"></path>
        <path d="M16.3327937,0.189493586 C10.7106535,0.510325829 4.1165501,2.06482666 1.14348614,5.59986217 C-0.622564676,7.69801357 0.711502486,10.6443121 1.53735359,12.963975 C1.6707603,13.3364279 2.35113456,14.2708273 2.54679774,14.7086228 C4.77786625,19.5753408 10.2881989,21.8381556 15.164532,19.8902922 C17.0887651,19.1388522 18.8357578,17.5902322 21.2180206,16.2180372 C25.137637,13.963717 27.68507,10.2261194 26.81475,6.61267272 C25.9793698,3.14363325 21.6646154,0.174464784 16.9261359,0.173811358 C16.7285669,0.173811358 16.5316332,0.179038767 16.3327937,0.189493586 Z" id="path-25"></path>
        <path d="M12.1231377,0.0395922122 C11.0644232,0.139232613 10.0432846,0.480385508 9.13685093,1.03599622 C5.99894253,4.61909142 1.93152765,7.83265931 0.257756762,13.1116209 C-1.14705055,19.06431 3.89601652,23.9070974 9.34121052,24.6461521 C10.6662517,24.8639092 11.6748651,25.0288768 12.696663,25.1278573 C15.2109451,25.9230009 17.9229945,25.8194013 20.3700356,24.8375144 C28.6703307,20.6869309 24.3715281,10.1620011 20.3700356,4.11759007 C19.7965104,3.19839087 19.0515867,2.39862819 18.1748182,1.76185344 C16.632233,0.61895825 14.7686054,0.00857831264 12.8621283,0.00857831264 C12.6162376,0.00857831264 12.3696877,0.0191362359 12.1231377,0.0395922122 Z" id="path-27"></path>
        <path d="M14.8567561,0.0912894757 C11.8505896,0.215182336 8.77010583,0.352116549 5.98622156,1.48019364 C3.20032872,2.60827073 0.73647732,4.94919372 0.301286176,7.89653965 C-0.133904967,10.8438856 1.47964989,11.8082937 5.22229372,14.5737127 L20.5878887,21.609523 C23.4065883,22.6723934 26.2453736,24.3482073 29.1845876,23.6961396 C30.1795015,23.526602 31.0592572,22.9651717 31.6142932,22.1442185 C32.0079738,21.2971826 32.1539303,20.3608134 32.0360939,19.4381376 C31.9162489,16.0147823 31.7957345,12.5392616 30.7646662,9.26588178 C29.733598,5.99250201 27.6781567,2.88148709 24.584952,1.33673875 C22.4411335,0.262131209 20.0254879,0.0195620305 17.5971213,0.0195620305 C16.6812113,0.0195620305 15.7626232,0.0541216177 14.8567561,0.0912894757 Z" id="path-29"></path>
        <path d="M0.347196451,6.76185494 C0.334571125,6.80689108 0.694392902,9.05869814 4.07798013,13.7102882 C6.48310464,17.010794 6.67248452,18.2454276 9.92981849,21.1219503 C12.0319352,22.9684321 15.4780178,21.6752515 16.7411816,19.1918299 C18.2246573,16.3352518 18.0731534,2.0716625 15.2381366,0.971493906 C14.2861871,0.598337306 13.2218721,0.431703583 12.1095809,0.431703583 C7.21474225,0.432346957 1.41214266,3.66336841 0.347196451,6.76185494 Z" id="path-31"></path>
        <path d="M5.11313809,1.4878011 C4.02202501,2.21829803 1.61572504,3.34420157 1.08978327,4.5639304 C-0.73804724,8.79947226 1.99472227,20.5544413 5.95092144,22.9804953 C9.90712061,25.4065494 16.8554032,21.640134 18.5841625,19.2676944 C20.3129218,16.8952548 17.5668541,10.7631016 16.9218939,9.56347823 C15.5056411,6.93636998 14.0288817,4.20203283 11.7023707,2.40594862 C10.2675004,1.29813997 9.02944281,0.58573791 7.71558574,0.58573791 C6.89907943,0.58573791 6.05398209,0.861182167 5.11313809,1.4878011 Z" id="path-33"></path>
        <path d="M2.70625053,1.52070088 C2.00427709,2.37862962 1.53989467,3.40573634 1.36011324,4.49874009 C0.527274164,7.76191072 -0.311282338,11.1194915 0.66068088,14.4840422 C0.997374021,15.6442103 1.38488877,15.5428302 2.40068562,16.1827918 C6.39716968,18.685612 11.54921,21.8854201 15.0495481,19.8958365 C17.9844959,18.2294018 25.4362139,10.917365 25.4362139,10.917365 C29.5908802,5.6329295 22.2281,3.71241101 20.3032317,3.06674677 C11.0791101,-0.0380175219 13.1818541,0.696987902 6.75927362,0.380175219 C6.58266854,0.371304464 6.40415765,0.366869086 6.22437622,0.366869086 C4.93541323,0.366869086 3.59816972,0.613982979 2.70625053,1.52070088 Z" id="path-35"></path>
        <path d="M12.0726106,0.707710793 C11.2764312,1.15871558 10.5495428,1.71523361 9.91393186,2.36118055 C8.56808896,3.68652986 7.30885971,5.21775866 5.51662337,6.26002365 C3.82898968,7.41166212 2.40785953,8.8901343 1.3458429,10.6027944 C0.379767551,12.2498304 -0.0799510634,13.9998062 0.379767551,15.5760712 C4.07750423,22.8970176 13.4117909,22.8970176 20.4934563,25.1945042 L20.5074478,25.1945042 C22.9193048,25.4975331 25.2019077,24.0666706 25.8974819,21.8167936 C28.2493757,14.0448424 25.0846461,4.88320447 17.7557987,0.894289092 C16.9009885,0.590616825 16.0015391,0.418836115 15.0907632,0.386024069 C14.9701704,0.382163828 14.8502438,0.380233708 14.7296509,0.380233708 C13.8335327,0.380233708 12.9407459,0.490250567 12.0726106,0.707710793 Z" id="path-37"></path>
        <path d="M1.37150489,5.04116958 C-0.737648988,9.14267531 0.666495236,13.2505301 1.92572081,17.4980647 C2.23905843,18.6980408 2.57850753,19.904366 2.98976316,21.0979931 C3.19539097,21.9233735 3.47935319,22.7297067 3.83838589,23.5042944 C4.0733891,23.9620631 5.88160831,23.790638 8.22511261,23.2376331 C10.6012563,22.5278059 12.9317048,21.6789339 15.2034026,20.6980011 C17.5580043,19.6554821 19.379932,17.7323457 20.2559718,15.3647738 L20.2820832,15.3711229 C20.3343062,12.5965749 20.5301422,11.5616748 20.1906931,8.72363603 C20.0882056,7.80492414 19.9067309,6.89573587 19.6488801,6.00622975 C18.2447359,2.06472084 14.6772565,0.287613327 10.9452749,0.287613327 C7.28771089,0.286978419 3.47086697,1.99297624 1.37150489,5.04116958 Z" id="path-39"></path>
        <path d="M4.28293364,0.76893504 C-0.267642553,12.5188021 -0.0261114686,15.6822278 0.241531085,16.9165709 C0.633203114,18.7040076 1.9263736,20.5656398 3.66866134,20.4779542 L6.53439502,20.3228182 C10.5033383,19.7427444 15.2229862,20.5049344 16.9398153,18.0227581 C19.1462344,14.8256072 20.1645816,10.0029006 20.2820832,5.84795333 C20.3212504,4.31682829 18.7088673,1.983043 17.2531529,1.8009268 C11.9042185,1.13519094 8.01034578,0.0505878316 5.92991452,0.0505878316 C5.03755508,0.0505878316 4.47876965,0.25024114 4.28293364,0.76893504 Z" id="path-41"></path>
        <path d="M15.4372178,1.68223234 C4.64382426,16.0871746 0.299816488,27.7303417 0.572982621,30.1013621 C1.01271347,33.7042534 10.6601418,33.5651712 13.6716318,32.379661 C16.5232198,31.2477968 18.7085488,25.3328295 19.7945508,22.4452181 C21.9399043,16.7759627 23.9386809,16.5838968 26.5104401,12.1398893 C28.2027376,9.21254009 25.8908194,6.98060191 24.3857406,6.07325612 C20.9864879,4.03073465 19.4361035,0.199351155 17.5346007,0.200013451 C16.9016548,0.200013451 16.2293996,0.625207609 15.4372178,1.68223234 Z" id="path-43"></path>
        <path d="M15.4362496,0.140532212 C13.6431833,0.330664028 4.58522115,1.18911872 0.403605325,6.74045903 C-0.714579919,8.28567747 2.52087916,15.9608983 4.37349377,20.3676323 C6.06069635,24.3737542 6.58405998,26.8664523 8.2772174,27.2734234 C10.4077242,27.801214 14.3908456,24.4119077 17.4476597,21.4422904 C18.7372118,20.1895825 20.4522036,19.9733791 21.3116844,18.4090839 C23.3760264,14.6827546 22.0130314,15.6811056 21.3910822,11.5032928 C19.8805397,1.2240928 17.8730994,0.0623174514 16.3221963,0.0623174514 C16.0046052,0.0623174514 15.7068636,0.111281163 15.4362496,0.140532212 Z" id="path-45"></path>
        <path d="M6.37889075,0.226082999 C4.47042018,0.674247527 2.85491088,1.96938966 1.96888166,3.76138086 C0.480690342,6.67578412 -0.259832617,9.55684181 2.0974988,11.1914419 C6.5075079,14.2472304 10.2387043,18.2266913 13.0435974,22.8683954 C13.5236381,23.7007009 14.1069624,24.4643146 14.7779801,25.1425636 C19.604371,29.8109441 23.3914314,25.0892107 26.7367763,21.2818129 C28.8349247,18.8936028 28.1723515,19.0403233 29.6144226,16.8461845 C30.0431464,16.1992804 31.74505,11.1774368 22.4365465,5.04185095 C22.4365465,5.04185095 14.7143211,0.0546867431 8.3165925,0.0546867431 C7.65272016,0.0540198316 7.00443778,0.108039663 6.37889075,0.226082999 Z" id="path-47"></path>
        <path d="M12.4550749,0.604771041 C9.93804408,1.04869872 8.0779128,3.13966243 6.41940413,5.10838518 L2.11378555,10.2232041 C0.762913986,11.8348546 0.15219256,13.9303219 0.428610671,16.006488 C0.705028782,18.0820107 1.8438714,19.9503672 3.5706716,21.1605527 C10.2177142,25.709203 16.3184245,26.5134198 21.9248342,23.7790826 C24.2415431,22.6480321 25.9338724,20.5609286 26.5478458,18.0787939 C27.1611688,15.5960157 26.6330476,12.9723388 25.1052684,10.9116137 L22.6396189,7.61110789 C21.5196377,5.72988393 20.1284416,4.0197973 18.5102575,2.53489138 C17.0975984,1.33693002 15.3044578,0.509551771 13.4963582,0.510195144 C13.1490469,0.510195144 12.8010853,0.540433696 12.4550749,0.604771041 Z" id="path-49"></path>
        <path d="M4.70006435,0.119800573 C2.27708921,0.752081375 0.0951430032,0.978371346 0.177600273,3.63395072 C0.177600273,3.70050659 0.0697715357,9.69053524 0.0126857339,13.1381295 C-0.0171257404,14.5218261 0.762412598,15.7837255 1.97897446,16.3201658 C6.34286687,18.2030315 15.7303098,18.389388 17.6331699,18.6356447 C18.4133425,18.7361441 21.43889,18.7481241 22.4030058,17.0249925 C24.8824324,13.6971989 23.5130075,4.3793765 22.0731767,4.59302086 C18.0860506,2.40000481 8.57619029,0.0532446991 5.42251689,0.0532446991 C5.11932785,0.0525791404 4.87576176,0.0745425788 4.70006435,0.119800573 Z" id="path-51"></path>
        <path d="M2.18651933,2.91514728 C-2.08832236,10.0832149 2.25198398,15.8469536 2.25198398,15.8469536 C4.32721341,18.3095209 6.74285902,19.6073605 10.6641916,18.5091885 C13.1256625,17.8103519 15.6133192,16.3328115 16.6993777,14.0233226 C17.2479715,12.6496094 17.5216137,11.1793901 17.5052476,9.69719083 C17.623084,7.44760229 17.7343739,7.03495587 17.0928203,4.91847908 C16.4512667,2.80200229 14.906301,0.925126647 12.7066887,0.479202292 C12.3911491,0.415974212 11.9492627,0.384692951 11.4255455,0.384692951 C8.53986368,0.384692951 3.13379283,1.3211341 2.18651933,2.91514728 Z" id="path-53"></path>
        <path d="M5.99680005,0.691191745 C4.14248407,2.13617373 2.67831359,4.03434276 1.74183581,6.20768435 C1.27006183,7.27903155 0.926836621,8.40450037 0.720515848,9.55931224 C-0.925551134,18.2513745 8.76766876,25.2741434 16.1457253,23.9048013 C17.280811,23.612675 18.3522649,23.1112349 19.308025,22.4246076 C27.4644444,15.4409627 17.0777039,6.31266724 12.2378428,1.39542484 C11.4446969,0.684671068 10.4291616,0.280389104 9.37120523,0.254306397 C9.1758111,0.241265043 8.98041697,0.234744366 8.78502284,0.234744366 C7.83890391,0.234744366 6.89728418,0.388632339 5.99680005,0.691191745 Z" id="path-55"></path>
        <path d="M8.67553545,0.889896831 C8.61025678,0.909383623 4.39978246,3.16335589 2.80045501,9.1847746 C1.65807826,13.4653732 0.626675247,22.8255289 0.398199896,27.632271 C0.248058952,30.7436621 2.80045501,33.4724625 5.68577229,33.1405375 C8.9823452,32.7572972 12.1679444,23.3776547 12.9454134,22.9619365 C13.0818458,22.8709981 14.7203404,20.6943235 15.2882649,19.9609705 C17.2525001,17.4276876 21.5034472,12.8417959 20.1058308,8.6846136 C18.4967116,3.87657247 14.5447408,0.182526284 11.0901935,0.182526284 C10.2415708,0.182526284 9.42232345,0.405974832 8.67553545,0.889896831 Z" id="path-57"></path>
        <path d="M8.02579113,0.96725349 C5.13438905,2.31614441 2.07095847,3.88875383 0.423454767,7.11885409 C-0.549167901,9.0342792 1.84599813,11.4826807 2.36208362,12.7381363 L5.67032399,21.1545576 C6.27904022,22.7074272 7.73466598,25.4775885 8.26398444,27.2475966 C8.31228475,27.4311774 8.40094559,27.6015982 8.52202719,27.7476733 L8.56172607,27.7608332 C9.95780351,29.3202827 12.3397366,29.0373446 13.7622799,27.2081169 C16.0581987,24.2273969 20.1862211,17.7198207 21.3513833,13.1138517 C21.9534831,10.7384877 22.5489663,8.14598518 21.7344776,6.00749957 C20.8352978,3.57949591 18.4070494,2.53328295 16.2037613,1.69104862 C14.4788448,1.03173706 12.6282151,0.375715471 10.7914801,0.375715471 C9.85987959,0.375715471 8.93224899,0.544162338 8.02579113,0.96725349 Z" id="path-59"></path>
        <path d="M8.61720021,1.37598902 C6.82195017,2.66496697 2.4269121,9.76075348 1.76200467,11.1090878 C-1.13699169,16.9705312 1.00401021,21.7122973 5.97751774,20.4981894 C5.97751774,20.4981894 17.7995717,18.5697812 18.723793,10.1108213 C18.9172811,8.0245791 18.508363,5.92754485 17.5469069,4.0740067 C16.3154984,1.32405218 14.0335361,0.434380847 12.0062333,0.434380847 C10.6172417,0.434380847 9.34726856,0.851899084 8.61720021,1.37598902 Z" id="path-61"></path>
        <path d="M10.5497142,11.8988903 C3.5165714,19.5524709 -2.39327282e-13,29.4649457 -2.39327282e-13,41.6363148 C-0.00849729148,54.2082341 3.35316195,64.2821051 10.0856314,71.8572746 C16.8181008,79.4330975 26.2481334,83.2210089 38.3750756,83.2210089 C50.2542891,83.2210089 59.609807,79.4696893 66.442283,71.968357 C73.2754126,64.4670247 76.6913238,54.3565618 76.6913238,41.6363148 C76.687402,28.8683677 73.3316255,18.8082185 66.6253016,11.4545605 C59.9189777,4.10090257 50.5026715,0.424727003 38.3750756,0.424727003 C38.367232,0.424727003 38.3613492,0.424727003 38.3541592,0.424727003 C26.8475193,0.425380429 17.5776279,4.25053716 10.5497142,11.8988903 Z M19.380361,41.6363148 L19.3868973,41.6363148 C19.3738246,33.4377768 21.0824338,27.0538032 24.5114177,22.4843941 C27.9410553,17.914985 32.561621,15.6299537 38.3750756,15.6299537 C51.012509,15.6299537 57.330572,24.2989585 57.330572,41.6363148 C57.330572,50.0825013 55.6271919,56.5912793 52.2191243,61.1606884 C48.8117105,65.7307509 44.2009494,68.0151288 38.3881484,68.0151288 C25.7160722,68.0151288 19.380361,59.221973 19.380361,41.6363148 Z" id="path-63"></path>
        <path d="M18.9457205,7.29559457 L18.9457205,1.95243387 L0.460351182,1.95243387 L0.460351182,112.590353 L18.9327528,112.590353 L18.9327528,79.3989775 C23.8954683,81.7633749 29.3315025,82.9576137 34.8245944,82.8879768 C46.9143241,82.9133585 56.4474839,79.414597 63.4253704,72.3903907 C70.4013118,65.3648828 73.8896066,55.3449922 73.8896066,42.3287664 C73.8896066,14.422629 61.2701488,0.46858413 36.0305848,0.46858413 C29.2744449,0.46858413 23.5797063,2.74447121 18.9457205,7.29559457 Z M18.9327528,63.1423623 L18.9327528,21.3524676 C22.3821448,17.8908024 26.3262522,16.1576919 30.7657234,16.1531362 C39.2938911,16.1531362 45.4061877,18.0710771 49.1019648,21.9063081 C52.7977419,25.7421898 54.6456305,32.3609406 54.6456305,41.7625606 C54.6456305,50.5699898 52.7847743,57.0156248 49.0630619,61.098164 C45.3419979,65.181354 39.2160853,67.2222983 30.6879175,67.2222983 C30.5861216,67.2242507 30.4843256,67.2249015 30.383178,67.2249015 C26.2160273,67.2249015 22.1714207,65.7846561 18.9327528,63.1423623 Z" id="path-65"></path>
        <path d="M8.79791185,5.01831289 L12.8279442,19.4720995 C17.5546141,17.1374078 23.4240315,15.9697353 30.4368503,15.9697353 C42.323516,15.9697353 48.267503,20.6659091 48.267503,30.0576033 C45.7360592,29.3754264 43.1306999,29.0003597 40.5096417,28.9402445 C27.7111329,28.9402445 17.8509304,31.5539492 10.9303425,36.7813584 C4.00975462,42.0087677 0.554039505,49.2245528 0.562543062,58.429367 C0.57104662,66.327329 3.0331537,72.4257553 7.94821018,76.7252995 C12.8619584,81.0248436 19.6216328,83.1746156 28.2252711,83.1746156 C32.7452392,83.1948719 37.2239977,82.3062123 41.3927035,80.560911 C45.5921528,78.8182234 48.5376545,76.5488744 50.2298625,73.7522104 C51.0756395,76.2424175 52.5546044,78.472561 54.5208887,80.2217828 C56.449234,82.1212927 59.0467438,83.1916047 61.7561082,83.2007527 C63.9539509,83.2347308 66.1445982,82.9197794 68.2443229,82.2670067 C70.1327669,81.6475587 71.8485232,79.9970042 73.3922461,77.313383 C69.1149564,74.5820617 66.9753304,67.8994723 66.9753304,57.2662685 L66.9753304,40.1987772 C66.9753304,24.7472089 64.140375,14.2512245 58.4711184,8.71017068 C52.8025158,3.16911687 43.8770506,0.398589956 31.6921062,0.398589956 C22.8438272,0.398589956 15.2128651,1.93871541 8.79791185,5.01831289 Z M19.1918761,57.6583242 C19.1918761,48.0183281 26.5520325,43.1980033 41.2749619,43.1980033 C43.6867018,43.3025515 46.0847051,43.6259974 48.4375742,44.165074 L48.4048682,51.6206665 C48.4048682,62.7981743 42.8095271,68.3875817 31.6201531,68.3875817 C23.3344171,68.3875817 19.1918761,64.8107269 19.1918761,57.6583242 Z" id="path-67"></path>
        <path d="M0.603506573,4.82746953 L0.603506573,97.8772701 C0.603506573,109.55298 4.70925708,115.391486 12.9213934,115.391486 C19.680667,115.395389 24.4623449,112.675221 27.2657917,107.232281 C21.564878,105.349438 18.7150565,99.5115832 18.7150565,89.7180658 L18.7150565,0.37734937 L0.603506573,4.82746953 Z" id="path-69"></path>
    </defs>
    <g id="Page-1" stroke="none" stroke-width="1" fill="none" fill-rule="evenodd">
        <g id="1-HOMEPAGE" transform="translate(-821.000000, -107.000000)">
            <g id="Group-19" transform="translate(713.000000, 102.000000)">
                <g id="Group-6" transform="translate(0.000000, 5.000000)">
                    <g id="Group-20">
                        <g id="LOGO" transform="translate(107.000000, 0.000000)">
                            <g id="Page-1" transform="translate(1.562715, 0.000000)">
                                <g id="Group-3" transform="translate(157.472241, 41.819274)">
                                    <mask id="mask-2" fill="white">
                                        <use xlink:href="#path-1"></use>
                                    </mask>
                                    <g id="Clip-2"></g>
                                    <polygon id="Fill-1" fill="#A89F74" mask="url(#mask-2)" points="-3.232688 27.0089866 30.0429446 27.0089866 30.0429446 -3.04374899 -3.232688 -3.04374899"></polygon>
                                </g>
                                <g id="Group-6" transform="translate(99.625296, 3.216867)">
                                    <mask id="mask-4" fill="white">
                                        <use xlink:href="#path-3"></use>
                                    </mask>
                                    <g id="Clip-5"></g>
                                    <polygon id="Fill-4" fill="#826793" mask="url(#mask-4)" points="-2.79768865 30.2170932 31.6488529 30.2170932 31.6488529 -3.13048258 -2.79768865 -3.13048258"></polygon>
                                </g>
                                <g id="Group-9" transform="translate(130.155628, 0.000000)">
                                    <mask id="mask-6" fill="white">
                                        <use xlink:href="#path-5"></use>
                                    </mask>
                                    <g id="Clip-8"></g>
                                    <polygon id="Fill-7" fill="#7F9B4E" mask="url(#mask-6)" points="-3.15137306 25.1050753 34.7975089 25.1050753 34.7975089 -2.65455885 -3.15137306 -2.65455885"></polygon>
                                </g>
                                <g id="Group-12" transform="translate(162.292820, 4.825301)">
                                    <mask id="mask-8" fill="white">
                                        <use xlink:href="#path-7"></use>
                                    </mask>
                                    <g id="Clip-11"></g>
                                    <polygon id="Fill-10" fill="#699DB7" mask="url(#mask-8)" points="-2.89103557 33.7879202 35.3509114 33.7879202 35.3509114 -3.03001516 -2.89103557 -3.03001516"></polygon>
                                </g>
                                <g id="Group-15" transform="translate(184.788855, 28.951805)">
                                    <mask id="mask-10" fill="white">
                                        <use xlink:href="#path-9"></use>
                                    </mask>
                                    <g id="Clip-14"></g>
                                    <polygon id="Fill-13" fill="#826793" mask="url(#mask-10)" points="-2.7496252 31.7561823 28.727024 31.7561823 28.727024 -2.79253321 -2.7496252 -2.79253321"></polygon>
                                </g>
                                <g id="Group-18" transform="translate(197.643732, 59.512044)">
                                    <mask id="mask-12" fill="white">
                                        <use xlink:href="#path-11"></use>
                                    </mask>
                                    <g id="Clip-17"></g>
                                    <polygon id="Fill-16" fill="#699DB7" mask="url(#mask-12)" points="-2.82330254 33.4003479 24.0362596 33.4003479 24.0362596 -3.0174914 -2.82330254 -3.0174914"></polygon>
                                </g>
                                <g id="Group-21" transform="translate(196.036872, 91.680716)">
                                    <mask id="mask-14" fill="white">
                                        <use xlink:href="#path-13"></use>
                                    </mask>
                                    <g id="Clip-20"></g>
                                    <polygon id="Fill-19" fill="#ED88A5" mask="url(#mask-14)" points="-2.74387346 33.6422714 25.4301601 33.6422714 25.4301601 -2.79528652 -2.74387346 -2.79528652"></polygon>
                                </g>
                                <g id="Group-24" transform="translate(184.788855, 127.066256)">
                                    <mask id="mask-16" fill="white">
                                        <use xlink:href="#path-15"></use>
                                    </mask>
                                    <g id="Clip-23"></g>
                                    <polygon id="Fill-22" fill="#F7B71B" mask="url(#mask-16)" points="-3.0975769 39.8986608 30.1632585 39.8986608 30.1632585 -3.06983917 -3.0975769 -3.06983917"></polygon>
                                </g>
                                <g id="Group-27" transform="translate(154.258522, 154.409627)">
                                    <mask id="mask-18" fill="white">
                                        <use xlink:href="#path-17"></use>
                                    </mask>
                                    <g id="Clip-26"></g>
                                    <polygon id="Fill-25" fill="#699DB7" mask="url(#mask-18)" points="-3.00325554 27.1520983 33.2833721 27.1520983 33.2833721 -2.63761378 -3.00325554 -2.63761378"></polygon>
                                </g>
                                <g id="Group-30" transform="translate(107.659594, 123.849389)">
                                    <mask id="mask-20" fill="white">
                                        <use xlink:href="#path-19"></use>
                                    </mask>
                                    <g id="Clip-29"></g>
                                    <polygon id="Fill-28" fill="#A89F74" mask="url(#mask-20)" points="-2.78629456 30.0675344 30.3512985 30.0675344 30.3512985 -2.70890146 -2.78629456 -2.70890146"></polygon>
                                </g>
                                <g id="Group-33" transform="translate(98.018436, 151.192760)">
                                    <mask id="mask-22" fill="white">
                                        <use xlink:href="#path-21"></use>
                                    </mask>
                                    <g id="Clip-32"></g>
                                    <polygon id="Fill-31" fill="#22B289" mask="url(#mask-22)" points="-2.60825451 30.0158606 28.3051533 30.0158606 28.3051533 -2.65165601 -2.60825451 -2.65165601"></polygon>
                                </g>
                                <g id="Group-36" transform="translate(83.556700, 130.283123)">
                                    <mask id="mask-24" fill="white">
                                        <use xlink:href="#path-23"></use>
                                    </mask>
                                    <g id="Clip-35"></g>
                                    <polygon id="Fill-34" fill="#699DB7" mask="url(#mask-24)" points="-3.15898232 30.263904 23.6889982 30.263904 23.6889982 -3.15881044 -3.15898232 -3.15881044"></polygon>
                                </g>
                                <g id="Group-39" transform="translate(98.018436, 104.548185)">
                                    <mask id="mask-26" fill="white">
                                        <use xlink:href="#path-25"></use>
                                    </mask>
                                    <g id="Clip-38"></g>
                                    <polygon id="Fill-37" fill="#699DB7" mask="url(#mask-26)" points="-2.90318425 23.8546287 30.161988 23.8546287 30.161988 -3.09331943 -2.90318425 -3.09331943"></polygon>
                                </g>
                                <g id="Group-42" transform="translate(133.369347, 98.114451)">
                                    <mask id="mask-28" fill="white">
                                        <use xlink:href="#path-27"></use>
                                    </mask>
                                    <g id="Clip-41"></g>
                                    <polygon id="Fill-40" fill="#7F9B4E" mask="url(#mask-28)" points="-3.27700476 28.9564242 28.4119147 28.9564242 28.4119147 -3.2907727 -3.27700476 -3.2907727"></polygon>
                                </g>
                                <g id="Group-45" transform="translate(162.292820, 102.939752)">
                                    <mask id="mask-30" fill="white">
                                        <use xlink:href="#path-29"></use>
                                    </mask>
                                    <g id="Clip-44"></g>
                                    <polygon id="Fill-43" fill="#22B289" mask="url(#mask-30)" points="-3.11529906 27.1025412 35.4238896 27.1025412 35.4238896 -3.24142845 -3.11529906 -3.24142845"></polygon>
                                </g>
                                <g id="Group-48" transform="translate(128.548769, 62.728911)">
                                    <mask id="mask-32" fill="white">
                                        <use xlink:href="#path-31"></use>
                                    </mask>
                                    <g id="Clip-47"></g>
                                    <polygon id="Fill-46" fill="#F7B71B" mask="url(#mask-32)" points="-2.80976619 25.2112319 20.8254744 25.2112319 20.8254744 -2.78452028 -2.80976619 -2.78452028"></polygon>
                                </g>
                                <g id="Group-51" transform="translate(181.575136, 67.554212)">
                                    <mask id="mask-34" fill="white">
                                        <use xlink:href="#path-33"></use>
                                    </mask>
                                    <g id="Clip-50"></g>
                                    <polygon id="Fill-49" fill="#F7B71B" mask="url(#mask-34)" points="-2.81388822 27.1148399 22.4712113 27.1148399 22.4712113 -2.76516546 -2.81388822 -2.76516546"></polygon>
                                </g>
                                <g id="Group-54" transform="translate(94.804717, 56.295177)">
                                    <mask id="mask-36" fill="white">
                                        <use xlink:href="#path-35"></use>
                                    </mask>
                                    <g id="Clip-53"></g>
                                    <polygon id="Fill-52" fill="#22B289" mask="url(#mask-36)" points="-2.95210005 23.6861834 29.8634111 23.6861834 29.8634111 -2.80125774 -2.95210005 -2.80125774"></polygon>
                                </g>
                                <g id="Group-57" transform="translate(107.659594, 32.168672)">
                                    <mask id="mask-38" fill="white">
                                        <use xlink:href="#path-37"></use>
                                    </mask>
                                    <g id="Clip-56"></g>
                                    <polygon id="Fill-55" fill="#7F9B4E" mask="url(#mask-38)" points="-3.13075039 28.451904 29.9943077 28.451904 29.9943077 -2.83663353 -3.13075039 -2.83663353"></polygon>
                                </g>
                                <g id="Group-60" transform="translate(67.488103, 83.638548)">
                                    <mask id="mask-40" fill="white">
                                        <use xlink:href="#path-39"></use>
                                    </mask>
                                    <g id="Clip-59"></g>
                                    <polygon id="Fill-58" fill="#7F9B4E" mask="url(#mask-40)" points="-2.97670742 26.9416864 23.6491571 26.9416864 23.6491571 -2.8862918 -2.97670742 -2.8862918"></polygon>
                                </g>
                                <g id="Group-63" transform="translate(70.701823, 59.512044)">
                                    <mask id="mask-42" fill="white">
                                        <use xlink:href="#path-41"></use>
                                    </mask>
                                    <g id="Clip-62"></g>
                                    <polygon id="Fill-61" fill="#ED88A5" mask="url(#mask-42)" points="-3.14512639 23.8531743 23.5466696 23.8531743 23.5466696 -3.32193427 -3.14512639 -3.32193427"></polygon>
                                </g>
                                <g id="Group-66" transform="translate(77.129261, 24.126504)">
                                    <mask id="mask-44" fill="white">
                                        <use xlink:href="#path-43"></use>
                                    </mask>
                                    <g id="Clip-65"></g>
                                    <polygon id="Fill-64" fill="#699DB7" mask="url(#mask-44)" points="-2.77030435 36.4415236 30.435371 36.4415236 30.435371 -3.11146753 -2.77030435 -3.11146753"></polygon>
                                </g>
                                <g id="Group-69" transform="translate(72.308682, 106.156619)">
                                    <mask id="mask-46" fill="white">
                                        <use xlink:href="#path-45"></use>
                                    </mask>
                                    <g id="Clip-68"></g>
                                    <polygon id="Fill-67" fill="#F7B71B" mask="url(#mask-46)" points="-3.13422692 30.5075719 25.7189223 30.5075719 25.7189223 -3.11714435 -3.13422692 -3.11714435"></polygon>
                                </g>
                                <g id="Group-72" transform="translate(154.258522, 123.849389)">
                                    <mask id="mask-48" fill="white">
                                        <use xlink:href="#path-47"></use>
                                    </mask>
                                    <g id="Clip-71"></g>
                                    <polygon id="Fill-70" fill="#ED88A5" mask="url(#mask-48)" points="-2.66523307 30.421835 33.2631221 30.421835 33.2631221 -3.27987076 -2.66523307 -3.27987076"></polygon>
                                </g>
                                <g id="Group-75" transform="translate(133.369347, 133.499990)">
                                    <mask id="mask-50" fill="white">
                                        <use xlink:href="#path-49"></use>
                                    </mask>
                                    <g id="Clip-74"></g>
                                    <polygon id="Fill-73" fill="#E15F3D" mask="url(#mask-50)" points="-2.88840666 28.5689979 30.0502258 28.5689979 30.0502258 -2.70667209 -2.88840666 -2.70667209"></polygon>
                                </g>
                                <g id="Group-78" transform="translate(126.941909, 162.451796)">
                                    <mask id="mask-52" fill="white">
                                        <use xlink:href="#path-51"></use>
                                    </mask>
                                    <g id="Clip-77"></g>
                                    <polygon id="Fill-76" fill="#ED88A5" mask="url(#mask-52)" points="-3.15938199 22.0000441 26.9444985 22.0000441 26.9444985 -3.27521456 -3.15938199 -3.27521456"></polygon>
                                </g>
                                <g id="Group-81" transform="translate(91.590998, 82.030115)">
                                    <mask id="mask-54" fill="white">
                                        <use xlink:href="#path-53"></use>
                                    </mask>
                                    <g id="Clip-80"></g>
                                    <polygon id="Fill-79" fill="#A89F74" mask="url(#mask-54)" points="-2.9701312 22.230993 20.8688213 22.230993 20.8688213 -2.94310074 -2.9701312 -2.94310074"></polygon>
                                </g>
                                <g id="Group-84" transform="translate(114.087032, 77.204814)">
                                    <mask id="mask-56" fill="white">
                                        <use xlink:href="#path-55"></use>
                                    </mask>
                                    <g id="Clip-83"></g>
                                    <polygon id="Fill-82" fill="#E15F3D" mask="url(#mask-56)" points="-2.67831359 27.3366335 25.548425 27.3366335 25.548425 -3.02559405 -2.67831359 -3.02559405"></polygon>
                                </g>
                                <g id="Group-87" transform="translate(151.044803, 57.903610)">
                                    <mask id="mask-58" fill="white">
                                        <use xlink:href="#path-57"></use>
                                    </mask>
                                    <g id="Clip-86"></g>
                                    <polygon id="Fill-85" fill="#826793" mask="url(#mask-58)" points="-2.87160876 36.4156176 23.646546 36.4156176 23.646546 -3.06527237 -2.87160876 -3.06527237"></polygon>
                                </g>
                                <g id="Group-90" transform="translate(136.583067, 27.343372)">
                                    <mask id="mask-60" fill="white">
                                        <use xlink:href="#path-59"></use>
                                    </mask>
                                    <g id="Clip-89"></g>
                                    <polygon id="Fill-88" fill="#E15F3D" mask="url(#mask-60)" points="-3.11437748 32.0641242 25.4403684 32.0641242 25.4403684 -2.91492038 -3.11437748 -2.91492038"></polygon>
                                </g>
                                <g id="Group-93" transform="translate(162.292820, 80.421681)">
                                    <mask id="mask-62" fill="white">
                                        <use xlink:href="#path-61"></use>
                                    </mask>
                                    <g id="Clip-92"></g>
                                    <polygon id="Fill-91" fill="#E15F3D" mask="url(#mask-62)" points="-2.87107026 24.0615962 22.0955386 24.0615962 22.0955386 -2.93814126 -2.87107026 -2.93814126"></polygon>
                                </g>
                                <g id="Group-96" transform="translate(0.000000, 213.921671)">
                                    <mask id="mask-64" fill="white">
                                        <use xlink:href="#path-63"></use>
                                    </mask>
                                    <g id="Clip-95"></g>
                                    <polygon id="Fill-94" fill="#E7E4D0" mask="url(#mask-64)" points="-3.26818903 86.4874863 79.9595128 86.4874863 79.9595128 -2.84240379 -3.26818903 -2.84240379"></polygon>
                                </g>
                                <g id="Group-99" transform="translate(86.770419, 213.921671)">
                                    <mask id="mask-66" fill="white">
                                        <use xlink:href="#path-65"></use>
                                    </mask>
                                    <g id="Clip-98"></g>
                                    <polygon id="Fill-97" fill="#E7E4D0" mask="url(#mask-66)" points="-2.78155855 115.84441 77.1315164 115.84441 77.1315164 -2.78547233 -2.78155855 -2.78547233"></polygon>
                                </g>
                                <g id="Group-102" transform="translate(168.720259, 213.921671)">
                                    <mask id="mask-68" fill="white">
                                        <use xlink:href="#path-67"></use>
                                    </mask>
                                    <g id="Clip-101"></g>
                                    <polygon id="Fill-100" fill="#E7E4D0" mask="url(#mask-68)" points="-2.70805614 86.4704972 76.6628453 86.4704972 76.6628453 -2.86854083 -2.70805614 -2.86854083"></polygon>
                                </g>
                                <g id="Group-105" transform="translate(257.097537, 181.752999)">
                                    <mask id="mask-70" fill="white">
                                        <use xlink:href="#path-69"></use>
                                    </mask>
                                    <g id="Clip-104"></g>
                                    <polygon id="Fill-103" fill="#E7E4D0" mask="url(#mask-70)" points="-2.57284381 118.643847 30.4421421 118.643847 30.4421421 -2.87566244 -2.57284381 -2.87566244"></polygon>
                                </g>
                                <g id="Group-130" transform="translate(112.515488, 307.808240)" fill="#A89F74">
                                    <g id="Fill-106">
                                        <path d="M9.92322665,7.65325994 C9.92322665,8.5104996 9.66721482,9.24660756 9.15519118,9.86025272 C8.64316754,10.4745634 7.90314355,10.9204878 6.93511921,11.1973602 L6.93511921,11.2545983 C9.19232267,11.5447819 10.3212501,12.6343015 10.3212501,14.5244884 C10.3212501,15.8103478 9.82290649,16.8213316 8.82687068,17.5587707 C7.83083487,18.2955442 6.44784989,18.6649293 4.67791575,18.6649293 C3.95026891,18.6649293 3.27603931,18.611019 2.65652979,18.5038641 C2.03702027,18.3973747 1.36604781,18.2017004 0.644263845,17.9181724 L0.644263845,14.8179998 C1.23641332,15.126819 1.83898568,15.3551057 2.45328376,15.5028597 C3.06693042,15.6512793 3.63237128,15.7251563 4.15025779,15.7251563 C4.95216759,15.7251563 5.53649992,15.6100147 5.9039062,15.3797313 C6.27066104,15.1507791 6.45371275,14.7893807 6.45371275,14.2975328 C6.45371275,13.920161 6.35860404,13.6286463 6.16708374,13.4236542 C5.97621488,13.2186621 5.66743726,13.064918 5.24205375,12.9610909 C4.81667024,12.8565982 4.26165225,12.8046846 3.57699977,12.8046846 L2.74447278,12.8046846 L2.74447278,9.99735782 L3.59589123,9.99735782 C5.45181407,9.99735782 6.38010121,9.5121655 6.38010121,8.54178086 C6.38010121,8.17638911 6.24264957,7.9055067 5.96839772,7.72913364 C5.69349445,7.55276057 5.32543674,7.46424126 4.86292174,7.46424126 C3.99912613,7.46424126 3.10536476,7.7604149 2.18033477,8.35276218 L0.663155303,5.85758246 C1.37842497,5.3537545 2.11063181,4.99435278 2.86042724,4.78070842 C3.60957125,4.56573295 4.46815542,4.45857799 5.43617977,4.45857799 C6.83610191,4.45857799 7.93441217,4.74210602 8.72980767,5.30982762 C9.52520318,5.87621811 9.92322665,6.65824963 9.92322665,7.65325994"></path>
                                        <path d="M24.3548671,12.823653 L23.7718376,10.5554288 C23.6356888,10.0509353 23.4715286,9.39868773 23.2767511,8.59802057 C23.0826251,7.79801897 22.9549449,7.22497289 22.8930591,6.87821679 C22.8376876,7.19968166 22.727596,7.72946642 22.5647386,8.46623994 C22.4012298,9.20367902 22.0383835,10.6559282 21.4775027,12.823653 L24.3548671,12.823653 Z M25.7795435,18.4755778 L25.1131311,15.8858888 L20.7192386,15.8858888 L20.0345862,18.4755778 L16.0198257,18.4755778 L20.4326096,4.60067478 L25.3072571,4.60067478 L29.7754125,18.4755778 L25.7795435,18.4755778 Z" id="Fill-108"></path>
                                        <path d="M42.736125,4.65758006 L42.736125,12.9744021 C42.736125,14.7833907 42.2351756,16.1830607 41.2326255,17.1760744 C40.2307268,18.1684225 38.7865075,18.6649293 36.899316,18.6649293 C35.0551189,18.6649293 33.6382596,18.1823992 32.6487381,17.2186701 C31.6585651,16.2542755 31.1634786,14.8685822 31.1634786,13.0595936 L31.1634786,4.65758006 L34.8362386,4.65758006 L34.8362386,12.7667477 C34.8362386,13.7431224 35.0147303,14.452608 35.3723651,14.8932079 C35.7299999,15.3344733 36.2576579,15.5547733 36.9546875,15.5547733 C37.7012258,15.5547733 38.2419124,15.33647 38.57805,14.8985324 C38.9141877,14.4605947 39.0822565,13.7431224 39.0822565,12.7474465 L39.0822565,4.65758006 L42.736125,4.65758006 Z" id="Fill-110"></path>
                                        <path d="M55.1788206,9.42111706 C55.9559761,9.42111706 56.6575657,9.60481128 57.2829381,9.97353082 C57.9089619,10.3422504 58.3962313,10.8640484 58.7453975,11.5382594 C59.0939123,12.2118049 59.267844,12.9905086 59.267844,13.8723739 C59.267844,15.4164702 58.8131462,16.6011647 57.9037505,17.4264576 C56.9937034,18.252416 55.6165813,18.6650624 53.7730356,18.6650624 C52.1939703,18.6650624 50.9047912,18.4161434 49.9054982,17.9183055 L49.9054982,14.8554042 C50.4422762,15.1076509 51.0481057,15.3153053 51.7236382,15.4796983 C52.3985192,15.6434257 52.9802458,15.7252894 53.4675151,15.7252894 C54.1456533,15.7252894 54.666797,15.5788665 55.0309461,15.2860207 C55.3944438,14.9925093 55.5768441,14.5598961 55.5768441,13.9855189 C55.5768441,13.4563997 55.3918381,13.0437533 55.0218261,12.7475796 C54.6511627,12.4520716 54.0902818,12.303652 53.3378807,12.303652 C52.7646226,12.303652 52.1444617,12.4141347 51.4780492,12.6344347 L50.1374072,11.9542336 L50.6461737,4.65771317 L58.3617055,4.65771317 L58.3617055,7.7672036 L53.7541441,7.7672036 L53.5880296,9.59083454 C54.0687846,9.4963252 54.4107852,9.44441162 54.6146826,9.4350938 C54.8179286,9.42577597 55.0061918,9.42111706 55.1788206,9.42111706" id="Fill-112"></path>
                                        <path d="M73.3940291,12.823653 L72.8109997,10.5554288 C72.6755023,10.0509353 72.5106906,9.39868773 72.3165646,8.59802057 C72.1224386,7.79801897 71.994107,7.22497289 71.9328726,6.87821679 C71.8768497,7.19968166 71.7674095,7.72946642 71.6039007,8.46623994 C71.4403918,9.20367902 71.078197,10.6559282 70.5173161,12.823653 L73.3940291,12.823653 Z M74.819357,18.4755778 L74.1529446,15.8858888 L69.7584007,15.8858888 L69.0737482,18.4755778 L65.0589878,18.4755778 L69.4717717,4.60067478 L74.3470706,4.60067478 L78.815226,18.4755778 L74.819357,18.4755778 Z" id="Fill-114"></path>
                                        <path d="M83.625382,11.5477769 C83.625382,14.2193297 84.5347776,15.5551061 86.3542204,15.5551061 C87.2792504,15.5551061 87.9658572,15.2303134 88.4133893,14.5813936 C88.86027,13.9324739 89.0837103,12.9208246 89.0837103,11.5477769 C89.0837103,10.1674081 88.8570128,9.14843765 88.4036179,8.4895345 C87.9508743,7.8312969 87.274039,7.50251089 86.3731119,7.50251089 C84.5412919,7.50251089 83.625382,8.85026733 83.625382,11.5477769 M92.9323562,11.5477769 C92.9323562,13.8725736 92.3740811,15.639632 91.2581822,16.8502834 C90.1416319,18.0596036 88.5071952,18.6645965 86.3542204,18.6645965 C84.2331657,18.6645965 82.6065461,18.0562758 81.4743615,16.8403 C80.3428284,15.6243242 79.7773875,13.8539379 79.7773875,11.5284757 C79.7773875,9.22897026 80.3402226,7.47256074 81.4658929,6.25924716 C82.5909118,5.04593358 84.2273029,4.43960957 86.3731119,4.43960957 C88.5254352,4.43960957 90.1566148,5.04194023 91.2666508,6.24527043 C92.3773382,7.44860063 92.9323562,9.21632464 92.9323562,11.5477769" id="Fill-116"></path>
                                        <path d="M102.932256,3.55135488 C102.41437,3.24919121 101.79486,2.7766445 101.073076,2.13371476 C100.301784,2.80792576 99.7037712,3.28047247 99.2783877,3.55135488 L96.8922012,3.55135488 L96.8922012,3.27714468 C97.3169332,2.86782605 97.7625111,2.38596152 98.2282832,1.83088554 C98.6940554,1.27714066 99.043873,0.817239576 99.2783877,0.451182269 L102.914016,0.451182269 C103.493137,1.31507751 104.28267,2.25684313 105.281963,3.27714468 L105.281963,3.55135488 L102.932256,3.55135488 Z M106.873405,4.6575135 L106.873405,12.9743355 C106.873405,14.7833242 106.371804,16.1829942 105.369906,17.1760078 C104.368007,18.1683559 102.923136,18.6648627 101.035945,18.6648627 C99.1917475,18.6648627 97.7748882,18.1823326 96.7847153,17.2186036 C95.7951938,16.254209 95.3001073,14.8685157 95.3001073,13.059527 L95.3001073,4.6575135 L98.9728672,4.6575135 L98.9728672,12.7666812 C98.9728672,13.7430558 99.1513589,14.4525415 99.5096452,14.8931413 C99.86728,15.3344068 100.394287,15.5547067 101.091968,15.5547067 C101.837203,15.5547067 102.378541,15.3364035 102.71533,14.8984658 C103.051468,14.4605282 103.218885,13.7430558 103.218885,12.74738 L103.218885,4.6575135 L106.873405,4.6575135 Z" id="Fill-118"></path>
                                        <polygon id="Fill-120" points="115.680342 18.4757109 112.026474 18.4757109 112.026474 7.71029832 108.723074 7.71029832 108.723074 4.65738039 118.97397 4.65738039 118.97397 7.71029832 115.680342 7.71029832"></polygon>
                                        <path d="M134.746708,18.4757109 L124.931619,18.4757109 L124.931619,16.0184681 L128.233716,12.6061484 C129.176986,11.5978269 129.793889,10.9096392 130.084427,10.5409196 C130.373662,10.1722001 130.576256,9.8560597 130.689605,9.59050176 C130.803605,9.32627494 130.860931,9.04940251 130.860931,8.7592189 C130.860931,8.39981718 130.746931,8.11695471 130.51893,7.90863483 C130.290279,7.7009805 129.969775,7.59648778 129.556769,7.59648778 C129.131385,7.59648778 128.701442,7.72161282 128.266287,7.96986623 C127.831783,8.21945076 127.339954,8.58617363 126.790799,9.07136595 L124.783093,6.67069557 C125.479471,6.03442142 126.066409,5.57851368 126.54065,5.30496904 C127.015542,5.03075884 127.532126,4.82110784 128.090401,4.67668159 C128.648676,4.53158979 129.276654,4.45837833 129.973032,4.45837833 C130.849205,4.45837833 131.630269,4.61678131 132.318179,4.93092503 C133.005437,5.24639987 133.538958,5.69565202 133.918741,6.27801592 C134.298525,6.86104537 134.488091,7.51462406 134.488091,8.23941752 C134.488091,8.78184789 134.420994,9.28234807 134.288753,9.74224916 C134.155862,10.2021502 133.950661,10.6540646 133.673804,11.0986579 C133.396295,11.5425855 133.026934,12.0104733 132.567676,12.5016557 C132.108419,12.9935036 131.12932,13.9259514 129.630381,15.3003302 L129.630381,15.394174 L134.746708,15.394174 L134.746708,18.4757109 Z" id="Fill-122"></path>
                                        <path d="M139.769882,11.5855141 C139.769882,13.148246 139.86499,14.2224578 140.056511,14.8081495 C140.24738,15.3945067 140.568534,15.6873526 141.018672,15.6873526 C141.475324,15.6873526 141.797131,15.3851889 141.985394,14.780196 C142.173005,14.1752031 142.267463,13.1103092 142.267463,11.5855141 C142.267463,10.0540634 142.172354,8.98118274 141.980834,8.36687202 C141.789965,7.7525613 141.46881,7.44507317 141.018672,7.44507317 C140.568534,7.44507317 140.24738,7.74191236 140.056511,8.33359408 C139.86499,8.92660692 139.769882,10.0101365 139.769882,11.5855141 M145.903091,11.5855141 C145.903091,14.0301113 145.502462,15.8211299 144.700552,16.9585698 C143.898642,18.0960097 142.671349,18.6650624 141.018672,18.6650624 C139.403127,18.6650624 138.184302,18.0707184 137.364804,16.8826961 C136.544654,15.6953393 136.134253,13.9289464 136.134253,11.5855141 C136.134253,9.12827122 136.534883,7.32593815 137.336792,6.17918045 C138.138702,5.03175718 139.365995,4.4587111 141.018672,4.4587111 C142.628355,4.4587111 143.845225,5.05571729 144.668632,6.24972967 C145.491388,7.44374205 145.903091,9.222115 145.903091,11.5855141" id="Fill-124"></path>
                                        <path d="M155.283938,18.4757109 L151.574046,18.4757109 L151.574046,11.1598893 C151.574046,10.2713684 151.592938,9.45872113 151.630069,8.72194761 C151.401417,9.00547563 151.117394,9.30164927 150.778651,9.60980297 L149.243231,10.9049803 L147.346268,8.52294555 L151.99031,4.65738039 L155.283938,4.65738039 L155.283938,18.4757109 Z" id="Fill-126"></path>
                                        <path d="M163.239782,7.15275977 C162.925141,7.15275977 162.659358,7.24593799 162.443735,7.43162888 C162.228112,7.61731977 162.119974,7.85825203 162.119974,8.15442567 C162.119974,8.69619048 162.480866,9.17539278 163.20265,9.59070143 C163.640411,9.33246464 163.939417,9.09619129 164.099669,8.88254693 C164.25992,8.66757146 164.340046,8.42530808 164.340046,8.15442567 C164.340046,7.852262 164.231909,7.60999862 164.016286,7.42630441 C163.800663,7.24394132 163.542045,7.15275977 163.239782,7.15275977 M161.648339,14.684888 C161.648339,15.0762366 161.784488,15.3897147 162.055483,15.6253225 C162.327129,15.8622614 162.703004,15.9807309 163.183759,15.9807309 C164.269692,15.9807309 164.812333,15.5734089 164.812333,14.7614273 C164.812333,14.452608 164.693121,14.1484477 164.456001,13.8489462 C164.21888,13.5494448 163.7948,13.2140032 163.183759,12.8426214 C162.635255,13.1387951 162.242443,13.4362998 162.004671,13.7358013 C161.7669,14.0353027 161.648339,14.3514431 161.648339,14.684888 M163.258022,4.45857799 C164.682698,4.45857799 165.791431,4.7520894 166.584221,5.33778109 C167.37636,5.92347278 167.772429,6.7554212 167.772429,7.8329608 C167.772429,8.5637443 167.58612,9.20534292 167.213502,9.75642556 C166.839582,10.3075082 166.249386,10.7880416 165.441614,11.1973602 C166.440255,11.7777274 167.145102,12.3554324 167.555503,12.9324719 C167.965252,13.5088457 168.169801,14.1304776 168.169801,14.7986986 C168.169801,16.02732 167.735297,16.979069 166.865639,17.65328 C165.99598,18.327491 164.781064,18.6649293 163.221542,18.6649293 C161.629448,18.6649293 160.411926,18.3354777 159.567022,17.6772401 C158.721466,17.018337 158.29934,16.0712469 158.29934,14.8366354 C158.29934,14.0366338 158.487603,13.3544361 158.863478,12.7907078 C159.240004,12.226314 159.871891,11.7144994 160.759789,11.2545983 C160.045171,10.7634159 159.522073,10.2356278 159.19245,9.67123404 C158.862175,9.10750579 158.697363,8.48853616 158.697363,7.81432516 C158.697363,6.7554212 159.100598,5.93145948 159.909674,5.34244 C160.716795,4.75342051 161.833345,4.45857799 163.258022,4.45857799" id="Fill-128"></path>
                                    </g>
                                </g>
                            </g>
                        </g>
                    </g>
                </g>
            </g>
        </g>
    </g>
</svg>