<svg height="11" viewBox="0 0 7 11" width="7" xmlns="http://www.w3.org/2000/svg"><path d="m306.653203 23.3280818c-.22179-.2100547-.522751-.3280818-.836584-.3280818-.313834 0-.614794.1180271-.836584.3280818l-4.633238 4.3850639c-.222037.2098211-.346797.4945399-.346797.7914369 0 .2968971.12476.5816158.346797.7914369l4.635208 4.3831995c.463109.4305484 1.20656.4272775 1.665416-.007327.458855-.4346046.461436-1.1379385.005782-1.5755468l-3.797639-3.5926948 3.797639-3.5926948c.222037-.2098211.346797-.4945398.346797-.7914369 0-.296897-.12476-.5816158-.346797-.7914369z" fill="#fff" transform="matrix(-1 0 0 -1 307 34)"/></svg>