<?xml version="1.0" encoding="UTF-8"?>
<svg width="15px" height="15px" viewBox="0 0 15 15" version="1.1" xmlns="http://www.w3.org/2000/svg" xmlns:xlink="http://www.w3.org/1999/xlink">
    <!-- Generator: Sketch 49.2 (51160) - http://www.bohemiancoding.com/sketch -->
    <title>puce2</title>
    <desc>Created with Sketch.</desc>
    <defs></defs>
    <g id="Page-1" stroke="none" stroke-width="1" fill="none" fill-rule="evenodd">
        <g id="1-HOMEPAGE" transform="translate(-973.000000, -5775.000000)" fill="#7F9B4E" fill-rule="nonzero">
            <g id="Page-1" transform="translate(0.000000, 5049.000000)">
                <g id="Group-14">
                    <g id="footer" transform="translate(725.000000, 665.000000)">
                        <g id="Group-12" transform="translate(248.000000, 0.000000)">
                            <path d="M5.5715725,75.4087449 C2.31706996,74.9765197 -0.697087956,72.1439008 0.14214817,68.662944 C1.1429274,65.5756209 3.57395411,63.696213 5.44943015,61.6006925 C5.99127036,61.2757668 6.60176889,61.0764468 7.23428445,61.0179602 C8.52476389,60.9129553 9.81022284,61.2709228 10.8512739,62.0251994 C11.3752087,62.3973021 11.8207357,62.8651293 12.1633192,63.4029173 C14.5549451,66.9379022 17.1238745,73.0932526 12.1633192,75.5206604 C10.7006379,76.0951245 9.07985593,76.1551329 7.57707103,75.6904631 C6.9663593,75.6325758 6.36352772,75.536097 5.5715725,75.4087449 Z" id="puce2"></path>
                        </g>
                    </g>
                </g>
            </g>
        </g>
    </g>
</svg>