<?xml version="1.0" encoding="UTF-8"?>
<svg width="15px" height="15px" viewBox="0 0 15 15" version="1.1" xmlns="http://www.w3.org/2000/svg" xmlns:xlink="http://www.w3.org/1999/xlink">
    <!-- Generator: Sketch 49.2 (51160) - http://www.bohemiancoding.com/sketch -->
    <title>puce3</title>
    <desc>Created with Sketch.</desc>
    <defs></defs>
    <g id="Page-1" stroke="none" stroke-width="1" fill="none" fill-rule="evenodd">
        <g id="1-HOMEPAGE" transform="translate(-973.000000, -5822.000000)" fill="#826793" fill-rule="nonzero">
            <g id="Page-1" transform="translate(0.000000, 5049.000000)">
                <g id="Group-14">
                    <g id="footer" transform="translate(725.000000, 665.000000)">
                        <g id="Group-12" transform="translate(248.000000, 0.000000)">
                            <path d="M5.5715725,122.408745 C2.31706996,121.97652 -0.697087956,119.143901 0.14214817,115.662944 C1.1429274,112.575621 3.57395411,110.696213 5.44943015,108.600692 C5.99127036,108.275767 6.60176889,108.076447 7.23428445,108.01796 C8.52476389,107.912955 9.81022284,108.270923 10.8512739,109.025199 C11.3752087,109.397302 11.8207357,109.865129 12.1633192,110.402917 C14.5549451,113.937902 17.1238745,120.093253 12.1633192,122.52066 C10.7006379,123.095125 9.07985593,123.155133 7.57707103,122.690463 C6.9663593,122.632576 6.36352772,122.536097 5.5715725,122.408745 Z" id="puce3"></path>
                        </g>
                    </g>
                </g>
            </g>
        </g>
    </g>
</svg>