<?xml version="1.0" encoding="UTF-8"?>
<svg width="15px" height="15px" viewBox="0 0 15 15" version="1.1" xmlns="http://www.w3.org/2000/svg" xmlns:xlink="http://www.w3.org/1999/xlink">
    <!-- Generator: Sketch 49.2 (51160) - http://www.bohemiancoding.com/sketch -->
    <title>puce4</title>
    <desc>Created with Sketch.</desc>
    <defs></defs>
    <g id="Page-1" stroke="none" stroke-width="1" fill="none" fill-rule="evenodd">
        <g id="1-HOMEPAGE" transform="translate(-973.000000, -5870.000000)" fill="#ED88A5" fill-rule="nonzero">
            <g id="Page-1" transform="translate(0.000000, 5049.000000)">
                <g id="Group-14">
                    <g id="footer" transform="translate(725.000000, 665.000000)">
                        <g id="Group-12" transform="translate(248.000000, 0.000000)">
                            <path d="M5.5715725,170.408745 C2.31706996,169.97652 -0.697087956,167.143901 0.14214817,163.662944 C1.1429274,160.575621 3.57395411,158.696213 5.44943015,156.600692 C5.99127036,156.275767 6.60176889,156.076447 7.23428445,156.01796 C8.52476389,155.912955 9.81022284,156.270923 10.8512739,157.025199 C11.3752087,157.397302 11.8207357,157.865129 12.1633192,158.402917 C14.5549451,161.937902 17.1238745,168.093253 12.1633192,170.52066 C10.7006379,171.095125 9.07985593,171.155133 7.57707103,170.690463 C6.9663593,170.632576 6.36352772,170.536097 5.5715725,170.408745 Z" id="puce4"></path>
                        </g>
                    </g>
                </g>
            </g>
        </g>
    </g>
</svg>