<svg height="73" viewBox="0 0 72 73" width="72" xmlns="http://www.w3.org/2000/svg"><g fill="none" fill-rule="evenodd" transform="translate(.4937 .89781)"><path d="m35.7223752 71.3974397c-19.6977228 0-35.7223752-16.0142437-35.7223752-35.6982676 0-19.6849284 16.0246524-35.6991721 35.7223752-35.6991721s35.7223752 16.0142437 35.7223752 35.6991721c0 19.6840239-16.0246524 35.6982676-35.7223752 35.6982676zm0-68.68377436c-18.2006162 0-33.00694608 14.79671256-33.00694608 32.98550676 0 18.1878897 14.80632988 32.9846023 33.00694608 32.9846023 18.1997111 0 33.0069461-14.7967126 33.0069461-32.9846023 0-18.1887942-14.807235-32.98550676-33.0069461-32.98550676z" fill="#689cb8"/><path d="m51.4303098 49.5642752c0 1.0121971-.8209648 1.8326286-1.8338198 1.8326286h-8.4676131v-12.8591555h4.3193425l.6471773-5.0121399h-4.9665198v-3.1994114c0-1.4509064.4036937-2.4395852 2.4855227-2.4395852l2.6556897-.0018091v-4.4820706c-.4589075-.0615097-2.0356667-.197193-3.8694865-.197193-3.828755 0-6.4500493 2.3355613-6.4500493 6.6240571v3.6960122h-4.3302043v5.0121399h4.3302043v12.8591555h-15.91513c-1.0128551 0-1.8338198-.8204315-1.8338198-1.8326286v-29.5418655c0-1.0121972.8209647-1.8326287 1.8338198-1.8326287h29.5610665c1.012855 0 1.8338198.8204315 1.8338198 1.8326287z" fill="#699db7"/></g></svg>