<?xml version="1.0" encoding="UTF-8"?>
<svg width="73px" height="73px" viewBox="0 0 73 73" version="1.1" xmlns="http://www.w3.org/2000/svg" xmlns:xlink="http://www.w3.org/1999/xlink">
    <!-- Generator: Sketch 49.2 (51160) - http://www.bohemiancoding.com/sketch -->
    <title>instagram</title>
    <desc>Created with Sketch.</desc>
    <defs></defs>
    <g id="Page-1" stroke="none" stroke-width="1" fill="none" fill-rule="evenodd">
        <g id="1-HOMEPAGE" transform="translate(-1736.000000, -5716.000000)" fill="#699DB7">
            <g id="Page-1" transform="translate(0.000000, 5049.000000)">
                <g id="Group-14">
                    <g id="footer" transform="translate(725.000000, 665.000000)">
                        <g id="instagram" transform="translate(1011.885452, 2.897810)">
                            <path d="M35.7223752,71.3974397 C16.0255575,71.3974397 0,55.383196 0,35.6991721 C0,16.0142437 16.0255575,0 35.7223752,0 C55.420098,0 71.4447504,16.0142437 71.4447504,35.6991721 C71.4447504,55.383196 55.420098,71.3974397 35.7223752,71.3974397 L35.7223752,71.3974397 Z M35.7223752,2.71366534 C17.5226641,2.71366534 2.71542912,17.5103779 2.71542912,35.6991721 C2.71542912,53.8870618 17.5226641,68.6837744 35.7223752,68.6837744 C53.9229914,68.6837744 68.7293213,53.8870618 68.7293213,35.6991721 C68.7293213,17.5103779 53.9229914,2.71366534 35.7223752,2.71366534 L35.7223752,2.71366534 Z" id="Instagram-Circle"></path>
                            <path d="M48.7423641,18.189781 L23.4463316,18.189781 C21.2676523,18.189781 19.5017182,19.9500453 19.5017182,22.1227867 L19.5017182,47.4204795 C19.5017182,49.5923164 21.2676523,51.3534852 23.4463316,51.3534852 L48.7423641,51.3534852 C50.9210434,51.3534852 52.6869775,49.5923164 52.6869775,47.4204795 L52.6869775,22.1227867 C52.6869775,19.9500453 50.9210434,18.189781 48.7423641,18.189781 L48.7423641,18.189781 Z M43.3540476,23.3710727 C43.3540476,22.7993939 43.818386,22.3344526 44.3904364,22.3344526 L47.501413,22.3344526 C48.0743685,22.3344526 48.5387069,22.7993939 48.5387069,23.3710727 L48.5387069,26.4800286 C48.5387069,27.052612 48.0743685,27.5166488 47.501413,27.5166488 L44.3904364,27.5166488 C43.818386,27.5166488 43.3540476,27.052612 43.3540476,26.4800286 L43.3540476,23.3710727 L43.3540476,23.3710727 Z M36.1328164,28.447436 C39.6574434,28.447436 42.51498,31.2967846 42.51498,34.8091721 C42.51498,38.3242733 39.6574434,41.1727174 36.1328164,41.1727174 C32.6090946,41.1727174 29.751558,38.3242733 29.751558,34.8091721 C29.751558,31.2967846 32.6090946,28.447436 36.1328164,28.447436 L36.1328164,28.447436 Z M49.5760008,47.2079091 C49.5760008,47.7795879 49.1116625,48.2445292 48.5387069,48.2445292 L23.6499888,48.2445292 C23.0770332,48.2445292 22.6126948,47.7795879 22.6126948,47.2079091 L22.6126948,31.6622249 L26.7609654,31.6622249 C26.220595,32.4392377 26.0377561,33.8892396 26.0377561,34.8091721 C26.0377561,40.3595223 30.5670919,44.8750614 36.1328164,44.8750614 C41.6994461,44.8750614 46.2287819,40.3595223 46.2287819,34.8091721 C46.2287819,33.8892396 46.0975361,32.4609471 45.4277303,31.6622249 L49.5760008,31.6622249 L49.5760008,47.2079091 L49.5760008,47.2079091 Z" id="Instagram"></path>
                        </g>
                    </g>
                </g>
            </g>
        </g>
    </g>
</svg>