<svg height="73" viewBox="0 0 73 73" width="73" xmlns="http://www.w3.org/2000/svg"><g fill="#699db7" fill-rule="evenodd" transform="translate(.885452 .89781)"><path d="m35.7223752 71.3974397c-19.6968177 0-35.7223752-16.0142437-35.7223752-35.6982676 0-19.6849284 16.0255575-35.6991721 35.7223752-35.6991721 19.6977228 0 35.7223752 16.0142437 35.7223752 35.6991721 0 19.6840239-16.0246524 35.6982676-35.7223752 35.6982676zm0-68.68377436c-18.1997111 0-33.00694608 14.79671256-33.00694608 32.98550676 0 18.1878897 14.80723498 32.9846023 33.00694608 32.9846023 18.2006162 0 33.0069461-14.7967126 33.0069461-32.9846023 0-18.1887942-14.8063299-32.98550676-33.0069461-32.98550676z"/><path d="m48.7423641 18.189781h-25.2960325c-2.1786793 0-3.9446134 1.7602643-3.9446134 3.9330057v25.2976928c0 2.1718369 1.7659341 3.9330057 3.9446134 3.9330057h25.2960325c2.1786793 0 3.9446134-1.7611688 3.9446134-3.9330057v-25.2976928c0-2.1727414-1.7659341-3.9330057-3.9446134-3.9330057zm-5.3883165 5.1812917c0-.5716788.4643384-1.0366201 1.0363888-1.0366201h3.1109766c.5729555 0 1.0372939.4649413 1.0372939 1.0366201v3.1089559c0 .5725834-.4643384 1.0366202-1.0372939 1.0366202h-3.1109766c-.5720504 0-1.0363888-.4640368-1.0363888-1.0366202zm-7.2212312 5.0763633c3.524627 0 6.3821636 2.8493486 6.3821636 6.3617361 0 3.5151012-2.8575366 6.3635453-6.3821636 6.3635453-3.5237218 0-6.3812584-2.8484441-6.3812584-6.3635453 0-3.5123875 2.8575366-6.3617361 6.3812584-6.3617361zm13.4431844 18.7604731c0 .5716788-.4643383 1.0366201-1.0372939 1.0366201h-24.8887181c-.5729556 0-1.037294-.4649413-1.037294-1.0366201v-15.5456842h4.1482706c-.5403704.7770128-.7232093 2.2270147-.7232093 3.1469472 0 5.5503502 4.5293358 10.0658893 10.0950603 10.0658893 5.5666297 0 10.0959655-4.5155391 10.0959655-10.0658893 0-.9199325-.1312458-2.348225-.8010516-3.1469472h4.1482705z"/></g></svg>