<svg height="27" viewBox="0 0 29 27" width="29" xmlns="http://www.w3.org/2000/svg"><path d="m868.596473 107.751017c.872898-2.050447 1.309347-3.573637 1.309347-4.569569 0-.981285-.525103-1.508543-1.575309-1.581773h-1.718518c-1.213874-.058585-2.25726-.637104-3.130159-1.7355578-.913815-1.1277462-1.370723-2.3946298-1.370723-3.800651 0-1.7428804.586479-3.1781936 1.759436-4.3059398 1.145679-1.1716843 2.564138-1.7575264 4.255379-1.7575264 2.004938 0 3.648442.8421481 4.930511 2.5264443 1.295709 1.6696501 1.943563 3.82262 1.943563 6.4589096 0 4.9503661-1.800353 9.9959321-5.401058 15.1366961-1.322987 1.918633-2.468666 2.87795-3.437037 2.87795-1.104762 0-1.657143-.62978-1.657143-1.889341 0-.48332.320517-1.157038.961552-2.021155 1.145679-1.537836 2.189065-3.317332 3.130159-5.338487zm-22.596473-11.6875508c0-1.7428804.571932-3.1781936 1.715795-4.3059398 1.143863-1.1716843 2.573693-1.7575264 4.289488-1.7575264 2.00176 0 3.656277.8421481 4.96355 2.5264443 1.280037 1.6696501 1.920056 3.82262 1.920056 6.4589096 0 4.9503661-1.804308 9.9959321-5.412925 15.1366961-1.334507 1.918633-2.478371 2.87795-3.43159 2.87795-1.075776 0-1.613664-.62978-1.613664-1.889341 0-.48332.299583-1.157038.898749-2.021155 1.566004-2.109032 2.85285-4.62083 3.860539-7.535395l.53108-2.372661c0-.981285-.537888-1.508543-1.613665-1.581773h-1.715795c-1.143863-.058585-2.16517-.637104-3.063919-1.7355578-.885133-1.1277462-1.327699-2.3946298-1.327699-3.800651z" fill="#699db7" transform="translate(-846 -90)"/></svg>