<svg height="356" viewBox="0 0 702 356" width="702" xmlns="http://www.w3.org/2000/svg" xmlns:xlink="http://www.w3.org/1999/xlink"><radialGradient id="a" cx="46.946%" cy="47.846%" gradientTransform="matrix(.24409 -.96975 1.4735 .37088 -.35 .756)" r="26.871%"><stop offset="0" stop-color="#9680ff"/><stop offset="1" stop-opacity="0"/></radialGradient><mask id="b" fill="#fff"><path d="m0 0h1029v536h-1029z" fill="#fff" fill-rule="evenodd"/></mask><g fill="none" fill-rule="evenodd" mask="url(#b)" transform="translate(-160)"><g transform="translate(100 -307)"><circle cx="437.5" cy="437.5" fill="url(#a)" fill-opacity=".4" r="437.5"/><path d="m387.425 469.794c-25.563-4.508-42.67-28.665-38.211-53.955 4.46-25.291 28.798-42.14 54.36-37.633 25.564 4.508 42.671 28.665 38.212 53.955-4.46 25.291-28.798 42.14-54.36 37.633" fill="#fff"/><g fill="#bec4bc"><path d="m363.177 443.179a8.498 8.498 0 0 1 -6.894-9.845c.815-4.623 5.224-7.712 9.846-6.897a8.504 8.504 0 0 1 6.896 9.849c-.815 4.622-5.226 7.708-9.848 6.893"/><path d="m366.744 448.885a4.002 4.002 0 0 1 -3.246-4.636 4 4 0 1 1 3.246 4.636m5.966 12.221a6 6 0 1 1 2.085-11.818 6 6 0 0 1 -2.085 11.818m-.849-67.168a3.5 3.5 0 1 1 1.216-6.893 3.5 3.5 0 0 1 -1.216 6.893m39.139 58.562a2.5 2.5 0 1 1 -4.999.001 2.5 2.5 0 0 1 4.999-.001"/></g></g></g></svg>