<svg id="Calque_1" data-name="Calque 1" xmlns="http://www.w3.org/2000/svg" xmlns:xlink="http://www.w3.org/1999/xlink" viewBox="0 0 600 650"><defs><style>.cls-1,.cls-2{fill:none;}.cls-1{clip-rule:evenodd;}.cls-3{clip-path:url(#clip-path);}.cls-4{clip-path:url(#clip-path-2);}.cls-5{isolation:isolate;}.cls-6{clip-path:url(#clip-path-3);}.cls-7{clip-path:url(#clip-path-4);}.cls-8{clip-path:url(#clip-path-5);}.cls-154,.cls-9{fill:#a89f74;}.cls-10{clip-path:url(#clip-path-6);}.cls-11{clip-path:url(#clip-path-8);}.cls-12{clip-path:url(#clip-path-9);}.cls-13{clip-path:url(#clip-path-10);}.cls-14{fill:#826793;}.cls-15{clip-path:url(#clip-path-11);}.cls-16{clip-path:url(#clip-path-13);}.cls-17{clip-path:url(#clip-path-14);}.cls-18{clip-path:url(#clip-path-15);}.cls-19{fill:#7f9b4e;}.cls-20{clip-path:url(#clip-path-16);}.cls-21{clip-path:url(#clip-path-18);}.cls-22{clip-path:url(#clip-path-19);}.cls-23{clip-path:url(#clip-path-20);}.cls-24{fill:#699db7;}.cls-25{clip-path:url(#clip-path-21);}.cls-26{clip-path:url(#clip-path-23);}.cls-27{clip-path:url(#clip-path-24);}.cls-28{clip-path:url(#clip-path-25);}.cls-29{clip-path:url(#clip-path-26);}.cls-30{clip-path:url(#clip-path-28);}.cls-31{clip-path:url(#clip-path-29);}.cls-32{clip-path:url(#clip-path-30);}.cls-33{clip-path:url(#clip-path-31);}.cls-34{clip-path:url(#clip-path-33);}.cls-35{clip-path:url(#clip-path-34);}.cls-36{clip-path:url(#clip-path-35);}.cls-37{fill:#ed88a5;}.cls-38{clip-path:url(#clip-path-36);}.cls-39{clip-path:url(#clip-path-38);}.cls-40{clip-path:url(#clip-path-39);}.cls-41{clip-path:url(#clip-path-40);}.cls-42{fill:#f7b71b;}.cls-43{clip-path:url(#clip-path-41);}.cls-44{clip-path:url(#clip-path-43);}.cls-45{clip-path:url(#clip-path-44);}.cls-46{clip-path:url(#clip-path-45);}.cls-47{clip-path:url(#clip-path-46);}.cls-48{clip-path:url(#clip-path-48);}.cls-49{clip-path:url(#clip-path-49);}.cls-50{clip-path:url(#clip-path-50);}.cls-51{clip-path:url(#clip-path-51);}.cls-52{clip-path:url(#clip-path-53);}.cls-53{clip-path:url(#clip-path-54);}.cls-54{clip-path:url(#clip-path-55);}.cls-55{fill:#22b289;}.cls-56{clip-path:url(#clip-path-56);}.cls-57{clip-path:url(#clip-path-58);}.cls-58{clip-path:url(#clip-path-59);}.cls-59{clip-path:url(#clip-path-60);}.cls-60{clip-path:url(#clip-path-61);}.cls-61{clip-path:url(#clip-path-63);}.cls-62{clip-path:url(#clip-path-64);}.cls-63{clip-path:url(#clip-path-65);}.cls-64{clip-path:url(#clip-path-66);}.cls-65{clip-path:url(#clip-path-68);}.cls-66{clip-path:url(#clip-path-69);}.cls-67{clip-path:url(#clip-path-70);}.cls-68{clip-path:url(#clip-path-71);}.cls-69{clip-path:url(#clip-path-73);}.cls-70{clip-path:url(#clip-path-74);}.cls-71{clip-path:url(#clip-path-75);}.cls-72{clip-path:url(#clip-path-76);}.cls-73{clip-path:url(#clip-path-78);}.cls-74{clip-path:url(#clip-path-79);}.cls-75{clip-path:url(#clip-path-80);}.cls-76{clip-path:url(#clip-path-81);}.cls-77{clip-path:url(#clip-path-83);}.cls-78{clip-path:url(#clip-path-84);}.cls-79{clip-path:url(#clip-path-85);}.cls-80{clip-path:url(#clip-path-86);}.cls-81{clip-path:url(#clip-path-88);}.cls-82{clip-path:url(#clip-path-89);}.cls-83{clip-path:url(#clip-path-90);}.cls-84{clip-path:url(#clip-path-91);}.cls-85{clip-path:url(#clip-path-93);}.cls-86{clip-path:url(#clip-path-94);}.cls-87{clip-path:url(#clip-path-95);}.cls-88{clip-path:url(#clip-path-96);}.cls-89{clip-path:url(#clip-path-98);}.cls-90{clip-path:url(#clip-path-99);}.cls-91{clip-path:url(#clip-path-100);}.cls-92{clip-path:url(#clip-path-101);}.cls-93{clip-path:url(#clip-path-103);}.cls-94{clip-path:url(#clip-path-104);}.cls-95{clip-path:url(#clip-path-105);}.cls-96{clip-path:url(#clip-path-106);}.cls-97{clip-path:url(#clip-path-108);}.cls-98{clip-path:url(#clip-path-109);}.cls-99{clip-path:url(#clip-path-110);}.cls-100{clip-path:url(#clip-path-111);}.cls-101{clip-path:url(#clip-path-113);}.cls-102{clip-path:url(#clip-path-114);}.cls-103{clip-path:url(#clip-path-115);}.cls-104{clip-path:url(#clip-path-116);}.cls-105{clip-path:url(#clip-path-118);}.cls-106{clip-path:url(#clip-path-119);}.cls-107{clip-path:url(#clip-path-120);}.cls-108{clip-path:url(#clip-path-121);}.cls-109{clip-path:url(#clip-path-123);}.cls-110{clip-path:url(#clip-path-124);}.cls-111{clip-path:url(#clip-path-125);}.cls-112{fill:#e15f3d;}.cls-113{clip-path:url(#clip-path-126);}.cls-114{clip-path:url(#clip-path-128);}.cls-115{clip-path:url(#clip-path-129);}.cls-116{clip-path:url(#clip-path-130);}.cls-117{clip-path:url(#clip-path-131);}.cls-118{clip-path:url(#clip-path-133);}.cls-119{clip-path:url(#clip-path-134);}.cls-120{clip-path:url(#clip-path-135);}.cls-121{clip-path:url(#clip-path-136);}.cls-122{clip-path:url(#clip-path-138);}.cls-123{clip-path:url(#clip-path-139);}.cls-124{clip-path:url(#clip-path-140);}.cls-125{clip-path:url(#clip-path-141);}.cls-126{clip-path:url(#clip-path-143);}.cls-127{clip-path:url(#clip-path-144);}.cls-128{clip-path:url(#clip-path-145);}.cls-129{clip-path:url(#clip-path-146);}.cls-130{clip-path:url(#clip-path-148);}.cls-131{clip-path:url(#clip-path-149);}.cls-132{clip-path:url(#clip-path-150);}.cls-133{clip-path:url(#clip-path-151);}.cls-134{clip-path:url(#clip-path-153);}.cls-135{clip-path:url(#clip-path-154);}.cls-136{clip-path:url(#clip-path-155);}.cls-137{clip-path:url(#clip-path-156);}.cls-138{clip-path:url(#clip-path-158);}.cls-139{clip-path:url(#clip-path-159);}.cls-140{clip-path:url(#clip-path-160);}.cls-141{fill:#e7e4d0;}.cls-142{clip-path:url(#clip-path-161);}.cls-143{clip-path:url(#clip-path-163);}.cls-144{clip-path:url(#clip-path-164);}.cls-145{clip-path:url(#clip-path-165);}.cls-146{clip-path:url(#clip-path-166);}.cls-147{clip-path:url(#clip-path-168);}.cls-148{clip-path:url(#clip-path-169);}.cls-149{clip-path:url(#clip-path-170);}.cls-150{clip-path:url(#clip-path-171);}.cls-151{clip-path:url(#clip-path-173);}.cls-152{clip-path:url(#clip-path-174);}.cls-153{clip-path:url(#clip-path-175);}.cls-154{font-size:34px;font-family:Bree-Bold, Bree;font-weight:700;}.cls-155{letter-spacing:-0.02em;}.cls-156{letter-spacing:-0.02em;}.cls-157{letter-spacing:-0.01em;}</style><clipPath id="clip-path"><path class="cls-1" d="M325.7,145.11c-1.38,1.08-3.87,3-3.79,4.69.12,2.41,2.58,3.22,5.1,3.43,9.91.81,15.32,7.08,18.27,16.14.57,1.76,1.52,3.92,3.44,3.94a4.56,4.56,0,0,0,2.57-1.13q3-2.2,6-4.46l-2.09,1.76c7-3.82,8.5-13.6,4.7-20.42-3.3-5.91-9.1-10.91-16.12-11.39-.42,0-.84,0-1.25,0C336,137.63,330.75,141.13,325.7,145.11Z"/></clipPath><clipPath id="clip-path-2"><rect class="cls-2" x="82.4" y="74.49" width="431.95" height="496.67"/></clipPath><clipPath id="clip-path-3"><rect class="cls-2" x="315.68" y="131.68" width="52.68" height="46.66"/></clipPath><clipPath id="clip-path-4"><rect class="cls-2" x="316.89" y="132.85" width="50.08" height="45.23"/></clipPath><clipPath id="clip-path-5"><rect class="cls-2" x="321.71" y="136.2" width="42.14" height="37.63"/></clipPath><clipPath id="clip-path-6"><path class="cls-1" d="M268.13,80.52C259.91,84.73,245,92.9,238.84,99.34a14.38,14.38,0,0,0-1.84,2.27c-4.38,7,1.31,12.08,6.14,15.85,3.82,3,10.75,2.6,16.68,1.65,3.27-.52,13.58-6.79,15.75-13.1,3.52-10.16,1.2-15-1-20.47-1.29-3.23-1.48-5.9-3.66-5.9A6.51,6.51,0,0,0,268.13,80.52Z"/></clipPath><clipPath id="clip-path-8"><rect class="cls-2" x="229.9" y="74.49" width="52.68" height="51.17"/></clipPath><clipPath id="clip-path-9"><rect class="cls-2" x="230.48" y="74.62" width="51.84" height="50.19"/></clipPath><clipPath id="clip-path-10"><rect class="cls-2" x="231.4" y="79.01" width="48.16" height="42.14"/></clipPath><clipPath id="clip-path-11"><path class="cls-1" d="M296.64,75.35l-12.11,1.09a4.65,4.65,0,0,0-1.11.22c-6.39,2.29.67,17.1.55,23.18,0,1.16,2.41,4,3.27,4,6.1.62,16.86,2.8,23,3.42,2.3.23,4.92.36,6.6-1.27,1-1,8.19-21.06,10.64-23.7,5.8-6.36-24.09-6.61-30-7h-.81Z"/></clipPath><clipPath id="clip-path-13"><rect class="cls-2" x="275.05" y="69.98" width="58.7" height="43.65"/></clipPath><clipPath id="clip-path-14"><rect class="cls-2" x="275.9" y="70.5" width="57.12" height="41.78"/></clipPath><clipPath id="clip-path-15"><rect class="cls-2" x="276.55" y="74.49" width="57.19" height="34.62"/></clipPath><clipPath id="clip-path-16"><path class="cls-1" d="M335.23,82.43c-1.32,2.1-3.73,6.54-4.38,7.14-1.93,2-1.37,5.26-.07,7.73s5.45,5.13,6.05,7.82c.74,3.33-2.92,6.2-4.33,9.29-2,4.38,13.47,12.73,16.24,13.29,1.83.37,31.53-6.91,28.3-16.16-2.2-6.26-8.46-11.28-18.52-18.88-2.06-1.56-18.11-10.57-22.36-10.57C335.7,82.09,335.38,82.19,335.23,82.43Z"/></clipPath><clipPath id="clip-path-18"><rect class="cls-2" x="323.21" y="76" width="60.2" height="57.19"/></clipPath><clipPath id="clip-path-19"><rect class="cls-2" x="324.66" y="77.19" width="57.56" height="55.41"/></clipPath><clipPath id="clip-path-20"><rect class="cls-2" x="327.73" y="82.02" width="52.68" height="46.66"/></clipPath><clipPath id="clip-path-21"><path class="cls-1" d="M371.51,125.53c-5,2.91-7.68,8.85-7.82,14.65-.06,3,8.74,14.24,10.59,16.5,5,6.13,9.44,5.13,17.56,0,11.12-6.93,10.37-7.3,7.43-14.42a5.85,5.85,0,0,0-.4-.79l-13.18-21a3.28,3.28,0,0,0-2.79-1.6C379.6,118.81,375.27,123.33,371.51,125.53Z"/></clipPath><clipPath id="clip-path-23"><rect class="cls-2" x="357.83" y="113.62" width="49.67" height="52.68"/></clipPath><clipPath id="clip-path-24"><rect class="cls-2" x="358.73" y="113.86" width="47.37" height="52"/></clipPath><clipPath id="clip-path-25"><rect class="cls-2" x="362.34" y="118.14" width="40.64" height="45.15"/></clipPath><clipPath id="clip-path-26"><path class="cls-1" d="M406.5,164.52c-11.53.83-20.52,7.11-21.5,8.26a10.07,10.07,0,0,0-2.11,6.36c-.2,6.22,6,10.18,8,16s1.1,15.4,7,14.07c3.88-.83,13.45-5.23,15-9,2.43-5.85-3.36-35.69-6.37-35.69Z"/></clipPath><clipPath id="clip-path-28"><rect class="cls-2" x="377.39" y="158.78" width="42.14" height="55.69"/></clipPath><clipPath id="clip-path-29"><rect class="cls-2" x="377.97" y="159.52" width="40.43" height="54.81"/></clipPath><clipPath id="clip-path-30"><rect class="cls-2" x="381.91" y="163.29" width="34.62" height="48.16"/></clipPath><clipPath id="clip-path-31"><path class="cls-1" d="M408.11,213.19c-6.65.68-16.12,2.63-22.2,8.25-3.16,2.94-5.32,20.44-5.39,23.16-.22,8.14,3.36,11.45,9.12,12.59,4.68,1,13.95,2.42,17.9-2s5.32-25.85,5.69-36.38c.11-3.1-1.66-5.63-4.58-5.63A4.89,4.89,0,0,0,408.11,213.19Z"/></clipPath><clipPath id="clip-path-33"><rect class="cls-2" x="374.38" y="206.94" width="45.15" height="57.19"/></clipPath><clipPath id="clip-path-34"><rect class="cls-2" x="375.67" y="208.27" width="42.4" height="54.84"/></clipPath><clipPath id="clip-path-35"><rect class="cls-2" x="378.9" y="212.96" width="34.62" height="46.66"/></clipPath><clipPath id="clip-path-36"><path class="cls-1" d="M383.28,267.75c-4.78,2.4-13,19.38-16.25,25.85-2.66,5.29-5.34,12.81-3.35,18.42,2.37,6.64,3.76,9,5.64,8.79,8-.83,11.47-9.33,15.46-15.18,4.61-6.75,5.93-10,9.88-15.81,3.43-5,12.77-21.12,7-21.88-3.71-.48-7.37-1.85-11.35-1.85A15.28,15.28,0,0,0,383.28,267.75Z"/></clipPath><clipPath id="clip-path-38"><rect class="cls-2" x="357.83" y="261.12" width="51.17" height="64.72"/></clipPath><clipPath id="clip-path-39"><rect class="cls-2" x="358.21" y="261.12" width="50.06" height="64.67"/></clipPath><clipPath id="clip-path-40"><rect class="cls-2" x="360.84" y="265.64" width="46.66" height="55.69"/></clipPath><clipPath id="clip-path-41"><path class="cls-1" d="M344.5,308.08l-11.61,6.82c-4.45,1.83-11.47,7.4-15.42,11.63-.17.18,0,11,0,11.23,0,8.84,16.71,4.13,24,1,3.49-1.53,11.9-7.17,18.06-11.61,3.29-2.36,3.13-3.13.82-7-1.87-3.15-3.6-6.92-6.56-9.82a8.37,8.37,0,0,0-6.15-2.5C346.32,307.83,345.22,308.05,344.5,308.08Z"/></clipPath><clipPath id="clip-path-43"><rect class="cls-2" x="311.17" y="301.76" width="57.19" height="46.66"/></clipPath><clipPath id="clip-path-44"><rect class="cls-2" x="312.4" y="302.92" width="54.61" height="44.84"/></clipPath><clipPath id="clip-path-45"><rect class="cls-2" x="317.19" y="307.78" width="46.66" height="39.13"/></clipPath><clipPath id="clip-path-46"><path class="cls-1" d="M253.48,268.61a12.06,12.06,0,0,0-5.51,6.18c-.95,2.47-2.52,12.67,11.2,21.66a24.47,24.47,0,0,0,12.61,4.9c4.57.42,4.22-9,6.69-12.88a22.42,22.42,0,0,1,5.44-5.51,10.52,10.52,0,0,0,1.1-15.09,41.46,41.46,0,0,0-3.36-3.4,11.21,11.21,0,0,0-7-2.87C264.43,262.18,258.15,266.15,253.48,268.61Z"/></clipPath><clipPath id="clip-path-48"><rect class="cls-2" x="241.94" y="256.61" width="51.17" height="49.67"/></clipPath><clipPath id="clip-path-49"><rect class="cls-2" x="242.59" y="256.82" width="49.87" height="49.33"/></clipPath><clipPath id="clip-path-50"><rect class="cls-2" x="244.95" y="261.12" width="43.65" height="42.14"/></clipPath><clipPath id="clip-path-51"><path class="cls-1" d="M244.16,305.43h0Zm3.16-1.28c-2.62,1.36-3.07,1.32-3.15,1.29h0s0,.3-1.56,2.11c-3.09,3.53-2.32,2.2-7,6.39s-4.22,4.78,16.56,21c3.51,2.75,8.35,5.69,12.84,6.8,3.07.76,3.73,1,4.13-.48,1.13-4.15,1-1.6.76-7.06-.19-5.63-.39-11.33-2.05-16.66-.85-2.72-4.14-7-7.2-10.63a10.87,10.87,0,0,0-13.32-2.75Z"/></clipPath><clipPath id="clip-path-53"><rect class="cls-2" x="226.89" y="297.24" width="48.16" height="51.17"/></clipPath><clipPath id="clip-path-54"><rect class="cls-2" x="228.35" y="298.06" width="46.53" height="49.17"/></clipPath><clipPath id="clip-path-55"><rect class="cls-2" x="229.9" y="301.76" width="40.64" height="42.14"/></clipPath><clipPath id="clip-path-56"><path class="cls-1" d="M232.71,270.9c-5.07.14-14.4,6.63-19,13.26-2.29,3.31-4.05,5.79-1.93,9.23,3.23,5.3,8.13,11.05,15.62,17.42,2.19,1.86,5.52-2.94,8.24-5.73,6.87-7.08,4.65-13.65,4.9-15.84,1.88-16.57-1.35-18.52-4.89-18.52C234.66,270.72,233.65,270.87,232.71,270.9Z"/></clipPath><clipPath id="clip-path-58"><rect class="cls-2" x="204.31" y="265.64" width="42.14" height="51.17"/></clipPath><clipPath id="clip-path-59"><rect class="cls-2" x="205.76" y="265.82" width="40.41" height="50.3"/></clipPath><clipPath id="clip-path-60"><rect class="cls-2" x="208.83" y="270.15" width="34.62" height="43.65"/></clipPath><clipPath id="clip-path-61"><path class="cls-1" d="M256.86,232.13c-8.46.48-18.39,2.82-22.86,8.14-2.66,3.16-.65,7.59.59,11.09.2.56,1.22,2,1.52,2.62a14.83,14.83,0,0,0,19,7.8c2.9-1.13,5.52-3.46,9.11-5.53,5.9-3.39,9.73-9,8.42-14.45-1.25-5.22-7.75-9.69-14.88-9.69C257.45,232.11,257.16,232.11,256.86,232.13Z"/></clipPath><clipPath id="clip-path-63"><rect class="cls-2" x="226.89" y="226.5" width="51.17" height="42.14"/></clipPath><clipPath id="clip-path-64"><rect class="cls-2" x="227.91" y="227.19" width="49.77" height="40.56"/></clipPath><clipPath id="clip-path-65"><rect class="cls-2" x="229.9" y="231.02" width="45.15" height="34.62"/></clipPath><clipPath id="clip-path-66"><path class="cls-1" d="M303.73,222.22a10.45,10.45,0,0,0-4.5,1.5c-4.72,5.39-10.84,10.23-13.36,18.17-2.12,9,5.48,16.25,13.67,17.37,2,.32,3.51.57,5,.72a17.11,17.11,0,0,0,11.55-.44c12.49-6.24,6-22.08,0-31.18a12.55,12.55,0,0,0-3.3-3.55,13.46,13.46,0,0,0-8-2.64C304.47,222.17,304.1,222.19,303.73,222.22Z"/></clipPath><clipPath id="clip-path-68"><rect class="cls-2" x="279.56" y="215.97" width="49.67" height="51.17"/></clipPath><clipPath id="clip-path-69"><rect class="cls-2" x="280.55" y="217.21" width="47.69" height="48.53"/></clipPath><clipPath id="clip-path-70"><rect class="cls-2" x="282.57" y="221.99" width="46.66" height="40.64"/></clipPath><clipPath id="clip-path-71"><path class="cls-1" d="M351.37,229.56c-4.52.19-9.16.39-13.35,2.09s-7.9,5.22-8.55,9.66,1.77,5.89,7.4,10.05L360,262c4.24,1.6,8.51,4.12,12.94,3.14a5.5,5.5,0,0,0,3.65-2.34,7.32,7.32,0,0,0,.64-4.07c-.18-5.15-.36-10.38-1.91-15.31s-4.65-9.61-9.31-11.93a23.13,23.13,0,0,0-10.51-2C354.12,229.45,352.74,229.5,351.37,229.56Z"/></clipPath><clipPath id="clip-path-73"><rect class="cls-2" x="323.21" y="223.49" width="60.2" height="48.16"/></clipPath><clipPath id="clip-path-74"><rect class="cls-2" x="324.32" y="224.54" width="58" height="45.67"/></clipPath><clipPath id="clip-path-75"><rect class="cls-2" x="327.73" y="228.01" width="51.17" height="39.13"/></clipPath><clipPath id="clip-path-76"><path class="cls-1" d="M278.75,179.08c0,.07.52,3.46,5.61,10.46,3.62,5,3.91,6.82,8.81,11.15,3.16,2.78,8.35.84,10.25-2.9,2.24-4.3,2-25.77-2.26-27.42a12.71,12.71,0,0,0-4.71-.82C289.08,169.55,280.35,174.42,278.75,179.08Z"/></clipPath><clipPath id="clip-path-78"><rect class="cls-2" x="273.54" y="163.29" width="36.12" height="43.65"/></clipPath><clipPath id="clip-path-79"><rect class="cls-2" x="274" y="164.71" width="35.57" height="42.14"/></clipPath><clipPath id="clip-path-80"><rect class="cls-2" x="278.06" y="169.31" width="28.6" height="34.62"/></clipPath><clipPath id="clip-path-81"><path class="cls-1" d="M365.73,178.41c-1.64,1.09-5.26,2.79-6.06,4.62-2.75,6.38,1.37,24.07,7.32,27.72s16.41-2,19-5.59-1.53-12.79-2.5-14.6c-2.13-3.95-4.35-8.07-7.85-10.77-2.16-1.67-4-2.74-6-2.74A7,7,0,0,0,365.73,178.41Z"/></clipPath><clipPath id="clip-path-83"><rect class="cls-2" x="353.31" y="170.82" width="39.13" height="46.66"/></clipPath><clipPath id="clip-path-84"><rect class="cls-2" x="353.8" y="172" width="38.06" height="44.97"/></clipPath><clipPath id="clip-path-85"><rect class="cls-2" x="356.32" y="176.84" width="33.11" height="37.63"/></clipPath><clipPath id="clip-path-86"><path class="cls-1" d="M231.51,161.51a9.58,9.58,0,0,0-2,4.48c-1.26,4.91-2.52,10-1.06,15,.51,1.75,1.09,1.59,2.62,2.56,6,3.76,13.77,8.58,19,5.58,4.42-2.5,15.63-13.51,15.63-13.51,6.26-8-4.83-10.84-7.72-11.81-13.89-4.68-10.72-3.57-20.39-4.05l-.8,0A7.24,7.24,0,0,0,231.51,161.51Z"/></clipPath><clipPath id="clip-path-88"><rect class="cls-2" x="222.37" y="154.26" width="51.17" height="40.64"/></clipPath><clipPath id="clip-path-89"><rect class="cls-2" x="223" y="155" width="49.39" height="39.87"/></clipPath><clipPath id="clip-path-90"><rect class="cls-2" x="226.89" y="158.78" width="45.15" height="34.62"/></clipPath><clipPath id="clip-path-91"><path class="cls-1" d="M265,124a14.69,14.69,0,0,0-3.25,2.49c-2,2-3.92,4.3-6.62,5.87a21.87,21.87,0,0,0-6.28,6.54c-1.45,2.48-2.14,5.11-1.45,7.48,5.56,11,19.61,11,30.27,14.48h0a7.47,7.47,0,0,0,8.11-5.09c3.54-11.69-1.22-25.48-12.25-31.49a13.69,13.69,0,0,0-4-.76H269A16.78,16.78,0,0,0,265,124Z"/></clipPath><clipPath id="clip-path-93"><rect class="cls-2" x="241.94" y="118.14" width="51.17" height="48.16"/></clipPath><clipPath id="clip-path-94"><rect class="cls-2" x="242.07" y="118.64" width="49.86" height="47.09"/></clipPath><clipPath id="clip-path-95"><rect class="cls-2" x="246.45" y="122.65" width="43.65" height="39.13"/></clipPath><clipPath id="clip-path-96"><path class="cls-1" d="M188.39,208c-3.17,6.17-1.06,12.36.83,18.75.48,1.81,1,3.62,1.61,5.42a19.7,19.7,0,0,0,1.27,3.62c.36.69,3.08.43,6.61-.4a97.5,97.5,0,0,0,10.5-3.82,14.23,14.23,0,0,0,7.6-8h0c.08-4.18.37-5.74-.14-10a23.87,23.87,0,0,0-.81-4.09c-2.11-5.93-7.48-8.6-13.1-8.6S191.55,203.37,188.39,208Z"/></clipPath><clipPath id="clip-path-98"><rect class="cls-2" x="181.73" y="194.9" width="40.64" height="46.66"/></clipPath><clipPath id="clip-path-99"><rect class="cls-2" x="181.85" y="196.03" width="40.07" height="44.89"/></clipPath><clipPath id="clip-path-100"><rect class="cls-2" x="184.74" y="199.41" width="33.11" height="37.63"/></clipPath><clipPath id="clip-path-101"><path class="cls-1" d="M197.61,165.22c-6.85,17.68-6.49,22.44-6.08,24.3.59,2.69,2.53,5.49,5.15,5.36l4.32-.23c6-.87,13.07.27,15.66-3.46,3.32-4.81,4.85-12.07,5-18.33.06-2.3-2.37-5.81-4.56-6.09-8-1-13.91-2.63-17-2.63C198.74,164.14,197.9,164.44,197.61,165.22Z"/></clipPath><clipPath id="clip-path-103"><rect class="cls-2" x="186.25" y="158.78" width="40.64" height="42.14"/></clipPath><clipPath id="clip-path-104"><rect class="cls-2" x="186.43" y="159.06" width="40.17" height="40.9"/></clipPath><clipPath id="clip-path-105"><rect class="cls-2" x="189.26" y="163.29" width="33.11" height="33.11"/></clipPath><clipPath id="clip-path-106"><path class="cls-1" d="M224.07,113.34c-16.24,21.68-22.78,39.2-22.37,42.77.66,5.42,15.18,5.21,19.71,3.43,4.29-1.71,7.58-10.61,9.22-14.95,3.23-8.54,6.24-8.83,10.11-15.51,2.54-4.41-.94-7.77-3.2-9.13-5.12-3.08-7.45-8.85-10.31-8.84C226.27,111.11,225.26,111.75,224.07,113.34Z"/></clipPath><clipPath id="clip-path-108"><rect class="cls-2" x="195.28" y="106.1" width="52.68" height="60.2"/></clipPath><clipPath id="clip-path-109"><rect class="cls-2" x="196.67" y="106.12" width="49.98" height="59.53"/></clipPath><clipPath id="clip-path-110"><rect class="cls-2" x="199.79" y="110.61" width="43.65" height="51.17"/></clipPath><clipPath id="clip-path-111"><path class="cls-1" d="M216.81,234.48c-2.7.28-16.33,1.57-22.62,9.93-1.68,2.33,3.19,13.88,6,20.51,2.54,6,3.33,9.78,5.88,10.39,3.21.8,9.2-4.3,13.8-8.77,1.94-1.89,4.52-2.21,5.82-4.57,3.1-5.61,1.05-4.1.12-10.39-2.28-15.47-5.3-17.22-7.63-17.22A10.76,10.76,0,0,0,216.81,234.48Z"/></clipPath><clipPath id="clip-path-113"><rect class="cls-2" x="187.75" y="229.51" width="45.15" height="51.17"/></clipPath><clipPath id="clip-path-114"><rect class="cls-2" x="188.86" y="229.57" width="43.43" height="50.61"/></clipPath><clipPath id="clip-path-115"><rect class="cls-2" x="192.27" y="234.03" width="37.63" height="42.14"/></clipPath><clipPath id="clip-path-116"><path class="cls-1" d="M326.52,261.23a10,10,0,0,0-6.64,5.32c-2.24,4.39-3.35,8.73.2,11.19a57.61,57.61,0,0,1,16.47,17.57,17.08,17.08,0,0,0,2.61,3.43c7.27,7,13-.09,18-5.82,3.16-3.59,2.16-3.37,4.33-6.67.65-1,3.21-8.53-10.8-17.77,0,0-11.62-7.5-21.25-7.5A16.44,16.44,0,0,0,326.52,261.23Z"/></clipPath><clipPath id="clip-path-118"><rect class="cls-2" x="312.67" y="255.1" width="55.69" height="52.68"/></clipPath><clipPath id="clip-path-119"><rect class="cls-2" x="312.91" y="255.96" width="54.07" height="50.72"/></clipPath><clipPath id="clip-path-120"><rect class="cls-2" x="315.68" y="259.62" width="49.67" height="46.66"/></clipPath><clipPath id="clip-path-121"><path class="cls-1" d="M304.23,276.33c-3.79.67-6.59,3.81-9.09,6.78l-6.48,7.7a11.25,11.25,0,0,0,2.2,16.46c10,6.84,19.18,8.05,27.62,3.94a13.07,13.07,0,0,0,7-8.58,12.91,12.91,0,0,0-2.17-10.79l-3.71-5a34.09,34.09,0,0,0-6.22-7.64,12,12,0,0,0-7.55-3A8.23,8.23,0,0,0,304.23,276.33Z"/></clipPath><clipPath id="clip-path-123"><rect class="cls-2" x="281.07" y="270.15" width="49.67" height="49.67"/></clipPath><clipPath id="clip-path-124"><rect class="cls-2" x="281.13" y="271.34" width="49.57" height="47.07"/></clipPath><clipPath id="clip-path-125"><rect class="cls-2" x="285.58" y="276.17" width="42.14" height="40.64"/></clipPath><clipPath id="clip-path-126"><path class="cls-1" d="M282.88,319.17c-3.65.95-6.93,1.3-6.81,5.29,0,.1-.16,9.12-.24,14.31a5.07,5.07,0,0,0,3,4.79c6.56,2.83,20.69,3.11,23.56,3.48,1.17.15,5.72.17,7.18-2.42,3.73-5,1.67-19-.5-18.71-6-3.3-20.31-6.84-25.06-6.84A5.11,5.11,0,0,0,282.88,319.17Z"/></clipPath><clipPath id="clip-path-128"><rect class="cls-2" x="270.53" y="313.8" width="46.66" height="39.13"/></clipPath><clipPath id="clip-path-129"><rect class="cls-2" x="271.05" y="314.06" width="45.31" height="38.04"/></clipPath><clipPath id="clip-path-130"><rect class="cls-2" x="275.05" y="318.31" width="39.13" height="30.1"/></clipPath><clipPath id="clip-path-131"><path class="cls-1" d="M225.89,202.34c-6.43,10.79.1,19.46.1,19.46,3.12,3.71,6.76,5.66,12.66,4,3.71-1.05,7.45-3.28,9.09-6.75a17.25,17.25,0,0,0,1.21-6.51c.18-3.39.34-4-.62-7.19s-3.29-6-6.6-6.69a11,11,0,0,0-1.93-.14C235.46,198.53,227.32,199.94,225.89,202.34Z"/></clipPath><clipPath id="clip-path-133"><rect class="cls-2" x="217.86" y="193.39" width="37.63" height="39.13"/></clipPath><clipPath id="clip-path-134"><rect class="cls-2" x="218.13" y="193.52" width="35.88" height="37.89"/></clipPath><clipPath id="clip-path-135"><rect class="cls-2" x="219.36" y="197.91" width="30.1" height="30.1"/></clipPath><clipPath id="clip-path-136"><path class="cls-1" d="M265.49,191.73a21.09,21.09,0,0,0-6.41,8.3,22.85,22.85,0,0,0-1.54,5.05c-2.47,13.08,12.12,23.65,23.22,21.59a14.32,14.32,0,0,0,4.76-2.23c12.28-10.51-3.36-24.25-10.64-31.65a6.71,6.71,0,0,0-4.32-1.72c-.29,0-.58,0-.88,0A13.28,13.28,0,0,0,265.49,191.73Z"/></clipPath><clipPath id="clip-path-138"><rect class="cls-2" x="250.97" y="185.87" width="45.15" height="46.66"/></clipPath><clipPath id="clip-path-139"><rect class="cls-2" x="252.43" y="186.14" width="42.48" height="45.7"/></clipPath><clipPath id="clip-path-140"><rect class="cls-2" x="253.98" y="190.38" width="43.65" height="39.13"/></clipPath><clipPath id="clip-path-141"><path class="cls-1" d="M325.14,163c-.1,0-6.43,3.42-8.84,12.48-1.72,6.45-3.27,20.53-3.62,27.77-.22,4.68,3.62,8.79,8,8.29,5-.58,9.76-14.69,10.93-15.32.2-.14,2.67-3.41,3.52-4.52,3-3.81,9.36-10.71,7.25-17-2.42-7.23-8.37-12.79-13.56-12.79A6.59,6.59,0,0,0,325.14,163Z"/></clipPath><clipPath id="clip-path-143"><rect class="cls-2" x="306.65" y="155.77" width="42.14" height="61.71"/></clipPath><clipPath id="clip-path-144"><rect class="cls-2" x="307.76" y="157.03" width="39.91" height="59.42"/></clipPath><clipPath id="clip-path-145"><rect class="cls-2" x="311.17" y="161.79" width="34.62" height="51.17"/></clipPath><clipPath id="clip-path-146"><path class="cls-1" d="M302.4,117.1c-4.35,2-9,4.4-11.44,9.26-1.47,2.88,2.14,6.57,2.91,8.46l5,12.66c.92,2.34,3.11,6.51,3.91,9.18a2,2,0,0,0,.38.75l.06,0c2.11,2.34,5.69,1.92,7.83-.83,3.46-4.49,9.67-14.28,11.42-21.22.91-3.57,1.81-7.47.58-10.69-1.35-3.66-5-5.23-8.32-6.5a23.64,23.64,0,0,0-8.15-2A9.63,9.63,0,0,0,302.4,117.1Z"/></clipPath><clipPath id="clip-path-148"><rect class="cls-2" x="285.58" y="110.61" width="43.65" height="54.18"/></clipPath><clipPath id="clip-path-149"><rect class="cls-2" x="285.63" y="111.26" width="42.98" height="52.65"/></clipPath><clipPath id="clip-path-150"><rect class="cls-2" x="288.59" y="115.13" width="36.12" height="45.15"/></clipPath><clipPath id="clip-path-151"><path class="cls-1" d="M342,197.6c-2.7,1.94-9.31,12.62-10.32,14.65-4.36,8.82-1.14,16,6.35,14.13,0,0,17.79-2.9,19.18-15.63a16.44,16.44,0,0,0-1.77-9.09,8.76,8.76,0,0,0-8.34-5.47A9.2,9.2,0,0,0,342,197.6Z"/></clipPath><clipPath id="clip-path-153"><rect class="cls-2" x="323.21" y="190.38" width="39.13" height="42.14"/></clipPath><clipPath id="clip-path-154"><rect class="cls-2" x="324.69" y="191.11" width="37.58" height="40.64"/></clipPath><clipPath id="clip-path-155"><rect class="cls-2" x="326.22" y="194.9" width="31.61" height="34.62"/></clipPath><clipPath id="clip-path-156"><path class="cls-1" d="M113.92,459.12h0q0-18.51,7.71-28.82T142.51,420Q171,420,171,459.12q0,19.08-7.7,29.39t-20.81,10.32Q113.92,498.83,113.92,459.12Zm-13.29-44.75q-15.88,17.28-15.88,44.75,0,28.39,15.18,45.49t42.58,17.1q26.82,0,42.24-16.93t15.43-45.66q0-28.81-15.15-45.42t-42.52-16.6h0Q116.5,397.1,100.63,414.37Z"/></clipPath><clipPath id="clip-path-158"><rect class="cls-2" x="79.39" y="392.06" width="126.43" height="135.46"/></clipPath><clipPath id="clip-path-159"><rect class="cls-2" x="79.83" y="392.18" width="125.26" height="134.45"/></clipPath><clipPath id="clip-path-160"><rect class="cls-2" x="83.9" y="396.58" width="117.4" height="126.43"/></clipPath><clipPath id="clip-path-161"><path class="cls-1" d="M243.84,491.49V428.6q7.78-7.82,17.81-7.83,19.26,0,27.6,8.66t8.34,29.88q0,19.89-8.4,29.11t-27.66,9.21h-.45A27.26,27.26,0,0,1,243.84,491.49Zm0-84.05v-8H216V565.91h27.8V516a53.93,53.93,0,0,0,23.92,5.25q27.3.06,43.05-15.8t15.75-45.24q0-63-57-63A35.31,35.31,0,0,0,243.86,407.44Z"/></clipPath><clipPath id="clip-path-163"><rect class="cls-2" x="210.33" y="392.06" width="121.91" height="179.1"/></clipPath><clipPath id="clip-path-164"><rect class="cls-2" x="211.16" y="392.27" width="120.27" height="178.55"/></clipPath><clipPath id="clip-path-165"><rect class="cls-2" x="214.85" y="396.58" width="112.88" height="170.07"/></clipPath><clipPath id="clip-path-166"><path class="cls-1" d="M367.57,483.24q0-21.76,33.24-21.77a60.24,60.24,0,0,1,10.78,1.46l0,11.22q0,25.23-25.26,25.24Q367.58,499.39,367.57,483.24ZM351.93,404,358,425.77q10.68-5.28,26.51-5.28,26.83,0,26.83,21.21A49,49,0,0,0,399.66,440q-28.91,0-44.52,11.8T339.53,484.4q0,17.84,11.12,27.54t30.52,9.7A50.9,50.9,0,0,0,401,517.71q9.48-3.93,13.3-10.25a22.88,22.88,0,0,0,6.45,9.74,15.6,15.6,0,0,0,10.89,4.48,31.39,31.39,0,0,0,9.77-1.4q4.26-1.41,7.75-7.46-9.66-6.17-9.66-30.17V457q0-34.89-12.8-47.39t-40.3-12.51Q366.41,397.06,351.93,404Z"/></clipPath><clipPath id="clip-path-168"><rect class="cls-2" x="333.75" y="392.06" width="120.41" height="135.46"/></clipPath><clipPath id="clip-path-169"><rect class="cls-2" x="334.61" y="392.14" width="119.46" height="134.46"/></clipPath><clipPath id="clip-path-170"><rect class="cls-2" x="338.26" y="396.58" width="111.37" height="126.43"/></clipPath><clipPath id="clip-path-171"><path class="cls-1" d="M472.61,355.31v140q0,26.37,18.54,26.36,15.25,0,21.59-12.28-12.87-4.24-12.87-26.36V348.61Z"/></clipPath><clipPath id="clip-path-173"><rect class="cls-2" x="467.7" y="342.39" width="51.17" height="185.12"/></clipPath><clipPath id="clip-path-174"><rect class="cls-2" x="467.83" y="343.71" width="49.69" height="182.89"/></clipPath><clipPath id="clip-path-175"><rect class="cls-2" x="472.21" y="348.41" width="40.64" height="174.59"/></clipPath></defs><title>700</title><g id="Calque_2" data-name="Calque 2"><g class="cls-3"><g class="cls-4"><g class="cls-5"><g class="cls-6"><g class="cls-7"><g class="cls-8"><rect class="cls-9" x="309.37" y="125.33" width="65.13" height="60.28"/></g></g></g></g></g></g><g class="cls-10"><g class="cls-4"><g class="cls-5"><g class="cls-11"><g class="cls-12"><g class="cls-13"><rect class="cls-14" x="222.96" y="67.1" width="66.89" height="65.24"/></g></g></g></g></g></g><g class="cls-15"><g class="cls-4"><g class="cls-5"><g class="cls-16"><g class="cls-17"><g class="cls-18"><rect class="cls-19" x="268.38" y="62.97" width="72.17" height="56.83"/></g></g></g></g></g></g><g class="cls-20"><g class="cls-4"><g class="cls-5"><g class="cls-21"><g class="cls-22"><g class="cls-23"><rect class="cls-24" x="317.14" y="69.67" width="72.61" height="70.46"/></g></g></g></g></g></g><g class="cls-25"><g class="cls-4"><g class="cls-5"><g class="cls-26"><g class="cls-27"><g class="cls-28"><rect class="cls-14" x="351.21" y="106.34" width="62.43" height="67.05"/></g></g></g></g></g></g><g class="cls-29"><g class="cls-4"><g class="cls-5"><g class="cls-30"><g class="cls-31"><g class="cls-32"><rect class="cls-24" x="370.44" y="152" width="55.48" height="69.86"/></g></g></g></g></g></g><g class="cls-33"><g class="cls-4"><g class="cls-5"><g class="cls-34"><g class="cls-35"><g class="cls-36"><rect class="cls-37" x="368.14" y="200.75" width="57.45" height="69.89"/></g></g></g></g></g></g><g class="cls-38"><g class="cls-4"><g class="cls-5"><g class="cls-39"><g class="cls-40"><g class="cls-41"><rect class="cls-42" x="350.68" y="253.59" width="65.11" height="79.72"/></g></g></g></g></g></g><g class="cls-43"><g class="cls-4"><g class="cls-5"><g class="cls-44"><g class="cls-45"><g class="cls-46"><rect class="cls-24" x="304.88" y="295.39" width="69.66" height="59.89"/></g></g></g></g></g></g><g class="cls-47"><g class="cls-4"><g class="cls-5"><g class="cls-48"><g class="cls-49"><g class="cls-50"><rect class="cls-9" x="235.07" y="249.29" width="64.92" height="64.38"/></g></g></g></g></g></g><g class="cls-51"><g class="cls-4"><g class="cls-5"><g class="cls-52"><g class="cls-53"><g class="cls-54"><rect class="cls-55" x="220.82" y="290.53" width="61.58" height="64.22"/></g></g></g></g></g></g><g class="cls-56"><g class="cls-4"><g class="cls-5"><g class="cls-57"><g class="cls-58"><g class="cls-59"><rect class="cls-24" x="198.23" y="258.3" width="55.46" height="65.35"/></g></g></g></g></g></g><g class="cls-60"><g class="cls-4"><g class="cls-5"><g class="cls-61"><g class="cls-62"><g class="cls-63"><rect class="cls-24" x="220.38" y="219.66" width="64.82" height="55.61"/></g></g></g></g></g></g><g class="cls-64"><g class="cls-4"><g class="cls-5"><g class="cls-65"><g class="cls-66"><g class="cls-67"><rect class="cls-19" x="273.02" y="209.68" width="62.74" height="63.58"/></g></g></g></g></g></g><g class="cls-68"><g class="cls-4"><g class="cls-5"><g class="cls-69"><g class="cls-70"><g class="cls-71"><rect class="cls-55" x="316.8" y="217.02" width="73.05" height="60.72"/></g></g></g></g></g></g><g class="cls-72"><g class="cls-4"><g class="cls-5"><g class="cls-73"><g class="cls-74"><g class="cls-75"><rect class="cls-42" x="266.47" y="157.19" width="50.62" height="57.19"/></g></g></g></g></g></g><g class="cls-76"><g class="cls-4"><g class="cls-5"><g class="cls-77"><g class="cls-78"><g class="cls-79"><rect class="cls-42" x="346.27" y="164.48" width="53.11" height="60.02"/></g></g></g></g></g></g><g class="cls-80"><g class="cls-4"><g class="cls-5"><g class="cls-81"><g class="cls-82"><g class="cls-83"><rect class="cls-55" x="215.47" y="147.48" width="64.44" height="54.92"/></g></g></g></g></g></g><g class="cls-84"><g class="cls-4"><g class="cls-5"><g class="cls-85"><g class="cls-86"><g class="cls-87"><rect class="cls-19" x="234.55" y="111.11" width="64.91" height="62.14"/></g></g></g></g></g></g><g class="cls-88"><g class="cls-4"><g class="cls-5"><g class="cls-89"><g class="cls-90"><g class="cls-91"><rect class="cls-19" x="174.32" y="188.5" width="55.12" height="59.94"/></g></g></g></g></g></g><g class="cls-92"><g class="cls-4"><g class="cls-5"><g class="cls-93"><g class="cls-94"><g class="cls-95"><rect class="cls-37" x="178.9" y="151.54" width="55.22" height="55.95"/></g></g></g></g></g></g><g class="cls-96"><g class="cls-4"><g class="cls-5"><g class="cls-97"><g class="cls-98"><g class="cls-99"><rect class="cls-24" x="189.14" y="98.6" width="65.03" height="74.58"/></g></g></g></g></g></g><g class="cls-100"><g class="cls-4"><g class="cls-5"><g class="cls-101"><g class="cls-102"><g class="cls-103"><rect class="cls-42" x="181.34" y="222.05" width="58.48" height="65.66"/></g></g></g></g></g></g><g class="cls-104"><g class="cls-4"><g class="cls-5"><g class="cls-105"><g class="cls-106"><g class="cls-107"><rect class="cls-37" x="305.38" y="248.43" width="69.13" height="65.77"/></g></g></g></g></g></g><g class="cls-108"><g class="cls-4"><g class="cls-5"><g class="cls-109"><g class="cls-110"><g class="cls-111"><rect class="cls-112" x="273.61" y="263.82" width="64.63" height="62.12"/></g></g></g></g></g></g><g class="cls-113"><g class="cls-4"><g class="cls-5"><g class="cls-114"><g class="cls-115"><g class="cls-116"><rect class="cls-37" x="263.53" y="306.54" width="60.36" height="53.09"/></g></g></g></g></g></g><g class="cls-117"><g class="cls-4"><g class="cls-5"><g class="cls-118"><g class="cls-119"><g class="cls-120"><rect class="cls-9" x="210.61" y="186" width="50.93" height="52.94"/></g></g></g></g></g></g><g class="cls-121"><g class="cls-4"><g class="cls-5"><g class="cls-122"><g class="cls-123"><g class="cls-124"><rect class="cls-112" x="244.9" y="178.61" width="57.53" height="60.75"/></g></g></g></g></g></g><g class="cls-125"><g class="cls-4"><g class="cls-5"><g class="cls-126"><g class="cls-127"><g class="cls-128"><rect class="cls-14" x="300.24" y="149.5" width="54.96" height="74.47"/></g></g></g></g></g></g><g class="cls-129"><g class="cls-4"><g class="cls-5"><g class="cls-130"><g class="cls-131"><g class="cls-132"><rect class="cls-112" x="278.11" y="103.73" width="58.03" height="67.7"/></g></g></g></g></g></g><g class="cls-133"><g class="cls-4"><g class="cls-5"><g class="cls-134"><g class="cls-135"><g class="cls-136"><rect class="cls-112" x="317.17" y="183.58" width="52.63" height="55.69"/></g></g></g></g></g></g><g class="cls-137"><g class="cls-4"><g class="cls-5"><g class="cls-138"><g class="cls-139"><g class="cls-140"><rect class="cls-141" x="72.31" y="384.66" width="140.31" height="149.5"/></g></g></g></g></g></g><g class="cls-142"><g class="cls-4"><g class="cls-5"><g class="cls-143"><g class="cls-144"><g class="cls-145"><rect class="cls-141" x="203.64" y="384.74" width="135.33" height="193.6"/></g></g></g></g></g></g><g class="cls-146"><g class="cls-4"><g class="cls-5"><g class="cls-147"><g class="cls-148"><g class="cls-149"><rect class="cls-141" x="327.09" y="384.62" width="134.51" height="149.51"/></g></g></g></g></g></g><g class="cls-150"><g class="cls-4"><g class="cls-5"><g class="cls-151"><g class="cls-152"><g class="cls-153"><rect class="cls-141" x="460.3" y="336.19" width="64.74" height="197.95"/></g></g></g></g></g></g><text class="cls-154" transform="translate(256 565.63)">1 <tspan class="cls-155" x="23.49" y="0">A</tspan><tspan x="44.81" y="0">U 5 </tspan><tspan class="cls-156" x="97.58" y="0">A</tspan><tspan x="118.73" y="0">OÛT </tspan><tspan class="cls-157" x="188.7" y="0">2</tspan><tspan x="205.9" y="0">0</tspan><tspan class="cls-155" x="224.09" y="0">1</tspan><tspan x="240.11" y="0">9</tspan></text></g></svg>