<svg height="473" viewBox="0 0 2513 473" width="2513" xmlns="http://www.w3.org/2000/svg" xmlns:xlink="http://www.w3.org/1999/xlink"><mask id="a" fill="#fff"><path d="m0 0h2560v504h-2560z" fill="#fff" fill-rule="evenodd"/></mask><mask id="b" fill="#fff"><path d="m.30251479.20768h3.19249922v3.3h-3.19249922z" fill="#fff" fill-rule="evenodd"/></mask><mask id="c" fill="#fff"><path d="m0 .25553h3.19420644v3.2923h-3.19420644z" fill="#fff" fill-rule="evenodd"/></mask><mask id="d" fill="#fff"><path d="m.85520041.2937h3.19808585v3.27679h-3.19808585z" fill="#fff" fill-rule="evenodd"/></mask><mask id="e" fill="#fff"><path d="m.30251479.20768h3.19249922v3.3h-3.19249922z" fill="#fff" fill-rule="evenodd"/></mask><mask id="f" fill="#fff"><path d="m0 .25553h3.19420644v3.2923h-3.19420644z" fill="#fff" fill-rule="evenodd"/></mask><mask id="g" fill="#fff"><path d="m.85520041.2937h3.19808585v3.27679h-3.19808585z" fill="#fff" fill-rule="evenodd"/></mask><g fill="none" fill-rule="evenodd" mask="url(#a)" opacity=".42" transform="translate(-20)"><g fill="#fff" transform="translate(-43 -2)"><path d="m687.269872 159.40111c-2.128022 0-1.783799 3.2835.323327 3.2835 2.128021 0 1.783799-3.2835-.323327-3.2835"/><path d="m759.769857 157.2065c-2.124722 0-1.695818 3.2758.403609 3.2758 2.124723 0 1.694719-3.2758-.403609-3.2758"/><path d="m834.547651 139.61288c-2.128022 0-1.783799 3.2835.323327 3.2835 2.128021 0 1.783799-3.2835-.323327-3.2835"/><path d="m801.534615 212.17372c-2.124722 0-1.694719 3.2758.403609 3.2758 2.124722 0 1.695819-3.2758-.403609-3.2758"/><path d="m770.760895 117.63059c-2.124722 0-1.695818 3.2758.40361 3.2758 2.124722 0 1.694719-3.2758-.40361-3.2758"/><path d="m981.786718 172.59737c-2.124722 0-1.695818 3.2758.40361 3.2758 2.124722 0 1.694718-3.2758-.40361-3.2758"/><path d="m1006.36894 282.53071c-2.10383 0-2.52283 3.2769-.40031 3.2769 2.10273 0 2.52173-3.2769.40031-3.2769"/><path d="m1127.2289 214.36723c-2.11152 0-2.44585 3.2857-.32003 3.2857 2.11043 0 2.44475-3.2857.32003-3.2857"/><path d="m1221.70986 128.61563c-2.11812 0-2.36557 3.2923-.23974 3.2923 2.11922 0 2.36776-3.2923.23974-3.2923"/><path d="m1303.08408 234.15546c-2.11152 0-2.44585 3.2857-.32113 3.2857 2.11153 0 2.44585-3.2857.32113-3.2857"/><path d="m1.93809415.20768c-2.12912119 0-2.20500413 3.3-.07808244 3.3 2.12802143 0 2.20500412-3.3.07808244-3.3" mask="url(#b)" transform="translate(1329.600989 124.0063)"/><path d="m1074.4323 34.07195c-2.11922 0-2.36666 3.2923-.24084 3.2923 2.11922 0 2.36777-3.2923.24084-3.2923"/><path d="m1089.61835 122.01772c-2.13022 0-1.95756 3.2956.16166 3.2956 2.13022 0 1.95866-3.2956-.16166-3.2956"/><path d="m1144.10109 101.79829c-.0011-.8987-.57957-1.6973-1.52536-1.7655-.84791-.0616-1.764.6259-1.7651 1.5257-.0011.7469-.0022 1.4938-.0022 2.2396 0 .8987.63895 1.6841 1.56824 1.7281.86551.0407 1.72772-.6699 1.72772-1.5697 0-.7194-.0022-1.4388-.0033-2.1582"/><path d="m1126.86697 141.81618c-2.12472 0-1.69582 3.2747.40361 3.2747 2.12362 0 1.69472-3.2747-.40361-3.2747"/><path d="m1175.58898 155.00276c-2.11152 0-2.44585 3.2857-.32112 3.2857 2.11152 0 2.44585-3.2857.32112-3.2857"/><path d="m1091.69534 166.00166c-2.12472 0-1.69472 3.2758.40361 3.2758 2.12472 0 1.69582-3.2758-.40361-3.2758"/><path d="m1065.63956 97.83389c-2.11922 0-2.36667 3.2923-.23975 3.2923 2.11813 0 2.36667-3.2923.23975-3.2923"/><path d="m1107.48493 86.84841c-2.10273 0-2.52173 3.2769-.40031 3.2769 2.10273 0 2.52283-3.2769.40031-3.2769"/><path d="m1122.83209 113.22795c-2.11153 0-2.44475 3.2857-.32003 3.2857 2.11153 0 2.44585-3.2857.32003-3.2857"/><path d="m296.354534 122.0274c-2.103827 0-2.521733 3.2769-.40141 3.2769 2.103827 0 2.522832-3.2769.40141-3.2769"/><path d="m258.582758 144.01453c-2.123622 0-1.694719 3.2758.404709 3.2758 2.123622 0 1.694719-3.2758-.404709-3.2758"/><path d="m225.972012 183.58604c-2.110426 0-2.44475 3.2846-.320028 3.2846 2.111525 0 2.44475-3.2846.320028-3.2846"/><path d="m188.643216 141.81563c-2.102727 0-2.521732 3.2769-.400309 3.2769 2.102727 0 2.521732-3.2769.400309-3.2769"/><path d="m228.008754 108.82311c-2.131321 0-2.121423 3.3.003299 3.3 2.131321 0 2.121423-3.3-.003299-3.3"/><path d="m256.787082 86.84841c-2.102727 0-2.521733 3.2769-.40031 3.2769 2.102727 0 2.521733-3.2769.40031-3.2769"/><path d="m263.341608 122.02311c-2.111525 0-2.44475 3.2846-.321128 3.2846 2.111525 0 2.44585-3.2846.321128-3.2846"/><path d="m221.57564 146.20859c-2.110425 0-2.44475 3.2846-.320028 3.2846 2.111526 0 2.444751-3.2846.320028-3.2846"/><path d="m127.013626 209.96679c-2.118123 0-2.365568 3.2923-.239746 3.2923 2.118124 0 2.366668-3.2923.239746-3.2923"/><path d="m76.4147753 271.52697c-2.1236225 0-2.2863859 3.2978-.1594642 3.2978 2.1247222 0 2.2863858-3.2978.1594642-3.2978"/><path d="m182.008738 251.74523c-2.111525 0-2.445849 3.2846-.321127 3.2846 2.111525 0 2.44585-3.2846.321127-3.2846"/><path d="m98.4774636 141.81079c-2.1115251 0-2.4447502 3.2857-.320028 3.2857 2.1104254 0 2.4447504-3.2857.320028-3.2857"/><path d="m10.2282498 218.76514c-2.12802144 0-1.78379885 3.2846.3233273 3.2846 2.1280214 0 1.7837988-3.2846-.3233273-3.2846"/><path d="m300.630042 218.75865c-2.124722 0-2.286386 3.2978-.159464 3.2978 2.124722 0 2.286386-3.2978.159464-3.2978"/><path d="m401.705781 185.77746c-2.128021 0-2.203904 3.3-.078082 3.3 2.129121 0 2.205004-3.3.078082-3.3"/><path d="m443.471199 104.42586c-.882002-.0198-1.68922.7117-1.688121 1.6115 0 .7194.0011 1.4388.0011 2.1582.0011.8987.638957 1.6841 1.569347 1.7281.865506.0407 1.726612-.6699 1.726612-1.5697.0011-.7458.0011-1.4927.0022-2.2385 0-.8998-.697244-1.6676-1.611138-1.6896"/><path d="m584.11494 119.81618c-2.131321 0-2.121423 3.3011.003299 3.3011 2.131321 0 2.121423-3.3011-.003299-3.3011"/><path d="m645.865943 69.25908c-2.102727 0-2.521733 3.2769-.40031 3.2769 2.102727 0 2.521733-3.2769.40031-3.2769"/><path d="m542.430134 58.25534c-2.123622 0-2.286386 3.2967-.158364 3.2967 2.123622 0 2.286386-3.2967.158364-3.2967"/><path d="m854.331322 271.53346c-2.128022 0-1.783799 3.2846.323327 3.2846 2.128021 0 1.783799-3.2846-.323327-3.2846"/><path d="m742.546411 260.53984c-2.111526 0-2.44585 3.2846-.321128 3.2846 2.111525 0 2.44585-3.2846.321128-3.2846"/><path d="m777.67625 306.70871c-2.118123 0-2.365568 3.2923-.239746 3.2923 2.119224 0 2.366668-3.2923.239746-3.2923"/><path d="m942.297569 273.72862c-2.13242 0-1.865181 3.2912.246345 3.2912 2.13242 0 1.86518-3.2912-.246345-3.2912"/><path d="m924.633891 308.91575c-2.124722 0-1.695818 3.2758.40361 3.2758 2.124722 0 1.694718-3.2758-.40361-3.2758"/><path d="m962.324065 231.95337c-2.118123 0-2.365568 3.2923-.239746 3.2923 2.119224 0 2.366668-3.2923.239746-3.2923"/><path d="m1028.02681 231.95381c-2.13242 0-1.86408 3.2912.24634 3.2912 2.13352 0 1.86518-3.2912-.24634-3.2912"/><path d="m1065.47856 264.93027c-2.13022 0-2.04224 3.2989.08138 3.2989 2.12912 0 2.04334-3.2989-.08138-3.2989"/><path d="m1128.30292 250.09424c-.62906-.6402-1.62983-.7612-2.32818-.1397-.49049.4356-.67635 1.1726-.46849 1.7864-.19136.0011-.38272 0-.57297-.0022-.8996-.0099-1.67603.6699-1.71122 1.5862-.03299.8602.68735 1.7281 1.58474 1.7116 1.44728-.0264 3.06282.1111 4.21096-.9328 1.3241-1.2045.26064-3.0195-.71484-4.0095"/><path d="m1184.0198 234.16085c-2.12472 0-1.69582 3.2747.40361 3.2747 2.12472 0 1.69472-3.2747-.40361-3.2747"/><path d="m1232.6204 245.14149c-2.12912 0-2.20501 3.3-.07808 3.3 2.12802 0 2.205-3.3.07808-3.3"/><path d="m261.06259 278.12323c-2.124722 0-2.286386 3.2978-.159464 3.2978 2.124722 0 2.286386-3.2978.159464-3.2978"/><path d="m124.574045 322.10013c-2.129121 0-1.871779 3.2912.243045 3.2912 2.129121 0 1.870679-3.2912-.243045-3.2912"/><path d="m36.8069626 363.8701c-2.1280215 0-2.2039044 3.3-.0780825 3.3 2.1291212 0 2.2050042-3.3.0780825-3.3"/><path d="m267.77812 234.15975c-2.103827 0-2.521733 3.2769-.40141 3.2769 2.103827 0 2.522833-3.2769.40141-3.2769"/><path d="m322.611679 278.12323c-2.123623 0-2.286386 3.2978-.159464 3.2978 2.124722 0 2.286385-3.2978.159464-3.2978"/><path d="m328.050286 335.72715c-.678548-.627-1.695819-.5478-2.331476.0891l-2.198406 2.1989c-.635657.6347-.552076 1.7391.087981 2.332.678547.627 1.695818.5467 2.332575-.0891.732435-.7326 1.464871-1.4663 2.198406-2.1989.634557-.6358.552075-1.7391-.08908-2.332"/><path d="m287.359986 374.86306c-2.13132 0-2.121423 3.3011.0022 3.3011 2.13242 0 2.122522-3.3011-.0022-3.3011"/><path d="m65.5047888 458.42115c-2.1115252 0-2.4447502 3.2846-.3211278 3.2846 2.1115252 0 2.44585-3.2846.3211278-3.2846"/><path d="m735.589265 58.26612c-2.124722 0-1.694719 3.2758.403609 3.2758 2.124723 0 1.695819-3.2758-.403609-3.2758"/><path d="m883.190152 89.03928c-2.119224 0-2.366668 3.2923-.240846 3.2923 2.119223 0 2.367767-3.2923.240846-3.2923"/><path d="m988.621461 115.41937c-2.128021 0-2.203904 3.3-.076982 3.3 2.128021 0 2.203904-3.3.076982-3.3"/><path d="m98.5177146 58.26557c-2.1038269 0-2.5217329 3.2769-.4014097 3.2769 2.1038271 0 2.5228331-3.2769.4014097-3.2769"/><path d="m21.5007148 108.8274c-2.1181237 0-2.3666678 3.2923-.2397461 3.2923 2.1181236 0 2.3666677-3.2923.2397461-3.2923"/><path d="m1.71693388.25553c-2.11812366 0-2.36666776 3.2923-.23974608 3.2923 2.11812366 0 2.36666776-3.2923.23974608-3.2923" mask="url(#c)" transform="translate(0 51.4063)"/><path d="m186.283697 20.87635c-2.129121 0-2.203904 3.3-.078082 3.3 2.128021 0 2.205004-3.3.078082-3.3"/><path d="m1157.84151 31.86931c-2.13132 0-2.12253 3.3.0033 3.3 2.13022 0 2.12142-3.3-.0033-3.3"/><path d="m1263.47583 47.26447c-2.11812 0-2.36557 3.2923-.23975 3.2923 2.11813 0 2.36667-3.2923.23975-3.2923"/><path d="m815.005485 7.68548c-2.124722 0-2.286385 3.2978-.159464 3.2978 2.124722 0 2.287486-3.2978.159464-3.2978"/><path d="m628.119014 5.48548c-2.128022 0-2.203905 3.3-.078083 3.3 2.129122 0 2.205005-3.3.078083-3.3"/><path d="m2.65458302.29359c-2.10382688 0-2.5217329 3.2769-.40030998 3.2769 2.10272712 0 2.5217329-3.2769.40030998-3.2769" mask="url(#d)" transform="translate(403.609233 .8063)"/><path d="m376.925934 53.10558c-.119873-.9757-.940288-1.4355-1.838786-1.4355-.599366 0-1.197631.0011-1.795897-.0011-.898497-.0022-1.720013.4675-1.838786 1.4377-.097878.8085.536679 1.8414 1.437377 1.8392.867705-.0022 1.73431-.0011 2.600915-.0011.901797 0 1.535255-1.0296 1.435177-1.8392"/><path d="m476.565286 12.08867c-2.110425 0-2.44475 3.2857-.320028 3.2857 2.111526 0 2.444751-3.2857.320028-3.2857"/><path d="m615.011062 51.66183c-2.118124 0-2.366668 3.2923-.239746 3.2923 2.118123 0 2.366667-3.2923.239746-3.2923"/><path d="m694.186326 34.0758c-2.111525 0-2.44585 3.2846-.321128 3.2846 2.111525 0 2.44585-3.2846.321128-3.2846"/><path d="m683.074975 82.43972c-2.124722 0-2.210503 3.2989-.080282 3.2989 2.123622 0 2.210503-3.2989.080282-3.2989"/><path d="m819.361606 67.04841c-2.129121 0-2.205004 3.3-.078083 3.3 2.128022 0 2.205004-3.3.078083-3.3"/><path d="m880.991746 25.27734c-2.119223 0-2.366668 3.2923-.239746 3.2923 2.118123 0 2.366668-3.2923.239746-3.2923"/><path d="m922.435486 1.10044c-2.124722 0-1.695819 3.2758.403609 3.2758 2.124722 0 1.694719-3.2758-.403609-3.2758"/><path d="m933.788453 64.85699c-2.111526 0-2.44585 3.2857-.320028 3.2857 2.111525 0 2.44475-3.2857.320028-3.2857"/><path d="m990.94128 45.06876c-2.111526 0-2.44585 3.2857-.320028 3.2857 2.110425 0 2.44475-3.2857.320028-3.2857"/><path d="m1041.25815 75.84511c-2.13022 0-1.95756 3.2967.16167 3.2967 2.13022 0 1.95866-3.2967-.16167-3.2967"/><path d="m916.081885 187.97592c-2.129122 0-2.205005 3.3-.078083 3.3 2.128022 0 2.205004-3.3.078083-3.3"/><path d="m1030.50873 190.18175c-2.11152 0-2.44585 3.2857-.32113 3.2857 2.11153 0 2.44585-3.2857.32113-3.2857"/><g transform="translate(1311 13)"><path d="m687.269872 159.40111c-2.128022 0-1.783799 3.2835.323327 3.2835 2.128021 0 1.783799-3.2835-.323327-3.2835"/><path d="m759.769857 157.2065c-2.124722 0-1.695818 3.2758.403609 3.2758 2.124723 0 1.694719-3.2758-.403609-3.2758"/><path d="m834.547651 139.61288c-2.128022 0-1.783799 3.2835.323327 3.2835 2.128021 0 1.783799-3.2835-.323327-3.2835"/><path d="m801.534615 212.17372c-2.124722 0-1.694719 3.2758.403609 3.2758 2.124722 0 1.695819-3.2758-.403609-3.2758"/><path d="m770.760895 117.63059c-2.124722 0-1.695818 3.2758.40361 3.2758 2.124722 0 1.694719-3.2758-.40361-3.2758"/><path d="m981.786718 172.59737c-2.124722 0-1.695818 3.2758.40361 3.2758 2.124722 0 1.694718-3.2758-.40361-3.2758"/><path d="m1006.36894 282.53071c-2.10383 0-2.52283 3.2769-.40031 3.2769 2.10273 0 2.52173-3.2769.40031-3.2769"/><path d="m1127.2289 214.36723c-2.11152 0-2.44585 3.2857-.32003 3.2857 2.11043 0 2.44475-3.2857.32003-3.2857"/><path d="m1221.70986 128.61563c-2.11812 0-2.36557 3.2923-.23974 3.2923 2.11922 0 2.36776-3.2923.23974-3.2923"/><path d="m1303.08408 234.15546c-2.11152 0-2.44585 3.2857-.32113 3.2857 2.11153 0 2.44585-3.2857.32113-3.2857"/><path d="m1.93809415.20768c-2.12912119 0-2.20500413 3.3-.07808244 3.3 2.12802143 0 2.20500412-3.3.07808244-3.3" mask="url(#e)" transform="translate(1329.600989 124.0063)"/><path d="m1074.4323 34.07195c-2.11922 0-2.36666 3.2923-.24084 3.2923 2.11922 0 2.36777-3.2923.24084-3.2923"/><path d="m1089.61835 122.01772c-2.13022 0-1.95756 3.2956.16166 3.2956 2.13022 0 1.95866-3.2956-.16166-3.2956"/><path d="m1144.10109 101.79829c-.0011-.8987-.57957-1.6973-1.52536-1.7655-.84791-.0616-1.764.6259-1.7651 1.5257-.0011.7469-.0022 1.4938-.0022 2.2396 0 .8987.63895 1.6841 1.56824 1.7281.86551.0407 1.72772-.6699 1.72772-1.5697 0-.7194-.0022-1.4388-.0033-2.1582"/><path d="m1126.86697 141.81618c-2.12472 0-1.69582 3.2747.40361 3.2747 2.12362 0 1.69472-3.2747-.40361-3.2747"/><path d="m1175.58898 155.00276c-2.11152 0-2.44585 3.2857-.32112 3.2857 2.11152 0 2.44585-3.2857.32112-3.2857"/><path d="m1091.69534 166.00166c-2.12472 0-1.69472 3.2758.40361 3.2758 2.12472 0 1.69582-3.2758-.40361-3.2758"/><path d="m1065.63956 97.83389c-2.11922 0-2.36667 3.2923-.23975 3.2923 2.11813 0 2.36667-3.2923.23975-3.2923"/><path d="m1107.48493 86.84841c-2.10273 0-2.52173 3.2769-.40031 3.2769 2.10273 0 2.52283-3.2769.40031-3.2769"/><path d="m1122.83209 113.22795c-2.11153 0-2.44475 3.2857-.32003 3.2857 2.11153 0 2.44585-3.2857.32003-3.2857"/><path d="m296.354534 122.0274c-2.103827 0-2.521733 3.2769-.40141 3.2769 2.103827 0 2.522832-3.2769.40141-3.2769"/><path d="m258.582758 144.01453c-2.123622 0-1.694719 3.2758.404709 3.2758 2.123622 0 1.694719-3.2758-.404709-3.2758"/><path d="m225.972012 183.58604c-2.110426 0-2.44475 3.2846-.320028 3.2846 2.111525 0 2.44475-3.2846.320028-3.2846"/><path d="m188.643216 141.81563c-2.102727 0-2.521732 3.2769-.400309 3.2769 2.102727 0 2.521732-3.2769.400309-3.2769"/><path d="m228.008754 108.82311c-2.131321 0-2.121423 3.3.003299 3.3 2.131321 0 2.121423-3.3-.003299-3.3"/><path d="m256.787082 86.84841c-2.102727 0-2.521733 3.2769-.40031 3.2769 2.102727 0 2.521733-3.2769.40031-3.2769"/><path d="m263.341608 122.02311c-2.111525 0-2.44475 3.2846-.321128 3.2846 2.111525 0 2.44585-3.2846.321128-3.2846"/><path d="m221.57564 146.20859c-2.110425 0-2.44475 3.2846-.320028 3.2846 2.111526 0 2.444751-3.2846.320028-3.2846"/><path d="m127.013626 209.96679c-2.118123 0-2.365568 3.2923-.239746 3.2923 2.118124 0 2.366668-3.2923.239746-3.2923"/><path d="m76.4147753 271.52697c-2.1236225 0-2.2863859 3.2978-.1594642 3.2978 2.1247222 0 2.2863858-3.2978.1594642-3.2978"/><path d="m182.008738 251.74523c-2.111525 0-2.445849 3.2846-.321127 3.2846 2.111525 0 2.44585-3.2846.321127-3.2846"/><path d="m98.4774636 141.81079c-2.1115251 0-2.4447502 3.2857-.320028 3.2857 2.1104254 0 2.4447504-3.2857.320028-3.2857"/><path d="m10.2282498 218.76514c-2.12802144 0-1.78379885 3.2846.3233273 3.2846 2.1280214 0 1.7837988-3.2846-.3233273-3.2846"/><path d="m300.630042 218.75865c-2.124722 0-2.286386 3.2978-.159464 3.2978 2.124722 0 2.286386-3.2978.159464-3.2978"/><path d="m401.705781 185.77746c-2.128021 0-2.203904 3.3-.078082 3.3 2.129121 0 2.205004-3.3.078082-3.3"/><path d="m443.471199 104.42586c-.882002-.0198-1.68922.7117-1.688121 1.6115 0 .7194.0011 1.4388.0011 2.1582.0011.8987.638957 1.6841 1.569347 1.7281.865506.0407 1.726612-.6699 1.726612-1.5697.0011-.7458.0011-1.4927.0022-2.2385 0-.8998-.697244-1.6676-1.611138-1.6896"/><path d="m584.11494 119.81618c-2.131321 0-2.121423 3.3011.003299 3.3011 2.131321 0 2.121423-3.3011-.003299-3.3011"/><path d="m645.865943 69.25908c-2.102727 0-2.521733 3.2769-.40031 3.2769 2.102727 0 2.521733-3.2769.40031-3.2769"/><path d="m542.430134 58.25534c-2.123622 0-2.286386 3.2967-.158364 3.2967 2.123622 0 2.286386-3.2967.158364-3.2967"/><path d="m854.331322 271.53346c-2.128022 0-1.783799 3.2846.323327 3.2846 2.128021 0 1.783799-3.2846-.323327-3.2846"/><path d="m742.546411 260.53984c-2.111526 0-2.44585 3.2846-.321128 3.2846 2.111525 0 2.44585-3.2846.321128-3.2846"/><path d="m777.67625 306.70871c-2.118123 0-2.365568 3.2923-.239746 3.2923 2.119224 0 2.366668-3.2923.239746-3.2923"/><path d="m942.297569 273.72862c-2.13242 0-1.865181 3.2912.246345 3.2912 2.13242 0 1.86518-3.2912-.246345-3.2912"/><path d="m924.633891 308.91575c-2.124722 0-1.695818 3.2758.40361 3.2758 2.124722 0 1.694718-3.2758-.40361-3.2758"/><path d="m962.324065 231.95337c-2.118123 0-2.365568 3.2923-.239746 3.2923 2.119224 0 2.366668-3.2923.239746-3.2923"/><path d="m1028.02681 231.95381c-2.13242 0-1.86408 3.2912.24634 3.2912 2.13352 0 1.86518-3.2912-.24634-3.2912"/><path d="m1065.47856 264.93027c-2.13022 0-2.04224 3.2989.08138 3.2989 2.12912 0 2.04334-3.2989-.08138-3.2989"/><path d="m1128.30292 250.09424c-.62906-.6402-1.62983-.7612-2.32818-.1397-.49049.4356-.67635 1.1726-.46849 1.7864-.19136.0011-.38272 0-.57297-.0022-.8996-.0099-1.67603.6699-1.71122 1.5862-.03299.8602.68735 1.7281 1.58474 1.7116 1.44728-.0264 3.06282.1111 4.21096-.9328 1.3241-1.2045.26064-3.0195-.71484-4.0095"/><path d="m1184.0198 234.16085c-2.12472 0-1.69582 3.2747.40361 3.2747 2.12472 0 1.69472-3.2747-.40361-3.2747"/><path d="m1232.6204 245.14149c-2.12912 0-2.20501 3.3-.07808 3.3 2.12802 0 2.205-3.3.07808-3.3"/><path d="m261.06259 278.12323c-2.124722 0-2.286386 3.2978-.159464 3.2978 2.124722 0 2.286386-3.2978.159464-3.2978"/><path d="m124.574045 322.10013c-2.129121 0-1.871779 3.2912.243045 3.2912 2.129121 0 1.870679-3.2912-.243045-3.2912"/><path d="m36.8069626 363.8701c-2.1280215 0-2.2039044 3.3-.0780825 3.3 2.1291212 0 2.2050042-3.3.0780825-3.3"/><path d="m267.77812 234.15975c-2.103827 0-2.521733 3.2769-.40141 3.2769 2.103827 0 2.522833-3.2769.40141-3.2769"/><path d="m322.611679 278.12323c-2.123623 0-2.286386 3.2978-.159464 3.2978 2.124722 0 2.286385-3.2978.159464-3.2978"/><path d="m328.050286 335.72715c-.678548-.627-1.695819-.5478-2.331476.0891l-2.198406 2.1989c-.635657.6347-.552076 1.7391.087981 2.332.678547.627 1.695818.5467 2.332575-.0891.732435-.7326 1.464871-1.4663 2.198406-2.1989.634557-.6358.552075-1.7391-.08908-2.332"/><path d="m287.359986 374.86306c-2.13132 0-2.121423 3.3011.0022 3.3011 2.13242 0 2.122522-3.3011-.0022-3.3011"/><path d="m65.5047888 458.42115c-2.1115252 0-2.4447502 3.2846-.3211278 3.2846 2.1115252 0 2.44585-3.2846.3211278-3.2846"/><path d="m735.589265 58.26612c-2.124722 0-1.694719 3.2758.403609 3.2758 2.124723 0 1.695819-3.2758-.403609-3.2758"/><path d="m883.190152 89.03928c-2.119224 0-2.366668 3.2923-.240846 3.2923 2.119223 0 2.367767-3.2923.240846-3.2923"/><path d="m988.621461 115.41937c-2.128021 0-2.203904 3.3-.076982 3.3 2.128021 0 2.203904-3.3.076982-3.3"/><path d="m98.5177146 58.26557c-2.1038269 0-2.5217329 3.2769-.4014097 3.2769 2.1038271 0 2.5228331-3.2769.4014097-3.2769"/><path d="m21.5007148 108.8274c-2.1181237 0-2.3666678 3.2923-.2397461 3.2923 2.1181236 0 2.3666677-3.2923.2397461-3.2923"/><path d="m1.71693388.25553c-2.11812366 0-2.36666776 3.2923-.23974608 3.2923 2.11812366 0 2.36666776-3.2923.23974608-3.2923" mask="url(#f)" transform="translate(0 51.4063)"/><path d="m186.283697 20.87635c-2.129121 0-2.203904 3.3-.078082 3.3 2.128021 0 2.205004-3.3.078082-3.3"/><path d="m1157.84151 31.86931c-2.13132 0-2.12253 3.3.0033 3.3 2.13022 0 2.12142-3.3-.0033-3.3"/><path d="m1263.47583 47.26447c-2.11812 0-2.36557 3.2923-.23975 3.2923 2.11813 0 2.36667-3.2923.23975-3.2923"/><path d="m815.005485 7.68548c-2.124722 0-2.286385 3.2978-.159464 3.2978 2.124722 0 2.287486-3.2978.159464-3.2978"/><path d="m628.119014 5.48548c-2.128022 0-2.203905 3.3-.078083 3.3 2.129122 0 2.205005-3.3.078083-3.3"/><path d="m2.65458302.29359c-2.10382688 0-2.5217329 3.2769-.40030998 3.2769 2.10272712 0 2.5217329-3.2769.40030998-3.2769" mask="url(#g)" transform="translate(403.609233 .8063)"/><path d="m376.925934 53.10558c-.119873-.9757-.940288-1.4355-1.838786-1.4355-.599366 0-1.197631.0011-1.795897-.0011-.898497-.0022-1.720013.4675-1.838786 1.4377-.097878.8085.536679 1.8414 1.437377 1.8392.867705-.0022 1.73431-.0011 2.600915-.0011.901797 0 1.535255-1.0296 1.435177-1.8392"/><path d="m476.565286 12.08867c-2.110425 0-2.44475 3.2857-.320028 3.2857 2.111526 0 2.444751-3.2857.320028-3.2857"/><path d="m615.011062 51.66183c-2.118124 0-2.366668 3.2923-.239746 3.2923 2.118123 0 2.366667-3.2923.239746-3.2923"/><path d="m694.186326 34.0758c-2.111525 0-2.44585 3.2846-.321128 3.2846 2.111525 0 2.44585-3.2846.321128-3.2846"/><path d="m683.074975 82.43972c-2.124722 0-2.210503 3.2989-.080282 3.2989 2.123622 0 2.210503-3.2989.080282-3.2989"/><path d="m819.361606 67.04841c-2.129121 0-2.205004 3.3-.078083 3.3 2.128022 0 2.205004-3.3.078083-3.3"/><path d="m880.991746 25.27734c-2.119223 0-2.366668 3.2923-.239746 3.2923 2.118123 0 2.366668-3.2923.239746-3.2923"/><path d="m922.435486 1.10044c-2.124722 0-1.695819 3.2758.403609 3.2758 2.124722 0 1.694719-3.2758-.403609-3.2758"/><path d="m933.788453 64.85699c-2.111526 0-2.44585 3.2857-.320028 3.2857 2.111525 0 2.44475-3.2857.320028-3.2857"/><path d="m990.94128 45.06876c-2.111526 0-2.44585 3.2857-.320028 3.2857 2.110425 0 2.44475-3.2857.320028-3.2857"/><path d="m1041.25815 75.84511c-2.13022 0-1.95756 3.2967.16167 3.2967 2.13022 0 1.95866-3.2967-.16167-3.2967"/><path d="m916.081885 187.97592c-2.129122 0-2.205005 3.3-.078083 3.3 2.128022 0 2.205004-3.3.078083-3.3"/><path d="m1030.50873 190.18175c-2.11152 0-2.44585 3.2857-.32113 3.2857 2.11153 0 2.44585-3.2857.32113-3.2857"/></g></g></g></svg>