<?xml version="1.0" encoding="UTF-8"?>
<svg width="2513px" height="473px" viewBox="0 0 2513 473" version="1.1" xmlns="http://www.w3.org/2000/svg" xmlns:xlink="http://www.w3.org/1999/xlink">
    <!-- Generator: Sketch 49.2 (51160) - http://www.bohemiancoding.com/sketch -->
    <title>ETOILES</title>
    <desc>Created with Sketch.</desc>
    <defs>
        <rect id="path-1" x="0" y="0" width="2560" height="504"></rect>
        <polygon id="path-3" points="0.302514792 0.20768 3.49501401 0.20768 3.49501401 3.50768 0.302514792 3.50768"></polygon>
        <polygon id="path-5" points="0 0.25553 3.19420644 0.25553 3.19420644 3.54783 0 3.54783"></polygon>
        <polygon id="path-7" points="0.855200407 0.2937 4.05328626 0.2937 4.05328626 3.57049 0.855200407 3.57049"></polygon>
        <polygon id="path-9" points="0.302514792 0.20768 3.49501401 0.20768 3.49501401 3.50768 0.302514792 3.50768"></polygon>
        <polygon id="path-11" points="0 0.25553 3.19420644 0.25553 3.19420644 3.54783 0 3.54783"></polygon>
        <polygon id="path-13" points="0.855200407 0.2937 4.05328626 0.2937 4.05328626 3.57049 0.855200407 3.57049"></polygon>
    </defs>
    <g id="Symbols" stroke="none" stroke-width="1" fill="none" fill-rule="evenodd">
        <g id="fond-header" transform="translate(-20.000000, -188.000000)">
            <g transform="translate(0.000000, 185.000000)" id="ETOILES">
                <g transform="translate(0.000000, 3.000000)">
                    <g>
                        <mask id="mask-2" fill="white">
                            <use xlink:href="#path-1"></use>
                        </mask>
                        <g id="Mask"></g>
                        <g mask="url(#mask-2)" id="Page-1" opacity="0.419999987">
                            <g transform="translate(-43.000000, -2.000000)">
                                <g>
                                    <path d="M687.269872,159.40111 C685.14185,159.40111 685.486073,162.68461 687.593199,162.68461 C689.72122,162.68461 689.376998,159.40111 687.269872,159.40111" id="Fill-1" fill="#FFFFFF"></path>
                                    <path d="M759.769857,157.2065 C757.645135,157.2065 758.074039,160.4823 760.173466,160.4823 C762.298189,160.4823 761.868185,157.2065 759.769857,157.2065" id="Fill-3" fill="#FFFFFF"></path>
                                    <path d="M834.547651,139.61288 C832.419629,139.61288 832.763852,142.89638 834.870978,142.89638 C836.998999,142.89638 836.654777,139.61288 834.547651,139.61288" id="Fill-5" fill="#FFFFFF"></path>
                                    <path d="M801.534615,212.17372 C799.409893,212.17372 799.839896,215.44952 801.938224,215.44952 C804.062946,215.44952 803.634043,212.17372 801.534615,212.17372" id="Fill-7" fill="#FFFFFF"></path>
                                    <path d="M770.760895,117.63059 C768.636173,117.63059 769.065077,120.90639 771.164505,120.90639 C773.289227,120.90639 772.859224,117.63059 770.760895,117.63059" id="Fill-9" fill="#FFFFFF"></path>
                                    <path d="M981.786718,172.59737 C979.661996,172.59737 980.0909,175.87317 982.190328,175.87317 C984.31505,175.87317 983.885046,172.59737 981.786718,172.59737" id="Fill-11" fill="#FFFFFF"></path>
                                    <path d="M1006.36894,282.53071 C1004.26511,282.53071 1003.84611,285.80761 1005.96863,285.80761 C1008.07136,285.80761 1008.49036,282.53071 1006.36894,282.53071" id="Fill-13" fill="#FFFFFF"></path>
                                    <path d="M1127.2289,214.36723 C1125.11738,214.36723 1124.78305,217.65293 1126.90887,217.65293 C1129.0193,217.65293 1129.35362,214.36723 1127.2289,214.36723" id="Fill-15" fill="#FFFFFF"></path>
                                    <path d="M1221.70986,128.61563 C1219.59174,128.61563 1219.34429,131.90793 1221.47012,131.90793 C1223.58934,131.90793 1223.83788,128.61563 1221.70986,128.61563" id="Fill-17" fill="#FFFFFF"></path>
                                    <path d="M1303.08408,234.15546 C1300.97256,234.15546 1300.63823,237.44116 1302.76295,237.44116 C1304.87448,237.44116 1305.2088,234.15546 1303.08408,234.15546" id="Fill-19" fill="#FFFFFF"></path>
                                    <g id="Group-23" transform="translate(1329.600989, 124.006300)">
                                        <mask id="mask-4" fill="white">
                                            <use xlink:href="#path-3"></use>
                                        </mask>
                                        <g id="Clip-22"></g>
                                        <path d="M1.93809415,0.20768 C-0.19102704,0.20768 -0.266909975,3.50768 1.86001171,3.50768 C3.98803314,3.50768 4.06501583,0.20768 1.93809415,0.20768" id="Fill-21" fill="#FFFFFF" mask="url(#mask-4)"></path>
                                    </g>
                                    <path d="M1074.4323,34.07195 C1072.31308,34.07195 1072.06564,37.36425 1074.19146,37.36425 C1076.31068,37.36425 1076.55923,34.07195 1074.4323,34.07195" id="Fill-24" fill="#FFFFFF"></path>
                                    <path d="M1089.61835,122.01772 C1087.48813,122.01772 1087.66079,125.31332 1089.78001,125.31332 C1091.91023,125.31332 1091.73867,122.01772 1089.61835,122.01772" id="Fill-26" fill="#FFFFFF"></path>
                                    <path d="M1144.10109,101.79829 C1144.09999,100.89959 1143.52152,100.10099 1142.57573,100.03279 C1141.72782,99.97119 1140.81173,100.65869 1140.81063,101.55849 C1140.80953,102.30539 1140.80843,103.05229 1140.80843,103.79809 C1140.80843,104.69679 1141.44738,105.48219 1142.37667,105.52619 C1143.24218,105.56689 1144.10439,104.85629 1144.10439,103.95649 C1144.10439,103.23709 1144.10219,102.51769 1144.10109,101.79829" id="Fill-28" fill="#FFFFFF"></path>
                                    <path d="M1126.86697,141.81618 C1124.74225,141.81618 1125.17115,145.09088 1127.27058,145.09088 C1129.3942,145.09088 1128.9653,141.81618 1126.86697,141.81618" id="Fill-30" fill="#FFFFFF"></path>
                                    <path d="M1175.58898,155.00276 C1173.47746,155.00276 1173.14313,158.28846 1175.26786,158.28846 C1177.37938,158.28846 1177.71371,155.00276 1175.58898,155.00276" id="Fill-32" fill="#FFFFFF"></path>
                                    <path d="M1091.69534,166.00166 C1089.57062,166.00166 1090.00062,169.27746 1092.09895,169.27746 C1094.22367,169.27746 1093.79477,166.00166 1091.69534,166.00166" id="Fill-34" fill="#FFFFFF"></path>
                                    <path d="M1065.63956,97.83389 C1063.52034,97.83389 1063.27289,101.12619 1065.39981,101.12619 C1067.51794,101.12619 1067.76648,97.83389 1065.63956,97.83389" id="Fill-36" fill="#FFFFFF"></path>
                                    <path d="M1107.48493,86.84841 C1105.3822,86.84841 1104.9632,90.12531 1107.08462,90.12531 C1109.18735,90.12531 1109.60745,86.84841 1107.48493,86.84841" id="Fill-38" fill="#FFFFFF"></path>
                                    <path d="M1122.83209,113.22795 C1120.72056,113.22795 1120.38734,116.51365 1122.51206,116.51365 C1124.62359,116.51365 1124.95791,113.22795 1122.83209,113.22795" id="Fill-40" fill="#FFFFFF"></path>
                                    <path d="M296.354534,122.0274 C294.250707,122.0274 293.832801,125.3043 295.953124,125.3043 C298.056951,125.3043 298.475956,122.0274 296.354534,122.0274" id="Fill-42" fill="#FFFFFF"></path>
                                    <path d="M258.582758,144.01453 C256.459136,144.01453 256.888039,147.29033 258.987467,147.29033 C261.111089,147.29033 260.682186,144.01453 258.582758,144.01453" id="Fill-44" fill="#FFFFFF"></path>
                                    <path d="M225.972012,183.58604 C223.861586,183.58604 223.527262,186.87064 225.651984,186.87064 C227.763509,186.87064 228.096734,183.58604 225.972012,183.58604" id="Fill-46" fill="#FFFFFF"></path>
                                    <path d="M188.643216,141.81563 C186.540489,141.81563 186.121484,145.09253 188.242907,145.09253 C190.345634,145.09253 190.764639,141.81563 188.643216,141.81563" id="Fill-48" fill="#FFFFFF"></path>
                                    <path d="M228.008754,108.82311 C225.877433,108.82311 225.887331,112.12311 228.012053,112.12311 C230.143374,112.12311 230.133476,108.82311 228.008754,108.82311" id="Fill-50" fill="#FFFFFF"></path>
                                    <path d="M256.787082,86.84841 C254.684355,86.84841 254.265349,90.12531 256.386772,90.12531 C258.489499,90.12531 258.908505,86.84841 256.787082,86.84841" id="Fill-52" fill="#FFFFFF"></path>
                                    <path d="M263.341608,122.02311 C261.230083,122.02311 260.896858,125.30771 263.02048,125.30771 C265.132005,125.30771 265.46633,122.02311 263.341608,122.02311" id="Fill-54" fill="#FFFFFF"></path>
                                    <path d="M221.57564,146.20859 C219.465215,146.20859 219.13089,149.49319 221.255612,149.49319 C223.367138,149.49319 223.700363,146.20859 221.57564,146.20859" id="Fill-56" fill="#FFFFFF"></path>
                                    <path d="M127.013626,209.96679 C124.895503,209.96679 124.648058,213.25909 126.77388,213.25909 C128.892004,213.25909 129.140548,209.96679 127.013626,209.96679" id="Fill-58" fill="#FFFFFF"></path>
                                    <path d="M76.4147753,271.52697 C74.2911528,271.52697 74.1283894,274.82477 76.2553111,274.82477 C78.3800333,274.82477 78.5416969,271.52697 76.4147753,271.52697" id="Fill-60" fill="#FFFFFF"></path>
                                    <path d="M182.008738,251.74523 C179.897213,251.74523 179.562889,255.02983 181.687611,255.02983 C183.799136,255.02983 184.133461,251.74523 182.008738,251.74523" id="Fill-62" fill="#FFFFFF"></path>
                                    <path d="M98.4774636,141.81079 C96.3659385,141.81079 96.0327134,145.09649 98.1574356,145.09649 C100.267861,145.09649 100.602186,141.81079 98.4774636,141.81079" id="Fill-64" fill="#FFFFFF"></path>
                                    <path d="M10.2282498,218.76514 C8.10022836,218.76514 8.44445095,222.04974 10.5515771,222.04974 C12.6795985,222.04974 12.3353759,218.76514 10.2282498,218.76514" id="Fill-66" fill="#FFFFFF"></path>
                                    <path d="M300.630042,218.75865 C298.50532,218.75865 298.343656,222.05645 300.470578,222.05645 C302.5953,222.05645 302.756964,218.75865 300.630042,218.75865" id="Fill-68" fill="#FFFFFF"></path>
                                    <path d="M401.705781,185.77746 C399.57776,185.77746 399.501877,189.07746 401.627699,189.07746 C403.75682,189.07746 403.832703,185.77746 401.705781,185.77746" id="Fill-70" fill="#FFFFFF"></path>
                                    <path d="M443.471199,104.42586 C442.589197,104.40606 441.781979,105.13756 441.783078,106.03736 C441.783078,106.75676 441.784178,107.47616 441.784178,108.19556 C441.785278,109.09426 442.423135,109.87966 443.353525,109.92366 C444.219031,109.96436 445.080137,109.25376 445.080137,108.35396 C445.081237,107.60816 445.081237,106.86126 445.082337,106.11546 C445.082337,105.21566 444.385093,104.44786 443.471199,104.42586" id="Fill-72" fill="#FFFFFF"></path>
                                    <path d="M584.11494,119.81618 C581.983619,119.81618 581.993517,123.11728 584.118239,123.11728 C586.24956,123.11728 586.239662,119.81618 584.11494,119.81618" id="Fill-74" fill="#FFFFFF"></path>
                                    <path d="M645.865943,69.25908 C643.763216,69.25908 643.34421,72.53598 645.465633,72.53598 C647.56836,72.53598 647.987366,69.25908 645.865943,69.25908" id="Fill-76" fill="#FFFFFF"></path>
                                    <path d="M542.430134,58.25534 C540.306512,58.25534 540.143748,61.55204 542.27177,61.55204 C544.395392,61.55204 544.558156,58.25534 542.430134,58.25534" id="Fill-78" fill="#FFFFFF"></path>
                                    <path d="M854.331322,271.53346 C852.2033,271.53346 852.547523,274.81806 854.654649,274.81806 C856.78267,274.81806 856.438448,271.53346 854.331322,271.53346" id="Fill-80" fill="#FFFFFF"></path>
                                    <path d="M742.546411,260.53984 C740.434885,260.53984 740.100561,263.82444 742.225283,263.82444 C744.336808,263.82444 744.671133,260.53984 742.546411,260.53984" id="Fill-82" fill="#FFFFFF"></path>
                                    <path d="M777.67625,306.70871 C775.558127,306.70871 775.310682,310.00101 777.436504,310.00101 C779.555728,310.00101 779.803172,306.70871 777.67625,306.70871" id="Fill-84" fill="#FFFFFF"></path>
                                    <path d="M942.297569,273.72862 C940.165149,273.72862 940.432388,277.01982 942.543914,277.01982 C944.676334,277.01982 944.409094,273.72862 942.297569,273.72862" id="Fill-86" fill="#FFFFFF"></path>
                                    <path d="M924.633891,308.91575 C922.509169,308.91575 922.938073,312.19155 925.037501,312.19155 C927.162223,312.19155 926.732219,308.91575 924.633891,308.91575" id="Fill-88" fill="#FFFFFF"></path>
                                    <path d="M962.324065,231.95337 C960.205942,231.95337 959.958497,235.24567 962.084319,235.24567 C964.203543,235.24567 964.450987,231.95337 962.324065,231.95337" id="Fill-90" fill="#FFFFFF"></path>
                                    <path d="M1028.02681,231.95381 C1025.89439,231.95381 1026.16273,235.24501 1028.27315,235.24501 C1030.40667,235.24501 1030.13833,231.95381 1028.02681,231.95381" id="Fill-92" fill="#FFFFFF"></path>
                                    <path d="M1065.47856,264.93027 C1063.34834,264.93027 1063.43632,268.22917 1065.55994,268.22917 C1067.68906,268.22917 1067.60328,264.93027 1065.47856,264.93027" id="Fill-94" fill="#FFFFFF"></path>
                                    <path d="M1128.30292,250.09424 C1127.67386,249.45404 1126.67309,249.33304 1125.97474,249.95454 C1125.48425,250.39014 1125.29839,251.12714 1125.50625,251.74094 C1125.31489,251.74204 1125.12353,251.74094 1124.93328,251.73874 C1124.03368,251.72884 1123.25725,252.40864 1123.22206,253.32494 C1123.18907,254.18514 1123.90941,255.05304 1124.8068,255.03654 C1126.25408,255.01014 1127.86962,255.14764 1129.01776,254.10374 C1130.34186,252.89924 1129.2784,251.08424 1128.30292,250.09424" id="Fill-96" fill="#FFFFFF"></path>
                                    <path d="M1184.0198,234.16085 C1181.89508,234.16085 1182.32398,237.43555 1184.42341,237.43555 C1186.54813,237.43555 1186.11813,234.16085 1184.0198,234.16085" id="Fill-98" fill="#FFFFFF"></path>
                                    <path d="M1232.6204,245.14149 C1230.49128,245.14149 1230.41539,248.44149 1232.54232,248.44149 C1234.67034,248.44149 1234.74732,245.14149 1232.6204,245.14149" id="Fill-100" fill="#FFFFFF"></path>
                                    <path d="M261.06259,278.12323 C258.937868,278.12323 258.776204,281.42103 260.903126,281.42103 C263.027848,281.42103 263.189512,278.12323 261.06259,278.12323" id="Fill-102" fill="#FFFFFF"></path>
                                    <path d="M124.574045,322.10013 C122.444924,322.10013 122.702266,325.39133 124.81709,325.39133 C126.946211,325.39133 126.687769,322.10013 124.574045,322.10013" id="Fill-104" fill="#FFFFFF"></path>
                                    <path d="M36.8069626,363.8701 C34.6789411,363.8701 34.6030582,367.1701 36.7288801,367.1701 C38.8580013,367.1701 38.9338843,363.8701 36.8069626,363.8701" id="Fill-106" fill="#FFFFFF"></path>
                                    <path d="M267.77812,234.15975 C265.674293,234.15975 265.256387,237.43665 267.37671,237.43665 C269.480537,237.43665 269.899543,234.15975 267.77812,234.15975" id="Fill-108" fill="#FFFFFF"></path>
                                    <path d="M322.611679,278.12323 C320.488056,278.12323 320.325293,281.42103 322.452215,281.42103 C324.576937,281.42103 324.7386,278.12323 322.611679,278.12323" id="Fill-110" fill="#FFFFFF"></path>
                                    <path d="M328.050286,335.72715 C327.371738,335.10015 326.354467,335.17935 325.71881,335.81625 L323.520404,338.01515 C322.884747,338.64985 322.968328,339.75425 323.608385,340.34715 C324.286932,340.97415 325.304203,340.89385 325.94096,340.25805 C326.673395,339.52545 327.405831,338.79175 328.139366,338.05915 C328.773923,337.42335 328.691441,336.32005 328.050286,335.72715" id="Fill-112" fill="#FFFFFF"></path>
                                    <path d="M287.359986,374.86306 C285.228666,374.86306 285.238563,378.16416 287.362186,378.16416 C289.494606,378.16416 289.484708,374.86306 287.359986,374.86306" id="Fill-114" fill="#FFFFFF"></path>
                                    <path d="M65.5047888,458.42115 C63.3932636,458.42115 63.0600386,461.70575 65.183661,461.70575 C67.2951862,461.70575 67.629511,458.42115 65.5047888,458.42115" id="Fill-116" fill="#FFFFFF"></path>
                                    <path d="M735.589265,58.26612 C733.464543,58.26612 733.894546,61.54192 735.992874,61.54192 C738.117597,61.54192 737.688693,58.26612 735.589265,58.26612" id="Fill-118" fill="#FFFFFF"></path>
                                    <path d="M883.190152,89.03928 C881.070928,89.03928 880.823484,92.33158 882.949306,92.33158 C885.068529,92.33158 885.317073,89.03928 883.190152,89.03928" id="Fill-120" fill="#FFFFFF"></path>
                                    <path d="M988.621461,115.41937 C986.49344,115.41937 986.417557,118.71937 988.544479,118.71937 C990.6725,118.71937 990.748383,115.41937 988.621461,115.41937" id="Fill-122" fill="#FFFFFF"></path>
                                    <path d="M98.5177146,58.26557 C96.4138877,58.26557 95.9959817,61.54247 98.1163049,61.54247 C100.220132,61.54247 100.639138,58.26557 98.5177146,58.26557" id="Fill-124" fill="#FFFFFF"></path>
                                    <path d="M21.5007148,108.8274 C19.3825911,108.8274 19.134047,112.1197 21.2609687,112.1197 C23.3790923,112.1197 23.6276364,108.8274 21.5007148,108.8274" id="Fill-126" fill="#FFFFFF"></path>
                                    <g id="Group-130" transform="translate(0.000000, 51.406300)">
                                        <mask id="mask-6" fill="white">
                                            <use xlink:href="#path-5"></use>
                                        </mask>
                                        <g id="Clip-129"></g>
                                        <path d="M1.71693388,0.25553 C-0.401189777,0.25553 -0.649733883,3.54783 1.4771878,3.54783 C3.59531146,3.54783 3.84385556,0.25553 1.71693388,0.25553" id="Fill-128" fill="#FFFFFF" mask="url(#mask-6)"></path>
                                    </g>
                                    <path d="M186.283697,20.87635 C184.154576,20.87635 184.079793,24.17635 186.205615,24.17635 C188.333636,24.17635 188.410619,20.87635 186.283697,20.87635" id="Fill-131" fill="#FFFFFF"></path>
                                    <path d="M1157.84151,31.86931 C1155.71019,31.86931 1155.71898,35.16931 1157.84481,35.16931 C1159.97503,35.16931 1159.96623,31.86931 1157.84151,31.86931" id="Fill-133" fill="#FFFFFF"></path>
                                    <path d="M1263.47583,47.26447 C1261.35771,47.26447 1261.11026,50.55677 1263.23608,50.55677 C1265.35421,50.55677 1265.60275,47.26447 1263.47583,47.26447" id="Fill-135" fill="#FFFFFF"></path>
                                    <path d="M815.005485,7.68548 C812.880763,7.68548 812.7191,10.98328 814.846021,10.98328 C816.970743,10.98328 817.133507,7.68548 815.005485,7.68548" id="Fill-137" fill="#FFFFFF"></path>
                                    <path d="M628.119014,5.48548 C625.990992,5.48548 625.915109,8.78548 628.040931,8.78548 C630.170053,8.78548 630.245936,5.48548 628.119014,5.48548" id="Fill-139" fill="#FFFFFF"></path>
                                    <g id="Group-143" transform="translate(403.609233, 0.806300)">
                                        <mask id="mask-8" fill="white">
                                            <use xlink:href="#path-7"></use>
                                        </mask>
                                        <g id="Clip-142"></g>
                                        <path d="M2.65458302,0.29359 C0.550756142,0.29359 0.132850124,3.57049 2.25427304,3.57049 C4.35700016,3.57049 4.77600594,0.29359 2.65458302,0.29359" id="Fill-141" fill="#FFFFFF" mask="url(#mask-8)"></path>
                                    </g>
                                    <path d="M376.925934,53.10558 C376.806061,52.12988 375.985646,51.67008 375.087148,51.67008 C374.487782,51.67008 373.889517,51.67118 373.291251,51.66898 C372.392754,51.66678 371.571238,52.13648 371.452465,53.10668 C371.354587,53.91518 371.989144,54.94808 372.889842,54.94588 C373.757547,54.94368 374.624152,54.94478 375.490757,54.94478 C376.392554,54.94478 377.026012,53.91518 376.925934,53.10558" id="Fill-144" fill="#FFFFFF"></path>
                                    <path d="M476.565286,12.08867 C474.454861,12.08867 474.120536,15.37437 476.245258,15.37437 C478.356784,15.37437 478.690009,12.08867 476.565286,12.08867" id="Fill-146" fill="#FFFFFF"></path>
                                    <path d="M615.011062,51.66183 C612.892938,51.66183 612.644394,54.95413 614.771316,54.95413 C616.889439,54.95413 617.137983,51.66183 615.011062,51.66183" id="Fill-148" fill="#FFFFFF"></path>
                                    <path d="M694.186326,34.0758 C692.074801,34.0758 691.740476,37.3604 693.865198,37.3604 C695.976723,37.3604 696.311048,34.0758 694.186326,34.0758" id="Fill-150" fill="#FFFFFF"></path>
                                    <path d="M683.074975,82.43972 C680.950253,82.43972 680.864472,85.73862 682.994693,85.73862 C685.118315,85.73862 685.205196,82.43972 683.074975,82.43972" id="Fill-152" fill="#FFFFFF"></path>
                                    <path d="M819.361606,67.04841 C817.232485,67.04841 817.156602,70.34841 819.283523,70.34841 C821.411545,70.34841 821.488527,67.04841 819.361606,67.04841" id="Fill-154" fill="#FFFFFF"></path>
                                    <path d="M880.991746,25.27734 C878.872523,25.27734 878.625078,28.56964 880.752,28.56964 C882.870123,28.56964 883.118668,25.27734 880.991746,25.27734" id="Fill-156" fill="#FFFFFF"></path>
                                    <path d="M922.435486,1.10044 C920.310764,1.10044 920.739667,4.37624 922.839095,4.37624 C924.963817,4.37624 924.533814,1.10044 922.435486,1.10044" id="Fill-158" fill="#FFFFFF"></path>
                                    <path d="M933.788453,64.85699 C931.676927,64.85699 931.342603,68.14269 933.468425,68.14269 C935.57995,68.14269 935.913175,64.85699 933.788453,64.85699" id="Fill-160" fill="#FFFFFF"></path>
                                    <path d="M990.94128,45.06876 C988.829754,45.06876 988.49543,48.35446 990.621252,48.35446 C992.731677,48.35446 993.066002,45.06876 990.94128,45.06876" id="Fill-162" fill="#FFFFFF"></path>
                                    <path d="M1041.25815,75.84511 C1039.12793,75.84511 1039.30059,79.14181 1041.41982,79.14181 C1043.55004,79.14181 1043.37848,75.84511 1041.25815,75.84511" id="Fill-164" fill="#FFFFFF"></path>
                                    <path d="M916.081885,187.97592 C913.952763,187.97592 913.87688,191.27592 916.003802,191.27592 C918.131824,191.27592 918.208806,187.97592 916.081885,187.97592" id="Fill-166" fill="#FFFFFF"></path>
                                    <path d="M1030.50873,190.18175 C1028.39721,190.18175 1028.06288,193.46745 1030.1876,193.46745 C1032.29913,193.46745 1032.63345,190.18175 1030.50873,190.18175" id="Fill-168" fill="#FFFFFF"></path>
                                </g>
                                <g transform="translate(1311.000000, 13.000000)">
                                    <path d="M687.269872,159.40111 C685.14185,159.40111 685.486073,162.68461 687.593199,162.68461 C689.72122,162.68461 689.376998,159.40111 687.269872,159.40111" id="Fill-1" fill="#FFFFFF"></path>
                                    <path d="M759.769857,157.2065 C757.645135,157.2065 758.074039,160.4823 760.173466,160.4823 C762.298189,160.4823 761.868185,157.2065 759.769857,157.2065" id="Fill-3" fill="#FFFFFF"></path>
                                    <path d="M834.547651,139.61288 C832.419629,139.61288 832.763852,142.89638 834.870978,142.89638 C836.998999,142.89638 836.654777,139.61288 834.547651,139.61288" id="Fill-5" fill="#FFFFFF"></path>
                                    <path d="M801.534615,212.17372 C799.409893,212.17372 799.839896,215.44952 801.938224,215.44952 C804.062946,215.44952 803.634043,212.17372 801.534615,212.17372" id="Fill-7" fill="#FFFFFF"></path>
                                    <path d="M770.760895,117.63059 C768.636173,117.63059 769.065077,120.90639 771.164505,120.90639 C773.289227,120.90639 772.859224,117.63059 770.760895,117.63059" id="Fill-9" fill="#FFFFFF"></path>
                                    <path d="M981.786718,172.59737 C979.661996,172.59737 980.0909,175.87317 982.190328,175.87317 C984.31505,175.87317 983.885046,172.59737 981.786718,172.59737" id="Fill-11" fill="#FFFFFF"></path>
                                    <path d="M1006.36894,282.53071 C1004.26511,282.53071 1003.84611,285.80761 1005.96863,285.80761 C1008.07136,285.80761 1008.49036,282.53071 1006.36894,282.53071" id="Fill-13" fill="#FFFFFF"></path>
                                    <path d="M1127.2289,214.36723 C1125.11738,214.36723 1124.78305,217.65293 1126.90887,217.65293 C1129.0193,217.65293 1129.35362,214.36723 1127.2289,214.36723" id="Fill-15" fill="#FFFFFF"></path>
                                    <path d="M1221.70986,128.61563 C1219.59174,128.61563 1219.34429,131.90793 1221.47012,131.90793 C1223.58934,131.90793 1223.83788,128.61563 1221.70986,128.61563" id="Fill-17" fill="#FFFFFF"></path>
                                    <path d="M1303.08408,234.15546 C1300.97256,234.15546 1300.63823,237.44116 1302.76295,237.44116 C1304.87448,237.44116 1305.2088,234.15546 1303.08408,234.15546" id="Fill-19" fill="#FFFFFF"></path>
                                    <g id="Group-23" transform="translate(1329.600989, 124.006300)">
                                        <mask id="mask-10" fill="white">
                                            <use xlink:href="#path-9"></use>
                                        </mask>
                                        <g id="Clip-22"></g>
                                        <path d="M1.93809415,0.20768 C-0.19102704,0.20768 -0.266909975,3.50768 1.86001171,3.50768 C3.98803314,3.50768 4.06501583,0.20768 1.93809415,0.20768" id="Fill-21" fill="#FFFFFF" mask="url(#mask-10)"></path>
                                    </g>
                                    <path d="M1074.4323,34.07195 C1072.31308,34.07195 1072.06564,37.36425 1074.19146,37.36425 C1076.31068,37.36425 1076.55923,34.07195 1074.4323,34.07195" id="Fill-24" fill="#FFFFFF"></path>
                                    <path d="M1089.61835,122.01772 C1087.48813,122.01772 1087.66079,125.31332 1089.78001,125.31332 C1091.91023,125.31332 1091.73867,122.01772 1089.61835,122.01772" id="Fill-26" fill="#FFFFFF"></path>
                                    <path d="M1144.10109,101.79829 C1144.09999,100.89959 1143.52152,100.10099 1142.57573,100.03279 C1141.72782,99.97119 1140.81173,100.65869 1140.81063,101.55849 C1140.80953,102.30539 1140.80843,103.05229 1140.80843,103.79809 C1140.80843,104.69679 1141.44738,105.48219 1142.37667,105.52619 C1143.24218,105.56689 1144.10439,104.85629 1144.10439,103.95649 C1144.10439,103.23709 1144.10219,102.51769 1144.10109,101.79829" id="Fill-28" fill="#FFFFFF"></path>
                                    <path d="M1126.86697,141.81618 C1124.74225,141.81618 1125.17115,145.09088 1127.27058,145.09088 C1129.3942,145.09088 1128.9653,141.81618 1126.86697,141.81618" id="Fill-30" fill="#FFFFFF"></path>
                                    <path d="M1175.58898,155.00276 C1173.47746,155.00276 1173.14313,158.28846 1175.26786,158.28846 C1177.37938,158.28846 1177.71371,155.00276 1175.58898,155.00276" id="Fill-32" fill="#FFFFFF"></path>
                                    <path d="M1091.69534,166.00166 C1089.57062,166.00166 1090.00062,169.27746 1092.09895,169.27746 C1094.22367,169.27746 1093.79477,166.00166 1091.69534,166.00166" id="Fill-34" fill="#FFFFFF"></path>
                                    <path d="M1065.63956,97.83389 C1063.52034,97.83389 1063.27289,101.12619 1065.39981,101.12619 C1067.51794,101.12619 1067.76648,97.83389 1065.63956,97.83389" id="Fill-36" fill="#FFFFFF"></path>
                                    <path d="M1107.48493,86.84841 C1105.3822,86.84841 1104.9632,90.12531 1107.08462,90.12531 C1109.18735,90.12531 1109.60745,86.84841 1107.48493,86.84841" id="Fill-38" fill="#FFFFFF"></path>
                                    <path d="M1122.83209,113.22795 C1120.72056,113.22795 1120.38734,116.51365 1122.51206,116.51365 C1124.62359,116.51365 1124.95791,113.22795 1122.83209,113.22795" id="Fill-40" fill="#FFFFFF"></path>
                                    <path d="M296.354534,122.0274 C294.250707,122.0274 293.832801,125.3043 295.953124,125.3043 C298.056951,125.3043 298.475956,122.0274 296.354534,122.0274" id="Fill-42" fill="#FFFFFF"></path>
                                    <path d="M258.582758,144.01453 C256.459136,144.01453 256.888039,147.29033 258.987467,147.29033 C261.111089,147.29033 260.682186,144.01453 258.582758,144.01453" id="Fill-44" fill="#FFFFFF"></path>
                                    <path d="M225.972012,183.58604 C223.861586,183.58604 223.527262,186.87064 225.651984,186.87064 C227.763509,186.87064 228.096734,183.58604 225.972012,183.58604" id="Fill-46" fill="#FFFFFF"></path>
                                    <path d="M188.643216,141.81563 C186.540489,141.81563 186.121484,145.09253 188.242907,145.09253 C190.345634,145.09253 190.764639,141.81563 188.643216,141.81563" id="Fill-48" fill="#FFFFFF"></path>
                                    <path d="M228.008754,108.82311 C225.877433,108.82311 225.887331,112.12311 228.012053,112.12311 C230.143374,112.12311 230.133476,108.82311 228.008754,108.82311" id="Fill-50" fill="#FFFFFF"></path>
                                    <path d="M256.787082,86.84841 C254.684355,86.84841 254.265349,90.12531 256.386772,90.12531 C258.489499,90.12531 258.908505,86.84841 256.787082,86.84841" id="Fill-52" fill="#FFFFFF"></path>
                                    <path d="M263.341608,122.02311 C261.230083,122.02311 260.896858,125.30771 263.02048,125.30771 C265.132005,125.30771 265.46633,122.02311 263.341608,122.02311" id="Fill-54" fill="#FFFFFF"></path>
                                    <path d="M221.57564,146.20859 C219.465215,146.20859 219.13089,149.49319 221.255612,149.49319 C223.367138,149.49319 223.700363,146.20859 221.57564,146.20859" id="Fill-56" fill="#FFFFFF"></path>
                                    <path d="M127.013626,209.96679 C124.895503,209.96679 124.648058,213.25909 126.77388,213.25909 C128.892004,213.25909 129.140548,209.96679 127.013626,209.96679" id="Fill-58" fill="#FFFFFF"></path>
                                    <path d="M76.4147753,271.52697 C74.2911528,271.52697 74.1283894,274.82477 76.2553111,274.82477 C78.3800333,274.82477 78.5416969,271.52697 76.4147753,271.52697" id="Fill-60" fill="#FFFFFF"></path>
                                    <path d="M182.008738,251.74523 C179.897213,251.74523 179.562889,255.02983 181.687611,255.02983 C183.799136,255.02983 184.133461,251.74523 182.008738,251.74523" id="Fill-62" fill="#FFFFFF"></path>
                                    <path d="M98.4774636,141.81079 C96.3659385,141.81079 96.0327134,145.09649 98.1574356,145.09649 C100.267861,145.09649 100.602186,141.81079 98.4774636,141.81079" id="Fill-64" fill="#FFFFFF"></path>
                                    <path d="M10.2282498,218.76514 C8.10022836,218.76514 8.44445095,222.04974 10.5515771,222.04974 C12.6795985,222.04974 12.3353759,218.76514 10.2282498,218.76514" id="Fill-66" fill="#FFFFFF"></path>
                                    <path d="M300.630042,218.75865 C298.50532,218.75865 298.343656,222.05645 300.470578,222.05645 C302.5953,222.05645 302.756964,218.75865 300.630042,218.75865" id="Fill-68" fill="#FFFFFF"></path>
                                    <path d="M401.705781,185.77746 C399.57776,185.77746 399.501877,189.07746 401.627699,189.07746 C403.75682,189.07746 403.832703,185.77746 401.705781,185.77746" id="Fill-70" fill="#FFFFFF"></path>
                                    <path d="M443.471199,104.42586 C442.589197,104.40606 441.781979,105.13756 441.783078,106.03736 C441.783078,106.75676 441.784178,107.47616 441.784178,108.19556 C441.785278,109.09426 442.423135,109.87966 443.353525,109.92366 C444.219031,109.96436 445.080137,109.25376 445.080137,108.35396 C445.081237,107.60816 445.081237,106.86126 445.082337,106.11546 C445.082337,105.21566 444.385093,104.44786 443.471199,104.42586" id="Fill-72" fill="#FFFFFF"></path>
                                    <path d="M584.11494,119.81618 C581.983619,119.81618 581.993517,123.11728 584.118239,123.11728 C586.24956,123.11728 586.239662,119.81618 584.11494,119.81618" id="Fill-74" fill="#FFFFFF"></path>
                                    <path d="M645.865943,69.25908 C643.763216,69.25908 643.34421,72.53598 645.465633,72.53598 C647.56836,72.53598 647.987366,69.25908 645.865943,69.25908" id="Fill-76" fill="#FFFFFF"></path>
                                    <path d="M542.430134,58.25534 C540.306512,58.25534 540.143748,61.55204 542.27177,61.55204 C544.395392,61.55204 544.558156,58.25534 542.430134,58.25534" id="Fill-78" fill="#FFFFFF"></path>
                                    <path d="M854.331322,271.53346 C852.2033,271.53346 852.547523,274.81806 854.654649,274.81806 C856.78267,274.81806 856.438448,271.53346 854.331322,271.53346" id="Fill-80" fill="#FFFFFF"></path>
                                    <path d="M742.546411,260.53984 C740.434885,260.53984 740.100561,263.82444 742.225283,263.82444 C744.336808,263.82444 744.671133,260.53984 742.546411,260.53984" id="Fill-82" fill="#FFFFFF"></path>
                                    <path d="M777.67625,306.70871 C775.558127,306.70871 775.310682,310.00101 777.436504,310.00101 C779.555728,310.00101 779.803172,306.70871 777.67625,306.70871" id="Fill-84" fill="#FFFFFF"></path>
                                    <path d="M942.297569,273.72862 C940.165149,273.72862 940.432388,277.01982 942.543914,277.01982 C944.676334,277.01982 944.409094,273.72862 942.297569,273.72862" id="Fill-86" fill="#FFFFFF"></path>
                                    <path d="M924.633891,308.91575 C922.509169,308.91575 922.938073,312.19155 925.037501,312.19155 C927.162223,312.19155 926.732219,308.91575 924.633891,308.91575" id="Fill-88" fill="#FFFFFF"></path>
                                    <path d="M962.324065,231.95337 C960.205942,231.95337 959.958497,235.24567 962.084319,235.24567 C964.203543,235.24567 964.450987,231.95337 962.324065,231.95337" id="Fill-90" fill="#FFFFFF"></path>
                                    <path d="M1028.02681,231.95381 C1025.89439,231.95381 1026.16273,235.24501 1028.27315,235.24501 C1030.40667,235.24501 1030.13833,231.95381 1028.02681,231.95381" id="Fill-92" fill="#FFFFFF"></path>
                                    <path d="M1065.47856,264.93027 C1063.34834,264.93027 1063.43632,268.22917 1065.55994,268.22917 C1067.68906,268.22917 1067.60328,264.93027 1065.47856,264.93027" id="Fill-94" fill="#FFFFFF"></path>
                                    <path d="M1128.30292,250.09424 C1127.67386,249.45404 1126.67309,249.33304 1125.97474,249.95454 C1125.48425,250.39014 1125.29839,251.12714 1125.50625,251.74094 C1125.31489,251.74204 1125.12353,251.74094 1124.93328,251.73874 C1124.03368,251.72884 1123.25725,252.40864 1123.22206,253.32494 C1123.18907,254.18514 1123.90941,255.05304 1124.8068,255.03654 C1126.25408,255.01014 1127.86962,255.14764 1129.01776,254.10374 C1130.34186,252.89924 1129.2784,251.08424 1128.30292,250.09424" id="Fill-96" fill="#FFFFFF"></path>
                                    <path d="M1184.0198,234.16085 C1181.89508,234.16085 1182.32398,237.43555 1184.42341,237.43555 C1186.54813,237.43555 1186.11813,234.16085 1184.0198,234.16085" id="Fill-98" fill="#FFFFFF"></path>
                                    <path d="M1232.6204,245.14149 C1230.49128,245.14149 1230.41539,248.44149 1232.54232,248.44149 C1234.67034,248.44149 1234.74732,245.14149 1232.6204,245.14149" id="Fill-100" fill="#FFFFFF"></path>
                                    <path d="M261.06259,278.12323 C258.937868,278.12323 258.776204,281.42103 260.903126,281.42103 C263.027848,281.42103 263.189512,278.12323 261.06259,278.12323" id="Fill-102" fill="#FFFFFF"></path>
                                    <path d="M124.574045,322.10013 C122.444924,322.10013 122.702266,325.39133 124.81709,325.39133 C126.946211,325.39133 126.687769,322.10013 124.574045,322.10013" id="Fill-104" fill="#FFFFFF"></path>
                                    <path d="M36.8069626,363.8701 C34.6789411,363.8701 34.6030582,367.1701 36.7288801,367.1701 C38.8580013,367.1701 38.9338843,363.8701 36.8069626,363.8701" id="Fill-106" fill="#FFFFFF"></path>
                                    <path d="M267.77812,234.15975 C265.674293,234.15975 265.256387,237.43665 267.37671,237.43665 C269.480537,237.43665 269.899543,234.15975 267.77812,234.15975" id="Fill-108" fill="#FFFFFF"></path>
                                    <path d="M322.611679,278.12323 C320.488056,278.12323 320.325293,281.42103 322.452215,281.42103 C324.576937,281.42103 324.7386,278.12323 322.611679,278.12323" id="Fill-110" fill="#FFFFFF"></path>
                                    <path d="M328.050286,335.72715 C327.371738,335.10015 326.354467,335.17935 325.71881,335.81625 L323.520404,338.01515 C322.884747,338.64985 322.968328,339.75425 323.608385,340.34715 C324.286932,340.97415 325.304203,340.89385 325.94096,340.25805 C326.673395,339.52545 327.405831,338.79175 328.139366,338.05915 C328.773923,337.42335 328.691441,336.32005 328.050286,335.72715" id="Fill-112" fill="#FFFFFF"></path>
                                    <path d="M287.359986,374.86306 C285.228666,374.86306 285.238563,378.16416 287.362186,378.16416 C289.494606,378.16416 289.484708,374.86306 287.359986,374.86306" id="Fill-114" fill="#FFFFFF"></path>
                                    <path d="M65.5047888,458.42115 C63.3932636,458.42115 63.0600386,461.70575 65.183661,461.70575 C67.2951862,461.70575 67.629511,458.42115 65.5047888,458.42115" id="Fill-116" fill="#FFFFFF"></path>
                                    <path d="M735.589265,58.26612 C733.464543,58.26612 733.894546,61.54192 735.992874,61.54192 C738.117597,61.54192 737.688693,58.26612 735.589265,58.26612" id="Fill-118" fill="#FFFFFF"></path>
                                    <path d="M883.190152,89.03928 C881.070928,89.03928 880.823484,92.33158 882.949306,92.33158 C885.068529,92.33158 885.317073,89.03928 883.190152,89.03928" id="Fill-120" fill="#FFFFFF"></path>
                                    <path d="M988.621461,115.41937 C986.49344,115.41937 986.417557,118.71937 988.544479,118.71937 C990.6725,118.71937 990.748383,115.41937 988.621461,115.41937" id="Fill-122" fill="#FFFFFF"></path>
                                    <path d="M98.5177146,58.26557 C96.4138877,58.26557 95.9959817,61.54247 98.1163049,61.54247 C100.220132,61.54247 100.639138,58.26557 98.5177146,58.26557" id="Fill-124" fill="#FFFFFF"></path>
                                    <path d="M21.5007148,108.8274 C19.3825911,108.8274 19.134047,112.1197 21.2609687,112.1197 C23.3790923,112.1197 23.6276364,108.8274 21.5007148,108.8274" id="Fill-126" fill="#FFFFFF"></path>
                                    <g id="Group-130" transform="translate(0.000000, 51.406300)">
                                        <mask id="mask-12" fill="white">
                                            <use xlink:href="#path-11"></use>
                                        </mask>
                                        <g id="Clip-129"></g>
                                        <path d="M1.71693388,0.25553 C-0.401189777,0.25553 -0.649733883,3.54783 1.4771878,3.54783 C3.59531146,3.54783 3.84385556,0.25553 1.71693388,0.25553" id="Fill-128" fill="#FFFFFF" mask="url(#mask-12)"></path>
                                    </g>
                                    <path d="M186.283697,20.87635 C184.154576,20.87635 184.079793,24.17635 186.205615,24.17635 C188.333636,24.17635 188.410619,20.87635 186.283697,20.87635" id="Fill-131" fill="#FFFFFF"></path>
                                    <path d="M1157.84151,31.86931 C1155.71019,31.86931 1155.71898,35.16931 1157.84481,35.16931 C1159.97503,35.16931 1159.96623,31.86931 1157.84151,31.86931" id="Fill-133" fill="#FFFFFF"></path>
                                    <path d="M1263.47583,47.26447 C1261.35771,47.26447 1261.11026,50.55677 1263.23608,50.55677 C1265.35421,50.55677 1265.60275,47.26447 1263.47583,47.26447" id="Fill-135" fill="#FFFFFF"></path>
                                    <path d="M815.005485,7.68548 C812.880763,7.68548 812.7191,10.98328 814.846021,10.98328 C816.970743,10.98328 817.133507,7.68548 815.005485,7.68548" id="Fill-137" fill="#FFFFFF"></path>
                                    <path d="M628.119014,5.48548 C625.990992,5.48548 625.915109,8.78548 628.040931,8.78548 C630.170053,8.78548 630.245936,5.48548 628.119014,5.48548" id="Fill-139" fill="#FFFFFF"></path>
                                    <g id="Group-143" transform="translate(403.609233, 0.806300)">
                                        <mask id="mask-14" fill="white">
                                            <use xlink:href="#path-13"></use>
                                        </mask>
                                        <g id="Clip-142"></g>
                                        <path d="M2.65458302,0.29359 C0.550756142,0.29359 0.132850124,3.57049 2.25427304,3.57049 C4.35700016,3.57049 4.77600594,0.29359 2.65458302,0.29359" id="Fill-141" fill="#FFFFFF" mask="url(#mask-14)"></path>
                                    </g>
                                    <path d="M376.925934,53.10558 C376.806061,52.12988 375.985646,51.67008 375.087148,51.67008 C374.487782,51.67008 373.889517,51.67118 373.291251,51.66898 C372.392754,51.66678 371.571238,52.13648 371.452465,53.10668 C371.354587,53.91518 371.989144,54.94808 372.889842,54.94588 C373.757547,54.94368 374.624152,54.94478 375.490757,54.94478 C376.392554,54.94478 377.026012,53.91518 376.925934,53.10558" id="Fill-144" fill="#FFFFFF"></path>
                                    <path d="M476.565286,12.08867 C474.454861,12.08867 474.120536,15.37437 476.245258,15.37437 C478.356784,15.37437 478.690009,12.08867 476.565286,12.08867" id="Fill-146" fill="#FFFFFF"></path>
                                    <path d="M615.011062,51.66183 C612.892938,51.66183 612.644394,54.95413 614.771316,54.95413 C616.889439,54.95413 617.137983,51.66183 615.011062,51.66183" id="Fill-148" fill="#FFFFFF"></path>
                                    <path d="M694.186326,34.0758 C692.074801,34.0758 691.740476,37.3604 693.865198,37.3604 C695.976723,37.3604 696.311048,34.0758 694.186326,34.0758" id="Fill-150" fill="#FFFFFF"></path>
                                    <path d="M683.074975,82.43972 C680.950253,82.43972 680.864472,85.73862 682.994693,85.73862 C685.118315,85.73862 685.205196,82.43972 683.074975,82.43972" id="Fill-152" fill="#FFFFFF"></path>
                                    <path d="M819.361606,67.04841 C817.232485,67.04841 817.156602,70.34841 819.283523,70.34841 C821.411545,70.34841 821.488527,67.04841 819.361606,67.04841" id="Fill-154" fill="#FFFFFF"></path>
                                    <path d="M880.991746,25.27734 C878.872523,25.27734 878.625078,28.56964 880.752,28.56964 C882.870123,28.56964 883.118668,25.27734 880.991746,25.27734" id="Fill-156" fill="#FFFFFF"></path>
                                    <path d="M922.435486,1.10044 C920.310764,1.10044 920.739667,4.37624 922.839095,4.37624 C924.963817,4.37624 924.533814,1.10044 922.435486,1.10044" id="Fill-158" fill="#FFFFFF"></path>
                                    <path d="M933.788453,64.85699 C931.676927,64.85699 931.342603,68.14269 933.468425,68.14269 C935.57995,68.14269 935.913175,64.85699 933.788453,64.85699" id="Fill-160" fill="#FFFFFF"></path>
                                    <path d="M990.94128,45.06876 C988.829754,45.06876 988.49543,48.35446 990.621252,48.35446 C992.731677,48.35446 993.066002,45.06876 990.94128,45.06876" id="Fill-162" fill="#FFFFFF"></path>
                                    <path d="M1041.25815,75.84511 C1039.12793,75.84511 1039.30059,79.14181 1041.41982,79.14181 C1043.55004,79.14181 1043.37848,75.84511 1041.25815,75.84511" id="Fill-164" fill="#FFFFFF"></path>
                                    <path d="M916.081885,187.97592 C913.952763,187.97592 913.87688,191.27592 916.003802,191.27592 C918.131824,191.27592 918.208806,187.97592 916.081885,187.97592" id="Fill-166" fill="#FFFFFF"></path>
                                    <path d="M1030.50873,190.18175 C1028.39721,190.18175 1028.06288,193.46745 1030.1876,193.46745 C1032.29913,193.46745 1032.63345,190.18175 1030.50873,190.18175" id="Fill-168" fill="#FFFFFF"></path>
                                </g>
                            </g>
                        </g>
                    </g>
                </g>
            </g>
        </g>
    </g>
</svg>