<svg height="27" viewBox="0 0 59 27" width="59" xmlns="http://www.w3.org/2000/svg"><g fill="none"><path d="m28.315 18.313a.895.895 0 0 1 -.165-.335c-.338-1.184-1.267-3.037-1.655-4.076l-2.111-5.63c-.33-.841-1.858-2.479-1.237-3.76 1.051-2.161 3.006-3.214 4.851-4.116 1.719-.84 3.56-.18 5.219.484 1.406.564 2.956 1.264 3.53 2.888.52 1.43.14 3.165-.245 4.754-.743 3.082-3.378 7.436-4.843 9.43-.908 1.224-2.428 1.413-3.319.37z" fill="#e15f3d"/><path d="m39.244 19.54a.895.895 0 0 1 .12-.353c.599-1.076 1.252-3.043 1.712-4.053l2.489-5.474c.361-.827.439-3.066 1.783-3.533 2.272-.785 4.398-.147 6.341.52 1.81.62 2.645 2.39 3.348 4.033.596 1.392 1.197 2.983.454 4.538-.644 1.379-2.14 2.336-3.535 3.188-2.704 1.654-7.646 2.87-10.092 3.244-1.507.223-2.716-.718-2.608-2.086z" fill="#22b289"/><path d="m19.423 19.54a.895.895 0 0 0 -.12-.353c-.598-1.076-1.252-3.043-1.712-4.053l-2.488-5.474c-.362-.827-.44-3.066-1.784-3.533-2.272-.785-4.398-.147-6.341.52-1.81.62-2.645 2.39-3.348 4.033-.596 1.392-1.196 2.983-.454 4.538.645 1.379 2.14 2.336 3.535 3.188 2.705 1.654 7.646 2.87 10.092 3.244 1.508.223 2.716-.718 2.609-2.086z" fill="#f7b71b"/></g></svg>