<?xml version="1.0" standalone="no"?>
<!DOCTYPE svg PUBLIC "-//W3C//DTD SVG 20010904//EN"
 "http://www.w3.org/TR/2001/REC-SVG-20010904/DTD/svg10.dtd">
<svg version="1.0" xmlns="http://www.w3.org/2000/svg"
 width="16.000000pt" height="16.000000pt" viewBox="0 0 16.000000 16.000000"
 preserveAspectRatio="xMidYMid meet">
<metadata>
Created by potrace 1.11, written by Peter Selinger 2001-2013
</metadata>
<g transform="translate(0.000000,16.000000) scale(0.005776,-0.005776)"
fill="#000000" stroke="none">
<path d="M1318 2765 c-2 -1 -27 -5 -57 -8 -30 -3 -58 -10 -62 -14 -17 -17 -15
-59 6 -158 24 -115 28 -119 134 -129 36 -4 68 -9 71 -11 4 -3 34 -6 68 -9 74
-5 79 -1 122 109 17 44 42 99 55 122 21 39 22 43 6 56 -17 15 -47 22 -141 33
-61 7 -198 13 -202 9z"/>
<path d="M983 2671 c-90 -49 -200 -121 -235 -155 -54 -52 -43 -118 29 -173 49
-37 143 -42 215 -11 96 41 159 148 141 240 -10 52 -51 138 -65 138 -7 0 -45
-18 -85 -39z"/>
<path d="M1710 2643 c-35 -51 -35 -92 -2 -129 52 -56 54 -64 27 -110 -14 -24
-25 -49 -25 -57 0 -21 67 -79 121 -105 43 -21 48 -21 102 -7 80 21 177 67 209
99 23 24 25 31 17 54 -17 46 -58 91 -138 154 -69 56 -236 148 -267 148 -7 0
-27 -21 -44 -47z"/>
<path d="M577 2343 c-86 -118 -180 -297 -202 -385 -9 -35 25 -58 94 -63 85 -6
117 8 151 68 16 29 35 68 41 87 6 19 34 65 60 101 27 37 49 77 49 90 0 15 -22
43 -67 86 -37 35 -73 63 -79 63 -7 0 -28 -21 -47 -47z"/>
<path d="M1365 2338 c-85 -43 -115 -95 -81 -143 7 -11 34 -72 60 -135 25 -63
53 -120 62 -127 29 -21 65 9 116 93 72 123 93 226 55 272 -16 20 -94 52 -137
57 -21 2 -50 -5 -75 -17z"/>
<path d="M2135 2272 c-121 -83 -139 -153 -67 -258 71 -103 87 -117 135 -118
35 -1 56 7 110 43 109 71 109 76 1 249 -60 97 -88 132 -103 132 -3 0 -37 -22
-76 -48z"/>
<path d="M951 2227 c-82 -71 -111 -110 -111 -150 0 -68 76 -119 233 -158 74
-18 92 -20 112 -9 66 35 65 194 -3 293 -34 50 -71 75 -119 81 -38 5 -45 2
-112 -57z"/>
<path d="M1725 2106 c-63 -29 -127 -89 -119 -110 6 -16 34 -28 69 -32 61 -5
124 -64 155 -144 25 -64 39 -69 92 -32 70 48 85 82 79 178 -2 35 -61 113 -105
139 -54 32 -106 32 -171 1z"/>
<path d="M694 1890 c-25 -10 -42 -52 -50 -126 -10 -78 -1 -98 56 -133 70 -43
129 -58 166 -43 41 17 172 142 184 175 8 24 7 31 -14 50 -57 53 -280 103 -342
77z"/>
<path d="M1603 1869 c-35 -22 -79 -102 -87 -159 -20 -149 -27 -234 -22 -264 6
-33 40 -66 69 -66 19 0 61 48 87 100 13 25 42 70 64 100 56 74 72 100 80 133
15 60 -74 177 -134 177 -14 0 -39 -10 -57 -21z"/>
<path d="M2380 1854 c-65 -17 -136 -57 -150 -84 -19 -36 -10 -76 30 -139 38
-59 45 -75 54 -134 8 -47 16 -65 33 -71 24 -10 104 20 146 55 34 28 37 34 37
84 0 45 -9 107 -34 225 -11 48 -29 80 -45 79 -9 0 -41 -7 -71 -15z"/>
<path d="M306 1779 c-41 -116 -47 -162 -24 -200 l19 -31 90 6 c131 10 138 14
165 105 26 86 26 118 1 145 -22 25 -34 28 -163 42 l-61 6 -27 -73z"/>
<path d="M1274 1806 c-57 -18 -100 -45 -115 -72 -10 -19 -8 -29 16 -71 44 -74
103 -151 131 -170 32 -20 68 -10 97 28 25 35 28 194 4 252 -9 20 -17 37 -19
37 -59 8 -80 7 -114 -4z"/>
<path d="M2027 1719 c-56 -29 -70 -58 -64 -128 6 -68 41 -158 71 -183 40 -33
144 -11 190 40 48 55 -43 249 -132 280 -22 7 -36 5 -65 -9z"/>
<path d="M1015 1589 c-29 -14 -62 -66 -76 -120 -11 -40 -10 -53 5 -92 29 -76
102 -132 182 -140 52 -5 88 8 119 45 52 61 25 144 -81 251 -70 70 -98 81 -149
56z"/>
<path d="M1794 1529 c-22 -8 -97 -111 -119 -163 -21 -50 -19 -83 9 -111 23
-23 25 -23 81 -9 114 30 176 94 170 176 -7 85 -70 134 -141 107z"/>
<path d="M705 1503 c-72 -14 -105 -56 -105 -133 0 -111 92 -170 189 -121 50
26 61 40 70 99 8 55 -5 112 -33 140 -15 15 -80 23 -121 15z"/>
<path d="M313 1480 c-63 -28 -86 -70 -79 -145 6 -77 43 -194 63 -202 24 -9
158 37 191 66 43 37 50 58 46 134 -3 81 -25 125 -74 149 -45 23 -94 22 -147
-2z"/>
<path d="M2420 1350 c-57 -10 -115 -34 -155 -65 -39 -29 -59 -91 -72 -222 -10
-113 26 -152 149 -161 73 -5 122 9 138 38 9 16 12 28 24 100 14 81 16 99 22
188 5 80 3 97 -12 113 -18 20 -24 21 -94 9z"/>
<path d="M1385 1282 c-48 -10 -158 -146 -169 -208 -14 -78 49 -145 154 -164
99 -18 137 -15 176 15 66 50 63 152 -8 271 -41 68 -94 99 -153 86z"/>
<path d="M1816 1188 c-131 -17 -198 -108 -131 -178 44 -46 328 -180 381 -180
56 0 65 14 63 98 -3 130 -44 218 -114 248 -41 17 -123 22 -199 12z"/>
<path d="M830 1166 c-63 -14 -107 -35 -134 -65 -37 -41 7 -159 78 -206 61 -40
120 -32 214 28 85 55 115 96 108 146 -14 93 -117 130 -266 97z"/>
<path d="M423 1118 c-37 -12 -77 -34 -97 -54 l-34 -33 12 -48 c25 -90 86 -238
107 -255 18 -16 24 -16 47 -4 15 8 43 29 62 46 19 18 49 43 67 57 30 23 58 75
46 87 -3 3 -14 46 -24 97 -10 50 -26 100 -35 110 -22 25 -72 24 -151 -3z"/>
<path d="M1633 882 c-33 -5 -70 -45 -84 -92 l-13 -43 72 -64 c40 -36 91 -91
113 -123 77 -111 142 -105 235 22 19 26 37 57 39 69 7 36 -43 114 -92 142
-124 72 -208 100 -270 89z"/>
<path d="M1040 863 c-66 -18 -148 -63 -176 -96 -70 -83 31 -246 181 -293 67
-21 78 -14 100 64 12 41 29 70 61 102 52 54 67 94 49 136 -11 27 -75 92 -93
95 -38 6 -85 3 -122 -8z"/>
<path d="M2224 806 c-38 -17 -98 -105 -164 -241 -59 -119 -66 -159 -42 -217
30 -75 36 -81 68 -74 47 11 76 42 180 201 104 158 164 266 164 297 0 24 -38
38 -115 44 -39 3 -71 -1 -91 -10z"/>
<path d="M658 785 c-80 -27 -188 -140 -188 -195 0 -14 14 -43 31 -65 44 -59
130 -145 145 -145 15 0 79 73 101 114 20 39 26 231 7 267 -16 32 -50 40 -96
24z"/>
<path d="M1390 713 c-21 -8 -89 -78 -133 -137 -66 -88 -40 -167 73 -215 103
-44 197 -36 255 22 65 65 54 131 -40 249 -59 74 -107 99 -155 81z"/>
<path d="M840 456 c-19 -7 -64 -40 -99 -74 -60 -59 -63 -63 -49 -85 19 -28
201 -172 253 -199 97 -51 119 -44 119 39 -1 134 -18 191 -76 266 -46 57 -91
74 -148 53z"/>
<path d="M1823 385 c-58 -25 -187 -107 -225 -144 -37 -34 -38 -38 -38 -102 0
-86 13 -101 84 -98 94 5 166 36 298 132 76 54 76 52 17 147 -21 34 -44 57 -65
66 -39 16 -31 17 -71 -1z"/>
<path d="M1173 278 c-19 -5 -35 -17 -39 -31 -13 -39 -11 -167 4 -188 15 -22
62 -36 157 -46 115 -12 154 -9 175 13 25 25 35 97 21 150 -11 40 -12 41 -93
67 -126 40 -177 48 -225 35z"/>
</g>
</svg>
